<svg width="672" height="780" viewBox="0 0 672 780" fill="none" xmlns="http://www.w3.org/2000/svg">
<g clip-path="url(#clip0_384_9799)">
<path d="M528 208.319V128.389L207.944 0L144 32.4718L144.338 281.256L383.789 377.672L255.902 432.125V390.016L197.188 366.182L144.338 391.16L144.338 543.528L208 576L528 431.625V329.214L240 213.939V144L468.5 235.296L528 208.319Z" fill="#1B1B1B"/>
</g>
<path d="M59.1791 702.726H73.034C73.034 702.726 73.034 672.71 39.8733 672.125C39.8733 672.125 10.9371 669.066 5.03166 693.185C5.03166 693.185 1.8064 708.62 10.3918 716.135C18.01 722.59 27.3187 726.77 37.2385 728.195C45.4151 729.545 64.8121 735.125 62.8588 751.911C60.9055 768.696 15.3434 774.997 14.0715 740.841H0.034956C0.034956 740.841 -2.19087 771.485 28.8802 777.967C59.9514 784.446 77.7582 766.086 76.3046 745.161C74.8511 724.235 53.2283 718.521 37.5566 715.145C21.8847 711.772 17.0696 704.254 18.4322 696.426C19.7951 688.594 30.016 685.356 38.1926 685.356C43.2663 685.057 48.2643 686.687 52.165 689.915C56.0655 693.144 58.5746 697.727 59.1791 702.726Z" fill="#1B1B1B"/>
<path d="M93.4502 703.852H107.396V764.468H140.511V703.852H154.82V779.138H93.4502V703.852Z" fill="#1B1B1B"/>
<path d="M224.641 705.341C222.245 704.778 219.787 704.508 217.328 704.532H208.243C200.905 704.293 193.76 706.872 188.299 711.731V672.671H174.672V779.232H186.392L188.209 769.331C192.98 774.344 199.45 777.435 206.378 778.017H219.28C219.28 778.017 239.63 779.321 245.173 752.502C245.627 750.097 245.856 747.658 245.853 745.212V736.212C245.873 731.409 244.978 726.647 243.218 722.172C241.753 718.072 239.293 714.392 236.054 711.458C232.812 708.521 228.892 706.42 224.641 705.341ZM230.864 748.767C230.864 752.896 229.206 756.856 226.259 759.776C223.312 762.695 219.314 764.337 215.146 764.337H204.788C200.62 764.337 196.622 762.695 193.675 759.776C190.728 756.856 189.072 752.896 189.072 748.767V733.107C189.072 728.977 190.728 725.017 193.675 722.097C196.622 719.178 200.62 717.536 204.788 717.536H215.146C219.314 717.536 223.312 719.178 226.259 722.097C229.206 725.017 230.864 728.977 230.864 733.107V748.767Z" fill="#1B1B1B"/>
<path d="M248.076 672.671H262.475L284.417 764.337H287.006L304.632 672.671H330.069L348.376 764.697H350.828L373.223 673.618H387.442L362.095 779.232H336.746L318.668 687.522H316.123L298.999 779.232H273.696L248.076 672.671Z" fill="#1B1B1B"/>
<path d="M452.332 764.398V704.187H397.456V717.688H438.34V731.187H416.991C416.991 731.187 396.093 730.783 391.552 744.688C387.008 758.592 391.552 775.061 411.268 778.573C430.981 782.084 438.521 770.292 438.521 770.292L440.156 778.573H462.051V764.398H452.332ZM438.023 753.823C438.023 753.823 433.206 769.662 413.856 765.702C412.23 765.405 410.69 764.755 409.349 763.799C408.006 762.842 406.894 761.604 406.09 760.172C405.288 758.74 404.813 757.148 404.703 755.516C404.593 753.881 404.849 752.241 405.451 750.718C405.451 750.718 406.95 745.632 416.491 743.876H438.023V753.823Z" fill="#1B1B1B"/>
<path d="M493.235 674.012H479.606V779.358H493.235V674.012Z" fill="#1B1B1B"/>
<path d="M522.418 674.012H508.789V779.358H522.418V674.012Z" fill="#1B1B1B"/>
<path d="M576.176 705.248C576.176 705.248 545.788 700.027 537.156 727.747C537.156 727.747 532.205 749.437 540.108 764.064C543.436 769.292 548.184 773.484 553.81 776.159C559.434 778.833 565.709 779.881 571.907 779.183C594.846 777.519 602.751 765.684 602.751 756.684H588.259C588.259 756.684 588.259 765.232 576.132 765.368C564.002 765.503 548.877 766.672 549.33 748.582H604.93C604.93 748.582 610.201 708.757 576.176 705.248ZM549.739 735.487C549.15 728.694 556.007 716.453 573.27 717.487C578.089 717.487 582.711 719.385 586.119 722.761C589.524 726.136 591.44 730.715 591.44 735.487H549.739Z" fill="#1B1B1B"/>
<path d="M626.984 673.006H640.747V704.418H666.593V718.141H640.883V764.626H672V779.296H626.984V718.458H614.311V704.418H627.164L626.984 673.006Z" fill="#1B1B1B"/>
<defs>
<clipPath id="clip0_384_9799">
<rect width="384" height="576" fill="white" transform="translate(144)"/>
</clipPath>
</defs>
</svg>
