<svg width="700" height="700" viewBox="0 0 700 700" fill="none" xmlns="http://www.w3.org/2000/svg">
<g clip-path="url(#clip0_34_548)">
<rect x="110" y="110" width="480" height="480" rx="80" fill="url(#paint0_linear_34_548)"/>
<path d="M460 170C487.614 170 510 192.386 510 220V260H530V240H550V220H570V280H560V300H550V310H510V530H490V550H470V510H430V530H410V550H370V510H330V530H310V550H270V510H230V530H210V550H190V310H150V300H140V280H130V220H150V240H170V260H190V220C190 192.386 212.386 170 240 170H460Z" fill="black"/>
<path d="M330 380C335.35 380 339.719 384.202 339.987 389.485L340.013 390.515C340.281 395.798 344.65 400 350 400H370C375.523 400 380 404.477 380 410C380 415.523 375.523 420 370 420H350C333.431 420 320 406.569 320 390C320 384.477 324.477 380 330 380ZM290 260C312.091 260 330 277.909 330 300V320C330 342.091 312.091 360 290 360C267.909 360 250 342.091 250 320V300C250 277.909 267.909 260 290 260ZM420 280C436.569 280 450 293.431 450 310V330C450 346.569 436.569 360 420 360C403.431 360 390 346.569 390 330V310C390 293.431 403.431 280 420 280Z" fill="white"/>
</g>
<defs>
<linearGradient id="paint0_linear_34_548" x1="175.152" y1="110" x2="626.432" y2="458.432" gradientUnits="userSpaceOnUse">
<stop stop-color="#29E7E2"/>
<stop offset="1" stop-color="#CDFA49"/>
</linearGradient>
<clipPath id="clip0_34_548">
<rect width="480" height="480" fill="white" transform="translate(110 110)"/>
</clipPath>
</defs>
</svg>
