<svg width="450" height="555" viewBox="0 0 450 555" fill="none" xmlns="http://www.w3.org/2000/svg">
<path d="M85.8164 454.858V377.769H102.324V412.226C106.221 410.59 109.851 408.527 113.214 406.035C116.653 403.465 119.71 400.623 122.384 397.509C125.059 394.394 127.352 391.162 129.262 387.814C131.173 384.466 132.548 381.117 133.389 377.769H152.303C151.234 381.585 149.59 385.4 147.374 389.216C145.234 392.953 142.674 396.496 139.694 399.845C136.713 403.193 133.542 406.191 130.179 408.838C126.893 411.408 123.569 413.432 120.206 414.912V416.664C123.722 416.664 126.855 417.092 129.606 417.949C132.434 418.727 134.917 420.012 137.057 421.803C139.274 423.516 141.222 425.658 142.904 428.227C144.585 430.797 146.075 433.873 147.374 437.455L153.45 454.858H134.765L130.752 440.842C129.683 437.026 128.269 433.99 126.511 431.731C124.753 429.395 122.499 427.721 119.748 426.709C116.997 425.619 113.405 425.074 108.972 425.074H102.324V454.858H85.8164Z" fill="white"/>
<path d="M198.857 456.493C193.355 456.493 188.425 455.637 184.069 453.924C179.713 452.133 175.969 449.563 172.835 446.215C169.778 442.789 167.409 438.623 165.728 433.717C164.123 428.734 163.321 423.049 163.321 416.664C163.321 407.553 164.887 400.039 168.021 394.121C171.154 388.125 175.434 383.648 180.86 380.689C186.362 377.652 192.552 376.134 199.43 376.134C204.78 376.134 209.632 377.029 213.988 378.82C218.344 380.533 222.051 383.103 225.108 386.529C228.241 389.877 230.648 394.082 232.33 399.144C234.011 404.127 234.852 409.851 234.852 416.314C234.852 422.932 234.011 428.734 232.33 433.717C230.648 438.701 228.203 442.905 224.993 446.332C221.86 449.68 218.077 452.211 213.645 453.924C209.212 455.637 204.283 456.493 198.857 456.493ZM199.315 443.061C203.366 443.061 206.767 442.049 209.518 440.024C212.269 438 214.371 435.08 215.823 431.264C217.275 427.449 218.001 422.777 218.001 417.248C218.001 411.486 217.236 406.58 215.708 402.531C214.256 398.482 212.116 395.406 209.288 393.304C206.461 391.123 203.022 390.033 198.972 390.033C194.998 390.033 191.597 391.084 188.769 393.187C186.018 395.211 183.878 398.17 182.35 402.064C180.898 405.957 180.172 410.785 180.172 416.547C180.172 420.752 180.592 424.529 181.433 427.877C182.35 431.147 183.611 433.912 185.216 436.17C186.82 438.428 188.807 440.141 191.176 441.309C193.546 442.477 196.259 443.061 199.315 443.061Z" fill="white"/>
<path d="M252.01 454.858V377.769H273.561L307.836 432.315H309.097L308.065 377.769H324.114V454.858H304.626L268.402 397.742H267.141L268.173 454.858H252.01Z" fill="white"/>
<path d="M346.397 454.858V377.769H363.248V454.858H346.397Z" fill="white"/>
<path d="M96.5109 502.463C94.7164 502.463 93.1394 502.273 91.7799 501.894C90.4477 501.515 89.3193 500.96 88.3949 500.229C87.4976 499.472 86.8315 498.551 86.3964 497.468C85.9614 496.386 85.7711 495.127 85.8255 493.692L89.2105 492.962C89.1018 494.369 89.3329 495.547 89.9039 496.494C90.4749 497.441 91.3449 498.159 92.5141 498.646C93.6832 499.106 95.0563 499.336 96.6333 499.336C98.1559 499.336 99.4474 499.147 100.508 498.768C101.568 498.389 102.357 497.861 102.873 497.184C103.417 496.508 103.689 495.736 103.689 494.87C103.689 493.895 103.376 493.124 102.751 492.556C102.126 491.987 101.283 491.554 100.222 491.256C99.1891 490.931 98.0335 490.634 96.7556 490.363C95.5049 490.092 94.2542 489.781 93.0035 489.429C91.7528 489.077 90.6244 488.631 89.6184 488.089C88.6396 487.521 87.8375 486.79 87.2121 485.897C86.614 484.976 86.3149 483.812 86.3149 482.405C86.3149 480.808 86.7091 479.427 87.4976 478.263C88.3133 477.099 89.4553 476.206 90.9235 475.584C92.3917 474.934 94.1182 474.609 96.1031 474.609C98.0607 474.609 99.8008 474.92 101.323 475.543C102.873 476.166 104.097 477.086 104.994 478.304C105.891 479.495 106.367 480.97 106.421 482.73L102.914 483.582C102.914 482.608 102.737 481.755 102.384 481.024C102.058 480.266 101.595 479.657 100.997 479.197C100.399 478.71 99.6785 478.345 98.8356 478.101C97.9927 477.83 97.0683 477.695 96.0623 477.695C94.8388 477.695 93.7648 477.884 92.8403 478.263C91.9159 478.642 91.1954 479.157 90.6788 479.806C90.1622 480.456 89.9039 481.227 89.9039 482.121C89.9039 483.176 90.2709 484.015 91.005 484.638C91.7664 485.234 92.7452 485.707 93.9415 486.059C95.1378 486.411 96.4157 486.736 97.7752 487.034C98.9444 487.277 100.086 487.575 101.201 487.927C102.343 488.252 103.376 488.698 104.301 489.267C105.225 489.808 105.959 490.525 106.503 491.419C107.047 492.312 107.319 493.449 107.319 494.829C107.319 496.372 106.911 497.712 106.095 498.849C105.307 499.986 104.11 500.879 102.506 501.529C100.902 502.151 98.9036 502.463 96.5109 502.463Z" fill="white"/>
<path d="M156.915 501.935V475.137H160.667V501.935H156.915ZM148.717 478.385V475.137H168.865V478.385H148.717Z" fill="white"/>
<path d="M222.111 502.463C220.153 502.463 218.426 502.138 216.931 501.488C215.463 500.839 214.212 499.905 213.179 498.687C212.173 497.468 211.412 496.02 210.895 494.342C210.378 492.637 210.12 490.728 210.12 488.617C210.12 485.531 210.637 482.96 211.67 480.903C212.703 478.818 214.131 477.248 215.952 476.193C217.774 475.137 219.84 474.609 222.151 474.609C223.973 474.609 225.618 474.92 227.086 475.543C228.554 476.166 229.805 477.086 230.838 478.304C231.899 479.522 232.714 481.011 233.285 482.77C233.856 484.503 234.142 486.479 234.142 488.698C234.142 490.783 233.87 492.677 233.326 494.383C232.81 496.061 232.035 497.509 231.002 498.727C229.996 499.918 228.745 500.839 227.249 501.488C225.781 502.138 224.068 502.463 222.111 502.463ZM222.151 499.255C223.892 499.255 225.36 498.849 226.556 498.037C227.78 497.198 228.704 496.007 229.329 494.464C229.982 492.894 230.308 490.999 230.308 488.779C230.308 486.479 229.982 484.53 229.329 482.933C228.677 481.309 227.739 480.063 226.515 479.197C225.292 478.331 223.81 477.898 222.07 477.898C220.411 477.898 218.97 478.318 217.747 479.157C216.523 479.996 215.585 481.214 214.933 482.811C214.28 484.408 213.954 486.37 213.954 488.698C213.954 490.377 214.131 491.879 214.484 493.205C214.865 494.504 215.395 495.614 216.075 496.535C216.781 497.428 217.638 498.105 218.644 498.565C219.677 499.025 220.846 499.255 222.151 499.255Z" fill="white"/>
<path d="M278.918 501.935V475.137H288.299C289.658 475.137 290.895 475.245 292.01 475.462C293.152 475.678 294.158 476.003 295.028 476.436C295.925 476.869 296.673 477.397 297.271 478.02C297.897 478.642 298.359 479.373 298.658 480.212C298.984 481.024 299.147 481.931 299.147 482.933C299.147 483.88 298.998 484.746 298.699 485.531C298.427 486.316 298.005 487.007 297.434 487.602C296.863 488.198 296.156 488.685 295.314 489.064C294.471 489.416 293.492 489.659 292.377 489.795V490.322C293.356 490.431 294.212 490.688 294.947 491.094C295.681 491.5 296.306 492.095 296.823 492.88C297.339 493.638 297.788 494.653 298.168 495.926L299.881 501.935H295.844L294.457 496.453C294.212 495.344 293.791 494.45 293.193 493.774C292.622 493.097 291.901 492.596 291.031 492.271C290.161 491.947 289.142 491.784 287.972 491.784H282.671V501.935H278.918ZM282.671 488.739H287.972C290.392 488.739 292.214 488.306 293.438 487.44C294.688 486.573 295.314 485.247 295.314 483.461C295.314 481.674 294.715 480.361 293.519 479.522C292.35 478.656 290.528 478.223 288.054 478.223H282.671V488.739Z" fill="white"/>
<path d="M350.075 501.935V493.286L340.654 475.137H345.018L351.87 489.632H352.074L358.885 475.137H363.248L353.827 493.246V501.935H350.075Z" fill="white"/>
<path fill-rule="evenodd" clip-rule="evenodd" d="M136.115 71.7925C128.257 70.3699 121.029 76.4073 121.029 84.3923V252.17C121.029 260.475 128.813 266.583 136.88 264.607L213.878 245.745V285.663C213.878 291.595 217.711 296.847 223.36 298.656L311.628 326.923C320.432 329.743 329.432 323.175 329.432 313.93L329.432 165.374C329.432 156.13 320.432 149.562 311.628 152.381L273.51 164.589V107.364C273.51 101.172 269.079 95.8671 262.986 94.764L136.115 71.7925ZM273.51 173.016V164.589L223.36 180.649C217.711 182.458 213.878 187.71 213.878 193.642L213.878 245.745L221.903 243.779V285.663C221.903 288.105 223.481 290.268 225.807 291.013L314.076 319.28C317.701 320.441 321.407 317.737 321.407 313.93L321.407 165.374C321.407 161.568 317.701 158.863 314.076 160.024L273.51 173.016ZM273.51 173.016V221.091C273.51 226.989 269.48 232.125 263.752 233.528L221.903 243.779L221.903 193.642C221.903 191.199 223.481 189.037 225.808 188.292L273.51 173.016Z" fill="#6F60F1"/>
</svg>
