<svg width="450" height="555" viewBox="0 0 450 555" fill="none" xmlns="http://www.w3.org/2000/svg">
<path d="M85.5901 454.858V377.769H102.097V412.226C105.995 410.59 109.625 408.527 112.987 406.035C116.426 403.465 119.483 400.623 122.158 397.509C124.833 394.394 127.125 391.162 129.036 387.814C130.946 384.466 132.322 381.117 133.163 377.769H152.077C151.007 381.585 149.364 385.4 147.148 389.216C145.008 392.953 142.448 396.496 139.468 399.845C136.487 403.193 133.316 406.191 129.953 408.838C126.667 411.408 123.342 413.432 119.98 414.912V416.664C123.495 416.664 126.629 417.092 129.38 417.949C132.207 418.727 134.691 420.012 136.831 421.803C139.047 423.516 140.996 425.658 142.677 428.227C144.359 430.797 145.849 433.873 147.148 437.455L153.223 454.858H134.538L130.526 440.842C129.456 437.026 128.042 433.99 126.285 431.731C124.527 429.395 122.273 427.721 119.521 426.709C116.77 425.619 113.178 425.074 108.746 425.074H102.097V454.858H85.5901Z" fill="white"/>
<path d="M198.631 456.493C193.128 456.493 188.199 455.637 183.843 453.924C179.487 452.133 175.742 449.563 172.609 446.215C169.552 442.789 167.183 438.623 165.502 433.717C163.897 428.734 163.094 423.049 163.094 416.664C163.094 407.553 164.661 400.039 167.794 394.121C170.928 388.125 175.207 383.648 180.633 380.689C186.136 377.652 192.326 376.134 199.204 376.134C204.553 376.134 209.406 377.029 213.762 378.82C218.118 380.533 221.825 383.103 224.881 386.529C228.015 389.877 230.422 394.082 232.103 399.144C233.785 404.127 234.625 409.851 234.625 416.314C234.625 422.932 233.785 428.734 232.103 433.717C230.422 438.701 227.977 442.905 224.767 446.332C221.634 449.68 217.851 452.211 213.418 453.924C208.986 455.637 204.057 456.493 198.631 456.493ZM199.089 443.061C203.139 443.061 206.54 442.049 209.291 440.024C212.043 438 214.144 435.08 215.596 431.264C217.048 427.449 217.774 422.777 217.774 417.248C217.774 411.486 217.01 406.58 215.482 402.531C214.03 398.482 211.89 395.406 209.062 393.304C206.235 391.123 202.796 390.033 198.745 390.033C194.771 390.033 191.371 391.084 188.543 393.187C185.792 395.211 183.652 398.17 182.123 402.064C180.671 405.957 179.945 410.785 179.945 416.547C179.945 420.752 180.366 424.529 181.206 427.877C182.123 431.147 183.384 433.912 184.989 436.17C186.594 438.428 188.581 440.141 190.95 441.309C193.319 442.477 196.032 443.061 199.089 443.061Z" fill="white"/>
<path d="M251.783 454.858V377.769H273.334L307.61 432.315H308.871L307.839 377.769H323.888V454.858H304.4L268.176 397.742H266.915L267.947 454.858H251.783Z" fill="white"/>
<path d="M346.171 454.858V377.769H363.022V454.858H346.171Z" fill="white"/>
<path d="M96.2846 502.463C94.4901 502.463 92.9131 502.273 91.5536 501.894C90.2213 501.515 89.093 500.96 88.1685 500.229C87.2713 499.472 86.6052 498.551 86.1701 497.468C85.7351 496.386 85.5448 495.127 85.5992 493.692L88.9842 492.962C88.8755 494.369 89.1066 495.547 89.6776 496.494C90.2485 497.441 91.1186 498.159 92.2877 498.646C93.4569 499.106 94.83 499.336 96.4069 499.336C97.9295 499.336 99.221 499.147 100.281 498.768C101.342 498.389 102.13 497.861 102.647 497.184C103.191 496.508 103.463 495.736 103.463 494.87C103.463 493.895 103.15 493.124 102.525 492.556C101.899 491.987 101.056 491.554 99.9959 491.256C98.9627 490.931 97.8072 490.634 96.5293 490.363C95.2786 490.092 94.0279 489.781 92.7772 489.429C91.5264 489.077 90.3981 488.631 89.3921 488.089C88.4133 487.521 87.6112 486.79 86.9858 485.897C86.3876 484.976 86.0886 483.812 86.0886 482.405C86.0886 480.808 86.4828 479.427 87.2713 478.263C88.087 477.099 89.2289 476.206 90.6972 475.584C92.1654 474.934 93.8919 474.609 95.8767 474.609C97.8344 474.609 99.5745 474.92 101.097 475.543C102.647 476.166 103.87 477.086 104.768 478.304C105.665 479.495 106.141 480.97 106.195 482.73L102.688 483.582C102.688 482.608 102.511 481.755 102.157 481.024C101.831 480.266 101.369 479.657 100.771 479.197C100.173 478.71 99.4521 478.345 98.6093 478.101C97.7664 477.83 96.842 477.695 95.836 477.695C94.6124 477.695 93.5385 477.884 92.614 478.263C91.6896 478.642 90.9691 479.157 90.4525 479.806C89.9359 480.456 89.6776 481.227 89.6776 482.121C89.6776 483.176 90.0446 484.015 90.7787 484.638C91.54 485.234 92.5189 485.707 93.7152 486.059C94.9115 486.411 96.1894 486.736 97.5489 487.034C98.718 487.277 99.86 487.575 100.975 487.927C102.117 488.252 103.15 488.698 104.074 489.267C104.999 489.808 105.733 490.525 106.277 491.419C106.82 492.312 107.092 493.449 107.092 494.829C107.092 496.372 106.685 497.712 105.869 498.849C105.08 499.986 103.884 500.879 102.28 501.529C100.676 502.151 98.6772 502.463 96.2846 502.463Z" fill="white"/>
<path d="M156.689 501.935V475.137H160.441V501.935H156.689ZM148.491 478.385V475.137H168.638V478.385H148.491Z" fill="white"/>
<path d="M221.884 502.463C219.927 502.463 218.2 502.138 216.705 501.488C215.236 500.839 213.986 499.905 212.953 498.687C211.947 497.468 211.185 496.02 210.669 494.342C210.152 492.637 209.894 490.728 209.894 488.617C209.894 485.531 210.41 482.96 211.444 480.903C212.477 478.818 213.904 477.248 215.726 476.193C217.548 475.137 219.614 474.609 221.925 474.609C223.747 474.609 225.392 474.92 226.86 475.543C228.328 476.166 229.579 477.086 230.612 478.304C231.672 479.522 232.488 481.011 233.059 482.77C233.63 484.503 233.916 486.479 233.916 488.698C233.916 490.783 233.644 492.677 233.1 494.383C232.583 496.061 231.808 497.509 230.775 498.727C229.769 499.918 228.518 500.839 227.023 501.488C225.555 502.138 223.842 502.463 221.884 502.463ZM221.925 499.255C223.665 499.255 225.133 498.849 226.33 498.037C227.553 497.198 228.478 496.007 229.103 494.464C229.756 492.894 230.082 490.999 230.082 488.779C230.082 486.479 229.756 484.53 229.103 482.933C228.451 481.309 227.512 480.063 226.289 479.197C225.065 478.331 223.584 477.898 221.843 477.898C220.185 477.898 218.744 478.318 217.52 479.157C216.297 479.996 215.359 481.214 214.706 482.811C214.054 484.408 213.727 486.37 213.727 488.698C213.727 490.377 213.904 491.879 214.258 493.205C214.638 494.504 215.168 495.614 215.848 496.535C216.555 497.428 217.412 498.105 218.418 498.565C219.451 499.025 220.62 499.255 221.925 499.255Z" fill="white"/>
<path d="M278.692 501.935V475.137H288.072C289.432 475.137 290.669 475.245 291.784 475.462C292.926 475.678 293.932 476.003 294.802 476.436C295.699 476.869 296.447 477.397 297.045 478.02C297.67 478.642 298.132 479.373 298.432 480.212C298.758 481.024 298.921 481.931 298.921 482.933C298.921 483.88 298.771 484.746 298.472 485.531C298.2 486.316 297.779 487.007 297.208 487.602C296.637 488.198 295.93 488.685 295.087 489.064C294.244 489.416 293.266 489.659 292.151 489.795V490.322C293.13 490.431 293.986 490.688 294.72 491.094C295.454 491.5 296.08 492.095 296.596 492.88C297.113 493.638 297.561 494.653 297.942 495.926L299.655 501.935H295.617L294.231 496.453C293.986 495.344 293.565 494.45 292.966 493.774C292.396 493.097 291.675 492.596 290.805 492.271C289.935 491.947 288.915 491.784 287.746 491.784H282.444V501.935H278.692ZM282.444 488.739H287.746C290.166 488.739 291.988 488.306 293.211 487.44C294.462 486.573 295.087 485.247 295.087 483.461C295.087 481.674 294.489 480.361 293.293 479.522C292.124 478.656 290.302 478.223 287.828 478.223H282.444V488.739Z" fill="white"/>
<path d="M349.849 501.935V493.286L340.428 475.137H344.792L351.643 489.632H351.847L358.658 475.137H363.022L353.601 493.246V501.935H349.849Z" fill="white"/>
<path fill-rule="evenodd" clip-rule="evenodd" d="M135.888 71.7925C128.031 70.3699 120.802 76.4073 120.802 84.3923V252.17C120.802 260.475 128.587 266.583 136.654 264.607L213.651 245.745V285.663C213.651 291.595 217.484 296.847 223.134 298.656L311.402 326.923C320.206 329.743 329.206 323.175 329.206 313.93L329.206 165.374C329.206 156.13 320.206 149.562 311.402 152.381L273.283 164.589V107.364C273.283 101.172 268.853 95.8671 262.76 94.764L135.888 71.7925ZM273.283 173.016V164.589L223.134 180.649C217.484 182.458 213.652 187.71 213.652 193.642L213.651 245.745L221.677 243.779V285.663C221.677 288.105 223.255 290.268 225.581 291.013L313.85 319.28C317.475 320.441 321.181 317.737 321.181 313.93L321.181 165.374C321.181 161.568 317.475 158.863 313.85 160.024L273.283 173.016ZM273.283 173.016V221.091C273.283 226.989 269.254 232.125 263.525 233.528L221.677 243.779L221.677 193.642C221.677 191.199 223.255 189.037 225.581 188.292L273.283 173.016Z" fill="#FFF643"/>
</svg>
