<svg width="450" height="555" viewBox="0 0 450 555" fill="none" xmlns="http://www.w3.org/2000/svg">
<path d="M85.4956 454.858V377.769H102.003V412.226C105.9 410.59 109.53 408.527 112.893 406.035C116.332 403.465 119.389 400.623 122.063 397.509C124.738 394.394 127.031 391.162 128.941 387.814C130.852 384.466 132.228 381.117 133.068 377.769H151.983C150.913 381.585 149.27 385.4 147.053 389.216C144.914 392.953 142.353 396.496 139.373 399.845C136.393 403.193 133.221 406.191 129.859 408.838C126.572 411.408 123.248 413.432 119.885 414.912V416.664C123.401 416.664 126.534 417.092 129.285 417.949C132.113 418.727 134.597 420.012 136.736 421.803C138.953 423.516 140.901 425.658 142.583 428.227C144.264 430.797 145.754 433.873 147.053 437.455L153.129 454.858H134.444L130.432 440.842C129.362 437.026 127.948 433.99 126.19 431.731C124.433 429.395 122.178 427.721 119.427 426.709C116.676 425.619 113.084 425.074 108.651 425.074H102.003V454.858H85.4956Z" fill="#121317"/>
<path d="M198.536 456.493C193.034 456.493 188.104 455.637 183.748 453.924C179.392 452.133 175.648 449.563 172.514 446.215C169.458 442.789 167.088 438.623 165.407 433.717C163.802 428.734 163 423.049 163 416.664C163 407.553 164.567 400.039 167.7 394.121C170.833 388.125 175.113 383.648 180.539 380.689C186.041 377.652 192.231 376.134 199.109 376.134C204.459 376.134 209.312 377.029 213.668 378.82C218.024 380.533 221.73 383.103 224.787 386.529C227.92 389.877 230.328 394.082 232.009 399.144C233.69 404.127 234.531 409.851 234.531 416.314C234.531 422.932 233.69 428.734 232.009 433.717C230.328 438.701 227.882 442.905 224.672 446.332C221.539 449.68 217.756 452.211 213.324 453.924C208.891 455.637 203.962 456.493 198.536 456.493ZM198.995 443.061C203.045 443.061 206.446 442.049 209.197 440.024C211.948 438 214.05 435.08 215.502 431.264C216.954 427.449 217.68 422.777 217.68 417.248C217.68 411.486 216.916 406.58 215.387 402.531C213.935 398.482 211.795 395.406 208.968 393.304C206.14 391.123 202.701 390.033 198.651 390.033C194.677 390.033 191.276 391.084 188.448 393.187C185.697 395.211 183.557 398.17 182.029 402.064C180.577 405.957 179.851 410.785 179.851 416.547C179.851 420.752 180.271 424.529 181.112 427.877C182.029 431.147 183.29 433.912 184.895 436.17C186.5 438.428 188.487 440.141 190.856 441.309C193.225 442.477 195.938 443.061 198.995 443.061Z" fill="#121317"/>
<path d="M251.689 454.858V377.769H273.24L307.515 432.315H308.776L307.744 377.769H323.793V454.858H304.305L268.081 397.742H266.821L267.852 454.858H251.689Z" fill="#121317"/>
<path d="M346.077 454.858V377.769H362.928V454.858H346.077Z" fill="#121317"/>
<path d="M96.1901 502.463C94.3956 502.463 92.8186 502.273 91.4591 501.894C90.1269 501.515 88.9985 500.96 88.0741 500.229C87.1768 499.472 86.5107 498.551 86.0756 497.468C85.6406 496.386 85.4503 495.127 85.5047 493.692L88.8897 492.962C88.781 494.369 89.0121 495.547 89.5831 496.494C90.1541 497.441 91.0241 498.159 92.1933 498.646C93.3624 499.106 94.7355 499.336 96.3125 499.336C97.8351 499.336 99.1266 499.147 100.187 498.768C101.247 498.389 102.036 497.861 102.552 497.184C103.096 496.508 103.368 495.736 103.368 494.87C103.368 493.895 103.055 493.124 102.43 492.556C101.805 491.987 100.962 491.554 99.9015 491.256C98.8683 490.931 97.7127 490.634 96.4348 490.363C95.1841 490.092 93.9334 489.781 92.6827 489.429C91.432 489.077 90.3036 488.631 89.2976 488.089C88.3188 487.521 87.5167 486.79 86.8913 485.897C86.2932 484.976 85.9941 483.812 85.9941 482.405C85.9941 480.808 86.3883 479.427 87.1768 478.263C87.9925 477.099 89.1345 476.206 90.6027 475.584C92.0709 474.934 93.7974 474.609 95.7823 474.609C97.7399 474.609 99.48 474.92 101.003 475.543C102.552 476.166 103.776 477.086 104.673 478.304C105.57 479.495 106.046 480.97 106.101 482.73L102.593 483.582C102.593 482.608 102.416 481.755 102.063 481.024C101.737 480.266 101.275 479.657 100.676 479.197C100.078 478.71 99.3577 478.345 98.5148 478.101C97.6719 477.83 96.7475 477.695 95.7415 477.695C94.518 477.695 93.444 477.884 92.5195 478.263C91.5951 478.642 90.8746 479.157 90.358 479.806C89.8414 480.456 89.5831 481.227 89.5831 482.121C89.5831 483.176 89.9501 484.015 90.6842 484.638C91.4456 485.234 92.4244 485.707 93.6207 486.059C94.817 486.411 96.0949 486.736 97.4544 487.034C98.6236 487.277 99.7655 487.575 100.88 487.927C102.022 488.252 103.055 488.698 103.98 489.267C104.904 489.808 105.638 490.525 106.182 491.419C106.726 492.312 106.998 493.449 106.998 494.829C106.998 496.372 106.59 497.712 105.774 498.849C104.986 499.986 103.79 500.879 102.185 501.529C100.581 502.151 98.5828 502.463 96.1901 502.463Z" fill="#121317"/>
<path d="M156.594 501.935V475.137H160.346V501.935H156.594ZM148.397 478.385V475.137H168.544V478.385H148.397Z" fill="#121317"/>
<path d="M221.79 502.463C219.832 502.463 218.106 502.138 216.61 501.488C215.142 500.839 213.891 499.905 212.858 498.687C211.852 497.468 211.091 496.02 210.574 494.342C210.058 492.637 209.799 490.728 209.799 488.617C209.799 485.531 210.316 482.96 211.349 480.903C212.382 478.818 213.81 477.248 215.631 476.193C217.453 475.137 219.519 474.609 221.831 474.609C223.652 474.609 225.297 474.92 226.765 475.543C228.234 476.166 229.484 477.086 230.518 478.304C231.578 479.522 232.394 481.011 232.965 482.77C233.536 484.503 233.821 486.479 233.821 488.698C233.821 490.783 233.549 492.677 233.005 494.383C232.489 496.061 231.714 497.509 230.681 498.727C229.675 499.918 228.424 500.839 226.929 501.488C225.46 502.138 223.747 502.463 221.79 502.463ZM221.831 499.255C223.571 499.255 225.039 498.849 226.235 498.037C227.459 497.198 228.383 496.007 229.009 494.464C229.661 492.894 229.987 490.999 229.987 488.779C229.987 486.479 229.661 484.53 229.009 482.933C228.356 481.309 227.418 480.063 226.194 479.197C224.971 478.331 223.489 477.898 221.749 477.898C220.09 477.898 218.649 478.318 217.426 479.157C216.202 479.996 215.264 481.214 214.612 482.811C213.959 484.408 213.633 486.37 213.633 488.698C213.633 490.377 213.81 491.879 214.163 493.205C214.544 494.504 215.074 495.614 215.754 496.535C216.461 497.428 217.317 498.105 218.323 498.565C219.356 499.025 220.525 499.255 221.831 499.255Z" fill="#121317"/>
<path d="M278.598 501.935V475.137H287.978C289.337 475.137 290.574 475.245 291.689 475.462C292.831 475.678 293.837 476.003 294.707 476.436C295.605 476.869 296.352 477.397 296.95 478.02C297.576 478.642 298.038 479.373 298.337 480.212C298.663 481.024 298.826 481.931 298.826 482.933C298.826 483.88 298.677 484.746 298.378 485.531C298.106 486.316 297.685 487.007 297.114 487.602C296.543 488.198 295.836 488.685 294.993 489.064C294.15 489.416 293.171 489.659 292.056 489.795V490.322C293.035 490.431 293.892 490.688 294.626 491.094C295.36 491.5 295.985 492.095 296.502 492.88C297.018 493.638 297.467 494.653 297.848 495.926L299.561 501.935H295.523L294.136 496.453C293.892 495.344 293.47 494.45 292.872 493.774C292.301 493.097 291.58 492.596 290.71 492.271C289.84 491.947 288.821 491.784 287.652 491.784H282.35V501.935H278.598ZM282.35 488.739H287.652C290.072 488.739 291.893 488.306 293.117 487.44C294.367 486.573 294.993 485.247 294.993 483.461C294.993 481.674 294.395 480.361 293.198 479.522C292.029 478.656 290.207 478.223 287.733 478.223H282.35V488.739Z" fill="#121317"/>
<path d="M349.754 501.935V493.286L340.333 475.137H344.697L351.549 489.632H351.753L358.564 475.137H362.928L353.506 493.246V501.935H349.754Z" fill="#121317"/>
<path fill-rule="evenodd" clip-rule="evenodd" d="M135.794 71.7925C127.937 70.3699 120.708 76.4073 120.708 84.3923V252.17C120.708 260.475 128.492 266.583 136.559 264.607L213.557 245.745V285.663C213.557 291.595 217.39 296.847 223.039 298.656L311.308 326.923C320.111 329.743 329.112 323.175 329.112 313.93L329.112 165.374C329.112 156.13 320.112 149.562 311.308 152.381L273.189 164.589V107.364C273.189 101.172 268.758 95.8671 262.666 94.764L135.794 71.7925ZM273.189 173.016V164.589L223.039 180.649C217.39 182.458 213.557 187.71 213.557 193.642L213.557 245.745L221.582 243.779V285.663C221.582 288.105 223.161 290.268 225.487 291.013L313.755 319.28C317.38 320.441 321.086 317.737 321.086 313.93L321.086 165.374C321.086 161.568 317.38 158.863 313.755 160.024L273.189 173.016ZM273.189 173.016V221.091C273.189 226.989 269.16 232.125 263.431 233.528L221.582 243.779L221.582 193.642C221.582 191.199 223.161 189.037 225.487 188.292L273.189 173.016Z" fill="#FFF643"/>
</svg>
