<svg width="450" height="555" viewBox="0 0 450 555" fill="none" xmlns="http://www.w3.org/2000/svg">
<path d="M85.3638 454.858V377.769H101.871V412.226C105.768 410.59 109.398 408.527 112.761 406.035C116.2 403.465 119.257 400.623 121.932 397.509C124.606 394.394 126.899 391.162 128.81 387.814C130.72 384.466 132.096 381.117 132.936 377.769H151.851C150.781 381.585 149.138 385.4 146.922 389.216C144.782 392.953 142.222 396.496 139.241 399.845C136.261 403.193 133.089 406.191 129.727 408.838C126.441 411.408 123.116 413.432 119.754 414.912V416.664C123.269 416.664 126.402 417.092 129.154 417.949C131.981 418.727 134.465 420.012 136.605 421.803C138.821 423.516 140.77 425.658 142.451 428.227C144.132 430.797 145.622 433.873 146.922 437.455L152.997 454.858H134.312L130.3 440.842C129.23 437.026 127.816 433.99 126.058 431.731C124.301 429.395 122.046 427.721 119.295 426.709C116.544 425.619 112.952 425.074 108.52 425.074H101.871V454.858H85.3638Z" fill="white"/>
<path d="M198.404 456.493C192.902 456.493 187.973 455.637 183.617 453.924C179.261 452.133 175.516 449.563 172.383 446.215C169.326 442.789 166.957 438.623 165.275 433.717C163.671 428.734 162.868 423.049 162.868 416.664C162.868 407.553 164.435 400.039 167.568 394.121C170.701 388.125 174.981 383.648 180.407 380.689C185.909 377.652 192.099 376.134 198.977 376.134C204.327 376.134 209.18 377.029 213.536 378.82C217.892 380.533 221.598 383.103 224.655 386.529C227.788 389.877 230.196 394.082 231.877 399.144C233.558 404.127 234.399 409.851 234.399 416.314C234.399 422.932 233.558 428.734 231.877 433.717C230.196 438.701 227.75 442.905 224.541 446.332C221.407 449.68 217.624 452.211 213.192 453.924C208.759 455.637 203.83 456.493 198.404 456.493ZM198.863 443.061C202.913 443.061 206.314 442.049 209.065 440.024C211.816 438 213.918 435.08 215.37 431.264C216.822 427.449 217.548 422.777 217.548 417.248C217.548 411.486 216.784 406.58 215.255 402.531C213.803 398.482 211.663 395.406 208.836 393.304C206.008 391.123 202.569 390.033 198.519 390.033C194.545 390.033 191.144 391.084 188.317 393.187C185.565 395.211 183.426 398.17 181.897 402.064C180.445 405.957 179.719 410.785 179.719 416.547C179.719 420.752 180.139 424.529 180.98 427.877C181.897 431.147 183.158 433.912 184.763 436.17C186.368 438.428 188.355 440.141 190.724 441.309C193.093 442.477 195.806 443.061 198.863 443.061Z" fill="white"/>
<path d="M251.557 454.858V377.769H273.108L307.383 432.315H308.644L307.613 377.769H323.661V454.858H304.174L267.95 397.742H266.689L267.72 454.858H251.557Z" fill="white"/>
<path d="M345.945 454.858V377.769H362.796V454.858H345.945Z" fill="white"/>
<path d="M96.0583 502.463C94.2638 502.463 92.6868 502.273 91.3273 501.894C89.995 501.515 88.8667 500.96 87.9422 500.229C87.045 499.472 86.3788 498.551 85.9438 497.468C85.5088 496.386 85.3185 495.127 85.3728 493.692L88.7579 492.962C88.6492 494.369 88.8803 495.547 89.4512 496.494C90.0222 497.441 90.8923 498.159 92.0614 498.646C93.2306 499.106 94.6036 499.336 96.1806 499.336C97.7032 499.336 98.9947 499.147 100.055 498.768C101.115 498.389 101.904 497.861 102.421 497.184C102.964 496.508 103.236 495.736 103.236 494.87C103.236 493.895 102.924 493.124 102.298 492.556C101.673 491.987 100.83 491.554 99.7696 491.256C98.7364 490.931 97.5809 490.634 96.303 490.363C95.0523 490.092 93.8015 489.781 92.5508 489.429C91.3001 489.077 90.1718 488.631 89.1658 488.089C88.1869 487.521 87.3848 486.79 86.7595 485.897C86.1613 484.976 85.8622 483.812 85.8622 482.405C85.8622 480.808 86.2565 479.427 87.045 478.263C87.8607 477.099 89.0026 476.206 90.4708 475.584C91.9391 474.934 93.6656 474.609 95.6504 474.609C97.6081 474.609 99.3482 474.92 100.871 475.543C102.421 476.166 103.644 477.086 104.541 478.304C105.439 479.495 105.914 480.97 105.969 482.73L102.461 483.582C102.461 482.608 102.285 481.755 101.931 481.024C101.605 480.266 101.143 479.657 100.545 479.197C99.9463 478.71 99.2258 478.345 98.383 478.101C97.5401 477.83 96.6156 477.695 95.6096 477.695C94.3861 477.695 93.3121 477.884 92.3877 478.263C91.4633 478.642 90.7427 479.157 90.2261 479.806C89.7095 480.456 89.4512 481.227 89.4512 482.121C89.4512 483.176 89.8183 484.015 90.5524 484.638C91.3137 485.234 92.2925 485.707 93.4889 486.059C94.6852 486.411 95.9631 486.736 97.3226 487.034C98.4917 487.277 99.6337 487.575 100.748 487.927C101.89 488.252 102.924 488.698 103.848 489.267C104.772 489.808 105.507 490.525 106.05 491.419C106.594 492.312 106.866 493.449 106.866 494.829C106.866 496.372 106.458 497.712 105.643 498.849C104.854 499.986 103.658 500.879 102.054 501.529C100.449 502.151 98.4509 502.463 96.0583 502.463Z" fill="white"/>
<path d="M156.462 501.935V475.137H160.214V501.935H156.462ZM148.265 478.385V475.137H168.412V478.385H148.265Z" fill="white"/>
<path d="M221.658 502.463C219.7 502.463 217.974 502.138 216.478 501.488C215.01 500.839 213.759 499.905 212.726 498.687C211.72 497.468 210.959 496.02 210.442 494.342C209.926 492.637 209.667 490.728 209.667 488.617C209.667 485.531 210.184 482.96 211.217 480.903C212.25 478.818 213.678 477.248 215.5 476.193C217.321 475.137 219.388 474.609 221.699 474.609C223.52 474.609 225.165 474.92 226.634 475.543C228.102 476.166 229.353 477.086 230.386 478.304C231.446 479.522 232.262 481.011 232.833 482.77C233.404 484.503 233.689 486.479 233.689 488.698C233.689 490.783 233.417 492.677 232.874 494.383C232.357 496.061 231.582 497.509 230.549 498.727C229.543 499.918 228.292 500.839 226.797 501.488C225.329 502.138 223.616 502.463 221.658 502.463ZM221.699 499.255C223.439 499.255 224.907 498.849 226.103 498.037C227.327 497.198 228.251 496.007 228.877 494.464C229.529 492.894 229.856 490.999 229.856 488.779C229.856 486.479 229.529 484.53 228.877 482.933C228.224 481.309 227.286 480.063 226.063 479.197C224.839 478.331 223.357 477.898 221.617 477.898C219.959 477.898 218.518 478.318 217.294 479.157C216.071 479.996 215.133 481.214 214.48 482.811C213.827 484.408 213.501 486.37 213.501 488.698C213.501 490.377 213.678 491.879 214.031 493.205C214.412 494.504 214.942 495.614 215.622 496.535C216.329 497.428 217.185 498.105 218.191 498.565C219.225 499.025 220.394 499.255 221.699 499.255Z" fill="white"/>
<path d="M278.466 501.935V475.137H287.846C289.206 475.137 290.443 475.245 291.557 475.462C292.699 475.678 293.705 476.003 294.575 476.436C295.473 476.869 296.22 477.397 296.819 478.02C297.444 478.642 297.906 479.373 298.205 480.212C298.531 481.024 298.695 481.931 298.695 482.933C298.695 483.88 298.545 484.746 298.246 485.531C297.974 486.316 297.553 487.007 296.982 487.602C296.411 488.198 295.704 488.685 294.861 489.064C294.018 489.416 293.039 489.659 291.924 489.795V490.322C292.903 490.431 293.76 490.688 294.494 491.094C295.228 491.5 295.853 492.095 296.37 492.88C296.887 493.638 297.335 494.653 297.716 495.926L299.429 501.935H295.391L294.004 496.453C293.76 495.344 293.338 494.45 292.74 493.774C292.169 493.097 291.449 492.596 290.579 492.271C289.709 491.947 288.689 491.784 287.52 491.784H282.218V501.935H278.466ZM282.218 488.739H287.52C289.94 488.739 291.761 488.306 292.985 487.44C294.236 486.573 294.861 485.247 294.861 483.461C294.861 481.674 294.263 480.361 293.066 479.522C291.897 478.656 290.076 478.223 287.601 478.223H282.218V488.739Z" fill="white"/>
<path d="M349.622 501.935V493.286L340.201 475.137H344.565L351.417 489.632H351.621L358.432 475.137H362.796L353.375 493.246V501.935H349.622Z" fill="white"/>
<path fill-rule="evenodd" clip-rule="evenodd" d="M135.662 71.7925C127.805 70.3699 120.576 76.4073 120.576 84.3923V252.17C120.576 260.475 128.361 266.583 136.427 264.607L213.425 245.745V285.663C213.425 291.595 217.258 296.847 222.907 298.656L311.176 326.923C319.98 329.743 328.98 323.175 328.98 313.93L328.98 165.374C328.98 156.13 319.98 149.562 311.176 152.381L273.057 164.589V107.364C273.057 101.172 268.626 95.8671 262.534 94.764L135.662 71.7925ZM273.057 173.016V164.589L222.907 180.649C217.258 182.458 213.425 187.71 213.425 193.642L213.425 245.745L221.45 243.779V285.663C221.45 288.105 223.029 290.268 225.355 291.013L313.623 319.28C317.248 320.441 320.954 317.737 320.954 313.93L320.954 165.374C320.954 161.568 317.249 158.863 313.623 160.024L273.057 173.016ZM273.057 173.016V221.091C273.057 226.989 269.028 232.125 263.299 233.528L221.45 243.779L221.45 193.642C221.45 191.199 223.029 189.037 225.355 188.292L273.057 173.016Z" fill="white"/>
</svg>
