<svg width="451" height="555" viewBox="0 0 451 555" fill="none" xmlns="http://www.w3.org/2000/svg">
<path d="M86.269 454.858V377.769H102.776V412.226C106.674 410.59 110.304 408.527 113.666 406.035C117.105 403.465 120.162 400.623 122.837 397.509C125.512 394.394 127.804 391.162 129.715 387.814C131.625 384.466 133.001 381.117 133.842 377.769H152.756C151.686 381.585 150.043 385.4 147.827 389.216C145.687 392.953 143.127 396.496 140.146 399.845C137.166 403.193 133.995 406.191 130.632 408.838C127.346 411.408 124.021 413.432 120.659 414.912V416.664C124.174 416.664 127.308 417.092 130.059 417.949C132.886 418.727 135.37 420.012 137.51 421.803C139.726 423.516 141.675 425.658 143.356 428.227C145.037 430.797 146.528 433.873 147.827 437.455L153.902 454.858H135.217L131.205 440.842C130.135 437.026 128.721 433.99 126.964 431.731C125.206 429.395 122.952 427.721 120.2 426.709C117.449 425.619 113.857 425.074 109.425 425.074H102.776V454.858H86.269Z" fill="#121317"/>
<path d="M199.31 456.493C193.807 456.493 188.878 455.637 184.522 453.924C180.166 452.133 176.421 449.563 173.288 446.215C170.231 442.789 167.862 438.623 166.181 433.717C164.576 428.734 163.773 423.049 163.773 416.664C163.773 407.553 165.34 400.039 168.473 394.121C171.607 388.125 175.886 383.648 181.312 380.689C186.815 377.652 193.005 376.134 199.883 376.134C205.232 376.134 210.085 377.029 214.441 378.82C218.797 380.533 222.504 383.103 225.56 386.529C228.694 389.877 231.101 394.082 232.782 399.144C234.464 404.127 235.304 409.851 235.304 416.314C235.304 422.932 234.464 428.734 232.782 433.717C231.101 438.701 228.656 442.905 225.446 446.332C222.313 449.68 218.53 452.211 214.097 453.924C209.665 455.637 204.735 456.493 199.31 456.493ZM199.768 443.061C203.818 443.061 207.219 442.049 209.97 440.024C212.722 438 214.823 435.08 216.275 431.264C217.727 427.449 218.453 422.777 218.453 417.248C218.453 411.486 217.689 406.58 216.161 402.531C214.709 398.482 212.569 395.406 209.741 393.304C206.914 391.123 203.475 390.033 199.424 390.033C195.45 390.033 192.049 391.084 189.222 393.187C186.471 395.211 184.331 398.17 182.802 402.064C181.35 405.957 180.624 410.785 180.624 416.547C180.624 420.752 181.045 424.529 181.885 427.877C182.802 431.147 184.063 433.912 185.668 436.17C187.273 438.428 189.26 440.141 191.629 441.309C193.998 442.477 196.711 443.061 199.768 443.061Z" fill="#121317"/>
<path d="M252.462 454.858V377.769H274.013L308.289 432.315H309.55L308.518 377.769H324.566V454.858H305.079L268.855 397.742H267.594L268.626 454.858H252.462Z" fill="#121317"/>
<path d="M346.85 454.858V377.769H363.701V454.858H346.85Z" fill="#121317"/>
<path d="M96.9635 502.463C95.169 502.463 93.5921 502.273 92.2326 501.894C90.9003 501.515 89.7719 500.96 88.8475 500.229C87.9503 499.472 87.2841 498.551 86.8491 497.468C86.4141 496.386 86.2237 495.127 86.2781 493.692L89.6632 492.962C89.5544 494.369 89.7855 495.547 90.3565 496.494C90.9275 497.441 91.7976 498.159 92.9667 498.646C94.1358 499.106 95.5089 499.336 97.0859 499.336C98.6085 499.336 99.9 499.147 100.96 498.768C102.021 498.389 102.809 497.861 103.326 497.184C103.87 496.508 104.142 495.736 104.142 494.87C104.142 493.895 103.829 493.124 103.204 492.556C102.578 491.987 101.735 491.554 100.675 491.256C99.6417 490.931 98.4861 490.634 97.2082 490.363C95.9575 490.092 94.7068 489.781 93.4561 489.429C92.2054 489.077 91.077 488.631 90.071 488.089C89.0922 487.521 88.2901 486.79 87.6648 485.897C87.0666 484.976 86.7675 483.812 86.7675 482.405C86.7675 480.808 87.1618 479.427 87.9503 478.263C88.7659 477.099 89.9079 476.206 91.3761 475.584C92.8443 474.934 94.5709 474.609 96.5557 474.609C98.5133 474.609 100.253 474.92 101.776 475.543C103.326 476.166 104.549 477.086 105.447 478.304C106.344 479.495 106.82 480.97 106.874 482.73L103.367 483.582C103.367 482.608 103.19 481.755 102.836 481.024C102.51 480.266 102.048 479.657 101.45 479.197C100.852 478.71 100.131 478.345 99.2882 478.101C98.4454 477.83 97.5209 477.695 96.5149 477.695C95.2914 477.695 94.2174 477.884 93.293 478.263C92.3685 478.642 91.648 479.157 91.1314 479.806C90.6148 480.456 90.3565 481.227 90.3565 482.121C90.3565 483.176 90.7236 484.015 91.4577 484.638C92.219 485.234 93.1978 485.707 94.3941 486.059C95.5905 486.411 96.8684 486.736 98.2278 487.034C99.397 487.277 100.539 487.575 101.654 487.927C102.796 488.252 103.829 488.698 104.753 489.267C105.678 489.808 106.412 490.525 106.956 491.419C107.499 492.312 107.771 493.449 107.771 494.829C107.771 496.372 107.363 497.712 106.548 498.849C105.759 499.986 104.563 500.879 102.959 501.529C101.355 502.151 99.3562 502.463 96.9635 502.463Z" fill="#121317"/>
<path d="M157.368 501.935V475.137H161.12V501.935H157.368ZM149.17 478.385V475.137H169.317V478.385H149.17Z" fill="#121317"/>
<path d="M222.563 502.463C220.606 502.463 218.879 502.138 217.384 501.488C215.915 500.839 214.665 499.905 213.632 498.687C212.626 497.468 211.864 496.02 211.348 494.342C210.831 492.637 210.573 490.728 210.573 488.617C210.573 485.531 211.089 482.96 212.123 480.903C213.156 478.818 214.583 477.248 216.405 476.193C218.227 475.137 220.293 474.609 222.604 474.609C224.426 474.609 226.071 474.92 227.539 475.543C229.007 476.166 230.258 477.086 231.291 478.304C232.351 479.522 233.167 481.011 233.738 482.77C234.309 484.503 234.595 486.479 234.595 488.698C234.595 490.783 234.323 492.677 233.779 494.383C233.262 496.061 232.487 497.509 231.454 498.727C230.448 499.918 229.197 500.839 227.702 501.488C226.234 502.138 224.521 502.463 222.563 502.463ZM222.604 499.255C224.344 499.255 225.812 498.849 227.009 498.037C228.232 497.198 229.157 496.007 229.782 494.464C230.435 492.894 230.761 490.999 230.761 488.779C230.761 486.479 230.435 484.53 229.782 482.933C229.129 481.309 228.191 480.063 226.968 479.197C225.744 478.331 224.263 477.898 222.522 477.898C220.864 477.898 219.423 478.318 218.199 479.157C216.976 479.996 216.038 481.214 215.385 482.811C214.733 484.408 214.406 486.37 214.406 488.698C214.406 490.377 214.583 491.879 214.937 493.205C215.317 494.504 215.847 495.614 216.527 496.535C217.234 497.428 218.091 498.105 219.097 498.565C220.13 499.025 221.299 499.255 222.604 499.255Z" fill="#121317"/>
<path d="M279.371 501.935V475.137H288.751C290.111 475.137 291.348 475.245 292.463 475.462C293.605 475.678 294.611 476.003 295.481 476.436C296.378 476.869 297.126 477.397 297.724 478.02C298.349 478.642 298.811 479.373 299.11 480.212C299.437 481.024 299.6 481.931 299.6 482.933C299.6 483.88 299.45 484.746 299.151 485.531C298.879 486.316 298.458 487.007 297.887 487.602C297.316 488.198 296.609 488.685 295.766 489.064C294.923 489.416 293.945 489.659 292.83 489.795V490.322C293.809 490.431 294.665 490.688 295.399 491.094C296.133 491.5 296.759 492.095 297.275 492.88C297.792 493.638 298.24 494.653 298.621 495.926L300.334 501.935H296.296L294.91 496.453C294.665 495.344 294.244 494.45 293.645 493.774C293.074 493.097 292.354 492.596 291.484 492.271C290.614 491.947 289.594 491.784 288.425 491.784H283.123V501.935H279.371ZM283.123 488.739H288.425C290.845 488.739 292.667 488.306 293.89 487.44C295.141 486.573 295.766 485.247 295.766 483.461C295.766 481.674 295.168 480.361 293.972 479.522C292.803 478.656 290.981 478.223 288.507 478.223H283.123V488.739Z" fill="#121317"/>
<path d="M350.528 501.935V493.286L341.107 475.137H345.471L352.322 489.632H352.526L359.337 475.137H363.701L354.28 493.246V501.935H350.528Z" fill="#121317"/>
<path fill-rule="evenodd" clip-rule="evenodd" d="M136.567 71.7925C128.71 70.3699 121.481 76.4073 121.481 84.3923V252.17C121.481 260.475 129.266 266.583 137.333 264.607L214.33 245.745V285.663C214.33 291.595 218.163 296.847 223.813 298.656L312.081 326.923C320.885 329.743 329.885 323.175 329.885 313.93L329.885 165.374C329.885 156.13 320.885 149.562 312.081 152.381L273.962 164.589V107.364C273.962 101.172 269.532 95.8671 263.439 94.764L136.567 71.7925ZM273.962 173.016V164.589L223.813 180.649C218.163 182.458 214.33 187.71 214.33 193.642L214.33 245.745L222.356 243.779V285.663C222.356 288.105 223.934 290.268 226.26 291.013L314.529 319.28C318.154 320.441 321.86 317.737 321.86 313.93L321.86 165.374C321.86 161.568 318.154 158.863 314.529 160.024L273.962 173.016ZM273.962 173.016V221.091C273.962 226.989 269.933 232.125 264.204 233.528L222.356 243.779L222.356 193.642C222.356 191.199 223.934 189.037 226.26 188.292L273.962 173.016Z" fill="#151823"/>
</svg>
