<svg width="450" height="555" viewBox="0 0 450 555" fill="none" xmlns="http://www.w3.org/2000/svg">
<path d="M85.9482 454.858V377.769H102.455V412.226C106.353 410.59 109.983 408.527 113.345 406.035C116.784 403.465 119.841 400.623 122.516 397.509C125.191 394.394 127.484 391.162 129.394 387.814C131.305 384.466 132.68 381.117 133.521 377.769H152.435C151.365 381.585 149.722 385.4 147.506 389.216C145.366 392.953 142.806 396.496 139.826 399.845C136.845 403.193 133.674 406.191 130.311 408.838C127.025 411.408 123.701 413.432 120.338 414.912V416.664C123.853 416.664 126.987 417.092 129.738 417.949C132.566 418.727 135.049 420.012 137.189 421.803C139.405 423.516 141.354 425.658 143.035 428.227C144.717 430.797 146.207 433.873 147.506 437.455L153.582 454.858H134.896L130.884 440.842C129.814 437.026 128.401 433.99 126.643 431.731C124.885 429.395 122.631 427.721 119.88 426.709C117.128 425.619 113.537 425.074 109.104 425.074H102.455V454.858H85.9482Z" fill="#121317"/>
<path d="M198.989 456.493C193.486 456.493 188.557 455.637 184.201 453.924C179.845 452.133 176.1 449.563 172.967 446.215C169.91 442.789 167.541 438.623 165.86 433.717C164.255 428.734 163.453 423.049 163.453 416.664C163.453 407.553 165.019 400.039 168.153 394.121C171.286 388.125 175.565 383.648 180.991 380.689C186.494 377.652 192.684 376.134 199.562 376.134C204.911 376.134 209.764 377.029 214.12 378.82C218.476 380.533 222.183 383.103 225.24 386.529C228.373 389.877 230.78 394.082 232.462 399.144C234.143 404.127 234.983 409.851 234.983 416.314C234.983 422.932 234.143 428.734 232.462 433.717C230.78 438.701 228.335 442.905 225.125 446.332C221.992 449.68 218.209 452.211 213.776 453.924C209.344 455.637 204.415 456.493 198.989 456.493ZM199.447 443.061C203.498 443.061 206.898 442.049 209.65 440.024C212.401 438 214.502 435.08 215.954 431.264C217.406 427.449 218.132 422.777 218.132 417.248C218.132 411.486 217.368 406.58 215.84 402.531C214.388 398.482 212.248 395.406 209.42 393.304C206.593 391.123 203.154 390.033 199.103 390.033C195.129 390.033 191.729 391.084 188.901 393.187C186.15 395.211 184.01 398.17 182.482 402.064C181.03 405.957 180.304 410.785 180.304 416.547C180.304 420.752 180.724 424.529 181.565 427.877C182.482 431.147 183.743 433.912 185.347 436.17C186.952 438.428 188.939 440.141 191.308 441.309C193.677 442.477 196.39 443.061 199.447 443.061Z" fill="#121317"/>
<path d="M252.142 454.858V377.769H273.693L307.968 432.315H309.229L308.197 377.769H324.246V454.858H304.758L268.534 397.742H267.273L268.305 454.858H252.142Z" fill="#121317"/>
<path d="M346.529 454.858V377.769H363.38V454.858H346.529Z" fill="#121317"/>
<path d="M96.6427 502.463C94.8482 502.463 93.2713 502.273 91.9118 501.894C90.5795 501.515 89.4511 500.96 88.5267 500.229C87.6295 499.472 86.9633 498.551 86.5283 497.468C86.0933 496.386 85.9029 495.127 85.9573 493.692L89.3424 492.962C89.2336 494.369 89.4647 495.547 90.0357 496.494C90.6067 497.441 91.4768 498.159 92.6459 498.646C93.815 499.106 95.1881 499.336 96.7651 499.336C98.2877 499.336 99.5792 499.147 100.64 498.768C101.7 498.389 102.488 497.861 103.005 497.184C103.549 496.508 103.821 495.736 103.821 494.87C103.821 493.895 103.508 493.124 102.883 492.556C102.257 491.987 101.414 491.554 100.354 491.256C99.3209 490.931 98.1653 490.634 96.8874 490.363C95.6367 490.092 94.386 489.781 93.1353 489.429C91.8846 489.077 90.7562 488.631 89.7502 488.089C88.7714 487.521 87.9693 486.79 87.344 485.897C86.7458 484.976 86.4467 483.812 86.4467 482.405C86.4467 480.808 86.841 479.427 87.6295 478.263C88.4451 477.099 89.5871 476.206 91.0553 475.584C92.5235 474.934 94.2501 474.609 96.2349 474.609C98.1925 474.609 99.9327 474.92 101.455 475.543C103.005 476.166 104.229 477.086 105.126 478.304C106.023 479.495 106.499 480.97 106.553 482.73L103.046 483.582C103.046 482.608 102.869 481.755 102.516 481.024C102.189 480.266 101.727 479.657 101.129 479.197C100.531 478.71 99.8103 478.345 98.9674 478.101C98.1246 477.83 97.2001 477.695 96.1941 477.695C94.9706 477.695 93.8966 477.884 92.9722 478.263C92.0477 478.642 91.3272 479.157 90.8106 479.806C90.294 480.456 90.0357 481.227 90.0357 482.121C90.0357 483.176 90.4028 484.015 91.1369 484.638C91.8982 485.234 92.877 485.707 94.0733 486.059C95.2697 486.411 96.5476 486.736 97.907 487.034C99.0762 487.277 100.218 487.575 101.333 487.927C102.475 488.252 103.508 488.698 104.432 489.267C105.357 489.808 106.091 490.525 106.635 491.419C107.179 492.312 107.451 493.449 107.451 494.829C107.451 496.372 107.043 497.712 106.227 498.849C105.439 499.986 104.242 500.879 102.638 501.529C101.034 502.151 99.0354 502.463 96.6427 502.463Z" fill="#121317"/>
<path d="M157.047 501.935V475.137H160.799V501.935H157.047ZM148.849 478.385V475.137H168.997V478.385H148.849Z" fill="#121317"/>
<path d="M222.242 502.463C220.285 502.463 218.558 502.138 217.063 501.488C215.595 500.839 214.344 499.905 213.311 498.687C212.305 497.468 211.543 496.02 211.027 494.342C210.51 492.637 210.252 490.728 210.252 488.617C210.252 485.531 210.769 482.96 211.802 480.903C212.835 478.818 214.262 477.248 216.084 476.193C217.906 475.137 219.972 474.609 222.283 474.609C224.105 474.609 225.75 474.92 227.218 475.543C228.686 476.166 229.937 477.086 230.97 478.304C232.031 479.522 232.846 481.011 233.417 482.77C233.988 484.503 234.274 486.479 234.274 488.698C234.274 490.783 234.002 492.677 233.458 494.383C232.941 496.061 232.167 497.509 231.133 498.727C230.127 499.918 228.877 500.839 227.381 501.488C225.913 502.138 224.2 502.463 222.242 502.463ZM222.283 499.255C224.023 499.255 225.492 498.849 226.688 498.037C227.911 497.198 228.836 496.007 229.461 494.464C230.114 492.894 230.44 490.999 230.44 488.779C230.44 486.479 230.114 484.53 229.461 482.933C228.809 481.309 227.871 480.063 226.647 479.197C225.424 478.331 223.942 477.898 222.202 477.898C220.543 477.898 219.102 478.318 217.879 479.157C216.655 479.996 215.717 481.214 215.064 482.811C214.412 484.408 214.086 486.37 214.086 488.698C214.086 490.377 214.262 491.879 214.616 493.205C214.996 494.504 215.527 495.614 216.206 496.535C216.913 497.428 217.77 498.105 218.776 498.565C219.809 499.025 220.978 499.255 222.283 499.255Z" fill="#121317"/>
<path d="M279.05 501.935V475.137H288.431C289.79 475.137 291.027 475.245 292.142 475.462C293.284 475.678 294.29 476.003 295.16 476.436C296.057 476.869 296.805 477.397 297.403 478.02C298.028 478.642 298.491 479.373 298.79 480.212C299.116 481.024 299.279 481.931 299.279 482.933C299.279 483.88 299.13 484.746 298.83 485.531C298.559 486.316 298.137 487.007 297.566 487.602C296.995 488.198 296.288 488.685 295.445 489.064C294.603 489.416 293.624 489.659 292.509 489.795V490.322C293.488 490.431 294.344 490.688 295.078 491.094C295.812 491.5 296.438 492.095 296.954 492.88C297.471 493.638 297.92 494.653 298.3 495.926L300.013 501.935H295.976L294.589 496.453C294.344 495.344 293.923 494.45 293.325 493.774C292.754 493.097 292.033 492.596 291.163 492.271C290.293 491.947 289.273 491.784 288.104 491.784H282.802V501.935H279.05ZM282.802 488.739H288.104C290.524 488.739 292.346 488.306 293.569 487.44C294.82 486.573 295.445 485.247 295.445 483.461C295.445 481.674 294.847 480.361 293.651 479.522C292.482 478.656 290.66 478.223 288.186 478.223H282.802V488.739Z" fill="#121317"/>
<path d="M350.207 501.935V493.286L340.786 475.137H345.15L352.001 489.632H352.205L359.016 475.137H363.38L353.959 493.246V501.935H350.207Z" fill="#121317"/>
<path fill-rule="evenodd" clip-rule="evenodd" d="M136.247 71.7925C128.389 70.3699 121.161 76.4072 121.161 84.3922V252.17C121.161 260.475 128.945 266.583 137.012 264.607L214.01 245.745V285.663C214.01 291.594 217.843 296.847 223.492 298.656L311.76 326.923C320.564 329.743 329.564 323.175 329.564 313.93L329.564 165.374C329.564 156.13 320.564 149.562 311.76 152.381L273.641 164.589V107.364C273.641 101.172 269.211 95.8671 263.118 94.7639L136.247 71.7925ZM273.641 173.015V164.589L223.492 180.649C217.843 182.458 214.01 187.71 214.01 193.642L214.01 245.745L222.035 243.779V285.663C222.035 288.105 223.613 290.268 225.939 291.013L314.208 319.28C317.833 320.441 321.539 317.737 321.539 313.93L321.539 165.374C321.539 161.568 317.833 158.863 314.208 160.024L273.641 173.015ZM273.641 173.015V221.091C273.641 226.989 269.612 232.125 263.883 233.528L222.035 243.779L222.035 193.642C222.035 191.199 223.613 189.037 225.939 188.292L273.641 173.015Z" fill="#1DE885"/>
</svg>
