<svg width="450" height="555" viewBox="0 0 450 555" fill="none" xmlns="http://www.w3.org/2000/svg">
<path d="M85.7222 454.858V377.769H102.229V412.226C106.127 410.59 109.757 408.527 113.119 406.035C116.558 403.465 119.615 400.623 122.29 397.509C124.965 394.394 127.257 391.162 129.168 387.814C131.079 384.466 132.454 381.117 133.295 377.769H152.209C151.139 381.585 149.496 385.4 147.28 389.216C145.14 392.953 142.58 396.496 139.6 399.845C136.619 403.193 133.448 406.191 130.085 408.838C126.799 411.408 123.475 413.432 120.112 414.912V416.664C123.627 416.664 126.761 417.092 129.512 417.949C132.34 418.727 134.823 420.012 136.963 421.803C139.179 423.516 141.128 425.658 142.809 428.227C144.491 430.797 145.981 433.873 147.28 437.455L153.356 454.858H134.67L130.658 440.842C129.588 437.026 128.175 433.99 126.417 431.731C124.659 429.395 122.405 427.721 119.653 426.709C116.902 425.619 113.31 425.074 108.878 425.074H102.229V454.858H85.7222Z" fill="#121317"/>
<path d="M198.763 456.493C193.26 456.493 188.331 455.637 183.975 453.924C179.619 452.133 175.874 449.563 172.741 446.215C169.684 442.789 167.315 438.623 165.634 433.717C164.029 428.734 163.226 423.049 163.226 416.664C163.226 407.553 164.793 400.039 167.926 394.121C171.06 388.125 175.339 383.648 180.765 380.689C186.268 377.652 192.458 376.134 199.336 376.134C204.685 376.134 209.538 377.029 213.894 378.82C218.25 380.533 221.957 383.103 225.014 386.529C228.147 389.877 230.554 394.082 232.235 399.144C233.917 404.127 234.757 409.851 234.757 416.314C234.757 422.932 233.917 428.734 232.235 433.717C230.554 438.701 228.109 442.905 224.899 446.332C221.766 449.68 217.983 452.211 213.55 453.924C209.118 455.637 204.189 456.493 198.763 456.493ZM199.221 443.061C203.272 443.061 206.672 442.049 209.424 440.024C212.175 438 214.276 435.08 215.728 431.264C217.18 427.449 217.906 422.777 217.906 417.248C217.906 411.486 217.142 406.58 215.614 402.531C214.162 398.482 212.022 395.406 209.194 393.304C206.367 391.123 202.928 390.033 198.877 390.033C194.903 390.033 191.503 391.084 188.675 393.187C185.924 395.211 183.784 398.17 182.256 402.064C180.804 405.957 180.078 410.785 180.078 416.547C180.078 420.752 180.498 424.529 181.338 427.877C182.256 431.147 183.516 433.912 185.121 436.17C186.726 438.428 188.713 440.141 191.082 441.309C193.451 442.477 196.164 443.061 199.221 443.061Z" fill="#121317"/>
<path d="M251.916 454.858V377.769H273.467L307.742 432.315H309.003L307.971 377.769H324.02V454.858H304.532L268.308 397.742H267.047L268.079 454.858H251.916Z" fill="#121317"/>
<path d="M346.303 454.858V377.769H363.154V454.858H346.303Z" fill="#121317"/>
<path d="M96.4167 502.463C94.6222 502.463 93.0452 502.273 91.6857 501.894C90.3534 501.515 89.2251 500.96 88.3006 500.229C87.4034 499.472 86.7372 498.551 86.3022 497.468C85.8672 496.386 85.6769 495.127 85.7312 493.692L89.1163 492.962C89.0076 494.369 89.2387 495.547 89.8096 496.494C90.3806 497.441 91.2507 498.159 92.4198 498.646C93.589 499.106 94.962 499.336 96.539 499.336C98.0616 499.336 99.3531 499.147 100.414 498.768C101.474 498.389 102.262 497.861 102.779 497.184C103.323 496.508 103.595 495.736 103.595 494.87C103.595 493.895 103.282 493.124 102.657 492.556C102.031 491.987 101.188 491.554 100.128 491.256C99.0948 490.931 97.9393 490.634 96.6614 490.363C95.4107 490.092 94.1599 489.781 92.9092 489.429C91.6585 489.077 90.5302 488.631 89.5242 488.089C88.5453 487.521 87.7432 486.79 87.1179 485.897C86.5197 484.976 86.2206 483.812 86.2206 482.405C86.2206 480.808 86.6149 479.427 87.4034 478.263C88.2191 477.099 89.361 476.206 90.8292 475.584C92.2975 474.934 94.024 474.609 96.0088 474.609C97.9665 474.609 99.7066 474.92 101.229 475.543C102.779 476.166 104.003 477.086 104.9 478.304C105.797 479.495 106.273 480.97 106.327 482.73L102.82 483.582C102.82 482.608 102.643 481.755 102.29 481.024C101.963 480.266 101.501 479.657 100.903 479.197C100.305 478.71 99.5842 478.345 98.7414 478.101C97.8985 477.83 96.974 477.695 95.968 477.695C94.7445 477.695 93.6705 477.884 92.7461 478.263C91.8217 478.642 91.1011 479.157 90.5845 479.806C90.0679 480.456 89.8096 481.227 89.8096 482.121C89.8096 483.176 90.1767 484.015 90.9108 484.638C91.6721 485.234 92.6509 485.707 93.8473 486.059C95.0436 486.411 96.3215 486.736 97.681 487.034C98.8501 487.277 99.9921 487.575 101.107 487.927C102.249 488.252 103.282 488.698 104.206 489.267C105.131 489.808 105.865 490.525 106.409 491.419C106.953 492.312 107.224 493.449 107.224 494.829C107.224 496.372 106.817 497.712 106.001 498.849C105.212 499.986 104.016 500.879 102.412 501.529C100.808 502.151 98.8093 502.463 96.4167 502.463Z" fill="#121317"/>
<path d="M156.821 501.935V475.137H160.573V501.935H156.821ZM148.623 478.385V475.137H168.77V478.385H148.623Z" fill="#121317"/>
<path d="M222.016 502.463C220.059 502.463 218.332 502.138 216.837 501.488C215.369 500.839 214.118 499.905 213.085 498.687C212.079 497.468 211.317 496.02 210.801 494.342C210.284 492.637 210.026 490.728 210.026 488.617C210.026 485.531 210.542 482.96 211.576 480.903C212.609 478.818 214.036 477.248 215.858 476.193C217.68 475.137 219.746 474.609 222.057 474.609C223.879 474.609 225.524 474.92 226.992 475.543C228.46 476.166 229.711 477.086 230.744 478.304C231.805 479.522 232.62 481.011 233.191 482.77C233.762 484.503 234.048 486.479 234.048 488.698C234.048 490.783 233.776 492.677 233.232 494.383C232.715 496.061 231.94 497.509 230.907 498.727C229.901 499.918 228.651 500.839 227.155 501.488C225.687 502.138 223.974 502.463 222.016 502.463ZM222.057 499.255C223.797 499.255 225.265 498.849 226.462 498.037C227.685 497.198 228.61 496.007 229.235 494.464C229.888 492.894 230.214 490.999 230.214 488.779C230.214 486.479 229.888 484.53 229.235 482.933C228.583 481.309 227.645 480.063 226.421 479.197C225.198 478.331 223.716 477.898 221.976 477.898C220.317 477.898 218.876 478.318 217.652 479.157C216.429 479.996 215.491 481.214 214.838 482.811C214.186 484.408 213.86 486.37 213.86 488.698C213.86 490.377 214.036 491.879 214.39 493.205C214.77 494.504 215.301 495.614 215.98 496.535C216.687 497.428 217.544 498.105 218.55 498.565C219.583 499.025 220.752 499.255 222.057 499.255Z" fill="#121317"/>
<path d="M278.824 501.935V475.137H288.204C289.564 475.137 290.801 475.245 291.916 475.462C293.058 475.678 294.064 476.003 294.934 476.436C295.831 476.869 296.579 477.397 297.177 478.02C297.802 478.642 298.265 479.373 298.564 480.212C298.89 481.024 299.053 481.931 299.053 482.933C299.053 483.88 298.904 484.746 298.604 485.531C298.333 486.316 297.911 487.007 297.34 487.602C296.769 488.198 296.062 488.685 295.219 489.064C294.376 489.416 293.398 489.659 292.283 489.795V490.322C293.262 490.431 294.118 490.688 294.852 491.094C295.586 491.5 296.212 492.095 296.728 492.88C297.245 493.638 297.694 494.653 298.074 495.926L299.787 501.935H295.75L294.363 496.453C294.118 495.344 293.697 494.45 293.099 493.774C292.528 493.097 291.807 492.596 290.937 492.271C290.067 491.947 289.047 491.784 287.878 491.784H282.576V501.935H278.824ZM282.576 488.739H287.878C290.298 488.739 292.12 488.306 293.343 487.44C294.594 486.573 295.219 485.247 295.219 483.461C295.219 481.674 294.621 480.361 293.425 479.522C292.256 478.656 290.434 478.223 287.96 478.223H282.576V488.739Z" fill="#121317"/>
<path d="M349.981 501.935V493.286L340.56 475.137H344.924L351.775 489.632H351.979L358.79 475.137H363.154L353.733 493.246V501.935H349.981Z" fill="#121317"/>
<path fill-rule="evenodd" clip-rule="evenodd" d="M136.02 71.7925C128.163 70.3699 120.935 76.4073 120.935 84.3923V252.17C120.935 260.475 128.719 266.583 136.786 264.607L213.784 245.745V285.663C213.784 291.595 217.616 296.847 223.266 298.656L311.534 326.923C320.338 329.743 329.338 323.175 329.338 313.93L329.338 165.374C329.338 156.13 320.338 149.562 311.534 152.381L273.415 164.589V107.364C273.415 101.172 268.985 95.8671 262.892 94.764L136.02 71.7925ZM273.415 173.016V164.589L223.266 180.649C217.616 182.458 213.784 187.71 213.784 193.642L213.784 245.745L221.809 243.779V285.663C221.809 288.105 223.387 290.268 225.713 291.013L313.982 319.28C317.607 320.441 321.313 317.737 321.313 313.93L321.313 165.374C321.313 161.568 317.607 158.863 313.982 160.024L273.415 173.016ZM273.415 173.016V221.091C273.415 226.989 269.386 232.125 263.657 233.528L221.809 243.779L221.809 193.642C221.809 191.199 223.387 189.037 225.713 188.292L273.415 173.016Z" fill="#6F60F1"/>
</svg>
