<svg width="450" height="555" viewBox="0 0 450 555" fill="none" xmlns="http://www.w3.org/2000/svg">
<path d="M86.043 454.858V377.769H102.55V412.226C106.448 410.59 110.078 408.527 113.44 406.035C116.879 403.465 119.936 400.623 122.611 397.509C125.286 394.394 127.578 391.162 129.489 387.814C131.399 384.466 132.775 381.117 133.616 377.769H152.53C151.46 381.585 149.817 385.4 147.601 389.216C145.461 392.953 142.901 396.496 139.92 399.845C136.94 403.193 133.768 406.191 130.406 408.838C127.12 411.408 123.795 413.432 120.433 414.912V416.664C123.948 416.664 127.082 417.092 129.833 417.949C132.66 418.727 135.144 420.012 137.284 421.803C139.5 423.516 141.449 425.658 143.13 428.227C144.811 430.797 146.302 433.873 147.601 437.455L153.676 454.858H134.991L130.979 440.842C129.909 437.026 128.495 433.99 126.738 431.731C124.98 429.395 122.725 427.721 119.974 426.709C117.223 425.619 113.631 425.074 109.199 425.074H102.55V454.858H86.043Z" fill="white"/>
<path d="M199.083 456.493C193.581 456.493 188.652 455.637 184.296 453.924C179.94 452.133 176.195 449.563 173.062 446.215C170.005 442.789 167.636 438.623 165.955 433.717C164.35 428.734 163.547 423.049 163.547 416.664C163.547 407.553 165.114 400.039 168.247 394.121C171.381 388.125 175.66 383.648 181.086 380.689C186.588 377.652 192.779 376.134 199.657 376.134C205.006 376.134 209.859 377.029 214.215 378.82C218.571 380.533 222.277 383.103 225.334 386.529C228.468 389.877 230.875 394.082 232.556 399.144C234.238 404.127 235.078 409.851 235.078 416.314C235.078 422.932 234.238 428.734 232.556 433.717C230.875 438.701 228.429 442.905 225.22 446.332C222.086 449.68 218.304 452.211 213.871 453.924C209.439 455.637 204.509 456.493 199.083 456.493ZM199.542 443.061C203.592 443.061 206.993 442.049 209.744 440.024C212.495 438 214.597 435.08 216.049 431.264C217.501 427.449 218.227 422.777 218.227 417.248C218.227 411.486 217.463 406.58 215.934 402.531C214.482 398.482 212.343 395.406 209.515 393.304C206.687 391.123 203.248 390.033 199.198 390.033C195.224 390.033 191.823 391.084 188.996 393.187C186.245 395.211 184.105 398.17 182.576 402.064C181.124 405.957 180.398 410.785 180.398 416.547C180.398 420.752 180.819 424.529 181.659 427.877C182.576 431.147 183.837 433.912 185.442 436.17C187.047 438.428 189.034 440.141 191.403 441.309C193.772 442.477 196.485 443.061 199.542 443.061Z" fill="white"/>
<path d="M252.236 454.858V377.769H273.787L308.063 432.315H309.324L308.292 377.769H324.34V454.858H304.853L268.629 397.742H267.368L268.4 454.858H252.236Z" fill="white"/>
<path d="M346.624 454.858V377.769H363.475V454.858H346.624Z" fill="white"/>
<path d="M96.7375 502.463C94.943 502.463 93.366 502.273 92.0065 501.894C90.6742 501.515 89.5459 500.96 88.6214 500.229C87.7242 499.472 87.058 498.551 86.623 497.468C86.188 496.386 85.9977 495.127 86.052 493.692L89.4371 492.962C89.3284 494.369 89.5595 495.547 90.1304 496.494C90.7014 497.441 91.5715 498.159 92.7406 498.646C93.9098 499.106 95.2828 499.336 96.8598 499.336C98.3824 499.336 99.6739 499.147 100.734 498.768C101.795 498.389 102.583 497.861 103.1 497.184C103.644 496.508 103.915 495.736 103.915 494.87C103.915 493.895 103.603 493.124 102.977 492.556C102.352 491.987 101.509 491.554 100.449 491.256C99.4156 490.931 98.2601 490.634 96.9822 490.363C95.7315 490.092 94.4807 489.781 93.23 489.429C91.9793 489.077 90.851 488.631 89.845 488.089C88.8661 487.521 88.064 486.79 87.4387 485.897C86.8405 484.976 86.5414 483.812 86.5414 482.405C86.5414 480.808 86.9357 479.427 87.7242 478.263C88.5399 477.099 89.6818 476.206 91.15 475.584C92.6183 474.934 94.3448 474.609 96.3296 474.609C98.2873 474.609 100.027 474.92 101.55 475.543C103.1 476.166 104.323 477.086 105.221 478.304C106.118 479.495 106.594 480.97 106.648 482.73L103.141 483.582C103.141 482.608 102.964 481.755 102.61 481.024C102.284 480.266 101.822 479.657 101.224 479.197C100.626 478.71 99.905 478.345 99.0622 478.101C98.2193 477.83 97.2948 477.695 96.2888 477.695C95.0653 477.695 93.9913 477.884 93.0669 478.263C92.1425 478.642 91.4219 479.157 90.9053 479.806C90.3887 480.456 90.1304 481.227 90.1304 482.121C90.1304 483.176 90.4975 484.015 91.2316 484.638C91.9929 485.234 92.9717 485.707 94.1681 486.059C95.3644 486.411 96.6423 486.736 98.0018 487.034C99.1709 487.277 100.313 487.575 101.428 487.927C102.57 488.252 103.603 488.698 104.527 489.267C105.452 489.808 106.186 490.525 106.73 491.419C107.273 492.312 107.545 493.449 107.545 494.829C107.545 496.372 107.137 497.712 106.322 498.849C105.533 499.986 104.337 500.879 102.733 501.529C101.129 502.151 99.1301 502.463 96.7375 502.463Z" fill="white"/>
<path d="M157.142 501.935V475.137H160.894V501.935H157.142ZM148.944 478.385V475.137H169.091V478.385H148.944Z" fill="white"/>
<path d="M222.337 502.463C220.38 502.463 218.653 502.138 217.158 501.488C215.689 500.839 214.439 499.905 213.405 498.687C212.399 497.468 211.638 496.02 211.122 494.342C210.605 492.637 210.347 490.728 210.347 488.617C210.347 485.531 210.863 482.96 211.896 480.903C212.93 478.818 214.357 477.248 216.179 476.193C218 475.137 220.067 474.609 222.378 474.609C224.2 474.609 225.845 474.92 227.313 475.543C228.781 476.166 230.032 477.086 231.065 478.304C232.125 479.522 232.941 481.011 233.512 482.77C234.083 484.503 234.368 486.479 234.368 488.698C234.368 490.783 234.097 492.677 233.553 494.383C233.036 496.061 232.261 497.509 231.228 498.727C230.222 499.918 228.971 500.839 227.476 501.488C226.008 502.138 224.295 502.463 222.337 502.463ZM222.378 499.255C224.118 499.255 225.586 498.849 226.783 498.037C228.006 497.198 228.931 496.007 229.556 494.464C230.208 492.894 230.535 490.999 230.535 488.779C230.535 486.479 230.208 484.53 229.556 482.933C228.903 481.309 227.965 480.063 226.742 479.197C225.518 478.331 224.036 477.898 222.296 477.898C220.638 477.898 219.197 478.318 217.973 479.157C216.75 479.996 215.812 481.214 215.159 482.811C214.507 484.408 214.18 486.37 214.18 488.698C214.18 490.377 214.357 491.879 214.711 493.205C215.091 494.504 215.621 495.614 216.301 496.535C217.008 497.428 217.865 498.105 218.871 498.565C219.904 499.025 221.073 499.255 222.378 499.255Z" fill="white"/>
<path d="M279.145 501.935V475.137H288.525C289.885 475.137 291.122 475.245 292.237 475.462C293.379 475.678 294.385 476.003 295.255 476.436C296.152 476.869 296.9 477.397 297.498 478.02C298.123 478.642 298.585 479.373 298.884 480.212C299.211 481.024 299.374 481.931 299.374 482.933C299.374 483.88 299.224 484.746 298.925 485.531C298.653 486.316 298.232 487.007 297.661 487.602C297.09 488.198 296.383 488.685 295.54 489.064C294.697 489.416 293.718 489.659 292.604 489.795V490.322C293.582 490.431 294.439 490.688 295.173 491.094C295.907 491.5 296.533 492.095 297.049 492.88C297.566 493.638 298.014 494.653 298.395 495.926L300.108 501.935H296.07L294.684 496.453C294.439 495.344 294.018 494.45 293.419 493.774C292.848 493.097 292.128 492.596 291.258 492.271C290.388 491.947 289.368 491.784 288.199 491.784H282.897V501.935H279.145ZM282.897 488.739H288.199C290.619 488.739 292.441 488.306 293.664 487.44C294.915 486.573 295.54 485.247 295.54 483.461C295.54 481.674 294.942 480.361 293.746 479.522C292.576 478.656 290.755 478.223 288.281 478.223H282.897V488.739Z" fill="white"/>
<path d="M350.302 501.935V493.286L340.881 475.137H345.244L352.096 489.632H352.3L359.111 475.137H363.475L354.054 493.246V501.935H350.302Z" fill="white"/>
<path fill-rule="evenodd" clip-rule="evenodd" d="M136.341 71.7925C128.484 70.3699 121.255 76.4073 121.255 84.3923V252.17C121.255 260.475 129.04 266.583 137.106 264.607L214.104 245.745V285.663C214.104 291.595 217.937 296.847 223.586 298.656L311.855 326.923C320.659 329.743 329.659 323.175 329.659 313.93L329.659 165.374C329.659 156.13 320.659 149.562 311.855 152.381L273.736 164.589V107.364C273.736 101.172 269.306 95.8671 263.213 94.764L136.341 71.7925ZM273.736 173.016V164.589L223.586 180.649C217.937 182.458 214.104 187.71 214.104 193.642L214.104 245.745L222.13 243.779V285.663C222.13 288.105 223.708 290.268 226.034 291.013L314.303 319.28C317.928 320.441 321.634 317.737 321.634 313.93L321.634 165.374C321.634 161.568 317.928 158.863 314.303 160.024L273.736 173.016ZM273.736 173.016V221.091C273.736 226.989 269.707 232.125 263.978 233.528L222.13 243.779L222.13 193.642C222.13 191.199 223.708 189.037 226.034 188.292L273.736 173.016Z" fill="#1DE885"/>
</svg>
