<svg width="450" height="555" viewBox="0 0 450 555" fill="none" xmlns="http://www.w3.org/2000/svg">
<path d="M86.3638 447.858V370.769H102.871V405.226C106.768 403.59 110.398 401.527 113.761 399.035C117.2 396.465 120.257 393.623 122.932 390.509C125.606 387.394 127.899 384.162 129.81 380.814C131.72 377.466 133.096 374.117 133.936 370.769H152.851C151.781 374.585 150.138 378.4 147.922 382.216C145.782 385.953 143.222 389.496 140.241 392.845C137.261 396.193 134.089 399.191 130.727 401.838C127.441 404.408 124.116 406.432 120.754 407.912V409.664C124.269 409.664 127.402 410.092 130.154 410.949C132.981 411.727 135.465 413.012 137.605 414.803C139.821 416.516 141.77 418.658 143.451 421.227C145.132 423.797 146.622 426.873 147.922 430.455L153.997 447.858H135.312L131.3 433.842C130.23 430.026 128.816 426.99 127.058 424.731C125.301 422.395 123.046 420.721 120.295 419.709C117.544 418.619 113.952 418.074 109.52 418.074H102.871V447.858H86.3638Z" fill="#121317"/>
<path d="M199.404 449.493C193.902 449.493 188.973 448.637 184.617 446.924C180.261 445.133 176.516 442.563 173.383 439.215C170.326 435.789 167.957 431.623 166.275 426.717C164.671 421.734 163.868 416.049 163.868 409.664C163.868 400.553 165.435 393.039 168.568 387.121C171.701 381.125 175.981 376.648 181.407 373.689C186.909 370.652 193.099 369.134 199.977 369.134C205.327 369.134 210.18 370.029 214.536 371.82C218.892 373.533 222.598 376.103 225.655 379.529C228.788 382.877 231.196 387.082 232.877 392.144C234.558 397.127 235.399 402.851 235.399 409.314C235.399 415.932 234.558 421.734 232.877 426.717C231.196 431.701 228.75 435.905 225.541 439.332C222.407 442.68 218.624 445.211 214.192 446.924C209.759 448.637 204.83 449.493 199.404 449.493ZM199.863 436.061C203.913 436.061 207.314 435.049 210.065 433.024C212.816 431 214.918 428.08 216.37 424.264C217.822 420.449 218.548 415.777 218.548 410.248C218.548 404.486 217.784 399.58 216.255 395.531C214.803 391.482 212.663 388.406 209.836 386.304C207.008 384.123 203.569 383.033 199.519 383.033C195.545 383.033 192.144 384.084 189.317 386.187C186.565 388.211 184.426 391.17 182.897 395.064C181.445 398.957 180.719 403.785 180.719 409.547C180.719 413.752 181.139 417.529 181.98 420.877C182.897 424.147 184.158 426.912 185.763 429.17C187.368 431.428 189.355 433.141 191.724 434.309C194.093 435.477 196.806 436.061 199.863 436.061Z" fill="#121317"/>
<path d="M252.557 447.858V370.769H274.108L308.383 425.315H309.644L308.613 370.769H324.661V447.858H305.174L268.95 390.742H267.689L268.72 447.858H252.557Z" fill="#121317"/>
<path d="M346.945 447.858V370.769H363.796V447.858H346.945Z" fill="#121317"/>
<path d="M97.0583 495.463C95.2638 495.463 93.6868 495.273 92.3273 494.894C90.995 494.515 89.8667 493.96 88.9422 493.229C88.045 492.472 87.3788 491.551 86.9438 490.468C86.5088 489.386 86.3185 488.127 86.3728 486.692L89.7579 485.962C89.6492 487.369 89.8803 488.547 90.4512 489.494C91.0222 490.441 91.8923 491.159 93.0614 491.646C94.2306 492.106 95.6036 492.336 97.1806 492.336C98.7032 492.336 99.9947 492.147 101.055 491.768C102.115 491.389 102.904 490.861 103.421 490.184C103.964 489.508 104.236 488.736 104.236 487.87C104.236 486.895 103.924 486.124 103.298 485.556C102.673 484.987 101.83 484.554 100.77 484.256C99.7364 483.931 98.5809 483.634 97.303 483.363C96.0523 483.092 94.8015 482.781 93.5508 482.429C92.3001 482.077 91.1718 481.631 90.1658 481.089C89.1869 480.521 88.3848 479.79 87.7595 478.897C87.1613 477.976 86.8622 476.812 86.8622 475.405C86.8622 473.808 87.2565 472.427 88.045 471.263C88.8607 470.099 90.0026 469.206 91.4708 468.584C92.9391 467.934 94.6656 467.609 96.6504 467.609C98.6081 467.609 100.348 467.92 101.871 468.543C103.421 469.166 104.644 470.086 105.541 471.304C106.439 472.495 106.914 473.97 106.969 475.73L103.461 476.582C103.461 475.608 103.285 474.755 102.931 474.024C102.605 473.266 102.143 472.657 101.545 472.197C100.946 471.71 100.226 471.345 99.383 471.101C98.5401 470.83 97.6156 470.695 96.6096 470.695C95.3861 470.695 94.3121 470.884 93.3877 471.263C92.4633 471.642 91.7427 472.157 91.2261 472.806C90.7095 473.456 90.4512 474.227 90.4512 475.121C90.4512 476.176 90.8183 477.015 91.5524 477.638C92.3137 478.234 93.2925 478.707 94.4889 479.059C95.6852 479.411 96.9631 479.736 98.3226 480.034C99.4917 480.277 100.634 480.575 101.748 480.927C102.89 481.252 103.924 481.698 104.848 482.267C105.772 482.808 106.507 483.525 107.05 484.419C107.594 485.312 107.866 486.449 107.866 487.829C107.866 489.372 107.458 490.712 106.643 491.849C105.854 492.986 104.658 493.879 103.054 494.529C101.449 495.151 99.4509 495.463 97.0583 495.463Z" fill="#121317"/>
<path d="M157.462 494.935V468.137H161.215V494.935H157.462ZM149.265 471.385V468.137H169.412V471.385H149.265Z" fill="#121317"/>
<path d="M222.658 495.463C220.7 495.463 218.974 495.138 217.478 494.488C216.01 493.839 214.759 492.905 213.726 491.687C212.72 490.468 211.959 489.02 211.442 487.342C210.926 485.637 210.667 483.728 210.667 481.617C210.667 478.531 211.184 475.96 212.217 473.903C213.25 471.818 214.678 470.248 216.5 469.193C218.321 468.137 220.388 467.609 222.699 467.609C224.52 467.609 226.165 467.92 227.634 468.543C229.102 469.166 230.353 470.086 231.386 471.304C232.446 472.522 233.262 474.011 233.833 475.77C234.404 477.503 234.689 479.479 234.689 481.698C234.689 483.783 234.417 485.677 233.874 487.383C233.357 489.061 232.582 490.509 231.549 491.727C230.543 492.918 229.292 493.839 227.797 494.488C226.329 495.138 224.616 495.463 222.658 495.463ZM222.699 492.255C224.439 492.255 225.907 491.849 227.103 491.037C228.327 490.198 229.251 489.007 229.877 487.464C230.529 485.894 230.856 483.999 230.856 481.779C230.856 479.479 230.529 477.53 229.877 475.933C229.224 474.309 228.286 473.063 227.063 472.197C225.839 471.331 224.357 470.898 222.617 470.898C220.959 470.898 219.518 471.318 218.294 472.157C217.071 472.996 216.133 474.214 215.48 475.811C214.827 477.408 214.501 479.37 214.501 481.698C214.501 483.377 214.678 484.879 215.031 486.205C215.412 487.504 215.942 488.614 216.622 489.535C217.329 490.428 218.185 491.105 219.191 491.565C220.225 492.025 221.394 492.255 222.699 492.255Z" fill="#121317"/>
<path d="M279.466 494.935V468.137H288.846C290.206 468.137 291.443 468.245 292.557 468.462C293.699 468.678 294.705 469.003 295.575 469.436C296.473 469.869 297.22 470.397 297.819 471.02C298.444 471.642 298.906 472.373 299.205 473.212C299.531 474.024 299.695 474.931 299.695 475.933C299.695 476.88 299.545 477.746 299.246 478.531C298.974 479.316 298.553 480.007 297.982 480.602C297.411 481.198 296.704 481.685 295.861 482.064C295.018 482.416 294.039 482.659 292.924 482.795V483.322C293.903 483.431 294.76 483.688 295.494 484.094C296.228 484.5 296.853 485.095 297.37 485.88C297.887 486.638 298.335 487.653 298.716 488.926L300.429 494.935H296.391L295.004 489.453C294.76 488.344 294.338 487.45 293.74 486.774C293.169 486.097 292.449 485.596 291.579 485.271C290.709 484.947 289.689 484.784 288.52 484.784H283.218V494.935H279.466ZM283.218 481.739H288.52C290.94 481.739 292.761 481.306 293.985 480.44C295.236 479.573 295.861 478.247 295.861 476.461C295.861 474.674 295.263 473.361 294.066 472.522C292.897 471.656 291.076 471.223 288.601 471.223H283.218V481.739Z" fill="#121317"/>
<path d="M350.622 494.935V486.286L341.201 468.137H345.565L352.417 482.632H352.621L359.432 468.137H363.796L354.375 486.246V494.935H350.622Z" fill="#121317"/>
<g clip-path="url(#clip0_4086_567)">
<path d="M364 199C364 122.232 301.768 60 225 60C148.232 60 86 122.232 86 199C86 275.768 148.232 338 225 338C301.768 338 364 275.768 364 199Z" fill="#11DE7A"/>
<mask id="mask0_4086_567" style="mask-type:alpha" maskUnits="userSpaceOnUse" x="94" y="66" width="263" height="264">
<path d="M357 197.76C357 125.18 298.162 66.3418 225.582 66.3418C153.002 66.3418 94.1637 125.18 94.1637 197.76C94.1637 270.34 153.002 329.178 225.582 329.178C298.162 329.178 357 270.34 357 197.76Z" fill="#6F60F1"/>
</mask>
<g mask="url(#mask0_4086_567)">
<path d="M255.873 101.35C256.806 101.248 257.745 101.496 258.508 102.05C259.322 102.64 259.868 103.53 260.026 104.522C260.257 105.971 260.342 107.409 260.295 108.822C260.29 108.968 260.276 109.113 260.255 109.258C260.014 110.864 259.583 112.464 258.976 113.993C259.76 113.846 260.579 113.949 261.312 114.3C287.317 126.753 305.105 152.87 307.568 181.558C308.602 193.59 315.988 251.448 304.97 299.68C300.237 320.396 291.113 352.389 282.962 378.849C282.429 380.579 280.747 381.69 278.946 381.503L116.644 364.596C115.529 364.48 114.523 363.877 113.896 362.949C113.268 362.021 113.084 360.863 113.391 359.786L136.362 279.198V279.197C141.893 259.796 144.688 239.728 144.662 219.631L144.628 192.573C144.571 147.872 178.293 110.283 221.053 106.888L255.687 101.374L255.873 101.35Z" fill="white" stroke="#074225" stroke-width="7.58182" stroke-linejoin="round"/>
<path d="M261.436 223.468C261.375 219.788 258.054 217.024 254.425 217.632L247.352 218.817C238.506 220.299 229.488 220.448 220.597 219.26L213.489 218.31C209.841 217.822 206.614 220.694 206.675 224.374C206.725 227.351 208.944 229.844 211.895 230.239L218.75 231.155C228.998 232.525 239.395 232.353 249.592 230.644L256.413 229.502C259.35 229.01 261.485 226.445 261.436 223.468Z" fill="#FFC123"/>
<path d="M213.741 216.431C208.944 215.79 204.7 219.567 204.781 224.405C204.845 228.32 207.763 231.599 211.644 232.118L218.498 233.034C228.934 234.429 239.521 234.254 249.905 232.514L256.726 231.371C260.587 230.724 263.396 227.35 263.331 223.436C263.25 218.597 258.884 214.964 254.111 215.763L247.039 216.948C238.38 218.398 229.551 218.544 220.848 217.381L213.741 216.431ZM208.571 224.343C208.529 221.822 210.739 219.855 213.238 220.189L220.346 221.139C229.424 222.352 238.632 222.2 247.665 220.686L254.738 219.501C257.224 219.085 259.499 220.979 259.541 223.499C259.574 225.538 258.111 227.296 256.1 227.633L249.279 228.775C239.268 230.452 229.062 230.621 219.001 229.276L212.146 228.36C210.124 228.09 208.605 226.382 208.571 224.343Z" fill="#074225"/>
<path d="M273.964 210.332C273.874 204.902 269.061 200.77 263.68 201.501L251.618 203.141C240.129 204.702 228.495 204.895 216.961 203.714L204.851 202.475C199.448 201.922 194.776 206.212 194.865 211.642C194.941 216.232 198.438 220.041 203.005 220.509L215.117 221.748C228.077 223.075 241.149 222.858 254.058 221.104L266.122 219.464C270.671 218.845 274.04 214.923 273.964 210.332Z" fill="#FFC123"/>
<path d="M205.044 200.59C198.512 199.922 192.862 205.108 192.97 211.674C193.062 217.224 197.29 221.83 202.812 222.395L214.925 223.635C228.034 224.977 241.255 224.757 254.313 222.982L266.377 221.343C271.878 220.596 275.951 215.852 275.859 210.301C275.75 203.736 269.932 198.739 263.425 199.623L251.363 201.263C240.023 202.805 228.539 202.995 217.154 201.83L205.044 200.59ZM196.761 211.611C196.69 207.317 200.385 203.924 204.658 204.361L216.768 205.601C228.452 206.797 240.236 206.602 251.873 205.02L263.936 203.38C268.191 202.802 271.997 206.07 272.068 210.364C272.129 213.995 269.464 217.097 265.866 217.586L253.802 219.227C241.042 220.961 228.121 221.175 215.31 219.863L203.199 218.623C199.586 218.254 196.821 215.242 196.761 211.611Z" fill="#074225"/>
<ellipse cx="8.3673" cy="9.79432" rx="8.3673" ry="9.79432" transform="matrix(-0.999863 0.0165516 0.0165516 0.999863 211.598 167.601)" fill="#074225"/>
<path fill-rule="evenodd" clip-rule="evenodd" d="M269.724 167.29C268.448 166.036 266.398 166.054 265.144 167.33C265.174 167.299 265.167 167.304 265.103 167.354C265.013 167.422 264.813 167.576 264.449 167.834C263.923 168.207 263.229 168.68 262.42 169.22C261.376 169.919 260.19 170.698 258.99 171.487C258.325 171.924 257.656 172.363 257.005 172.794C253.415 175.164 254.494 180.567 258.58 181.52L268.786 183.899C270.528 184.305 272.269 183.222 272.675 181.48C273.081 179.738 271.998 177.997 270.256 177.591L263.789 176.083C264.57 175.569 265.33 175.067 266.021 174.605C266.844 174.054 267.598 173.542 268.197 173.117C268.696 172.763 269.354 172.287 269.764 171.87C271.018 170.594 271 168.543 269.724 167.29Z" fill="#074225"/>
<circle cx="204.052" cy="179.95" r="22.7455" transform="rotate(-1.95751 204.052 179.95)" fill="#074225"/>
<circle cx="265.934" cy="177.836" r="22.7455" transform="rotate(-1.95751 265.934 177.836)" fill="#074225"/>
<rect x="222.278" y="176.8" width="25.2727" height="5.05455" rx="2.52727" transform="rotate(-1.95751 222.278 176.8)" fill="#074225"/>
<rect x="199.226" y="186.726" width="21.0908" height="3.79091" rx="1.89545" transform="rotate(-46.9575 199.226 186.726)" fill="white"/>
<rect x="261.74" y="184.59" width="22.7455" height="3.79091" rx="1.89545" transform="rotate(-46.9575 261.74 184.59)" fill="white"/>
<rect x="194.537" y="178.992" width="15.1636" height="4.22331" rx="2.11165" transform="rotate(-46.9575 194.537 178.992)" fill="white"/>
<rect x="257.05" y="176.855" width="15.1636" height="4.22331" rx="2.11165" transform="rotate(-46.9575 257.05 176.855)" fill="white"/>
</g>
<path d="M210.867 65.8018C284.43 57.9966 350.392 111.304 358.197 184.867C366.002 258.43 312.694 324.392 239.131 332.197C165.568 340.002 99.6064 286.695 91.8012 213.132C83.9963 139.569 137.304 73.6069 210.867 65.8018Z" stroke="#074225" stroke-width="10.1091"/>
</g>
<defs>
<clipPath id="clip0_4086_567">
<rect width="278" height="278" fill="white" transform="matrix(-1 0 0 1 364 60)"/>
</clipPath>
</defs>
</svg>
