<svg width="1324" height="555" viewBox="0 0 1324 555" fill="none" xmlns="http://www.w3.org/2000/svg">
<path d="M531.604 321.563V149.595H568.396V226.46C577.083 222.812 585.173 218.209 592.668 212.65C600.333 206.918 607.146 200.578 613.108 193.629C619.07 186.681 624.18 179.472 628.438 172.003C632.696 164.534 635.762 157.064 637.636 149.595H679.793C677.408 158.107 673.746 166.618 668.807 175.13C664.037 183.468 658.331 191.371 651.688 198.84C645.045 206.31 637.976 212.997 630.482 218.903C623.158 224.636 615.748 229.152 608.253 232.452V236.361C616.089 236.361 623.072 237.316 629.204 239.227C635.507 240.964 641.042 243.83 645.812 247.825C650.751 251.647 655.095 256.424 658.842 262.156C662.59 267.888 665.911 274.75 668.807 282.74L682.348 321.563H640.702L631.759 290.296C629.375 281.785 626.224 275.01 622.306 269.973C618.388 264.762 613.363 261.027 607.231 258.769C601.099 256.337 593.094 255.121 583.215 255.121H568.396V321.563H531.604Z" fill="white"/>
<path d="M783.554 325.211C771.29 325.211 760.303 323.3 750.594 319.479C740.885 315.484 732.539 309.751 725.555 302.282C718.742 294.639 713.462 285.346 709.714 274.402C706.137 263.285 704.349 250.605 704.349 236.361C704.349 216.037 707.841 199.275 714.824 186.073C721.808 172.698 731.347 162.71 743.44 156.109C755.704 149.335 769.501 145.947 784.831 145.947C796.754 145.947 807.571 147.945 817.279 151.94C826.988 155.762 835.25 161.494 842.063 169.137C849.046 176.606 854.412 185.986 858.159 197.277C861.907 208.394 863.78 221.162 863.78 235.579C863.78 250.344 861.907 263.285 858.159 274.402C854.412 285.519 848.961 294.899 841.807 302.542C834.824 310.012 826.392 315.657 816.513 319.479C806.634 323.3 795.647 325.211 783.554 325.211ZM784.576 295.247C793.603 295.247 801.183 292.989 807.315 288.472C813.447 283.956 818.131 277.442 821.367 268.931C824.604 260.419 826.222 249.997 826.222 237.664C826.222 224.809 824.519 213.866 821.112 204.833C817.876 195.801 813.106 188.939 806.804 184.249C800.502 179.386 792.837 176.954 783.809 176.954C774.952 176.954 767.372 179.299 761.07 183.989C754.938 188.505 750.168 195.106 746.762 203.791C743.525 212.476 741.907 223.246 741.907 236.1C741.907 245.48 742.844 253.905 744.718 261.374C746.762 268.67 749.572 274.837 753.149 279.874C756.726 284.911 761.155 288.733 766.435 291.338C771.716 293.944 777.762 295.247 784.576 295.247Z" fill="white"/>
<path d="M902.023 321.563V149.595H950.057L1026.45 271.276H1029.26L1026.96 149.595H1062.73V321.563H1019.3L938.56 194.15H935.749L938.049 321.563H902.023Z" fill="white"/>
<path d="M1112.4 321.563V149.595H1149.96V321.563H1112.4Z" fill="white"/>
<path d="M556.606 427.912C552.475 427.912 548.844 427.474 545.714 426.598C542.647 425.721 540.049 424.438 537.92 422.748C535.854 420.995 534.321 418.866 533.319 416.362C532.318 413.858 531.879 410.947 532.005 407.63L539.798 405.939C539.548 409.195 540.08 411.918 541.395 414.109C542.709 416.3 544.712 417.959 547.404 419.086C550.096 420.15 553.257 420.682 556.888 420.682C560.394 420.682 563.367 420.244 565.809 419.367C568.25 418.491 570.065 417.27 571.255 415.705C572.507 414.14 573.133 412.356 573.133 410.353C573.133 408.099 572.413 406.315 570.973 405C569.533 403.686 567.593 402.684 565.151 401.996C562.773 401.244 560.112 400.556 557.17 399.93C554.29 399.304 551.411 398.584 548.531 397.77C545.651 396.956 543.053 395.923 540.737 394.671C538.484 393.357 536.637 391.667 535.197 389.601C533.82 387.472 533.131 384.781 533.131 381.525C533.131 377.832 534.039 374.639 535.854 371.948C537.732 369.256 540.362 367.19 543.742 365.75C547.123 364.248 551.098 363.497 555.667 363.497C560.175 363.497 564.181 364.217 567.687 365.656C571.255 367.096 574.072 369.225 576.138 372.042C578.203 374.796 579.299 378.208 579.424 382.277L571.349 384.249C571.349 381.995 570.942 380.023 570.128 378.333C569.377 376.58 568.313 375.172 566.935 374.107C565.558 372.981 563.899 372.135 561.959 371.572C560.018 370.946 557.89 370.633 555.574 370.633C552.757 370.633 550.284 371.071 548.155 371.948C546.027 372.824 544.368 374.013 543.179 375.516C541.989 377.018 541.395 378.802 541.395 380.868C541.395 383.31 542.24 385.25 543.93 386.69C545.683 388.067 547.936 389.163 550.691 389.976C553.445 390.79 556.387 391.541 559.517 392.23C562.209 392.793 564.838 393.482 567.405 394.296C570.034 395.047 572.413 396.08 574.541 397.395C576.67 398.647 578.36 400.305 579.612 402.371C580.864 404.437 581.49 407.066 581.49 410.259C581.49 413.827 580.551 416.926 578.673 419.555C576.858 422.184 574.103 424.25 570.41 425.752C566.716 427.192 562.115 427.912 556.606 427.912ZM691.923 426.691V364.717H700.562V426.691H691.923ZM673.049 372.229V364.717H719.436V372.229H673.049ZM803.717 426.691L825.502 364.717H838.084L859.869 426.691H850.573L832.356 371.948H831.23L813.013 426.691H803.717ZM814.046 412.794V406.221H850.573V412.794H814.046ZM979.952 427.912C975.507 427.912 971.501 427.224 967.933 425.846C964.427 424.469 961.454 422.435 959.012 419.743C956.571 417.051 954.693 413.764 953.378 409.883C952.126 405.939 951.5 401.464 951.5 396.456C951.5 391.385 952.157 386.846 953.472 382.84C954.787 378.771 956.665 375.297 959.106 372.417C961.547 369.538 964.49 367.347 967.933 365.844C971.376 364.279 975.226 363.497 979.482 363.497C982.738 363.497 985.742 363.966 988.497 364.905C991.251 365.782 993.63 367.096 995.633 368.849C997.699 370.539 999.295 372.605 1000.42 375.046C1001.55 377.488 1002.14 380.211 1002.21 383.216L994.037 385.281C994.099 382.089 993.442 379.46 992.065 377.394C990.688 375.265 988.872 373.669 986.619 372.605C984.365 371.541 981.924 371.009 979.295 371.009C976.853 371.009 974.474 371.509 972.158 372.511C969.905 373.45 967.901 374.952 966.149 377.018C964.396 379.021 962.987 381.619 961.923 384.812C960.921 387.942 960.421 391.729 960.421 396.174C960.421 401.87 961.234 406.472 962.862 409.977C964.552 413.483 966.9 416.081 969.905 417.771C972.909 419.399 976.384 420.212 980.327 420.212C984.146 420.212 987.213 419.524 989.53 418.147C991.846 416.707 993.567 414.735 994.694 412.231C995.821 409.664 996.478 406.722 996.666 403.404L1004.37 404.813C1004.3 407.943 1003.8 410.916 1002.86 413.733C1001.92 416.55 1000.48 419.023 998.544 421.151C996.603 423.28 994.099 424.939 991.032 426.128C987.965 427.317 984.271 427.912 979.952 427.912ZM1101.74 426.691V364.717H1110.38V394.296C1113.82 393.106 1117.17 391.51 1120.43 389.507C1123.75 387.441 1126.78 385.125 1129.54 382.558C1132.29 379.929 1134.7 377.112 1136.77 374.107C1138.83 371.04 1140.4 367.91 1141.46 364.717H1151.04C1149.79 368.348 1148.13 371.76 1146.06 374.952C1144.06 378.145 1141.74 381.056 1139.11 383.685C1136.55 386.314 1133.86 388.599 1131.04 390.54C1128.28 392.48 1125.53 394.045 1122.78 395.235V396.456C1125.84 396.456 1128.6 396.862 1131.04 397.676C1133.54 398.49 1135.8 399.679 1137.8 401.244C1139.87 402.809 1141.68 404.813 1143.25 407.254C1144.87 409.695 1146.34 412.575 1147.66 415.893L1151.6 426.691H1141.93L1139.4 418.428C1137.96 414.484 1136.27 411.26 1134.33 408.756C1132.45 406.19 1130.04 404.281 1127.09 403.029C1124.22 401.714 1120.49 401.057 1115.92 401.057H1110.38V426.691H1101.74Z" fill="white"/>
<path fill-rule="evenodd" clip-rule="evenodd" d="M335.142 161.319C337.644 161.976 339.388 164.237 339.388 166.823V195.108L308.276 208.719C303.097 210.984 299.75 216.101 299.75 221.753L299.75 335.405C299.75 341.057 303.097 346.174 308.276 348.439L339.388 362.05V374.458C339.388 376.866 337.872 379.014 335.602 379.82L190.098 431.517C186.393 432.833 182.501 430.086 182.501 426.154L182.501 128.613C182.501 124.883 186.03 122.161 189.638 123.109L335.142 161.319ZM353.615 368.274V378.475C353.615 384.497 349.825 389.866 344.151 391.882L187.265 447.622C178.003 450.912 168.274 444.044 168.274 434.216V121.235C168.274 111.909 177.095 105.106 186.115 107.474L343.001 148.673C349.255 150.316 353.615 155.968 353.615 162.434V188.884L339.388 195.108L339.388 362.05L353.615 368.274ZM353.615 368.274L425.777 399.842C435.177 403.954 445.706 397.067 445.706 386.807L445.706 170.35C445.706 160.091 435.177 153.204 425.777 157.316L353.615 188.884V368.274Z" fill="#6F60F1"/>
</svg>
