<svg width="450" height="555" viewBox="0 0 450 555" fill="none" xmlns="http://www.w3.org/2000/svg">
<path fill-rule="evenodd" clip-rule="evenodd" d="M246.154 103.739C248.03 104.232 249.338 105.928 249.338 107.868V129.081L226.003 139.289C222.119 140.988 219.61 144.825 219.61 149.065L219.61 234.303C219.61 238.543 222.119 242.38 226.003 244.079L249.338 254.287V263.593C249.338 265.4 248.201 267.011 246.499 267.615L137.37 306.388C134.592 307.375 131.673 305.314 131.673 302.366L131.673 79.2099C131.673 76.4123 134.32 74.3711 137.025 75.0817L246.154 103.739ZM260.008 258.955V266.607C260.008 271.122 257.166 275.149 252.91 276.661L135.245 318.466C128.299 320.934 121.003 315.783 121.003 308.412V73.6761C121.003 66.6821 127.619 61.5792 134.383 63.3556L252.048 94.255C256.738 95.4867 260.008 99.7262 260.008 104.576V124.413L249.338 129.081L249.338 254.287L260.008 258.955ZM260.008 258.955L314.129 282.631C321.179 285.715 329.077 280.55 329.077 272.855L329.077 110.513C329.077 102.818 321.179 97.6528 314.13 100.737L260.008 124.413V258.955Z" fill="#6F60F1"/>
<path d="M86.8572 444.502V367.668H103.301V402.011C107.183 400.381 110.799 398.324 114.149 395.841C117.575 393.279 120.62 390.447 123.284 387.342C125.949 384.238 128.233 381.017 130.136 377.68C132.039 374.342 133.409 371.005 134.247 367.668H153.088C152.023 371.471 150.386 375.274 148.178 379.077C146.047 382.802 143.496 386.333 140.527 389.671C137.558 393.008 134.399 395.996 131.049 398.635C127.776 401.196 124.464 403.214 121.115 404.688V406.434C124.617 406.434 127.738 406.861 130.478 407.715C133.295 408.491 135.769 409.772 137.901 411.557C140.109 413.264 142.05 415.398 143.725 417.96C145.4 420.521 146.884 423.586 148.178 427.156L154.23 444.502H135.617L131.62 430.532C130.555 426.73 129.146 423.703 127.395 421.452C125.644 419.124 123.399 417.455 120.658 416.446C117.917 415.36 114.339 414.816 109.924 414.816H103.301V444.502H86.8572Z" fill="#121317"/>
<path d="M199.463 446.132C193.982 446.132 189.071 445.278 184.732 443.571C180.393 441.786 176.663 439.225 173.541 435.888C170.496 432.473 168.136 428.321 166.461 423.431C164.863 418.464 164.063 412.798 164.063 406.434C164.063 397.354 165.624 389.865 168.745 383.966C171.867 377.99 176.13 373.528 181.535 370.578C187.016 367.551 193.182 366.038 200.034 366.038C205.363 366.038 210.197 366.931 214.536 368.716C218.876 370.423 222.568 372.984 225.613 376.399C228.734 379.736 231.132 383.927 232.807 388.972C234.482 393.939 235.319 399.643 235.319 406.085C235.319 412.682 234.482 418.464 232.807 423.431C231.132 428.398 228.696 432.589 225.499 436.004C222.377 439.341 218.609 441.864 214.194 443.571C209.778 445.278 204.868 446.132 199.463 446.132ZM199.92 432.744C203.954 432.744 207.342 431.735 210.083 429.718C212.823 427.7 214.917 424.789 216.363 420.986C217.81 417.183 218.533 412.527 218.533 407.016C218.533 401.273 217.772 396.384 216.249 392.348C214.803 388.312 212.671 385.247 209.854 383.151C207.038 380.978 203.612 379.892 199.577 379.892C195.618 379.892 192.231 380.939 189.414 383.035C186.673 385.053 184.542 388.002 183.019 391.882C181.573 395.763 180.85 400.575 180.85 406.318C180.85 410.509 181.268 414.273 182.106 417.61C183.019 420.87 184.275 423.625 185.874 425.876C187.473 428.127 189.452 429.834 191.812 430.998C194.172 432.162 196.875 432.744 199.92 432.744Z" fill="#121317"/>
<path d="M252.411 444.502V367.668H273.879L308.023 422.034H309.279L308.251 367.668H324.238V444.502H304.825L268.741 387.575H267.485L268.512 444.502H252.411Z" fill="#121317"/>
<path d="M346.436 444.502V367.668H363.222V444.502H346.436Z" fill="#121317"/>
<path d="M97.7821 491.95C96.001 491.95 94.4357 491.761 93.0863 491.383C91.7639 491.005 90.6439 490.452 89.7263 489.724C88.8357 488.968 88.1745 488.051 87.7427 486.972C87.3109 485.893 87.122 484.638 87.176 483.208L90.536 482.48C90.428 483.883 90.6574 485.056 91.2241 486.001C91.7909 486.945 92.6545 487.66 93.815 488.145C94.9754 488.604 96.3383 488.833 97.9036 488.833C99.4149 488.833 100.697 488.645 101.749 488.267C102.802 487.889 103.584 487.363 104.097 486.689C104.637 486.014 104.907 485.245 104.907 484.382C104.907 483.411 104.597 482.642 103.976 482.075C103.355 481.509 102.518 481.077 101.466 480.78C100.44 480.456 99.2935 480.16 98.025 479.89C96.7836 479.62 95.5422 479.31 94.3007 478.959C93.0593 478.608 91.9393 478.163 90.9408 477.624C89.9692 477.057 89.1731 476.329 88.5524 475.438C87.9586 474.521 87.6618 473.361 87.6618 471.958C87.6618 470.366 88.0531 468.99 88.8357 467.83C89.6454 466.67 90.7788 465.78 92.2362 465.159C93.6935 464.512 95.4072 464.188 97.3773 464.188C99.3204 464.188 101.048 464.498 102.559 465.119C104.097 465.739 105.312 466.657 106.202 467.871C107.093 469.058 107.565 470.528 107.619 472.282L104.138 473.132C104.138 472.16 103.962 471.311 103.611 470.582C103.288 469.827 102.829 469.22 102.235 468.761C101.641 468.275 100.926 467.911 100.09 467.668C99.253 467.399 98.3354 467.264 97.3368 467.264C96.1224 467.264 95.0564 467.453 94.1388 467.83C93.2212 468.208 92.5061 468.721 91.9933 469.368C91.4805 470.016 91.2241 470.784 91.2241 471.675C91.2241 472.727 91.5885 473.563 92.3171 474.184C93.0728 474.777 94.0444 475.249 95.2318 475.6C96.4193 475.951 97.6877 476.275 99.0371 476.571C100.198 476.814 101.331 477.111 102.438 477.462C103.571 477.786 104.597 478.231 105.514 478.797C106.432 479.337 107.16 480.052 107.7 480.942C108.24 481.832 108.51 482.966 108.51 484.341C108.51 485.879 108.105 487.215 107.295 488.348C106.513 489.481 105.325 490.371 103.733 491.019C102.141 491.639 100.157 491.95 97.7821 491.95Z" fill="#121317"/>
<path d="M158.143 491.423V464.714H161.867V491.423H158.143ZM150.006 467.952V464.714H170.004V467.952H150.006Z" fill="#121317"/>
<path d="M208.363 491.423L217.754 464.714H223.179L232.571 491.423H228.563L220.71 467.83H220.224L212.37 491.423H208.363ZM212.816 485.434V482.601H228.563V485.434H212.816Z" fill="#121317"/>
<path d="M286.364 491.95C284.448 491.95 282.721 491.653 281.182 491.059C279.671 490.466 278.389 489.589 277.336 488.429C276.284 487.269 275.474 485.852 274.908 484.18C274.368 482.48 274.098 480.551 274.098 478.393C274.098 476.207 274.381 474.251 274.948 472.525C275.515 470.771 276.324 469.274 277.377 468.033C278.429 466.792 279.698 465.847 281.182 465.2C282.667 464.525 284.326 464.188 286.161 464.188C287.565 464.188 288.86 464.39 290.048 464.795C291.235 465.173 292.261 465.739 293.124 466.495C294.015 467.223 294.703 468.114 295.189 469.166C295.675 470.218 295.931 471.391 295.958 472.686L292.436 473.577C292.463 472.201 292.18 471.068 291.586 470.177C290.992 469.26 290.21 468.572 289.238 468.114C288.266 467.655 287.214 467.426 286.08 467.426C285.028 467.426 284.002 467.641 283.004 468.073C282.032 468.478 281.169 469.125 280.413 470.016C279.657 470.879 279.05 471.999 278.591 473.374C278.16 474.723 277.944 476.356 277.944 478.271C277.944 480.726 278.295 482.709 278.996 484.22C279.725 485.731 280.737 486.85 282.032 487.579C283.328 488.28 284.826 488.631 286.526 488.631C288.172 488.631 289.494 488.334 290.493 487.741C291.492 487.12 292.234 486.27 292.719 485.191C293.205 484.085 293.489 482.817 293.57 481.387L296.889 481.994C296.862 483.343 296.646 484.625 296.241 485.839C295.837 487.053 295.216 488.118 294.379 489.036C293.543 489.953 292.463 490.668 291.141 491.181C289.818 491.693 288.226 491.95 286.364 491.95Z" fill="#121317"/>
<path d="M340.893 491.423V464.714H344.617V477.462C346.102 476.949 347.545 476.261 348.949 475.398C350.379 474.508 351.688 473.509 352.876 472.403C354.063 471.27 355.102 470.056 355.993 468.761C356.883 467.439 357.558 466.09 358.017 464.714H362.146C361.606 466.279 360.891 467.749 360 469.125C359.137 470.501 358.138 471.756 357.005 472.889C355.898 474.022 354.738 475.007 353.523 475.843C352.336 476.679 351.148 477.354 349.961 477.866V478.393C351.283 478.393 352.471 478.568 353.523 478.919C354.603 479.269 355.574 479.782 356.438 480.456C357.329 481.131 358.111 481.994 358.786 483.046C359.488 484.099 360.122 485.34 360.688 486.77L362.389 491.423H358.219L357.126 487.862C356.505 486.163 355.777 484.773 354.94 483.694C354.13 482.588 353.091 481.765 351.823 481.225C350.582 480.659 348.976 480.376 347.006 480.376H344.617V491.423H340.893Z" fill="#121317"/>
</svg>
