<svg width="450" height="555" viewBox="0 0 450 555" fill="none" xmlns="http://www.w3.org/2000/svg">
<path fill-rule="evenodd" clip-rule="evenodd" d="M246.248 103.739C248.124 104.232 249.432 105.928 249.432 107.868V129.081L226.098 139.289C222.214 140.988 219.704 144.825 219.704 149.065L219.704 234.303C219.704 238.543 222.214 242.38 226.098 244.079L249.432 254.287V263.593C249.432 265.4 248.295 267.011 246.593 267.615L137.465 306.388C134.686 307.375 131.768 305.314 131.768 302.366L131.768 79.2099C131.768 76.4123 134.414 74.3711 137.12 75.0817L246.248 103.739ZM260.103 258.955V266.607C260.103 271.122 257.26 275.149 253.005 276.661L135.34 318.466C128.394 320.934 121.097 315.783 121.097 308.412V73.6761C121.097 66.6821 127.713 61.5792 134.478 63.3556L252.143 94.255C256.833 95.4867 260.103 99.7262 260.103 104.576V124.413L249.432 129.081L249.432 254.287L260.103 258.955ZM260.103 258.955L314.224 282.631C321.274 285.715 329.171 280.55 329.171 272.855L329.171 110.513C329.171 102.818 321.274 97.6528 314.224 100.737L260.103 124.413V258.955Z" fill="#6F60F1"/>
<path d="M86.9517 444.502V367.668H103.395V402.011C107.278 400.381 110.894 398.324 114.244 395.841C117.669 393.279 120.714 390.447 123.379 387.342C126.043 384.238 128.327 381.017 130.23 377.68C132.134 374.342 133.504 371.005 134.341 367.668H153.183C152.117 371.471 150.48 375.274 148.273 379.077C146.141 382.802 143.591 386.333 140.622 389.671C137.653 393.008 134.494 395.996 131.144 398.635C127.87 401.196 124.559 403.214 121.209 404.688V406.434C124.711 406.434 127.832 406.861 130.573 407.715C133.39 408.491 135.864 409.772 137.995 411.557C140.203 413.264 142.144 415.398 143.819 417.96C145.494 420.521 146.979 423.586 148.273 427.156L154.325 444.502H135.712L131.715 430.532C130.649 426.73 129.241 423.703 127.49 421.452C125.739 419.124 123.493 417.455 120.752 416.446C118.012 415.36 114.434 414.816 110.018 414.816H103.395V444.502H86.9517Z" fill="white"/>
<path d="M199.557 446.132C194.076 446.132 189.166 445.278 184.827 443.571C180.487 441.786 176.757 439.225 173.636 435.888C170.591 432.473 168.231 428.321 166.556 423.431C164.957 418.464 164.158 412.798 164.158 406.434C164.158 397.354 165.719 389.865 168.84 383.966C171.961 377.99 176.224 373.528 181.629 370.578C187.11 367.551 193.277 366.038 200.128 366.038C205.457 366.038 210.291 366.931 214.631 368.716C218.97 370.423 222.662 372.984 225.707 376.399C228.829 379.736 231.227 383.927 232.901 388.972C234.576 393.939 235.414 399.643 235.414 406.085C235.414 412.682 234.576 418.464 232.901 423.431C231.227 428.398 228.791 432.589 225.593 436.004C222.472 439.341 218.704 441.864 214.288 443.571C209.873 445.278 204.962 446.132 199.557 446.132ZM200.014 432.744C204.049 432.744 207.437 431.735 210.177 429.718C212.918 427.7 215.011 424.789 216.458 420.986C217.904 417.183 218.627 412.527 218.627 407.016C218.627 401.273 217.866 396.384 216.344 392.348C214.897 388.312 212.766 385.247 209.949 383.151C207.132 380.978 203.706 379.892 199.672 379.892C195.713 379.892 192.325 380.939 189.508 383.035C186.768 385.053 184.636 388.002 183.114 391.882C181.667 395.763 180.944 400.575 180.944 406.318C180.944 410.509 181.363 414.273 182.2 417.61C183.114 420.87 184.37 423.625 185.969 425.876C187.567 428.127 189.547 429.834 191.907 430.998C194.266 432.162 196.969 432.744 200.014 432.744Z" fill="white"/>
<path d="M252.506 444.502V367.668H273.974L308.117 422.034H309.373L308.346 367.668H324.333V444.502H304.92L268.835 387.575H267.579L268.607 444.502H252.506Z" fill="white"/>
<path d="M346.53 444.502V367.668H363.317V444.502H346.53Z" fill="white"/>
<path d="M97.8766 491.95C96.0954 491.95 94.5302 491.761 93.1808 491.383C91.8584 491.005 90.7384 490.452 89.8208 489.724C88.9302 488.968 88.269 488.051 87.8372 486.972C87.4054 485.893 87.2165 484.638 87.2705 483.208L90.6304 482.48C90.5225 483.883 90.7519 485.056 91.3186 486.001C91.8854 486.945 92.749 487.66 93.9094 488.145C95.0699 488.604 96.4328 488.833 97.9981 488.833C99.5094 488.833 100.791 488.645 101.844 488.267C102.896 487.889 103.679 487.363 104.192 486.689C104.731 486.014 105.001 485.245 105.001 484.382C105.001 483.411 104.691 482.642 104.07 482.075C103.45 481.509 102.613 481.077 101.56 480.78C100.535 480.456 99.3879 480.16 98.1195 479.89C96.8781 479.62 95.6367 479.31 94.3952 478.959C93.1538 478.608 92.0338 478.163 91.0353 477.624C90.0637 477.057 89.2676 476.329 88.6468 475.438C88.0531 474.521 87.7563 473.361 87.7563 471.958C87.7563 470.366 88.1476 468.99 88.9302 467.83C89.7398 466.67 90.8733 465.78 92.3307 465.159C93.788 464.512 95.5017 464.188 97.4718 464.188C99.4149 464.188 101.142 464.498 102.653 465.119C104.192 465.739 105.406 466.657 106.297 467.871C107.187 469.058 107.66 470.528 107.714 472.282L104.232 473.132C104.232 472.16 104.057 471.311 103.706 470.582C103.382 469.827 102.923 469.22 102.33 468.761C101.736 468.275 101.021 467.911 100.184 467.668C99.3475 467.399 98.4299 467.264 97.4313 467.264C96.2169 467.264 95.1509 467.453 94.2333 467.83C93.3157 468.208 92.6005 468.721 92.0878 469.368C91.575 470.016 91.3186 470.784 91.3186 471.675C91.3186 472.727 91.683 473.563 92.4116 474.184C93.1673 474.777 94.1388 475.249 95.3263 475.6C96.5138 475.951 97.7822 476.275 99.1316 476.571C100.292 476.814 101.426 477.111 102.532 477.462C103.665 477.786 104.691 478.231 105.609 478.797C106.526 479.337 107.255 480.052 107.795 480.942C108.334 481.832 108.604 482.966 108.604 484.341C108.604 485.879 108.199 487.215 107.39 488.348C106.607 489.481 105.42 490.371 103.827 491.019C102.235 491.639 100.252 491.95 97.8766 491.95Z" fill="white"/>
<path d="M158.237 491.423V464.714H161.962V491.423H158.237ZM150.101 467.952V464.714H170.098V467.952H150.101Z" fill="white"/>
<path d="M208.457 491.423L217.849 464.714H223.273L232.665 491.423H228.657L220.804 467.83H220.318L212.465 491.423H208.457ZM212.91 485.434V482.601H228.657V485.434H212.91Z" fill="white"/>
<path d="M286.458 491.95C284.542 491.95 282.815 491.653 281.277 491.059C279.765 490.466 278.483 489.589 277.431 488.429C276.378 487.269 275.569 485.852 275.002 484.18C274.462 482.48 274.192 480.551 274.192 478.393C274.192 476.207 274.476 474.251 275.043 472.525C275.609 470.771 276.419 469.274 277.471 468.033C278.524 466.792 279.792 465.847 281.277 465.2C282.761 464.525 284.421 464.188 286.256 464.188C287.659 464.188 288.955 464.39 290.142 464.795C291.33 465.173 292.355 465.739 293.219 466.495C294.109 467.223 294.798 468.114 295.283 469.166C295.769 470.218 296.025 471.391 296.052 472.686L292.531 473.577C292.558 472.201 292.274 471.068 291.68 470.177C291.087 469.26 290.304 468.572 289.333 468.114C288.361 467.655 287.308 467.426 286.175 467.426C285.122 467.426 284.097 467.641 283.098 468.073C282.127 468.478 281.263 469.125 280.508 470.016C279.752 470.879 279.145 471.999 278.686 473.374C278.254 474.723 278.038 476.356 278.038 478.271C278.038 480.726 278.389 482.709 279.091 484.22C279.819 485.731 280.831 486.85 282.127 487.579C283.422 488.28 284.92 488.631 286.62 488.631C288.267 488.631 289.589 488.334 290.587 487.741C291.586 487.12 292.328 486.27 292.814 485.191C293.3 484.085 293.583 482.817 293.664 481.387L296.984 481.994C296.957 483.343 296.741 484.625 296.336 485.839C295.931 487.053 295.31 488.118 294.474 489.036C293.637 489.953 292.558 490.668 291.235 491.181C289.913 491.693 288.32 491.95 286.458 491.95Z" fill="white"/>
<path d="M340.988 491.423V464.714H344.712V477.462C346.196 476.949 347.64 476.261 349.043 475.398C350.474 474.508 351.783 473.509 352.97 472.403C354.157 471.27 355.197 470.056 356.087 468.761C356.978 467.439 357.652 466.09 358.111 464.714H362.24C361.701 466.279 360.985 467.749 360.095 469.125C359.231 470.501 358.233 471.756 357.099 472.889C355.993 474.022 354.832 475.007 353.618 475.843C352.43 476.679 351.243 477.354 350.055 477.866V478.393C351.378 478.393 352.565 478.568 353.618 478.919C354.697 479.269 355.669 479.782 356.532 480.456C357.423 481.131 358.206 481.994 358.88 483.046C359.582 484.099 360.216 485.34 360.783 486.77L362.483 491.423H358.314L357.221 487.862C356.6 486.163 355.871 484.773 355.035 483.694C354.225 482.588 353.186 481.765 351.918 481.225C350.676 480.659 349.07 480.376 347.1 480.376H344.712V491.423H340.988Z" fill="white"/>
</svg>
