<svg width="450" height="555" viewBox="0 0 450 555" fill="none" xmlns="http://www.w3.org/2000/svg">
<path fill-rule="evenodd" clip-rule="evenodd" d="M245.927 103.739C247.804 104.232 249.112 105.928 249.112 107.868V129.081L225.777 139.289C221.893 140.988 219.383 144.825 219.383 149.065L219.383 234.303C219.383 238.543 221.893 242.38 225.777 244.079L249.112 254.287V263.593C249.112 265.4 247.974 267.011 246.272 267.615L137.144 306.388C134.365 307.375 131.447 305.314 131.447 302.366L131.447 79.2099C131.447 76.4123 134.093 74.3711 136.799 75.0817L245.927 103.739ZM259.782 258.955V266.607C259.782 271.122 256.939 275.149 252.684 276.661L135.019 318.466C128.073 320.934 120.776 315.783 120.776 308.412V73.6761C120.776 66.6821 127.392 61.5792 134.157 63.3556L251.822 94.255C256.512 95.4867 259.782 99.7262 259.782 104.576V124.413L249.112 129.081L249.112 254.287L259.782 258.955ZM259.782 258.955L313.903 282.631C320.953 285.715 328.85 280.55 328.85 272.855L328.85 110.513C328.85 102.818 320.953 97.6528 313.903 100.737L259.782 124.413V258.955Z" fill="#FFF643"/>
<path d="M86.6309 444.502V367.668H103.074V402.011C106.957 400.381 110.573 398.324 113.923 395.841C117.348 393.279 120.394 390.447 123.058 387.342C125.723 384.238 128.006 381.017 129.91 377.68C131.813 374.342 133.183 371.005 134.021 367.668H152.862C151.796 371.471 150.16 375.274 147.952 379.077C145.82 382.802 143.27 386.333 140.301 389.671C137.332 393.008 134.173 395.996 130.823 398.635C127.55 401.196 124.238 403.214 120.888 404.688V406.434C124.39 406.434 127.512 406.861 130.252 407.715C133.069 408.491 135.543 409.772 137.675 411.557C139.882 413.264 141.824 415.398 143.498 417.96C145.173 420.521 146.658 423.586 147.952 427.156L154.004 444.502H135.391L131.394 430.532C130.328 426.73 128.92 423.703 127.169 421.452C125.418 419.124 123.172 417.455 120.432 416.446C117.691 415.36 114.113 414.816 109.698 414.816H103.074V444.502H86.6309Z" fill="#121317"/>
<path d="M199.237 446.132C193.755 446.132 188.845 445.278 184.506 443.571C180.167 441.786 176.436 439.225 173.315 435.888C170.27 432.473 167.91 428.321 166.235 423.431C164.636 418.464 163.837 412.798 163.837 406.434C163.837 397.354 165.398 389.865 168.519 383.966C171.64 377.99 175.903 373.528 181.308 370.578C186.79 367.551 192.956 366.038 199.808 366.038C205.136 366.038 209.971 366.931 214.31 368.716C218.649 370.423 222.341 372.984 225.387 376.399C228.508 379.736 230.906 383.927 232.581 388.972C234.255 393.939 235.093 399.643 235.093 406.085C235.093 412.682 234.255 418.464 232.581 423.431C230.906 428.398 228.47 432.589 225.272 436.004C222.151 439.341 218.383 441.864 213.967 443.571C209.552 445.278 204.642 446.132 199.237 446.132ZM199.693 432.744C203.728 432.744 207.116 431.735 209.856 429.718C212.597 427.7 214.691 424.789 216.137 420.986C217.583 417.183 218.307 412.527 218.307 407.016C218.307 401.273 217.545 396.384 216.023 392.348C214.576 388.312 212.445 385.247 209.628 383.151C206.811 380.978 203.386 379.892 199.351 379.892C195.392 379.892 192.004 380.939 189.188 383.035C186.447 385.053 184.315 388.002 182.793 391.882C181.347 395.763 180.623 400.575 180.623 406.318C180.623 410.509 181.042 414.273 181.879 417.61C182.793 420.87 184.049 423.625 185.648 425.876C187.246 428.127 189.226 429.834 191.586 430.998C193.946 432.162 196.648 432.744 199.693 432.744Z" fill="#121317"/>
<path d="M252.185 444.502V367.668H273.653L307.796 422.034H309.053L308.025 367.668H324.012V444.502H304.599L268.514 387.575H267.258L268.286 444.502H252.185Z" fill="#121317"/>
<path d="M346.21 444.502V367.668H362.996V444.502H346.21Z" fill="#121317"/>
<path d="M97.5558 491.95C95.7746 491.95 94.2094 491.761 92.86 491.383C91.5376 491.005 90.4176 490.452 89.5 489.724C88.6094 488.968 87.9482 488.051 87.5164 486.972C87.0846 485.893 86.8957 484.638 86.9497 483.208L90.3096 482.48C90.2017 483.883 90.4311 485.056 90.9978 486.001C91.5646 486.945 92.4282 487.66 93.5886 488.145C94.7491 488.604 96.112 488.833 97.6773 488.833C99.1886 488.833 100.47 488.645 101.523 488.267C102.576 487.889 103.358 487.363 103.871 486.689C104.411 486.014 104.681 485.245 104.681 484.382C104.681 483.411 104.37 482.642 103.749 482.075C103.129 481.509 102.292 481.077 101.24 480.78C100.214 480.456 99.0671 480.16 97.7987 479.89C96.5573 479.62 95.3159 479.31 94.0744 478.959C92.833 478.608 91.713 478.163 90.7145 477.624C89.7429 477.057 88.9468 476.329 88.326 475.438C87.7323 474.521 87.4355 473.361 87.4355 471.958C87.4355 470.366 87.8268 468.99 88.6094 467.83C89.419 466.67 90.5525 465.78 92.0099 465.159C93.4672 464.512 95.1809 464.188 97.151 464.188C99.0941 464.188 100.821 464.498 102.333 465.119C103.871 465.739 105.085 466.657 105.976 467.871C106.867 469.058 107.339 470.528 107.393 472.282L103.911 473.132C103.911 472.16 103.736 471.311 103.385 470.582C103.061 469.827 102.603 469.22 102.009 468.761C101.415 468.275 100.7 467.911 99.8633 467.668C99.0267 467.399 98.1091 467.264 97.1105 467.264C95.8961 467.264 94.8301 467.453 93.9125 467.83C92.9949 468.208 92.2797 468.721 91.767 469.368C91.2542 470.016 90.9978 470.784 90.9978 471.675C90.9978 472.727 91.3622 473.563 92.0908 474.184C92.8465 474.777 93.818 475.249 95.0055 475.6C96.193 475.951 97.4614 476.275 98.8108 476.571C99.9712 476.814 101.105 477.111 102.211 477.462C103.345 477.786 104.37 478.231 105.288 478.797C106.205 479.337 106.934 480.052 107.474 480.942C108.014 481.832 108.283 482.966 108.283 484.341C108.283 485.879 107.879 487.215 107.069 488.348C106.286 489.481 105.099 490.371 103.507 491.019C101.914 491.639 99.9307 491.95 97.5558 491.95Z" fill="#121317"/>
<path d="M157.917 491.423V464.714H161.641V491.423H157.917ZM149.78 467.952V464.714H169.778V467.952H149.78Z" fill="#121317"/>
<path d="M208.136 491.423L217.528 464.714H222.953L232.344 491.423H228.337L220.483 467.83H219.997L212.144 491.423H208.136ZM212.589 485.434V482.601H228.337V485.434H212.589Z" fill="#121317"/>
<path d="M286.138 491.95C284.221 491.95 282.494 491.653 280.956 491.059C279.445 490.466 278.163 489.589 277.11 488.429C276.058 487.269 275.248 485.852 274.681 484.18C274.142 482.48 273.872 480.551 273.872 478.393C273.872 476.207 274.155 474.251 274.722 472.525C275.289 470.771 276.098 469.274 277.151 468.033C278.203 466.792 279.472 465.847 280.956 465.2C282.44 464.525 284.1 464.188 285.935 464.188C287.338 464.188 288.634 464.39 289.821 464.795C291.009 465.173 292.034 465.739 292.898 466.495C293.789 467.223 294.477 468.114 294.963 469.166C295.448 470.218 295.705 471.391 295.732 472.686L292.21 473.577C292.237 472.201 291.953 471.068 291.36 470.177C290.766 469.26 289.983 468.572 289.012 468.114C288.04 467.655 286.988 467.426 285.854 467.426C284.802 467.426 283.776 467.641 282.778 468.073C281.806 468.478 280.942 469.125 280.187 470.016C279.431 470.879 278.824 471.999 278.365 473.374C277.933 474.723 277.717 476.356 277.717 478.271C277.717 480.726 278.068 482.709 278.77 484.22C279.499 485.731 280.511 486.85 281.806 487.579C283.101 488.28 284.599 488.631 286.299 488.631C287.946 488.631 289.268 488.334 290.267 487.741C291.265 487.12 292.007 486.27 292.493 485.191C292.979 484.085 293.262 482.817 293.343 481.387L296.663 481.994C296.636 483.343 296.42 484.625 296.015 485.839C295.61 487.053 294.989 488.118 294.153 489.036C293.316 489.953 292.237 490.668 290.914 491.181C289.592 491.693 288 491.95 286.138 491.95Z" fill="#121317"/>
<path d="M340.667 491.423V464.714H344.391V477.462C345.875 476.949 347.319 476.261 348.723 475.398C350.153 474.508 351.462 473.509 352.649 472.403C353.837 471.27 354.876 470.056 355.766 468.761C356.657 467.439 357.332 466.09 357.79 464.714H361.919C361.38 466.279 360.665 467.749 359.774 469.125C358.91 470.501 357.912 471.756 356.778 472.889C355.672 474.022 354.511 475.007 353.297 475.843C352.109 476.679 350.922 477.354 349.735 477.866V478.393C351.057 478.393 352.244 478.568 353.297 478.919C354.376 479.269 355.348 479.782 356.212 480.456C357.102 481.131 357.885 481.994 358.56 483.046C359.261 484.099 359.895 485.34 360.462 486.77L362.162 491.423H357.993L356.9 487.862C356.279 486.163 355.55 484.773 354.714 483.694C353.904 482.588 352.865 481.765 351.597 481.225C350.355 480.659 348.75 480.376 346.779 480.376H344.391V491.423H340.667Z" fill="#121317"/>
</svg>
