<svg width="3216" height="1344" viewBox="0 0 3216 1344" fill="none" xmlns="http://www.w3.org/2000/svg">
<path d="M1022.72 603.554H1063.62C1063.62 603.554 1063.62 514.115 965.721 512.373C965.721 512.373 880.291 503.257 862.855 575.125C862.855 575.125 853.333 621.119 878.681 643.511C901.172 662.744 928.655 675.2 957.942 679.445C982.083 683.467 1039.35 700.096 1033.58 750.112C1027.82 800.128 893.3 818.901 889.544 717.128H848.103C848.103 717.128 841.532 808.438 933.265 827.751C1025 847.057 1077.57 792.349 1073.28 730C1068.99 667.644 1005.15 650.62 958.881 640.561C912.612 630.509 898.396 608.109 902.419 584.781C906.443 561.446 936.619 551.797 960.759 551.797C975.739 550.905 990.494 555.762 1002.01 565.382C1013.53 575.003 1020.93 588.66 1022.72 603.554Z" fill="white"/>
<path d="M1123.9 606.908H1165.07V787.529H1262.84V606.908H1305.09V831.242H1123.9V606.908Z" fill="white"/>
<path d="M1511.22 611.346C1504.15 609.669 1496.9 608.863 1489.63 608.935H1462.81C1441.15 608.223 1420.05 615.908 1403.93 630.385V513.998H1363.7V831.52H1398.3L1403.66 802.019C1417.75 816.956 1436.85 826.167 1457.31 827.901H1495.4C1495.4 827.901 1555.48 831.786 1571.84 751.873C1573.18 744.707 1573.86 737.439 1573.85 730.15V703.333C1573.91 689.021 1571.27 674.831 1566.07 661.498C1561.75 649.28 1554.49 638.314 1544.92 629.572C1535.35 620.822 1523.78 614.562 1511.22 611.346ZM1529.6 740.742C1529.6 753.046 1524.7 764.847 1516 773.546C1507.3 782.245 1495.5 787.138 1483.19 787.138H1452.61C1440.31 787.138 1428.5 782.245 1419.8 773.546C1411.1 764.847 1406.21 753.046 1406.21 740.742V694.079C1406.21 681.775 1411.1 669.974 1419.8 661.275C1428.5 652.576 1440.31 647.683 1452.61 647.683H1483.19C1495.5 647.683 1507.3 652.576 1516 661.275C1524.7 669.974 1529.6 681.775 1529.6 694.079V740.742Z" fill="white"/>
<path d="M1580.42 513.998H1622.93L1687.71 787.138H1695.35L1747.39 513.998H1822.49L1876.54 788.21H1883.78L1949.9 516.819H1991.88L1917.04 831.52H1842.2L1788.83 558.25H1781.32L1730.76 831.52H1656.06L1580.42 513.998Z" fill="white"/>
<path d="M2183.46 787.319V607.907H2021.44V648.137H2142.15V688.36H2079.12C2079.12 688.36 2017.42 687.158 2004.01 728.59C1990.59 770.021 2004.01 819.095 2062.22 829.557C2120.42 840.019 2142.68 804.883 2142.68 804.883L2147.51 829.557H2212.15V787.319H2183.46ZM2141.21 755.81C2141.21 755.81 2126.99 803.005 2069.86 791.205C2065.06 790.32 2060.51 788.384 2056.55 785.535C2052.59 782.685 2049.31 778.994 2046.93 774.727C2044.56 770.46 2043.16 765.718 2042.84 760.854C2042.51 755.983 2043.27 751.097 2045.05 746.557C2045.05 746.557 2049.47 731.403 2077.64 726.172H2141.21V755.81Z" fill="white"/>
<path d="M2304.22 517.994H2263.98V831.897H2304.22V517.994Z" fill="white"/>
<path d="M2390.38 517.994H2350.14V831.897H2390.38V517.994Z" fill="white"/>
<path d="M2549.09 611.07C2549.09 611.07 2459.38 595.513 2433.89 678.11C2433.89 678.11 2419.27 742.74 2442.61 786.323C2452.43 801.901 2466.45 814.392 2483.06 822.365C2499.66 830.33 2518.19 833.453 2536.49 831.374C2604.21 826.416 2627.55 791.151 2627.55 764.334H2584.77C2584.77 764.334 2584.77 789.806 2548.96 790.208C2513.15 790.611 2468.49 794.094 2469.83 740.193H2633.99C2633.99 740.193 2649.55 621.525 2549.09 611.07ZM2471.04 701.172C2469.3 680.931 2489.54 644.457 2540.51 647.537C2554.74 647.537 2568.39 653.192 2578.45 663.252C2588.5 673.311 2594.16 686.953 2594.16 701.172H2471.04Z" fill="white"/>
<path d="M2699.09 514.997H2739.73V608.596H2816.04V649.488H2740.13V788.001H2832V831.713H2699.09V650.43H2661.68V608.596H2699.63L2699.09 514.997Z" fill="white"/>
<g clip-path="url(#clip0_357_9450)">
<path d="M768 592.319V512.389L447.944 384L384 416.472L384.338 665.256L623.789 761.672L495.902 816.125V774.016L437.188 750.182L384.338 775.16L384.338 927.528L448 960L768 815.625V713.214L480 597.939V528L708.5 619.296L768 592.319Z" fill="white"/>
</g>
<defs>
<clipPath id="clip0_357_9450">
<rect width="384" height="576" fill="white" transform="translate(384 384)"/>
</clipPath>
</defs>
</svg>
