<svg width="1000" height="1000" viewBox="0 0 1000 1000" fill="none" xmlns="http://www.w3.org/2000/svg">
<g clip-path="url(#clip0_690_160)">
<rect width="1000" height="1000" rx="128" fill="#151823"/>
<path fill-rule="evenodd" clip-rule="evenodd" d="M580 295.381C580 286.313 573.899 278.379 565.134 276.051L285.134 201.676C272.442 198.305 260 207.873 260 221.006V780.56C260 794.408 273.733 804.065 286.764 799.382L566.764 698.757C574.705 695.903 580 688.373 580 679.935V659.449L711.931 717.623C725.151 723.453 740 713.771 740 699.324L740 304.677C740 290.229 725.151 280.548 711.931 286.377L580 344.552V295.381ZM580 344.552L497.931 380.74C490.679 383.937 486 391.115 486 399.04L486 604.961C486 612.886 490.679 620.064 497.931 623.261L580 659.449V344.552Z" fill="#6F60F1"/>
</g>
<defs>
<clipPath id="clip0_690_160">
<rect width="1000" height="1000" fill="white"/>
</clipPath>
</defs>
</svg>
