<svg width="2448" height="576" viewBox="0 0 2448 576" fill="none" xmlns="http://www.w3.org/2000/svg">
<path d="M638.719 219.554H679.624C679.624 219.554 679.624 130.115 581.721 128.373C581.721 128.373 496.291 119.257 478.855 191.125C478.855 191.125 469.333 237.119 494.681 259.511C517.172 278.744 544.655 291.2 573.942 295.445C598.083 299.467 655.35 316.096 649.583 366.112C643.816 416.128 509.3 434.901 505.544 333.128H464.103C464.103 333.128 457.532 424.438 549.265 443.751C640.999 463.057 693.572 408.349 689.28 346C684.989 283.644 621.15 266.62 574.881 256.561C528.612 246.509 514.396 224.109 518.419 200.781C522.443 177.446 552.619 167.797 576.759 167.797C591.739 166.905 606.494 171.762 618.011 181.382C629.527 191.003 636.934 204.66 638.719 219.554Z" fill="white"/>
<path d="M739.901 222.908H781.075V403.529H878.844V222.908H921.09V447.242H739.901V222.908Z" fill="white"/>
<path d="M1127.22 227.346C1120.15 225.669 1112.9 224.863 1105.63 224.935H1078.81C1057.15 224.223 1036.05 231.908 1019.93 246.385V129.998H979.698V447.52H1014.3L1019.66 418.019C1033.75 432.956 1052.85 442.167 1073.31 443.901H1111.4C1111.4 443.901 1171.48 447.786 1187.84 367.873C1189.18 360.707 1189.86 353.439 1189.85 346.15V319.333C1189.91 305.021 1187.27 290.831 1182.07 277.498C1177.75 265.28 1170.49 254.314 1160.92 245.572C1151.35 236.822 1139.78 230.562 1127.22 227.346ZM1145.6 356.742C1145.6 369.046 1140.7 380.847 1132 389.546C1123.3 398.245 1111.5 403.138 1099.19 403.138H1068.61C1056.31 403.138 1044.5 398.245 1035.8 389.546C1027.1 380.847 1022.21 369.046 1022.21 356.742V310.079C1022.21 297.775 1027.1 285.974 1035.8 277.275C1044.5 268.576 1056.31 263.683 1068.61 263.683H1099.19C1111.5 263.683 1123.3 268.576 1132 277.275C1140.7 285.974 1145.6 297.775 1145.6 310.079V356.742Z" fill="white"/>
<path d="M1196.42 129.998H1238.93L1303.71 403.138H1311.35L1363.39 129.998H1438.49L1492.54 404.21H1499.78L1565.9 132.819H1607.88L1533.04 447.52H1458.2L1404.83 174.25H1397.32L1346.76 447.52H1272.06L1196.42 129.998Z" fill="white"/>
<path d="M1799.46 403.319V223.907H1637.44V264.137H1758.15V304.36H1695.12C1695.12 304.36 1633.42 303.158 1620.01 344.59C1606.59 386.021 1620.01 435.095 1678.22 445.557C1736.42 456.019 1758.68 420.883 1758.68 420.883L1763.51 445.557H1828.15V403.319H1799.46ZM1757.21 371.81C1757.21 371.81 1742.99 419.005 1685.86 407.205C1681.06 406.32 1676.51 404.384 1672.55 401.535C1668.59 398.685 1665.31 394.994 1662.93 390.727C1660.56 386.46 1659.16 381.718 1658.84 376.854C1658.51 371.983 1659.27 367.097 1661.05 362.557C1661.05 362.557 1665.47 347.403 1693.64 342.172H1757.21V371.81Z" fill="white"/>
<path d="M1920.22 133.994H1879.98V447.897H1920.22V133.994Z" fill="white"/>
<path d="M2006.38 133.994H1966.14V447.897H2006.38V133.994Z" fill="white"/>
<path d="M2165.09 227.07C2165.09 227.07 2075.38 211.513 2049.89 294.11C2049.89 294.11 2035.27 358.74 2058.61 402.323C2068.43 417.901 2082.45 430.392 2099.06 438.365C2115.66 446.33 2134.19 449.453 2152.49 447.374C2220.21 442.416 2243.55 407.151 2243.55 380.334H2200.77C2200.77 380.334 2200.77 405.806 2164.96 406.209C2129.15 406.611 2084.49 410.094 2085.83 356.193H2249.99C2249.99 356.193 2265.55 237.525 2165.09 227.07ZM2087.04 317.172C2085.3 296.931 2105.54 260.457 2156.51 263.537C2170.74 263.537 2184.39 269.192 2194.45 279.252C2204.5 289.311 2210.16 302.953 2210.16 317.172H2087.04Z" fill="white"/>
<path d="M2315.09 130.997H2355.73V224.596H2432.04V265.488H2356.13V404.001H2448V447.713H2315.09V266.43H2277.68V224.596H2315.63L2315.09 130.997Z" fill="white"/>
<g clip-path="url(#clip0_384_9688)">
<path d="M384 208.319V128.389L63.9437 0L0 32.4718L0.337606 281.256L239.789 377.672L111.902 432.125V390.016L53.1885 366.182L0.337594 391.16L0.337613 543.528L64 576L384 431.625V329.214L96 213.939V144L324.5 235.296L384 208.319Z" fill="white"/>
</g>
<defs>
<clipPath id="clip0_384_9688">
<rect width="384" height="576" fill="white"/>
</clipPath>
</defs>
</svg>
