<svg width="450" height="513" viewBox="0 0 450 513" fill="none" xmlns="http://www.w3.org/2000/svg">
<path fill-rule="evenodd" clip-rule="evenodd" d="M259.773 100.926C259.773 97.0534 257.124 93.6651 253.318 92.6702L131.701 60.8801C126.188 59.4389 120.783 63.5261 120.783 69.136V308.318C120.783 314.234 126.749 318.359 132.41 316.357L254.026 273.346C257.474 272.127 259.773 268.911 259.773 265.308V256.546L317.075 281.41C322.817 283.902 329.268 279.767 329.268 273.595L329.269 104.9C329.269 98.7278 322.817 94.5926 317.075 97.0843L259.773 121.949V100.926ZM259.773 121.949L224.125 137.418C220.976 138.784 218.945 141.849 218.945 145.233L218.945 233.261C218.945 236.646 220.976 239.711 224.125 241.077L259.773 256.546V121.949Z" fill="#6F60F1"/>
<path d="M90.8572 442.858V367.073H106.982V400.947C110.789 399.339 114.335 397.311 117.619 394.861C120.978 392.335 123.965 389.541 126.577 386.479C129.19 383.417 131.43 380.24 133.296 376.948C135.162 373.656 136.506 370.365 137.327 367.073H155.803C154.758 370.824 153.153 374.575 150.988 378.326C148.898 382 146.397 385.484 143.486 388.775C140.574 392.067 137.476 395.014 134.192 397.617C130.982 400.143 127.734 402.133 124.45 403.588V405.31C127.884 405.31 130.944 405.731 133.632 406.573C136.394 407.339 138.82 408.602 140.91 410.362C143.075 412.046 144.979 414.152 146.621 416.678C148.263 419.204 149.719 422.228 150.988 425.749L156.923 442.858H138.671L134.751 429.079C133.706 425.328 132.325 422.343 130.608 420.123C128.891 417.826 126.689 416.18 124.002 415.185C121.314 414.113 117.806 413.577 113.476 413.577H106.982V442.858H90.8572Z" fill="#151823"/>
<path d="M201.277 444.466C195.902 444.466 191.087 443.624 186.832 441.939C182.577 440.179 178.919 437.653 175.859 434.361C172.873 430.993 170.558 426.897 168.916 422.075C167.348 417.175 166.565 411.587 166.565 405.31C166.565 396.354 168.095 388.967 171.156 383.149C174.216 377.254 178.397 372.853 183.697 369.944C189.072 366.958 195.118 365.466 201.837 365.466C207.062 365.466 211.803 366.346 216.058 368.107C220.313 369.791 223.933 372.317 226.919 375.685C229.98 378.977 232.331 383.11 233.974 388.086C235.616 392.985 236.437 398.612 236.437 404.966C236.437 411.472 235.616 417.175 233.974 422.075C232.331 426.974 229.943 431.108 226.807 434.476C223.747 437.767 220.051 440.255 215.722 441.939C211.392 443.624 206.577 444.466 201.277 444.466ZM201.725 431.261C205.681 431.261 209.003 430.265 211.691 428.275C214.378 426.285 216.431 423.414 217.849 419.663C219.268 415.912 219.977 411.319 219.977 405.884C219.977 400.219 219.23 395.397 217.737 391.416C216.319 387.436 214.229 384.412 211.467 382.345C208.705 380.202 205.345 379.13 201.389 379.13C197.507 379.13 194.185 380.163 191.423 382.23C188.736 384.22 186.646 387.129 185.153 390.957C183.734 394.784 183.025 399.53 183.025 405.195C183.025 409.329 183.436 413.042 184.257 416.333C185.153 419.548 186.384 422.266 187.952 424.486C189.52 426.706 191.46 428.39 193.775 429.538C196.089 430.687 198.739 431.261 201.725 431.261Z" fill="#151823"/>
<path d="M253.198 442.858V367.073H274.249L307.729 420.697H308.961L307.953 367.073H323.63V442.858H304.594L269.21 386.708H267.978L268.986 442.858H253.198Z" fill="#151823"/>
<path d="M345.397 442.858V367.073H361.857V442.858H345.397Z" fill="#151823"/>
</svg>
