<svg width="450" height="513" viewBox="0 0 450 513" fill="none" xmlns="http://www.w3.org/2000/svg">
<path fill-rule="evenodd" clip-rule="evenodd" d="M260.094 100.926C260.094 97.0534 257.445 93.6651 253.639 92.6702L132.022 60.8801C126.509 59.4389 121.104 63.5261 121.104 69.136V308.318C121.104 314.234 127.07 318.359 132.731 316.357L254.347 273.346C257.795 272.127 260.094 268.911 260.094 265.308V256.546L317.396 281.41C323.138 283.902 329.59 279.767 329.59 273.595L329.59 104.9C329.59 98.7278 323.138 94.5926 317.396 97.0843L260.094 121.949V100.926ZM260.094 121.949L224.446 137.418C221.297 138.784 219.266 141.849 219.266 145.233L219.266 233.261C219.266 236.646 221.297 239.711 224.446 241.077L260.094 256.546V121.949Z" fill="#1DE885"/>
<path d="M91.1782 442.858V367.073H107.303V400.947C111.11 399.339 114.656 397.311 117.94 394.861C121.3 392.335 124.286 389.541 126.898 386.479C129.511 383.417 131.751 380.24 133.617 376.948C135.483 373.656 136.827 370.365 137.648 367.073H156.124C155.079 370.824 153.474 374.575 151.309 378.326C149.219 382 146.718 385.484 143.807 388.775C140.895 392.067 137.797 395.014 134.513 397.617C131.303 400.143 128.055 402.133 124.771 403.588V405.31C128.205 405.31 131.265 405.731 133.953 406.573C136.715 407.339 139.141 408.602 141.231 410.362C143.396 412.046 145.3 414.152 146.942 416.678C148.584 419.204 150.04 422.228 151.309 425.749L157.244 442.858H138.992L135.072 429.079C134.027 425.328 132.646 422.343 130.929 420.123C129.212 417.826 127.01 416.18 124.323 415.185C121.635 414.113 118.127 413.577 113.797 413.577H107.303V442.858H91.1782Z" fill="white"/>
<path d="M201.598 444.466C196.223 444.466 191.408 443.624 187.153 441.939C182.898 440.179 179.24 437.653 176.18 434.361C173.194 430.993 170.879 426.897 169.237 422.075C167.67 417.175 166.886 411.587 166.886 405.31C166.886 396.354 168.416 388.967 171.477 383.149C174.537 377.254 178.718 372.853 184.018 369.944C189.393 366.958 195.439 365.466 202.158 365.466C207.383 365.466 212.124 366.346 216.379 368.107C220.634 369.791 224.254 372.317 227.24 375.685C230.301 378.977 232.652 383.11 234.295 388.086C235.937 392.985 236.758 398.612 236.758 404.966C236.758 411.472 235.937 417.175 234.295 422.075C232.652 426.974 230.264 431.108 227.128 434.476C224.068 437.767 220.372 440.255 216.043 441.939C211.713 443.624 206.898 444.466 201.598 444.466ZM202.046 431.261C206.002 431.261 209.324 430.265 212.012 428.275C214.699 426.285 216.752 423.414 218.17 419.663C219.589 415.912 220.298 411.319 220.298 405.884C220.298 400.219 219.551 395.397 218.058 391.416C216.64 387.436 214.55 384.412 211.788 382.345C209.026 380.202 205.666 379.13 201.71 379.13C197.828 379.13 194.506 380.163 191.744 382.23C189.057 384.22 186.967 387.129 185.474 390.957C184.055 394.784 183.346 399.53 183.346 405.195C183.346 409.329 183.757 413.042 184.578 416.333C185.474 419.548 186.705 422.266 188.273 424.486C189.841 426.706 191.781 428.39 194.096 429.538C196.41 430.687 199.06 431.261 202.046 431.261Z" fill="white"/>
<path d="M253.519 442.858V367.073H274.57L308.05 420.697H309.282L308.274 367.073H323.951V442.858H304.915L269.531 386.708H268.299L269.307 442.858H253.519Z" fill="white"/>
<path d="M345.718 442.858V367.073H362.178V442.858H345.718Z" fill="white"/>
</svg>
