<svg width="450" height="513" viewBox="0 0 450 513" fill="none" xmlns="http://www.w3.org/2000/svg">
<path fill-rule="evenodd" clip-rule="evenodd" d="M259.868 100.926C259.868 97.0534 257.219 93.6651 253.412 92.6702L131.796 60.8801C126.283 59.4389 120.877 63.5261 120.877 69.136V308.318C120.877 314.234 126.844 318.359 132.504 316.357L254.121 273.346C257.569 272.127 259.868 268.911 259.868 265.308V256.546L317.169 281.41C322.911 283.902 329.363 279.767 329.363 273.595L329.363 104.9C329.363 98.7278 322.911 94.5926 317.169 97.0843L259.868 121.949V100.926ZM259.868 121.949L224.219 137.418C221.071 138.784 219.039 141.849 219.039 145.233L219.039 233.261C219.039 236.646 221.071 239.711 224.219 241.077L259.868 256.546V121.949Z" fill="#6F60F1"/>
<path d="M90.9517 442.858V367.073H107.076V400.947C110.883 399.339 114.429 397.311 117.714 394.861C121.073 392.335 124.059 389.541 126.672 386.479C129.284 383.417 131.524 380.24 133.39 376.948C135.256 373.656 136.6 370.365 137.421 367.073H155.897C154.852 370.824 153.247 374.575 151.082 378.326C148.992 382 146.491 385.484 143.58 388.775C140.669 392.067 137.571 395.014 134.286 397.617C131.076 400.143 127.829 402.133 124.544 403.588V405.31C127.978 405.31 131.039 405.731 133.726 406.573C136.488 407.339 138.914 408.602 141.005 410.362C143.169 412.046 145.073 414.152 146.715 416.678C148.358 419.204 149.813 422.228 151.082 425.749L157.017 442.858H138.765L134.846 429.079C133.801 425.328 132.42 422.343 130.703 420.123C128.986 417.826 126.784 416.18 124.096 415.185C121.409 414.113 117.9 413.577 113.571 413.577H107.076V442.858H90.9517Z" fill="white"/>
<path d="M201.371 444.466C195.997 444.466 191.182 443.624 186.927 441.939C182.672 440.179 179.014 437.653 175.953 434.361C172.967 430.993 170.653 426.897 169.011 422.075C167.443 417.175 166.659 411.587 166.659 405.31C166.659 396.354 168.189 388.967 171.25 383.149C174.311 377.254 178.491 372.853 183.791 369.944C189.166 366.958 195.213 365.466 201.931 365.466C207.157 365.466 211.897 366.346 216.152 368.107C220.407 369.791 224.028 372.317 227.014 375.685C230.074 378.977 232.426 383.11 234.068 388.086C235.71 392.985 236.532 398.612 236.532 404.966C236.532 411.472 235.71 417.175 234.068 422.075C232.426 426.974 230.037 431.108 226.902 434.476C223.841 437.767 220.146 440.255 215.816 441.939C211.487 443.624 206.672 444.466 201.371 444.466ZM201.819 431.261C205.776 431.261 209.098 430.265 211.785 428.275C214.473 426.285 216.525 423.414 217.944 419.663C219.362 415.912 220.071 411.319 220.071 405.884C220.071 400.219 219.325 395.397 217.832 391.416C216.413 387.436 214.323 384.412 211.561 382.345C208.799 380.202 205.44 379.13 201.483 379.13C197.602 379.13 194.28 380.163 191.518 382.23C188.83 384.22 186.74 387.129 185.247 390.957C183.829 394.784 183.119 399.53 183.119 405.195C183.119 409.329 183.53 413.042 184.351 416.333C185.247 419.548 186.479 422.266 188.046 424.486C189.614 426.706 191.555 428.39 193.869 429.538C196.183 430.687 198.833 431.261 201.819 431.261Z" fill="white"/>
<path d="M253.292 442.858V367.073H274.343L307.824 420.697H309.056L308.048 367.073H323.724V442.858H304.689L269.304 386.708H268.073L269.081 442.858H253.292Z" fill="white"/>
<path d="M345.491 442.858V367.073H361.952V442.858H345.491Z" fill="white"/>
</svg>
