<svg width="450" height="513" viewBox="0 0 450 513" fill="none" xmlns="http://www.w3.org/2000/svg">
<path fill-rule="evenodd" clip-rule="evenodd" d="M259.547 100.926C259.547 97.0534 256.898 93.6651 253.092 92.6702L131.475 60.8801C125.962 59.4389 120.557 63.5261 120.557 69.136V308.318C120.557 314.234 126.523 318.359 132.183 316.357L253.8 273.346C257.248 272.127 259.547 268.911 259.547 265.308V256.546L316.848 281.41C322.591 283.902 329.042 279.767 329.042 273.595L329.042 104.9C329.042 98.7278 322.591 94.5926 316.848 97.0843L259.547 121.949V100.926ZM259.547 121.949L223.899 137.418C220.75 138.784 218.719 141.849 218.719 145.233L218.719 233.261C218.719 236.646 220.75 239.711 223.899 241.077L259.547 256.546V121.949Z" fill="#FFF643"/>
<path d="M90.6309 442.858V367.073H106.755V400.947C110.562 399.339 114.108 397.311 117.393 394.861C120.752 392.335 123.738 389.541 126.351 386.479C128.964 383.417 131.203 380.24 133.069 376.948C134.936 373.656 136.279 370.365 137.101 367.073H155.576C154.531 370.824 152.926 374.575 150.762 378.326C148.671 382 146.171 385.484 143.259 388.775C140.348 392.067 137.25 395.014 133.965 397.617C130.755 400.143 127.508 402.133 124.223 403.588V405.31C127.657 405.31 130.718 405.731 133.405 406.573C136.167 407.339 138.594 408.602 140.684 410.362C142.849 412.046 144.752 414.152 146.394 416.678C148.037 419.204 149.492 422.228 150.762 425.749L156.696 442.858H138.444L134.525 429.079C133.48 425.328 132.099 422.343 130.382 420.123C128.665 417.826 126.463 416.18 123.776 415.185C121.088 414.113 117.58 413.577 113.25 413.577H106.755V442.858H90.6309Z" fill="#151823"/>
<path d="M201.051 444.466C195.676 444.466 190.861 443.624 186.606 441.939C182.351 440.179 178.693 437.653 175.632 434.361C172.646 430.993 170.332 426.897 168.69 422.075C167.122 417.175 166.338 411.587 166.338 405.31C166.338 396.354 167.869 388.967 170.929 383.149C173.99 377.254 178.17 372.853 183.471 369.944C188.845 366.958 194.892 365.466 201.61 365.466C206.836 365.466 211.576 366.346 215.831 368.107C220.086 369.791 223.707 372.317 226.693 375.685C229.754 378.977 232.105 383.11 233.747 388.086C235.39 392.985 236.211 398.612 236.211 404.966C236.211 411.472 235.39 417.175 233.747 422.075C232.105 426.974 229.716 431.108 226.581 434.476C223.52 437.767 219.825 440.255 215.495 441.939C211.166 443.624 206.351 444.466 201.051 444.466ZM201.499 431.261C205.455 431.261 208.777 430.265 211.464 428.275C214.152 426.285 216.205 423.414 217.623 419.663C219.041 415.912 219.75 411.319 219.75 405.884C219.75 400.219 219.004 395.397 217.511 391.416C216.093 387.436 214.002 384.412 211.24 382.345C208.478 380.202 205.119 379.13 201.163 379.13C197.281 379.13 193.959 380.163 191.197 382.23C188.509 384.22 186.419 387.129 184.926 390.957C183.508 394.784 182.799 399.53 182.799 405.195C182.799 409.329 183.209 413.042 184.03 416.333C184.926 419.548 186.158 422.266 187.726 424.486C189.293 426.706 191.234 428.39 193.548 429.538C195.862 430.687 198.513 431.261 201.499 431.261Z" fill="#151823"/>
<path d="M252.971 442.858V367.073H274.023L307.503 420.697H308.735L307.727 367.073H323.404V442.858H304.368L268.984 386.708H267.752L268.76 442.858H252.971Z" fill="#151823"/>
<path d="M345.171 442.858V367.073H361.631V442.858H345.171Z" fill="#151823"/>
</svg>
