<svg width="450" height="513" viewBox="0 0 450 513" fill="none" xmlns="http://www.w3.org/2000/svg">
<path fill-rule="evenodd" clip-rule="evenodd" d="M259.641 100.926C259.641 97.0534 256.992 93.6651 253.186 92.6702L131.57 60.8801C126.056 59.4389 120.651 63.5261 120.651 69.136V308.318C120.651 314.234 126.617 318.359 132.278 316.357L253.894 273.346C257.342 272.127 259.641 268.911 259.641 265.308V256.546L316.943 281.41C322.685 283.902 329.137 279.767 329.137 273.595L329.137 104.9C329.137 98.7278 322.685 94.5926 316.943 97.0843L259.641 121.949V100.926ZM259.641 121.949L223.993 137.418C220.845 138.784 218.813 141.849 218.813 145.233L218.813 233.261C218.813 236.646 220.845 239.711 223.993 241.077L259.641 256.546V121.949Z" fill="#FFF643"/>
<path d="M90.7253 442.858V367.073H106.85V400.947C110.657 399.339 114.203 397.311 117.487 394.861C120.847 392.335 123.833 389.541 126.445 386.479C129.058 383.417 131.298 380.24 133.164 376.948C135.03 373.656 136.374 370.365 137.195 367.073H155.671C154.626 370.824 153.021 374.575 150.856 378.326C148.766 382 146.265 385.484 143.354 388.775C140.442 392.067 137.344 395.014 134.06 397.617C130.85 400.143 127.602 402.133 124.318 403.588V405.31C127.752 405.31 130.812 405.731 133.5 406.573C136.262 407.339 138.688 408.602 140.778 410.362C142.943 412.046 144.847 414.152 146.489 416.678C148.131 419.204 149.587 422.228 150.856 425.749L156.791 442.858H138.539L134.62 429.079C133.575 425.328 132.193 422.343 130.477 420.123C128.76 417.826 126.557 416.18 123.87 415.185C121.183 414.113 117.674 413.577 113.344 413.577H106.85V442.858H90.7253Z" fill="white"/>
<path d="M201.145 444.466C195.77 444.466 190.955 443.624 186.7 441.939C182.445 440.179 178.787 437.653 175.727 434.361C172.741 430.993 170.427 426.897 168.784 422.075C167.217 417.175 166.433 411.587 166.433 405.31C166.433 396.354 167.963 388.967 171.024 383.149C174.084 377.254 178.265 372.853 183.565 369.944C188.94 366.958 194.986 365.466 201.705 365.466C206.93 365.466 211.671 366.346 215.926 368.107C220.181 369.791 223.801 372.317 226.787 375.685C229.848 378.977 232.2 383.11 233.842 388.086C235.484 392.985 236.305 398.612 236.305 404.966C236.305 411.472 235.484 417.175 233.842 422.075C232.2 426.974 229.811 431.108 226.675 434.476C223.615 437.767 219.92 440.255 215.59 441.939C211.26 443.624 206.445 444.466 201.145 444.466ZM201.593 431.261C205.549 431.261 208.871 430.265 211.559 428.275C214.246 426.285 216.299 423.414 217.717 419.663C219.136 415.912 219.845 411.319 219.845 405.884C219.845 400.219 219.098 395.397 217.605 391.416C216.187 387.436 214.097 384.412 211.335 382.345C208.573 380.202 205.214 379.13 201.257 379.13C197.375 379.13 194.053 380.163 191.291 382.23C188.604 384.22 186.514 387.129 185.021 390.957C183.602 394.784 182.893 399.53 182.893 405.195C182.893 409.329 183.304 413.042 184.125 416.333C185.021 419.548 186.252 422.266 187.82 424.486C189.388 426.706 191.329 428.39 193.643 429.538C195.957 430.687 198.607 431.261 201.593 431.261Z" fill="white"/>
<path d="M253.066 442.858V367.073H274.117L307.598 420.697H308.829L307.822 367.073H323.498V442.858H304.462L269.078 386.708H267.846L268.854 442.858H253.066Z" fill="white"/>
<path d="M345.265 442.858V367.073H361.725V442.858H345.265Z" fill="white"/>
</svg>
