<svg width="1324" height="555" viewBox="0 0 1324 555" fill="none" xmlns="http://www.w3.org/2000/svg">
<path d="M531.33 321.563V149.595H568.121V226.46C576.808 222.812 584.899 218.209 592.394 212.65C600.059 206.918 606.872 200.578 612.834 193.629C618.795 186.681 623.905 179.472 628.164 172.003C632.422 164.534 635.488 157.064 637.362 149.595H679.519C677.134 158.107 673.472 166.618 668.532 175.13C663.763 183.468 658.057 191.371 651.414 198.84C644.771 206.31 637.702 212.997 630.208 218.903C622.883 224.636 615.474 229.152 607.979 232.452V236.361C615.815 236.361 622.798 237.316 628.93 239.227C635.232 240.964 640.768 243.83 645.538 247.825C650.477 251.647 654.821 256.424 658.568 262.156C662.315 267.888 665.637 274.75 668.532 282.74L682.074 321.563H640.428L631.485 290.296C629.101 281.785 625.949 275.01 622.032 269.973C618.114 264.762 613.089 261.027 606.957 258.769C600.825 256.337 592.82 255.121 582.94 255.121H568.121V321.563H531.33Z" fill="white"/>
<path d="M783.279 325.211C771.015 325.211 760.029 323.3 750.32 319.479C740.611 315.484 732.265 309.751 725.281 302.282C718.468 294.639 713.188 285.346 709.44 274.402C705.863 263.285 704.075 250.605 704.075 236.361C704.075 216.037 707.567 199.275 714.55 186.073C721.534 172.698 731.073 162.71 743.166 156.109C755.43 149.335 769.227 145.947 784.557 145.947C796.48 145.947 807.296 147.945 817.005 151.94C826.714 155.762 834.975 161.494 841.789 169.137C848.772 176.606 854.138 185.986 857.885 197.277C861.632 208.394 863.506 221.162 863.506 235.579C863.506 250.344 861.632 263.285 857.885 274.402C854.138 285.519 848.687 294.899 841.533 302.542C834.55 310.012 826.118 315.657 816.239 319.479C806.36 323.3 795.373 325.211 783.279 325.211ZM784.301 295.247C793.329 295.247 800.909 292.989 807.041 288.472C813.173 283.956 817.857 277.442 821.093 268.931C824.33 260.419 825.948 249.997 825.948 237.664C825.948 224.809 824.244 213.866 820.838 204.833C817.601 195.801 812.832 188.939 806.53 184.249C800.228 179.386 792.563 176.954 783.535 176.954C774.678 176.954 767.098 179.299 760.796 183.989C754.664 188.505 749.894 195.106 746.488 203.791C743.251 212.476 741.633 223.246 741.633 236.1C741.633 245.48 742.57 253.905 744.444 261.374C746.488 268.67 749.298 274.837 752.875 279.874C756.452 284.911 760.881 288.733 766.161 291.338C771.441 293.944 777.488 295.247 784.301 295.247Z" fill="white"/>
<path d="M901.749 321.563V149.595H949.783L1026.18 271.276H1028.99L1026.69 149.595H1062.46V321.563H1019.02L938.285 194.15H935.475L937.774 321.563H901.749Z" fill="white"/>
<path d="M1112.12 321.563V149.595H1149.68V321.563H1112.12Z" fill="white"/>
<path d="M556.332 427.912C552.201 427.912 548.57 427.474 545.44 426.598C542.372 425.721 539.775 424.438 537.646 422.748C535.58 420.995 534.047 418.866 533.045 416.362C532.043 413.858 531.605 410.947 531.73 407.63L539.524 405.939C539.274 409.195 539.806 411.918 541.12 414.109C542.435 416.3 544.438 417.959 547.13 419.086C549.822 420.15 552.983 420.682 556.614 420.682C560.12 420.682 563.093 420.244 565.534 419.367C567.976 418.491 569.791 417.27 570.981 415.705C572.233 414.14 572.859 412.356 572.859 410.353C572.859 408.099 572.139 406.315 570.699 405C569.259 403.686 567.319 402.684 564.877 401.996C562.498 401.244 559.838 400.556 556.896 399.93C554.016 399.304 551.136 398.584 548.257 397.77C545.377 396.956 542.779 395.923 540.463 394.671C538.21 393.357 536.363 391.667 534.923 389.601C533.546 387.472 532.857 384.781 532.857 381.525C532.857 377.832 533.765 374.639 535.58 371.948C537.458 369.256 540.088 367.19 543.468 365.75C546.848 364.248 550.823 363.497 555.393 363.497C559.9 363.497 563.907 364.217 567.412 365.656C570.981 367.096 573.798 369.225 575.863 372.042C577.929 374.796 579.025 378.208 579.15 382.277L571.075 384.249C571.075 381.995 570.668 380.023 569.854 378.333C569.103 376.58 568.038 375.172 566.661 374.107C565.284 372.981 563.625 372.135 561.685 371.572C559.744 370.946 557.616 370.633 555.299 370.633C552.482 370.633 550.01 371.071 547.881 371.948C545.753 372.824 544.094 374.013 542.905 375.516C541.715 377.018 541.12 378.802 541.12 380.868C541.12 383.31 541.966 385.25 543.656 386.69C545.409 388.067 547.662 389.163 550.417 389.976C553.171 390.79 556.113 391.541 559.243 392.23C561.935 392.793 564.564 393.482 567.131 394.296C569.76 395.047 572.139 396.08 574.267 397.395C576.396 398.647 578.086 400.305 579.338 402.371C580.59 404.437 581.216 407.066 581.216 410.259C581.216 413.827 580.277 416.926 578.399 419.555C576.583 422.184 573.829 424.25 570.136 425.752C566.442 427.192 561.841 427.912 556.332 427.912ZM691.649 426.691V364.717H700.288V426.691H691.649ZM672.775 372.229V364.717H719.162V372.229H672.775ZM803.443 426.691L825.228 364.717H837.81L859.595 426.691H850.299L832.082 371.948H830.955L812.739 426.691H803.443ZM813.772 412.794V406.221H850.299V412.794H813.772ZM979.678 427.912C975.233 427.912 971.227 427.224 967.658 425.846C964.153 424.469 961.179 422.435 958.738 419.743C956.297 417.051 954.419 413.764 953.104 409.883C951.852 405.939 951.226 401.464 951.226 396.456C951.226 391.385 951.883 386.846 953.198 382.84C954.512 378.771 956.39 375.297 958.832 372.417C961.273 369.538 964.215 367.347 967.658 365.844C971.101 364.279 974.951 363.497 979.208 363.497C982.463 363.497 985.468 363.966 988.223 364.905C990.977 365.782 993.356 367.096 995.359 368.849C997.425 370.539 999.021 372.605 1000.15 375.046C1001.27 377.488 1001.87 380.211 1001.93 383.216L993.763 385.281C993.825 382.089 993.168 379.46 991.791 377.394C990.414 375.265 988.598 373.669 986.345 372.605C984.091 371.541 981.65 371.009 979.02 371.009C976.579 371.009 974.2 371.509 971.884 372.511C969.63 373.45 967.627 374.952 965.874 377.018C964.122 379.021 962.713 381.619 961.649 384.812C960.647 387.942 960.146 391.729 960.146 396.174C960.146 401.87 960.96 406.472 962.588 409.977C964.278 413.483 966.626 416.081 969.63 417.771C972.635 419.399 976.109 420.212 980.053 420.212C983.872 420.212 986.939 419.524 989.256 418.147C991.572 416.707 993.293 414.735 994.42 412.231C995.547 409.664 996.204 406.722 996.392 403.404L1004.09 404.813C1004.03 407.943 1003.53 410.916 1002.59 413.733C1001.65 416.55 1000.21 419.023 998.27 421.151C996.329 423.28 993.825 424.939 990.758 426.128C987.691 427.317 983.997 427.912 979.678 427.912ZM1101.47 426.691V364.717H1110.11V394.296C1113.55 393.106 1116.9 391.51 1120.15 389.507C1123.47 387.441 1126.51 385.125 1129.26 382.558C1132.02 379.929 1134.43 377.112 1136.49 374.107C1138.56 371.04 1140.12 367.91 1141.19 364.717H1150.77C1149.51 368.348 1147.85 371.76 1145.79 374.952C1143.79 378.145 1141.47 381.056 1138.84 383.685C1136.27 386.314 1133.58 388.599 1130.76 390.54C1128.01 392.48 1125.26 394.045 1122.5 395.235V396.456C1125.57 396.456 1128.32 396.862 1130.76 397.676C1133.27 398.49 1135.52 399.679 1137.53 401.244C1139.59 402.809 1141.41 404.813 1142.97 407.254C1144.6 409.695 1146.07 412.575 1147.38 415.893L1151.33 426.691H1141.66L1139.12 418.428C1137.68 414.484 1135.99 411.26 1134.05 408.756C1132.17 406.19 1129.76 404.281 1126.82 403.029C1123.94 401.714 1120.22 401.057 1115.65 401.057H1110.11V426.691H1101.47Z" fill="white"/>
<path fill-rule="evenodd" clip-rule="evenodd" d="M334.868 161.319C337.37 161.976 339.114 164.237 339.114 166.823V195.108L308.001 208.719C302.823 210.984 299.476 216.101 299.476 221.753L299.476 335.405C299.476 341.057 302.823 346.174 308.001 348.439L339.114 362.05V374.458C339.114 376.866 337.597 379.014 335.328 379.82L189.823 431.517C186.119 432.833 182.227 430.086 182.227 426.154L182.227 128.613C182.227 124.883 185.756 122.161 189.364 123.109L334.868 161.319ZM353.341 368.274V378.475C353.341 384.497 349.55 389.866 343.877 391.882L186.99 447.622C177.729 450.912 168 444.044 168 434.216V121.235C168 111.909 176.821 105.106 185.841 107.474L342.727 148.673C348.981 150.316 353.341 155.968 353.341 162.434V188.884L339.114 195.108L339.114 362.05L353.341 368.274ZM353.341 368.274L425.503 399.842C434.903 403.954 445.432 397.067 445.432 386.807L445.432 170.35C445.432 160.091 434.903 153.204 425.503 157.316L353.341 188.884V368.274Z" fill="white"/>
</svg>
