<svg width="1325" height="555" viewBox="0 0 1325 555" fill="none" xmlns="http://www.w3.org/2000/svg">
<path d="M532.289 321.563V149.595H569.08V226.46C577.767 222.812 585.858 218.209 593.353 212.65C601.018 206.918 607.831 200.578 613.793 193.629C619.754 186.681 624.864 179.472 629.123 172.003C633.381 164.534 636.447 157.064 638.321 149.595H680.478C678.093 158.107 674.431 166.618 669.491 175.13C664.722 183.468 659.016 191.371 652.373 198.84C645.73 206.31 638.661 212.997 631.167 218.903C623.842 224.636 616.433 229.152 608.938 232.452V236.361C616.774 236.361 623.757 237.316 629.889 239.227C636.191 240.964 641.727 243.83 646.497 247.825C651.436 251.647 655.78 256.424 659.527 262.156C663.274 267.888 666.596 274.75 669.491 282.74L683.033 321.563H641.387L632.444 290.296C630.059 281.785 626.908 275.01 622.991 269.973C619.073 264.762 614.048 261.027 607.916 258.769C601.784 256.337 593.779 255.121 583.899 255.121H569.08V321.563H532.289Z" fill="#121317"/>
<path d="M784.238 325.211C771.974 325.211 760.988 323.3 751.279 319.479C741.57 315.484 733.224 309.751 726.24 302.282C719.427 294.639 714.147 285.346 710.399 274.402C706.822 263.285 705.034 250.605 705.034 236.361C705.034 216.037 708.526 199.275 715.509 186.073C722.493 172.698 732.031 162.71 744.125 156.109C756.389 149.335 770.186 145.947 785.516 145.947C797.439 145.947 808.255 147.945 817.964 151.94C827.673 155.762 835.934 161.494 842.748 169.137C849.731 176.606 855.097 185.986 858.844 197.277C862.591 208.394 864.465 221.162 864.465 235.579C864.465 250.344 862.591 263.285 858.844 274.402C855.097 285.519 849.646 294.899 842.492 302.542C835.509 310.012 827.077 315.657 817.198 319.479C807.318 323.3 796.332 325.211 784.238 325.211ZM785.26 295.247C794.288 295.247 801.868 292.989 808 288.472C814.132 283.956 818.816 277.442 822.052 268.931C825.289 260.419 826.907 249.997 826.907 237.664C826.907 224.809 825.203 213.866 821.797 204.833C818.56 195.801 813.791 188.939 807.489 184.249C801.187 179.386 793.522 176.954 784.494 176.954C775.637 176.954 768.057 179.299 761.755 183.989C755.623 188.505 750.853 195.106 747.447 203.791C744.21 212.476 742.592 223.246 742.592 236.1C742.592 245.48 743.529 253.905 745.403 261.374C747.447 268.67 750.257 274.837 753.834 279.874C757.411 284.911 761.84 288.733 767.12 291.338C772.4 293.944 778.447 295.247 785.26 295.247Z" fill="#121317"/>
<path d="M902.708 321.563V149.595H950.742L1027.14 271.276H1029.95L1027.65 149.595H1063.42V321.563H1019.98L939.244 194.15H936.434L938.733 321.563H902.708Z" fill="#121317"/>
<path d="M1113.08 321.563V149.595H1150.64V321.563H1113.08Z" fill="#121317"/>
<path d="M557.291 427.912C553.16 427.912 549.529 427.474 546.399 426.598C543.331 425.721 540.734 424.438 538.605 422.748C536.539 420.995 535.006 418.866 534.004 416.362C533.002 413.858 532.564 410.947 532.689 407.63L540.483 405.939C540.233 409.195 540.765 411.918 542.079 414.109C543.394 416.3 545.397 417.959 548.089 419.086C550.781 420.15 553.942 420.682 557.573 420.682C561.079 420.682 564.052 420.244 566.493 419.367C568.935 418.491 570.75 417.27 571.94 415.705C573.192 414.14 573.818 412.356 573.818 410.353C573.818 408.099 573.098 406.315 571.658 405C570.218 403.686 568.278 402.684 565.836 401.996C563.457 401.244 560.797 400.556 557.855 399.93C554.975 399.304 552.095 398.584 549.216 397.77C546.336 396.956 543.738 395.923 541.422 394.671C539.169 393.357 537.322 391.667 535.882 389.601C534.505 387.472 533.816 384.781 533.816 381.525C533.816 377.832 534.724 374.639 536.539 371.948C538.417 369.256 541.047 367.19 544.427 365.75C547.807 364.248 551.782 363.497 556.352 363.497C560.859 363.497 564.866 364.217 568.371 365.656C571.94 367.096 574.757 369.225 576.822 372.042C578.888 374.796 579.984 378.208 580.109 382.277L572.034 384.249C572.034 381.995 571.627 380.023 570.813 378.333C570.062 376.58 568.997 375.172 567.62 374.107C566.243 372.981 564.584 372.135 562.644 371.572C560.703 370.946 558.575 370.633 556.258 370.633C553.441 370.633 550.969 371.071 548.84 371.948C546.712 372.824 545.053 374.013 543.864 375.516C542.674 377.018 542.079 378.802 542.079 380.868C542.079 383.31 542.925 385.25 544.615 386.69C546.368 388.067 548.621 389.163 551.376 389.976C554.13 390.79 557.072 391.541 560.202 392.23C562.894 392.793 565.523 393.482 568.09 394.296C570.719 395.047 573.098 396.08 575.226 397.395C577.355 398.647 579.045 400.305 580.297 402.371C581.549 404.437 582.175 407.066 582.175 410.259C582.175 413.827 581.236 416.926 579.358 419.555C577.542 422.184 574.788 424.25 571.095 425.752C567.401 427.192 562.8 427.912 557.291 427.912ZM692.608 426.691V364.717H701.247V426.691H692.608ZM673.734 372.229V364.717H720.121V372.229H673.734ZM804.402 426.691L826.187 364.717H838.769L860.554 426.691H851.258L833.041 371.948H831.914L813.698 426.691H804.402ZM814.731 412.794V406.221H851.258V412.794H814.731ZM980.637 427.912C976.192 427.912 972.186 427.224 968.617 425.846C965.112 424.469 962.138 422.435 959.697 419.743C957.256 417.051 955.378 413.764 954.063 409.883C952.811 405.939 952.185 401.464 952.185 396.456C952.185 391.385 952.842 386.846 954.157 382.84C955.471 378.771 957.349 375.297 959.791 372.417C962.232 369.538 965.174 367.347 968.617 365.844C972.06 364.279 975.91 363.497 980.167 363.497C983.422 363.497 986.427 363.966 989.182 364.905C991.936 365.782 994.315 367.096 996.318 368.849C998.384 370.539 999.98 372.605 1001.11 375.046C1002.23 377.488 1002.83 380.211 1002.89 383.216L994.722 385.281C994.784 382.089 994.127 379.46 992.75 377.394C991.373 375.265 989.557 373.669 987.304 372.605C985.05 371.541 982.609 371.009 979.979 371.009C977.538 371.009 975.159 371.509 972.843 372.511C970.589 373.45 968.586 374.952 966.833 377.018C965.081 379.021 963.672 381.619 962.608 384.812C961.606 387.942 961.105 391.729 961.105 396.174C961.105 401.87 961.919 406.472 963.547 409.977C965.237 413.483 967.585 416.081 970.589 417.771C973.594 419.399 977.068 420.212 981.012 420.212C984.831 420.212 987.898 419.524 990.214 418.147C992.531 416.707 994.252 414.735 995.379 412.231C996.506 409.664 997.163 406.722 997.351 403.404L1005.05 404.813C1004.99 407.943 1004.49 410.916 1003.55 413.733C1002.61 416.55 1001.17 419.023 999.229 421.151C997.288 423.28 994.784 424.939 991.717 426.128C988.649 427.317 984.956 427.912 980.637 427.912ZM1102.43 426.691V364.717H1111.07V394.296C1114.51 393.106 1117.86 391.51 1121.11 389.507C1124.43 387.441 1127.47 385.125 1130.22 382.558C1132.98 379.929 1135.39 377.112 1137.45 374.107C1139.52 371.04 1141.08 367.91 1142.15 364.717H1151.72C1150.47 368.348 1148.81 371.76 1146.75 374.952C1144.74 378.145 1142.43 381.056 1139.8 383.685C1137.23 386.314 1134.54 388.599 1131.72 390.54C1128.97 392.48 1126.21 394.045 1123.46 395.235V396.456C1126.53 396.456 1129.28 396.862 1131.72 397.676C1134.23 398.49 1136.48 399.679 1138.48 401.244C1140.55 402.809 1142.37 404.813 1143.93 407.254C1145.56 409.695 1147.03 412.575 1148.34 415.893L1152.29 426.691H1142.62L1140.08 418.428C1138.64 414.484 1136.95 411.26 1135.01 408.756C1133.13 406.19 1130.72 404.281 1127.78 403.029C1124.9 401.714 1121.18 401.057 1116.61 401.057H1111.07V426.691H1102.43Z" fill="#121317"/>
<path fill-rule="evenodd" clip-rule="evenodd" d="M335.827 161.319C338.329 161.976 340.073 164.237 340.073 166.823V195.108L308.96 208.719C303.782 210.984 300.435 216.101 300.435 221.753L300.435 335.405C300.435 341.057 303.782 346.174 308.96 348.439L340.073 362.05V374.458C340.073 376.866 338.556 379.014 336.287 379.82L190.782 431.517C187.078 432.833 183.186 430.086 183.186 426.154L183.186 128.613C183.186 124.883 186.715 122.161 190.323 123.109L335.827 161.319ZM354.3 368.274V378.475C354.3 384.497 350.509 389.866 344.836 391.882L187.949 447.622C178.688 450.912 168.959 444.044 168.959 434.216V121.235C168.959 111.909 177.78 105.106 186.8 107.474L343.686 148.673C349.94 150.316 354.3 155.968 354.3 162.434V188.884L340.073 195.108L340.073 362.05L354.3 368.274ZM354.3 368.274L426.462 399.842C435.862 403.954 446.391 397.067 446.391 386.807L446.391 170.35C446.391 160.091 435.862 153.204 426.462 157.316L354.3 188.884V368.274Z" fill="#1DE885"/>
</svg>
