<svg width="1324" height="555" viewBox="0 0 1324 555" fill="none" xmlns="http://www.w3.org/2000/svg">
<path d="M531.467 321.563V149.595H568.259V226.46C576.946 222.812 585.036 218.209 592.531 212.65C600.196 206.918 607.009 200.578 612.971 193.629C618.933 186.681 624.043 179.472 628.301 172.003C632.559 164.534 635.625 157.064 637.499 149.595H679.656C677.272 158.107 673.609 166.618 668.67 175.13C663.9 183.468 658.194 191.371 651.551 198.84C644.908 206.31 637.84 212.997 630.345 218.903C623.021 224.636 615.611 229.152 608.116 232.452V236.361C615.952 236.361 622.935 237.316 629.067 239.227C635.37 240.964 640.905 243.83 645.675 247.825C650.614 251.647 654.958 256.424 658.705 262.156C662.453 267.888 665.774 274.75 668.67 282.74L682.211 321.563H640.565L631.622 290.296C629.238 281.785 626.087 275.01 622.169 269.973C618.251 264.762 613.226 261.027 607.094 258.769C600.962 256.337 592.957 255.121 583.078 255.121H568.259V321.563H531.467Z" fill="white"/>
<path d="M783.417 325.211C771.153 325.211 760.166 323.3 750.457 319.479C740.748 315.484 732.402 309.751 725.418 302.282C718.605 294.639 713.325 285.346 709.577 274.402C706 263.285 704.212 250.605 704.212 236.361C704.212 216.037 707.704 199.275 714.687 186.073C721.671 172.698 731.21 162.71 743.303 156.109C755.567 149.335 769.364 145.947 784.694 145.947C796.617 145.947 807.434 147.945 817.143 151.94C826.851 155.762 835.113 161.494 841.926 169.137C848.91 176.606 854.275 185.986 858.022 197.277C861.77 208.394 863.643 221.162 863.643 235.579C863.643 250.344 861.77 263.285 858.022 274.402C854.275 285.519 848.824 294.899 841.67 302.542C834.687 310.012 826.255 315.657 816.376 319.479C806.497 323.3 795.51 325.211 783.417 325.211ZM784.439 295.247C793.466 295.247 801.046 292.989 807.178 288.472C813.31 283.956 817.994 277.442 821.23 268.931C824.467 260.419 826.085 249.997 826.085 237.664C826.085 224.809 824.382 213.866 820.975 204.833C817.739 195.801 812.969 188.939 806.667 184.249C800.365 179.386 792.7 176.954 783.672 176.954C774.815 176.954 767.235 179.299 760.933 183.989C754.801 188.505 750.031 195.106 746.625 203.791C743.388 212.476 741.77 223.246 741.77 236.1C741.77 245.48 742.707 253.905 744.581 261.374C746.625 268.67 749.435 274.837 753.012 279.874C756.589 284.911 761.018 288.733 766.298 291.338C771.579 293.944 777.625 295.247 784.439 295.247Z" fill="white"/>
<path d="M901.886 321.563V149.595H949.92L1026.31 271.276H1029.12L1026.83 149.595H1062.6V321.563H1019.16L938.423 194.15H935.612L937.912 321.563H901.886Z" fill="white"/>
<path d="M1112.26 321.563V149.595H1149.82V321.563H1112.26Z" fill="white"/>
<path d="M556.469 427.912C552.338 427.912 548.707 427.474 545.577 426.598C542.51 425.721 539.912 424.438 537.783 422.748C535.718 420.995 534.184 418.866 533.182 416.362C532.181 413.858 531.742 410.947 531.868 407.63L539.661 405.939C539.411 409.195 539.943 411.918 541.258 414.109C542.572 416.3 544.575 417.959 547.267 419.086C549.959 420.15 553.12 420.682 556.751 420.682C560.257 420.682 563.23 420.244 565.672 419.367C568.113 418.491 569.928 417.27 571.118 415.705C572.37 414.14 572.996 412.356 572.996 410.353C572.996 408.099 572.276 406.315 570.836 405C569.396 403.686 567.456 402.684 565.014 401.996C562.636 401.244 559.975 400.556 557.033 399.93C554.153 399.304 551.274 398.584 548.394 397.77C545.514 396.956 542.917 395.923 540.6 394.671C538.347 393.357 536.5 391.667 535.06 389.601C533.683 387.472 532.994 384.781 532.994 381.525C532.994 377.832 533.902 374.639 535.718 371.948C537.596 369.256 540.225 367.19 543.605 365.75C546.986 364.248 550.961 363.497 555.53 363.497C560.038 363.497 564.044 364.217 567.55 365.656C571.118 367.096 573.935 369.225 576.001 372.042C578.066 374.796 579.162 378.208 579.287 382.277L571.212 384.249C571.212 381.995 570.805 380.023 569.991 378.333C569.24 376.58 568.176 375.172 566.798 374.107C565.421 372.981 563.762 372.135 561.822 371.572C559.881 370.946 557.753 370.633 555.437 370.633C552.62 370.633 550.147 371.071 548.018 371.948C545.89 372.824 544.231 374.013 543.042 375.516C541.852 377.018 541.258 378.802 541.258 380.868C541.258 383.31 542.103 385.25 543.793 386.69C545.546 388.067 547.799 389.163 550.554 389.976C553.308 390.79 556.25 391.541 559.38 392.23C562.072 392.793 564.701 393.482 567.268 394.296C569.897 395.047 572.276 396.08 574.404 397.395C576.533 398.647 578.223 400.305 579.475 402.371C580.727 404.437 581.353 407.066 581.353 410.259C581.353 413.827 580.414 416.926 578.536 419.555C576.721 422.184 573.966 424.25 570.273 425.752C566.579 427.192 561.978 427.912 556.469 427.912ZM691.786 426.691V364.717H700.425V426.691H691.786ZM672.912 372.229V364.717H719.299V372.229H672.912ZM803.58 426.691L825.365 364.717H837.947L859.732 426.691H850.436L832.219 371.948H831.093L812.876 426.691H803.58ZM813.909 412.794V406.221H850.436V412.794H813.909ZM979.815 427.912C975.37 427.912 971.364 427.224 967.796 425.846C964.29 424.469 961.317 422.435 958.875 419.743C956.434 417.051 954.556 413.764 953.241 409.883C951.989 405.939 951.363 401.464 951.363 396.456C951.363 391.385 952.02 386.846 953.335 382.84C954.65 378.771 956.528 375.297 958.969 372.417C961.41 369.538 964.353 367.347 967.796 365.844C971.239 364.279 975.089 363.497 979.345 363.497C982.601 363.497 985.605 363.966 988.36 364.905C991.114 365.782 993.493 367.096 995.496 368.849C997.562 370.539 999.158 372.605 1000.29 375.046C1001.41 377.488 1002.01 380.211 1002.07 383.216L993.9 385.281C993.963 382.089 993.305 379.46 991.928 377.394C990.551 375.265 988.735 373.669 986.482 372.605C984.228 371.541 981.787 371.009 979.158 371.009C976.716 371.009 974.337 371.509 972.021 372.511C969.768 373.45 967.764 374.952 966.012 377.018C964.259 379.021 962.85 381.619 961.786 384.812C960.784 387.942 960.284 391.729 960.284 396.174C960.284 401.87 961.097 406.472 962.725 409.977C964.415 413.483 966.763 416.081 969.768 417.771C972.772 419.399 976.247 420.212 980.191 420.212C984.009 420.212 987.077 419.524 989.393 418.147C991.709 416.707 993.43 414.735 994.557 412.231C995.684 409.664 996.341 406.722 996.529 403.404L1004.23 404.813C1004.17 407.943 1003.67 410.916 1002.73 413.733C1001.79 416.55 1000.35 419.023 998.407 421.151C996.467 423.28 993.963 424.939 990.895 426.128C987.828 427.317 984.134 427.912 979.815 427.912ZM1101.6 426.691V364.717H1110.24V394.296C1113.69 393.106 1117.04 391.51 1120.29 389.507C1123.61 387.441 1126.64 385.125 1129.4 382.558C1132.15 379.929 1134.56 377.112 1136.63 374.107C1138.7 371.04 1140.26 367.91 1141.32 364.717H1150.9C1149.65 368.348 1147.99 371.76 1145.93 374.952C1143.92 378.145 1141.61 381.056 1138.98 383.685C1136.41 386.314 1133.72 388.599 1130.9 390.54C1128.15 392.48 1125.39 394.045 1122.64 395.235V396.456C1125.71 396.456 1128.46 396.862 1130.9 397.676C1133.41 398.49 1135.66 399.679 1137.66 401.244C1139.73 402.809 1141.54 404.813 1143.11 407.254C1144.74 409.695 1146.21 412.575 1147.52 415.893L1151.47 426.691H1141.79L1139.26 418.428C1137.82 414.484 1136.13 411.26 1134.19 408.756C1132.31 406.19 1129.9 404.281 1126.96 403.029C1124.08 401.714 1120.35 401.057 1115.78 401.057H1110.24V426.691H1101.6Z" fill="white"/>
<path fill-rule="evenodd" clip-rule="evenodd" d="M335.005 161.319C337.507 161.976 339.251 164.237 339.251 166.823V195.108L308.139 208.719C302.96 210.984 299.613 216.101 299.613 221.753L299.613 335.405C299.613 341.057 302.96 346.174 308.139 348.439L339.251 362.05V374.458C339.251 376.866 337.735 379.014 335.465 379.82L189.961 431.517C186.256 432.833 182.364 430.086 182.364 426.154L182.364 128.613C182.364 124.883 185.893 122.161 189.501 123.109L335.005 161.319ZM353.478 368.274V378.475C353.478 384.497 349.688 389.866 344.014 391.882L187.128 447.622C177.866 450.912 168.137 444.044 168.137 434.216V121.235C168.137 111.909 176.959 105.106 185.978 107.474L342.864 148.673C349.118 150.316 353.478 155.968 353.478 162.434V188.884L339.251 195.108L339.251 362.05L353.478 368.274ZM353.478 368.274L425.64 399.842C435.04 403.954 445.569 397.067 445.569 386.807L445.569 170.35C445.569 160.091 435.04 153.204 425.64 157.316L353.478 188.884V368.274Z" fill="#FFF643"/>
</svg>
