<svg width="1324" height="555" viewBox="0 0 1324 555" fill="none" xmlns="http://www.w3.org/2000/svg">
<path d="M532.015 321.563V149.595H568.807V226.46C577.494 222.812 585.585 218.209 593.079 212.65C600.744 206.918 607.558 200.578 613.519 193.629C619.481 186.681 624.591 179.472 628.849 172.003C633.108 164.534 636.174 157.064 638.047 149.595H680.205C677.82 158.107 674.158 166.618 669.218 175.13C664.449 183.468 658.743 191.371 652.1 198.84C645.457 206.31 638.388 212.997 630.893 218.903C623.569 224.636 616.159 229.152 608.665 232.452V236.361C616.5 236.361 623.484 237.316 629.616 239.227C635.918 240.964 641.454 243.83 646.223 247.825C651.163 251.647 655.506 256.424 659.254 262.156C663.001 267.888 666.322 274.75 669.218 282.74L682.759 321.563H641.113L632.171 290.296C629.786 281.785 626.635 275.01 622.717 269.973C618.8 264.762 613.775 261.027 607.643 258.769C601.511 256.337 593.505 255.121 583.626 255.121H568.807V321.563H532.015Z" fill="#121317"/>
<path d="M783.965 325.211C771.701 325.211 760.715 323.3 751.006 319.479C741.297 315.484 732.95 309.751 725.967 302.282C719.153 294.639 713.873 285.346 710.126 274.402C706.549 263.285 704.76 250.605 704.76 236.361C704.76 216.037 708.252 199.275 715.236 186.073C722.219 172.698 731.758 162.71 743.852 156.109C756.116 149.335 769.913 145.947 785.242 145.947C797.166 145.947 807.982 147.945 817.691 151.94C827.4 155.762 835.661 161.494 842.474 169.137C849.458 176.606 854.823 185.986 858.571 197.277C862.318 208.394 864.192 221.162 864.192 235.579C864.192 250.344 862.318 263.285 858.571 274.402C854.823 285.519 849.373 294.899 842.219 302.542C835.235 310.012 826.804 315.657 816.924 319.479C807.045 323.3 796.059 325.211 783.965 325.211ZM784.987 295.247C794.015 295.247 801.594 292.989 807.726 288.472C813.858 283.956 818.543 277.442 821.779 268.931C825.015 260.419 826.633 249.997 826.633 237.664C826.633 224.809 824.93 213.866 821.523 204.833C818.287 195.801 813.518 188.939 807.215 184.249C800.913 179.386 793.248 176.954 784.221 176.954C775.363 176.954 767.783 179.299 761.481 183.989C755.349 188.505 750.58 195.106 747.173 203.791C743.937 212.476 742.319 223.246 742.319 236.1C742.319 245.48 743.256 253.905 745.129 261.374C747.173 268.67 749.984 274.837 753.561 279.874C757.138 284.911 761.566 288.733 766.847 291.338C772.127 293.944 778.174 295.247 784.987 295.247Z" fill="#121317"/>
<path d="M902.435 321.563V149.595H950.468L1026.86 271.276H1029.67L1027.37 149.595H1063.14V321.563H1019.71L938.971 194.15H936.16L938.46 321.563H902.435Z" fill="#121317"/>
<path d="M1112.81 321.563V149.595H1150.37V321.563H1112.81Z" fill="#121317"/>
<path d="M557.018 427.912C552.886 427.912 549.255 427.474 546.125 426.598C543.058 425.721 540.46 424.438 538.332 422.748C536.266 420.995 534.732 418.866 533.731 416.362C532.729 413.858 532.291 410.947 532.416 407.63L540.21 405.939C539.959 409.195 540.491 411.918 541.806 414.109C543.121 416.3 545.124 417.959 547.816 419.086C550.507 420.15 553.669 420.682 557.299 420.682C560.805 420.682 563.779 420.244 566.22 419.367C568.661 418.491 570.477 417.27 571.666 415.705C572.918 414.14 573.544 412.356 573.544 410.353C573.544 408.099 572.824 406.315 571.384 405C569.945 403.686 568.004 402.684 565.563 401.996C563.184 401.244 560.523 400.556 557.581 399.93C554.702 399.304 551.822 398.584 548.942 397.77C546.063 396.956 543.465 395.923 541.149 394.671C538.895 393.357 537.048 391.667 535.609 389.601C534.231 387.472 533.543 384.781 533.543 381.525C533.543 377.832 534.45 374.639 536.266 371.948C538.144 369.256 540.773 367.19 544.153 365.75C547.534 364.248 551.509 363.497 556.079 363.497C560.586 363.497 564.592 364.217 568.098 365.656C571.666 367.096 574.483 369.225 576.549 372.042C578.615 374.796 579.71 378.208 579.835 382.277L571.76 384.249C571.76 381.995 571.353 380.023 570.539 378.333C569.788 376.58 568.724 375.172 567.347 374.107C565.97 372.981 564.311 372.135 562.37 371.572C560.429 370.946 558.301 370.633 555.985 370.633C553.168 370.633 550.695 371.071 548.567 371.948C546.438 372.824 544.779 374.013 543.59 375.516C542.401 377.018 541.806 378.802 541.806 380.868C541.806 383.31 542.651 385.25 544.341 386.69C546.094 388.067 548.348 389.163 551.102 389.976C553.856 390.79 556.799 391.541 559.929 392.23C562.62 392.793 565.25 393.482 567.816 394.296C570.445 395.047 572.824 396.08 574.953 397.395C577.081 398.647 578.771 400.305 580.023 402.371C581.275 404.437 581.901 407.066 581.901 410.259C581.901 413.827 580.962 416.926 579.084 419.555C577.269 422.184 574.514 424.25 570.821 425.752C567.128 427.192 562.527 427.912 557.018 427.912ZM692.334 426.691V364.717H700.973V426.691H692.334ZM673.46 372.229V364.717H719.847V372.229H673.46ZM804.128 426.691L825.913 364.717H838.496L860.28 426.691H850.984L832.768 371.948H831.641L813.424 426.691H804.128ZM814.457 412.794V406.221H850.984V412.794H814.457ZM980.363 427.912C975.919 427.912 971.912 427.224 968.344 425.846C964.838 424.469 961.865 422.435 959.424 419.743C956.982 417.051 955.104 413.764 953.79 409.883C952.538 405.939 951.912 401.464 951.912 396.456C951.912 391.385 952.569 386.846 953.883 382.84C955.198 378.771 957.076 375.297 959.517 372.417C961.959 369.538 964.901 367.347 968.344 365.844C971.787 364.279 975.637 363.497 979.894 363.497C983.149 363.497 986.154 363.966 988.908 364.905C991.663 365.782 994.041 367.096 996.045 368.849C998.11 370.539 999.707 372.605 1000.83 375.046C1001.96 377.488 1002.55 380.211 1002.62 383.216L994.448 385.281C994.511 382.089 993.854 379.46 992.476 377.394C991.099 375.265 989.284 373.669 987.03 372.605C984.777 371.541 982.335 371.009 979.706 371.009C977.265 371.009 974.886 371.509 972.57 372.511C970.316 373.45 968.313 374.952 966.56 377.018C964.807 379.021 963.399 381.619 962.334 384.812C961.333 387.942 960.832 391.729 960.832 396.174C960.832 401.87 961.646 406.472 963.273 409.977C964.964 413.483 967.311 416.081 970.316 417.771C973.321 419.399 976.795 420.212 980.739 420.212C984.557 420.212 987.625 419.524 989.941 418.147C992.257 416.707 993.979 414.735 995.106 412.231C996.232 409.664 996.89 406.722 997.077 403.404L1004.78 404.813C1004.71 407.943 1004.21 410.916 1003.27 413.733C1002.34 416.55 1000.9 419.023 998.955 421.151C997.015 423.28 994.511 424.939 991.443 426.128C988.376 427.317 984.683 427.912 980.363 427.912ZM1102.15 426.691V364.717H1110.79V394.296C1114.23 393.106 1117.58 391.51 1120.84 389.507C1124.16 387.441 1127.19 385.125 1129.95 382.558C1132.7 379.929 1135.11 377.112 1137.18 374.107C1139.24 371.04 1140.81 367.91 1141.87 364.717H1151.45C1150.2 368.348 1148.54 371.76 1146.47 374.952C1144.47 378.145 1142.15 381.056 1139.53 383.685C1136.96 386.314 1134.27 388.599 1131.45 390.54C1128.7 392.48 1125.94 394.045 1123.19 395.235V396.456C1126.25 396.456 1129.01 396.862 1131.45 397.676C1133.95 398.49 1136.21 399.679 1138.21 401.244C1140.28 402.809 1142.09 404.813 1143.66 407.254C1145.28 409.695 1146.76 412.575 1148.07 415.893L1152.01 426.691H1142.34L1139.81 418.428C1138.37 414.484 1136.68 411.26 1134.74 408.756C1132.86 406.19 1130.45 404.281 1127.51 403.029C1124.63 401.714 1120.9 401.057 1116.33 401.057H1110.79V426.691H1102.15Z" fill="#121317"/>
<path fill-rule="evenodd" clip-rule="evenodd" d="M335.554 161.319C338.055 161.976 339.799 164.237 339.799 166.823V195.108L308.687 208.719C303.508 210.984 300.162 216.101 300.162 221.753L300.162 335.405C300.162 341.057 303.508 346.174 308.687 348.439L339.799 362.05V374.458C339.799 376.866 338.283 379.014 336.014 379.82L190.509 431.517C186.804 432.833 182.913 430.086 182.913 426.154L182.913 128.613C182.913 124.883 186.441 122.161 190.049 123.109L335.554 161.319ZM354.026 368.274V378.475C354.026 384.497 350.236 389.866 344.562 391.882L187.676 447.622C178.414 450.912 168.686 444.044 168.686 434.216V121.235C168.686 111.909 177.507 105.106 186.526 107.474L343.413 148.673C349.667 150.316 354.026 155.968 354.026 162.434V188.884L339.799 195.108L339.799 362.05L354.026 368.274ZM354.026 368.274L426.188 399.842C435.588 403.954 446.118 397.067 446.118 386.807L446.118 170.35C446.118 160.091 435.588 153.204 426.188 157.316L354.026 188.884V368.274Z" fill="#FFF643"/>
</svg>
