<svg width="1324" height="555" viewBox="0 0 1324 555" fill="none" xmlns="http://www.w3.org/2000/svg">
<path d="M531.741 321.563V149.595H568.533V226.46C577.22 222.812 585.31 218.209 592.805 212.65C600.47 206.918 607.283 200.578 613.245 193.629C619.207 186.681 624.316 179.472 628.575 172.003C632.833 164.534 635.899 157.064 637.773 149.595H679.93C677.545 158.107 673.883 166.618 668.944 175.13C664.174 183.468 658.468 191.371 651.825 198.84C645.182 206.31 638.113 212.997 630.619 218.903C623.294 224.636 615.885 229.152 608.39 232.452V236.361C616.226 236.361 623.209 237.316 629.341 239.227C635.644 240.964 641.179 243.83 645.949 247.825C650.888 251.647 655.232 256.424 658.979 262.156C662.726 267.888 666.048 274.75 668.944 282.74L682.485 321.563H640.839L631.896 290.296C629.512 281.785 626.36 275.01 622.443 269.973C618.525 264.762 613.5 261.027 607.368 258.769C601.236 256.337 593.231 255.121 583.351 255.121H568.533V321.563H531.741Z" fill="white"/>
<path d="M783.691 325.211C771.427 325.211 760.44 323.3 750.731 319.479C741.022 315.484 732.676 309.751 725.692 302.282C718.879 294.639 713.599 285.346 709.851 274.402C706.274 263.285 704.486 250.605 704.486 236.361C704.486 216.037 707.978 199.275 714.961 186.073C721.945 172.698 731.484 162.71 743.577 156.109C755.841 149.335 769.638 145.947 784.968 145.947C796.891 145.947 807.707 147.945 817.416 151.94C827.125 155.762 835.387 161.494 842.2 169.137C849.183 176.606 854.549 185.986 858.296 197.277C862.044 208.394 863.917 221.162 863.917 235.579C863.917 250.344 862.044 263.285 858.296 274.402C854.549 285.519 849.098 294.899 841.944 302.542C834.961 310.012 826.529 315.657 816.65 319.479C806.771 323.3 795.784 325.211 783.691 325.211ZM784.713 295.247C793.74 295.247 801.32 292.989 807.452 288.472C813.584 283.956 818.268 277.442 821.504 268.931C824.741 260.419 826.359 249.997 826.359 237.664C826.359 224.809 824.656 213.866 821.249 204.833C818.013 195.801 813.243 188.939 806.941 184.249C800.639 179.386 792.974 176.954 783.946 176.954C775.089 176.954 767.509 179.299 761.207 183.989C755.075 188.505 750.305 195.106 746.899 203.791C743.662 212.476 742.044 223.246 742.044 236.1C742.044 245.48 742.981 253.905 744.855 261.374C746.899 268.67 749.709 274.837 753.286 279.874C756.863 284.911 761.292 288.733 766.572 291.338C771.852 293.944 777.899 295.247 784.713 295.247Z" fill="white"/>
<path d="M902.16 321.563V149.595H950.194L1026.59 271.276H1029.4L1027.1 149.595H1062.87V321.563H1019.43L938.697 194.15H935.886L938.186 321.563H902.16Z" fill="white"/>
<path d="M1112.54 321.563V149.595H1150.09V321.563H1112.54Z" fill="white"/>
<path d="M556.743 427.912C552.612 427.912 548.981 427.474 545.851 426.598C542.784 425.721 540.186 424.438 538.057 422.748C535.991 420.995 534.458 418.866 533.456 416.362C532.455 413.858 532.016 410.947 532.142 407.63L539.935 405.939C539.685 409.195 540.217 411.918 541.532 414.109C542.846 416.3 544.849 417.959 547.541 419.086C550.233 420.15 553.394 420.682 557.025 420.682C560.531 420.682 563.504 420.244 565.946 419.367C568.387 418.491 570.202 417.27 571.392 415.705C572.644 414.14 573.27 412.356 573.27 410.353C573.27 408.099 572.55 406.315 571.11 405C569.67 403.686 567.73 402.684 565.288 401.996C562.909 401.244 560.249 400.556 557.307 399.93C554.427 399.304 551.548 398.584 548.668 397.77C545.788 396.956 543.19 395.923 540.874 394.671C538.621 393.357 536.774 391.667 535.334 389.601C533.957 387.472 533.268 384.781 533.268 381.525C533.268 377.832 534.176 374.639 535.991 371.948C537.869 369.256 540.499 367.19 543.879 365.75C547.259 364.248 551.235 363.497 555.804 363.497C560.312 363.497 564.318 364.217 567.824 365.656C571.392 367.096 574.209 369.225 576.275 372.042C578.34 374.796 579.436 378.208 579.561 382.277L571.486 384.249C571.486 381.995 571.079 380.023 570.265 378.333C569.514 376.58 568.45 375.172 567.072 374.107C565.695 372.981 564.036 372.135 562.096 371.572C560.155 370.946 558.027 370.633 555.71 370.633C552.893 370.633 550.421 371.071 548.292 371.948C546.164 372.824 544.505 374.013 543.316 375.516C542.126 377.018 541.532 378.802 541.532 380.868C541.532 383.31 542.377 385.25 544.067 386.69C545.82 388.067 548.073 389.163 550.828 389.976C553.582 390.79 556.524 391.541 559.654 392.23C562.346 392.793 564.975 393.482 567.542 394.296C570.171 395.047 572.55 396.08 574.678 397.395C576.807 398.647 578.497 400.305 579.749 402.371C581.001 404.437 581.627 407.066 581.627 410.259C581.627 413.827 580.688 416.926 578.81 419.555C576.994 422.184 574.24 424.25 570.547 425.752C566.853 427.192 562.252 427.912 556.743 427.912ZM692.06 426.691V364.717H700.699V426.691H692.06ZM673.186 372.229V364.717H719.573V372.229H673.186ZM803.854 426.691L825.639 364.717H838.221L860.006 426.691H850.71L832.493 371.948H831.367L813.15 426.691H803.854ZM814.183 412.794V406.221H850.71V412.794H814.183ZM980.089 427.912C975.644 427.912 971.638 427.224 968.07 425.846C964.564 424.469 961.591 422.435 959.149 419.743C956.708 417.051 954.83 413.764 953.515 409.883C952.263 405.939 951.637 401.464 951.637 396.456C951.637 391.385 952.294 386.846 953.609 382.84C954.924 378.771 956.802 375.297 959.243 372.417C961.684 369.538 964.627 367.347 968.07 365.844C971.513 364.279 975.363 363.497 979.619 363.497C982.875 363.497 985.879 363.966 988.634 364.905C991.388 365.782 993.767 367.096 995.77 368.849C997.836 370.539 999.432 372.605 1000.56 375.046C1001.69 377.488 1002.28 380.211 1002.34 383.216L994.174 385.281C994.236 382.089 993.579 379.46 992.202 377.394C990.825 375.265 989.009 373.669 986.756 372.605C984.502 371.541 982.061 371.009 979.432 371.009C976.99 371.009 974.611 371.509 972.295 372.511C970.042 373.45 968.038 374.952 966.286 377.018C964.533 379.021 963.124 381.619 962.06 384.812C961.058 387.942 960.558 391.729 960.558 396.174C960.558 401.87 961.371 406.472 962.999 409.977C964.689 413.483 967.037 416.081 970.042 417.771C973.046 419.399 976.521 420.212 980.464 420.212C984.283 420.212 987.35 419.524 989.667 418.147C991.983 416.707 993.704 414.735 994.831 412.231C995.958 409.664 996.615 406.722 996.803 403.404L1004.5 404.813C1004.44 407.943 1003.94 410.916 1003 413.733C1002.06 416.55 1000.62 419.023 998.681 421.151C996.74 423.28 994.236 424.939 991.169 426.128C988.102 427.317 984.408 427.912 980.089 427.912ZM1101.88 426.691V364.717H1110.52V394.296C1113.96 393.106 1117.31 391.51 1120.56 389.507C1123.88 387.441 1126.92 385.125 1129.67 382.558C1132.43 379.929 1134.84 377.112 1136.9 374.107C1138.97 371.04 1140.53 367.91 1141.6 364.717H1151.18C1149.92 368.348 1148.27 371.76 1146.2 374.952C1144.2 378.145 1141.88 381.056 1139.25 383.685C1136.68 386.314 1133.99 388.599 1131.18 390.54C1128.42 392.48 1125.67 394.045 1122.91 395.235V396.456C1125.98 396.456 1128.73 396.862 1131.18 397.676C1133.68 398.49 1135.93 399.679 1137.94 401.244C1140 402.809 1141.82 404.813 1143.38 407.254C1145.01 409.695 1146.48 412.575 1147.8 415.893L1151.74 426.691H1142.07L1139.53 418.428C1138.09 414.484 1136.4 411.26 1134.46 408.756C1132.58 406.19 1130.17 404.281 1127.23 403.029C1124.35 401.714 1120.63 401.057 1116.06 401.057H1110.52V426.691H1101.88Z" fill="white"/>
<path fill-rule="evenodd" clip-rule="evenodd" d="M335.279 161.319C337.781 161.976 339.525 164.237 339.525 166.823V195.108L308.413 208.719C303.234 210.984 299.887 216.101 299.887 221.753L299.887 335.405C299.887 341.057 303.234 346.174 308.412 348.439L339.525 362.05V374.458C339.525 376.866 338.009 379.014 335.739 379.82L190.235 431.517C186.53 432.833 182.638 430.086 182.638 426.154L182.638 128.613C182.638 124.883 186.167 122.161 189.775 123.109L335.279 161.319ZM353.752 368.274V378.475C353.752 384.497 349.962 389.866 344.288 391.882L187.402 447.622C178.14 450.912 168.411 444.044 168.411 434.216V121.235C168.411 111.909 177.232 105.106 186.252 107.474L343.138 148.673C349.392 150.316 353.752 155.968 353.752 162.434V188.884L339.525 195.108L339.525 362.05L353.752 368.274ZM353.752 368.274L425.914 399.842C435.314 403.954 445.843 397.067 445.843 386.807L445.843 170.35C445.843 160.091 435.314 153.204 425.914 157.316L353.752 188.884V368.274Z" fill="#1DE885"/>
</svg>
