<svg width="1324" height="555" viewBox="0 0 1324 555" fill="none" xmlns="http://www.w3.org/2000/svg">
<path d="M531.878 321.563V149.595H568.67V226.46C577.357 222.812 585.448 218.209 592.942 212.65C600.607 206.918 607.42 200.578 613.382 193.629C619.344 186.681 624.454 179.472 628.712 172.003C632.97 164.534 636.036 157.064 637.91 149.595H680.067C677.683 158.107 674.02 166.618 669.081 175.13C664.312 183.468 658.605 191.371 651.962 198.84C645.319 206.31 638.251 212.997 630.756 218.903C623.432 224.636 616.022 229.152 608.528 232.452V236.361C616.363 236.361 623.347 237.316 629.479 239.227C635.781 240.964 641.317 243.83 646.086 247.825C651.026 251.647 655.369 256.424 659.116 262.156C662.864 267.888 666.185 274.75 669.081 282.74L682.622 321.563H640.976L632.034 290.296C629.649 281.785 626.498 275.01 622.58 269.973C618.662 264.762 613.638 261.027 607.506 258.769C601.374 256.337 593.368 255.121 583.489 255.121H568.67V321.563H531.878Z" fill="#121317"/>
<path d="M783.828 325.211C771.564 325.211 760.577 323.3 750.868 319.479C741.159 315.484 732.813 309.751 725.83 302.282C719.016 294.639 713.736 285.346 709.989 274.402C706.412 263.285 704.623 250.605 704.623 236.361C704.623 216.037 708.115 199.275 715.099 186.073C722.082 172.698 731.621 162.71 743.714 156.109C755.978 149.335 769.775 145.947 785.105 145.947C797.029 145.947 807.845 147.945 817.554 151.94C827.263 155.762 835.524 161.494 842.337 169.137C849.321 176.606 854.686 185.986 858.433 197.277C862.181 208.394 864.054 221.162 864.054 235.579C864.054 250.344 862.181 263.285 858.433 274.402C854.686 285.519 849.236 294.899 842.082 302.542C835.098 310.012 826.666 315.657 816.787 319.479C806.908 323.3 795.921 325.211 783.828 325.211ZM784.85 295.247C793.877 295.247 801.457 292.989 807.589 288.472C813.721 283.956 818.405 277.442 821.642 268.931C824.878 260.419 826.496 249.997 826.496 237.664C826.496 224.809 824.793 213.866 821.386 204.833C818.15 195.801 813.381 188.939 807.078 184.249C800.776 179.386 793.111 176.954 784.083 176.954C775.226 176.954 767.646 179.299 761.344 183.989C755.212 188.505 750.443 195.106 747.036 203.791C743.8 212.476 742.181 223.246 742.181 236.1C742.181 245.48 743.118 253.905 744.992 261.374C747.036 268.67 749.846 274.837 753.423 279.874C757 284.911 761.429 288.733 766.709 291.338C771.99 293.944 778.036 295.247 784.85 295.247Z" fill="#121317"/>
<path d="M902.297 321.563V149.595H950.331L1026.73 271.276H1029.54L1027.24 149.595H1063.01V321.563H1019.57L938.834 194.15H936.023L938.323 321.563H902.297Z" fill="#121317"/>
<path d="M1112.67 321.563V149.595H1150.23V321.563H1112.67Z" fill="#121317"/>
<path d="M556.881 427.912C552.749 427.912 549.118 427.474 545.988 426.598C542.921 425.721 540.323 424.438 538.194 422.748C536.129 420.995 534.595 418.866 533.593 416.362C532.592 413.858 532.154 410.947 532.279 407.63L540.072 405.939C539.822 409.195 540.354 411.918 541.669 414.109C542.983 416.3 544.987 417.959 547.678 419.086C550.37 420.15 553.531 420.682 557.162 420.682C560.668 420.682 563.641 420.244 566.083 419.367C568.524 418.491 570.34 417.27 571.529 415.705C572.781 414.14 573.407 412.356 573.407 410.353C573.407 408.099 572.687 406.315 571.247 405C569.807 403.686 567.867 402.684 565.425 401.996C563.047 401.244 560.386 400.556 557.444 399.93C554.564 399.304 551.685 398.584 548.805 397.77C545.926 396.956 543.328 395.923 541.011 394.671C538.758 393.357 536.911 391.667 535.471 389.601C534.094 387.472 533.406 384.781 533.406 381.525C533.406 377.832 534.313 374.639 536.129 371.948C538.007 369.256 540.636 367.19 544.016 365.75C547.397 364.248 551.372 363.497 555.942 363.497C560.449 363.497 564.455 364.217 567.961 365.656C571.529 367.096 574.346 369.225 576.412 372.042C578.478 374.796 579.573 378.208 579.698 382.277L571.623 384.249C571.623 381.995 571.216 380.023 570.402 378.333C569.651 376.58 568.587 375.172 567.21 374.107C565.832 372.981 564.173 372.135 562.233 371.572C560.292 370.946 558.164 370.633 555.848 370.633C553.031 370.633 550.558 371.071 548.43 371.948C546.301 372.824 544.642 374.013 543.453 375.516C542.263 377.018 541.669 378.802 541.669 380.868C541.669 383.31 542.514 385.25 544.204 386.69C545.957 388.067 548.21 389.163 550.965 389.976C553.719 390.79 556.661 391.541 559.791 392.23C562.483 392.793 565.112 393.482 567.679 394.296C570.308 395.047 572.687 396.08 574.815 397.395C576.944 398.647 578.634 400.305 579.886 402.371C581.138 404.437 581.764 407.066 581.764 410.259C581.764 413.827 580.825 416.926 578.947 419.555C577.132 422.184 574.377 424.25 570.684 425.752C566.99 427.192 562.389 427.912 556.881 427.912ZM692.197 426.691V364.717H700.836V426.691H692.197ZM673.323 372.229V364.717H719.71V372.229H673.323ZM803.991 426.691L825.776 364.717H838.358L860.143 426.691H850.847L832.631 371.948H831.504L813.287 426.691H803.991ZM814.32 412.794V406.221H850.847V412.794H814.32ZM980.226 427.912C975.781 427.912 971.775 427.224 968.207 425.846C964.701 424.469 961.728 422.435 959.286 419.743C956.845 417.051 954.967 413.764 953.652 409.883C952.4 405.939 951.774 401.464 951.774 396.456C951.774 391.385 952.432 386.846 953.746 382.84C955.061 378.771 956.939 375.297 959.38 372.417C961.822 369.538 964.764 367.347 968.207 365.844C971.65 364.279 975.5 363.497 979.757 363.497C983.012 363.497 986.017 363.966 988.771 364.905C991.525 365.782 993.904 367.096 995.907 368.849C997.973 370.539 999.569 372.605 1000.7 375.046C1001.82 377.488 1002.42 380.211 1002.48 383.216L994.311 385.281C994.374 382.089 993.716 379.46 992.339 377.394C990.962 375.265 989.147 373.669 986.893 372.605C984.639 371.541 982.198 371.009 979.569 371.009C977.127 371.009 974.749 371.509 972.432 372.511C970.179 373.45 968.176 374.952 966.423 377.018C964.67 379.021 963.261 381.619 962.197 384.812C961.196 387.942 960.695 391.729 960.695 396.174C960.695 401.87 961.509 406.472 963.136 409.977C964.826 413.483 967.174 416.081 970.179 417.771C973.184 419.399 976.658 420.212 980.602 420.212C984.42 420.212 987.488 419.524 989.804 418.147C992.12 416.707 993.842 414.735 994.968 412.231C996.095 409.664 996.752 406.722 996.94 403.404L1004.64 404.813C1004.58 407.943 1004.08 410.916 1003.14 413.733C1002.2 416.55 1000.76 419.023 998.818 421.151C996.878 423.28 994.374 424.939 991.306 426.128C988.239 427.317 984.545 427.912 980.226 427.912ZM1102.02 426.691V364.717H1110.65V394.296C1114.1 393.106 1117.45 391.51 1120.7 389.507C1124.02 387.441 1127.06 385.125 1129.81 382.558C1132.56 379.929 1134.97 377.112 1137.04 374.107C1139.11 371.04 1140.67 367.91 1141.74 364.717H1151.31C1150.06 368.348 1148.4 371.76 1146.34 374.952C1144.33 378.145 1142.02 381.056 1139.39 383.685C1136.82 386.314 1134.13 388.599 1131.31 390.54C1128.56 392.48 1125.8 394.045 1123.05 395.235V396.456C1126.12 396.456 1128.87 396.862 1131.31 397.676C1133.82 398.49 1136.07 399.679 1138.07 401.244C1140.14 402.809 1141.95 404.813 1143.52 407.254C1145.15 409.695 1146.62 412.575 1147.93 415.893L1151.88 426.691H1142.21L1139.67 418.428C1138.23 414.484 1136.54 411.26 1134.6 408.756C1132.72 406.19 1130.31 404.281 1127.37 403.029C1124.49 401.714 1120.76 401.057 1116.19 401.057H1110.65V426.691H1102.02Z" fill="#121317"/>
<path fill-rule="evenodd" clip-rule="evenodd" d="M335.416 161.319C337.918 161.976 339.662 164.237 339.662 166.823V195.108L308.55 208.719C303.371 210.984 300.025 216.101 300.025 221.753L300.025 335.405C300.025 341.057 303.371 346.174 308.55 348.439L339.662 362.05V374.458C339.662 376.866 338.146 379.014 335.876 379.82L190.372 431.517C186.667 432.833 182.776 430.086 182.776 426.154L182.776 128.613C182.776 124.883 186.304 122.161 189.912 123.109L335.416 161.319ZM353.889 368.274V378.475C353.889 384.497 350.099 389.866 344.425 391.882L187.539 447.622C178.277 450.912 168.548 444.044 168.548 434.216V121.235C168.548 111.909 177.37 105.106 186.389 107.474L343.276 148.673C349.529 150.316 353.889 155.968 353.889 162.434V188.884L339.662 195.108L339.662 362.05L353.889 368.274ZM353.889 368.274L426.051 399.842C435.451 403.954 445.981 397.067 445.981 386.807L445.981 170.35C445.981 160.091 435.451 153.204 426.051 157.316L353.889 188.884V368.274Z" fill="#121317"/>
</svg>
