<svg width="1324" height="555" viewBox="0 0 1324 555" fill="none" xmlns="http://www.w3.org/2000/svg">
<path d="M532.152 321.563V149.595H568.944V226.46C577.631 222.812 585.721 218.209 593.216 212.65C600.881 206.918 607.694 200.578 613.656 193.629C619.618 186.681 624.728 179.472 628.986 172.003C633.244 164.534 636.31 157.064 638.184 149.595H680.341C677.957 158.107 674.294 166.618 669.355 175.13C664.585 183.468 658.879 191.371 652.236 198.84C645.593 206.31 638.525 212.997 631.03 218.903C623.706 224.636 616.296 229.152 608.802 232.452V236.361C616.637 236.361 623.62 237.316 629.752 239.227C636.055 240.964 641.591 243.83 646.36 247.825C651.3 251.647 655.643 256.424 659.39 262.156C663.138 267.888 666.459 274.75 669.355 282.74L682.896 321.563H641.25L632.307 290.296C629.923 281.785 626.772 275.01 622.854 269.973C618.936 264.762 613.912 261.027 607.78 258.769C601.648 256.337 593.642 255.121 583.763 255.121H568.944V321.563H532.152Z" fill="#121317"/>
<path d="M784.102 325.211C771.838 325.211 760.851 323.3 751.142 319.479C741.433 315.484 733.087 309.751 726.103 302.282C719.29 294.639 714.01 285.346 710.263 274.402C706.686 263.285 704.897 250.605 704.897 236.361C704.897 216.037 708.389 199.275 715.373 186.073C722.356 172.698 731.895 162.71 743.988 156.109C756.252 149.335 770.049 145.947 785.379 145.947C797.302 145.947 808.119 147.945 817.828 151.94C827.537 155.762 835.798 161.494 842.611 169.137C849.595 176.606 854.96 185.986 858.707 197.277C862.455 208.394 864.328 221.162 864.328 235.579C864.328 250.344 862.455 263.285 858.707 274.402C854.96 285.519 849.509 294.899 842.355 302.542C835.372 310.012 826.94 315.657 817.061 319.479C807.182 323.3 796.195 325.211 784.102 325.211ZM785.124 295.247C794.151 295.247 801.731 292.989 807.863 288.472C813.995 283.956 818.679 277.442 821.916 268.931C825.152 260.419 826.77 249.997 826.77 237.664C826.77 224.809 825.067 213.866 821.66 204.833C818.424 195.801 813.654 188.939 807.352 184.249C801.05 179.386 793.385 176.954 784.357 176.954C775.5 176.954 767.92 179.299 761.618 183.989C755.486 188.505 750.717 195.106 747.31 203.791C744.074 212.476 742.455 223.246 742.455 236.1C742.455 245.48 743.392 253.905 745.266 261.374C747.31 268.67 750.12 274.837 753.697 279.874C757.274 284.911 761.703 288.733 766.983 291.338C772.264 293.944 778.31 295.247 785.124 295.247Z" fill="#121317"/>
<path d="M902.571 321.563V149.595H950.605L1027 271.276H1029.81L1027.51 149.595H1063.28V321.563H1019.85L939.108 194.15H936.297L938.597 321.563H902.571Z" fill="#121317"/>
<path d="M1112.95 321.563V149.595H1150.51V321.563H1112.95Z" fill="#121317"/>
<path d="M557.155 427.912C553.023 427.912 549.392 427.474 546.262 426.598C543.195 425.721 540.597 424.438 538.468 422.748C536.403 420.995 534.869 418.866 533.867 416.362C532.866 413.858 532.427 410.947 532.553 407.63L540.346 405.939C540.096 409.195 540.628 411.918 541.943 414.109C543.257 416.3 545.26 417.959 547.952 419.086C550.644 420.15 553.805 420.682 557.436 420.682C560.942 420.682 563.915 420.244 566.357 419.367C568.798 418.491 570.614 417.27 571.803 415.705C573.055 414.14 573.681 412.356 573.681 410.353C573.681 408.099 572.961 406.315 571.521 405C570.081 403.686 568.141 402.684 565.699 401.996C563.321 401.244 560.66 400.556 557.718 399.93C554.838 399.304 551.959 398.584 549.079 397.77C546.199 396.956 543.602 395.923 541.285 394.671C539.032 393.357 537.185 391.667 535.745 389.601C534.368 387.472 533.679 384.781 533.679 381.525C533.679 377.832 534.587 374.639 536.403 371.948C538.281 369.256 540.91 367.19 544.29 365.75C547.671 364.248 551.646 363.497 556.216 363.497C560.723 363.497 564.729 364.217 568.235 365.656C571.803 367.096 574.62 369.225 576.686 372.042C578.752 374.796 579.847 378.208 579.972 382.277L571.897 384.249C571.897 381.995 571.49 380.023 570.676 378.333C569.925 376.58 568.861 375.172 567.484 374.107C566.106 372.981 564.447 372.135 562.507 371.572C560.566 370.946 558.438 370.633 556.122 370.633C553.305 370.633 550.832 371.071 548.703 371.948C546.575 372.824 544.916 374.013 543.727 375.516C542.537 377.018 541.943 378.802 541.943 380.868C541.943 383.31 542.788 385.25 544.478 386.69C546.231 388.067 548.484 389.163 551.239 389.976C553.993 390.79 556.935 391.541 560.065 392.23C562.757 392.793 565.386 393.482 567.953 394.296C570.582 395.047 572.961 396.08 575.089 397.395C577.218 398.647 578.908 400.305 580.16 402.371C581.412 404.437 582.038 407.066 582.038 410.259C582.038 413.827 581.099 416.926 579.221 419.555C577.406 422.184 574.651 424.25 570.958 425.752C567.264 427.192 562.663 427.912 557.155 427.912ZM692.471 426.691V364.717H701.11V426.691H692.471ZM673.597 372.229V364.717H719.984V372.229H673.597ZM804.265 426.691L826.05 364.717H838.632L860.417 426.691H851.121L832.904 371.948H831.778L813.561 426.691H804.265ZM814.594 412.794V406.221H851.121V412.794H814.594ZM980.5 427.912C976.055 427.912 972.049 427.224 968.481 425.846C964.975 424.469 962.002 422.435 959.56 419.743C957.119 417.051 955.241 413.764 953.926 409.883C952.674 405.939 952.048 401.464 952.048 396.456C952.048 391.385 952.706 386.846 954.02 382.84C955.335 378.771 957.213 375.297 959.654 372.417C962.096 369.538 965.038 367.347 968.481 365.844C971.924 364.279 975.774 363.497 980.03 363.497C983.286 363.497 986.29 363.966 989.045 364.905C991.799 365.782 994.178 367.096 996.181 368.849C998.247 370.539 999.843 372.605 1000.97 375.046C1002.1 377.488 1002.69 380.211 1002.75 383.216L994.585 385.281C994.648 382.089 993.99 379.46 992.613 377.394C991.236 375.265 989.42 373.669 987.167 372.605C984.913 371.541 982.472 371.009 979.843 371.009C977.401 371.009 975.022 371.509 972.706 372.511C970.453 373.45 968.449 374.952 966.697 377.018C964.944 379.021 963.535 381.619 962.471 384.812C961.47 387.942 960.969 391.729 960.969 396.174C960.969 401.87 961.783 406.472 963.41 409.977C965.1 413.483 967.448 416.081 970.453 417.771C973.457 419.399 976.932 420.212 980.876 420.212C984.694 420.212 987.762 419.524 990.078 418.147C992.394 416.707 994.115 414.735 995.242 412.231C996.369 409.664 997.026 406.722 997.214 403.404L1004.91 404.813C1004.85 407.943 1004.35 410.916 1003.41 413.733C1002.47 416.55 1001.03 419.023 999.092 421.151C997.152 423.28 994.648 424.939 991.58 426.128C988.513 427.317 984.819 427.912 980.5 427.912ZM1102.29 426.691V364.717H1110.93V394.296C1114.37 393.106 1117.72 391.51 1120.98 389.507C1124.29 387.441 1127.33 385.125 1130.08 382.558C1132.84 379.929 1135.25 377.112 1137.31 374.107C1139.38 371.04 1140.95 367.91 1142.01 364.717H1151.59C1150.34 368.348 1148.68 371.76 1146.61 374.952C1144.61 378.145 1142.29 381.056 1139.66 383.685C1137.1 386.314 1134.4 388.599 1131.59 390.54C1128.83 392.48 1126.08 394.045 1123.32 395.235V396.456C1126.39 396.456 1129.15 396.862 1131.59 397.676C1134.09 398.49 1136.34 399.679 1138.35 401.244C1140.41 402.809 1142.23 404.813 1143.79 407.254C1145.42 409.695 1146.89 412.575 1148.21 415.893L1152.15 426.691H1142.48L1139.94 418.428C1138.5 414.484 1136.81 411.26 1134.87 408.756C1133 406.19 1130.59 404.281 1127.64 403.029C1124.76 401.714 1121.04 401.057 1116.47 401.057H1110.93V426.691H1102.29Z" fill="#121317"/>
<path fill-rule="evenodd" clip-rule="evenodd" d="M335.69 161.319C338.192 161.976 339.936 164.237 339.936 166.823V195.108L308.824 208.719C303.645 210.984 300.299 216.101 300.299 221.753L300.299 335.405C300.299 341.057 303.645 346.174 308.824 348.439L339.936 362.05V374.458C339.936 376.866 338.42 379.014 336.15 379.82L190.646 431.517C186.941 432.833 183.05 430.086 183.05 426.154L183.05 128.613C183.05 124.883 186.578 122.161 190.186 123.109L335.69 161.319ZM354.163 368.274V378.475C354.163 384.497 350.373 389.866 344.699 391.882L187.813 447.622C178.551 450.912 168.822 444.044 168.822 434.216V121.235C168.822 111.909 177.644 105.106 186.663 107.474L343.55 148.673C349.803 150.316 354.163 155.968 354.163 162.434V188.884L339.936 195.108L339.936 362.05L354.163 368.274ZM354.163 368.274L426.325 399.842C435.725 403.954 446.254 397.067 446.254 386.807L446.255 170.35C446.255 160.091 435.725 153.204 426.325 157.316L354.163 188.884V368.274Z" fill="#6F60F1"/>
</svg>
