<svg width="1000" height="1000" viewBox="0 0 1000 1000" fill="none" xmlns="http://www.w3.org/2000/svg">
<g clip-path="url(#clip0_677_48)">
<rect width="1000" height="1000" rx="128" fill="#151823"/>
<path fill-rule="evenodd" clip-rule="evenodd" d="M272.086 199.209C264.229 197.786 257 203.823 257 211.808V646.105C257 654.41 264.784 660.517 272.851 658.541L473.933 609.284V702.547C473.933 716.406 482.888 728.677 496.087 732.904L702.318 798.949C722.888 805.536 743.916 790.19 743.916 768.592L743.916 421.504C743.916 399.906 722.888 384.56 702.319 391.147L613.257 419.669V271.676C613.257 265.484 608.827 260.179 602.734 259.076L272.086 199.209ZM613.257 439.357V419.669L496.087 457.192C482.888 461.419 473.933 473.69 473.933 487.549L473.933 609.284L492.684 604.69V702.547C492.684 708.254 496.371 713.307 501.806 715.047L708.037 781.092C716.507 783.804 725.165 777.485 725.165 768.592L725.165 421.504C725.165 412.611 716.507 406.292 708.037 409.004L613.257 439.357ZM613.257 439.357V565.108C613.257 571.006 609.228 576.141 603.5 577.544L492.684 604.69L492.684 487.549C492.684 481.842 496.371 476.789 501.806 475.049L613.257 439.357Z" fill="#FFF643"/>
</g>
<defs>
<clipPath id="clip0_677_48">
<rect width="1000" height="1000" fill="white"/>
</clipPath>
</defs>
</svg>
