<svg width="1056" height="1168" viewBox="0 0 1056 1168" fill="none" xmlns="http://www.w3.org/2000/svg">
<g clip-path="url(#clip0_357_9139)">
<path d="M720 400.319V320.389L399.944 192L336 224.472L336.338 473.256L575.789 569.672L447.902 624.125V582.016L389.188 558.182L336.338 583.16L336.338 735.528L400 768L720 623.625V521.214L432 405.939V336L660.5 427.296L720 400.319Z" fill="#004BFF"/>
</g>
<path d="M251.179 894.726H265.034C265.034 894.726 265.034 864.71 231.873 864.125C231.873 864.125 202.937 861.066 197.032 885.185C197.032 885.185 193.806 900.62 202.392 908.135C210.01 914.59 219.319 918.77 229.238 920.195C237.415 921.545 256.812 927.125 254.859 943.911C252.905 960.696 207.343 966.997 206.071 932.841H192.035C192.035 932.841 189.809 963.485 220.88 969.967C251.951 976.446 269.758 958.086 268.305 937.161C266.851 916.235 245.228 910.521 229.557 907.145C213.885 903.772 209.07 896.254 210.432 888.426C211.795 880.594 222.016 877.356 230.193 877.356C235.266 877.057 240.264 878.687 244.165 881.915C248.065 885.144 250.575 889.727 251.179 894.726Z" fill="white"/>
<path d="M285.451 895.852H299.397V956.468H332.512V895.852H346.821V971.138H285.451V895.852Z" fill="white"/>
<path d="M416.641 897.341C414.245 896.778 411.787 896.508 409.328 896.532H400.243C392.905 896.293 385.76 898.872 380.299 903.731V864.671H366.672V971.232H378.392L380.209 961.331C384.98 966.344 391.45 969.435 398.378 970.017H411.28C411.28 970.017 431.63 971.321 437.173 944.502C437.627 942.097 437.856 939.658 437.853 937.212V928.212C437.873 923.409 436.978 918.647 435.218 914.172C433.753 910.072 431.293 906.392 428.054 903.458C424.812 900.521 420.892 898.42 416.641 897.341ZM422.864 940.767C422.864 944.896 421.206 948.856 418.259 951.776C415.312 954.695 411.314 956.337 407.146 956.337H396.788C392.62 956.337 388.622 954.695 385.675 951.776C382.728 948.856 381.072 944.896 381.072 940.767V925.107C381.072 920.977 382.728 917.017 385.675 914.097C388.622 911.178 392.62 909.536 396.788 909.536H407.146C411.314 909.536 415.312 911.178 418.259 914.097C421.206 917.017 422.864 920.977 422.864 925.107V940.767Z" fill="white"/>
<path d="M440.076 864.671H454.475L476.417 956.337H479.006L496.632 864.671H522.069L540.376 956.697H542.828L565.223 865.618H579.442L554.095 971.232H528.746L510.668 879.522H508.123L490.999 971.232H465.696L440.076 864.671Z" fill="white"/>
<path d="M644.332 956.398V896.187H589.456V909.688H630.34V923.187H608.991C608.991 923.187 588.093 922.783 583.552 936.688C579.008 950.592 583.552 967.061 603.267 970.573C622.981 974.084 630.521 962.292 630.521 962.292L632.156 970.573H654.051V956.398H644.332ZM630.023 945.823C630.023 945.823 625.206 961.662 605.856 957.702C604.23 957.405 602.69 956.755 601.349 955.799C600.006 954.842 598.894 953.604 598.09 952.172C597.288 950.74 596.813 949.148 596.703 947.516C596.593 945.881 596.849 944.241 597.451 942.718C597.451 942.718 598.95 937.632 608.491 935.876H630.023V945.823Z" fill="white"/>
<path d="M685.236 866.012H671.607V971.358H685.236V866.012Z" fill="white"/>
<path d="M714.418 866.012H700.789V971.358H714.418V866.012Z" fill="white"/>
<path d="M768.176 897.248C768.176 897.248 737.788 892.027 729.157 919.747C729.157 919.747 724.206 941.437 732.109 956.064C735.436 961.292 740.185 965.484 745.811 968.159C751.434 970.833 757.709 971.881 763.908 971.183C786.846 969.519 794.752 957.684 794.752 948.684H780.26C780.26 948.684 780.26 957.232 768.132 957.368C756.003 957.503 740.877 958.672 741.33 940.582H796.931C796.931 940.582 802.201 900.757 768.176 897.248ZM741.74 927.487C741.15 920.694 748.007 908.453 765.271 909.487C770.09 909.487 774.712 911.385 778.12 914.761C781.525 918.136 783.441 922.715 783.441 927.487H741.74Z" fill="white"/>
<path d="M818.984 865.006H832.747V896.418H858.593V910.141H832.883V956.626H864V971.296H818.984V910.458H806.311V896.418H819.164L818.984 865.006Z" fill="white"/>
<defs>
<clipPath id="clip0_357_9139">
<rect width="384" height="576" fill="white" transform="translate(336 192)"/>
</clipPath>
</defs>
</svg>
