<svg width="1324" height="513" viewBox="0 0 1324 513" fill="none" xmlns="http://www.w3.org/2000/svg">
<path fill-rule="evenodd" clip-rule="evenodd" d="M356.092 138.744C356.092 133.584 352.566 129.069 347.502 127.744L185.666 85.3882C178.33 83.468 171.137 88.9136 171.137 96.388V415.063C171.137 422.945 179.076 428.441 186.609 425.774L348.444 368.469C353.032 366.844 356.092 362.559 356.092 357.758V346.084L432.343 379.213C439.984 382.532 448.569 377.023 448.569 368.799L448.569 144.038C448.569 135.815 439.984 130.305 432.343 133.625L356.092 166.753V138.744ZM356.092 166.753L308.654 187.363C304.465 189.184 301.761 193.267 301.761 197.776L301.761 315.061C301.761 319.57 304.465 323.654 308.654 325.474L356.092 346.084V166.753Z" fill="#FFF643"/>
<path d="M534.466 342.779V170.811H571.258V247.675C579.945 244.028 588.036 239.424 595.531 233.866C603.196 228.134 610.009 221.793 615.971 214.845C621.932 207.897 627.042 200.688 631.301 193.219C635.559 185.75 638.625 178.28 640.498 170.811H682.656C680.271 179.322 676.609 187.834 671.669 196.346C666.9 204.683 661.194 212.587 654.551 220.056C647.908 227.526 640.839 234.213 633.345 240.119C626.02 245.852 618.611 250.368 611.116 253.668V257.577C618.951 257.577 625.935 258.532 632.067 260.443C638.369 262.18 643.905 265.046 648.674 269.041C653.614 272.863 657.958 277.64 661.705 283.372C665.452 289.104 668.774 295.965 671.669 303.956L685.211 342.779H643.564L634.622 311.512C632.237 303.001 629.086 296.226 625.169 291.189C621.251 285.977 616.226 282.243 610.094 279.985C603.962 277.553 595.956 276.337 586.077 276.337H571.258V342.779H534.466Z" fill="white"/>
<path d="M786.416 346.427C774.152 346.427 763.166 344.516 753.457 340.695C743.748 336.699 735.402 330.967 728.418 323.498C721.605 315.855 716.324 306.561 712.577 295.618C709 284.501 707.212 271.82 707.212 257.577C707.212 237.253 710.703 220.491 717.687 207.289C724.671 193.914 734.209 183.926 746.303 177.325C758.567 170.55 772.364 167.163 787.694 167.163C799.617 167.163 810.433 169.161 820.142 173.156C829.851 176.977 838.112 182.71 844.926 190.353C851.909 197.822 857.275 207.202 861.022 218.493C864.769 229.61 866.643 242.377 866.643 256.795C866.643 271.56 864.769 284.501 861.022 295.618C857.275 306.735 851.824 316.115 844.67 323.758C837.686 331.228 829.255 336.873 819.376 340.695C809.496 344.516 798.51 346.427 786.416 346.427ZM787.438 316.463C796.466 316.463 804.046 314.205 810.178 309.688C816.31 305.172 820.994 298.658 824.23 290.146C827.466 281.635 829.085 271.212 829.085 258.879C829.085 246.025 827.381 235.082 823.975 226.049C820.738 217.016 815.969 210.155 809.667 205.465C803.364 200.601 795.699 198.169 786.672 198.169C777.815 198.169 770.235 200.514 763.932 205.205C757.8 209.721 753.031 216.322 749.624 225.007C746.388 233.692 744.77 244.462 744.77 257.316C744.77 266.696 745.707 275.121 747.58 282.59C749.624 289.886 752.435 296.052 756.012 301.09C759.589 306.127 764.018 309.949 769.298 312.554C774.578 315.16 780.625 316.463 787.438 316.463Z" fill="white"/>
<path d="M904.886 342.779V170.811H952.92L1029.31 292.491H1032.12L1029.82 170.811H1065.59V342.779H1022.16L941.422 215.366H938.612L940.911 342.779H904.886Z" fill="white"/>
<path d="M1115.26 342.779V170.811H1152.82V342.779H1115.26Z" fill="white"/>
</svg>
