<svg width="1324" height="513" viewBox="0 0 1324 513" fill="none" xmlns="http://www.w3.org/2000/svg">
<path fill-rule="evenodd" clip-rule="evenodd" d="M356.777 138.744C356.777 133.584 353.251 129.069 348.187 127.744L186.351 85.3882C179.015 83.468 171.822 88.9136 171.822 96.388V415.063C171.822 422.945 179.761 428.441 187.294 425.774L349.129 368.469C353.717 366.844 356.777 362.559 356.777 357.758V346.084L433.028 379.213C440.669 382.532 449.254 377.023 449.254 368.799L449.254 144.038C449.254 135.815 440.669 130.305 433.028 133.625L356.777 166.753V138.744ZM356.777 166.753L309.34 187.363C305.15 189.184 302.446 193.267 302.446 197.776L302.446 315.061C302.446 319.57 305.15 323.654 309.34 325.474L356.777 346.084V166.753Z" fill="#6F60F1"/>
<path d="M535.151 342.779V170.811H571.943V247.675C580.63 244.028 588.721 239.424 596.216 233.866C603.881 228.134 610.694 221.793 616.656 214.845C622.617 207.897 627.727 200.688 631.985 193.219C636.244 185.75 639.31 178.28 641.183 170.811H683.341C680.956 179.322 677.294 187.834 672.354 196.346C667.585 204.683 661.879 212.587 655.236 220.056C648.593 227.526 641.524 234.213 634.029 240.119C626.705 245.852 619.296 250.368 611.801 253.668V257.577C619.636 257.577 626.62 258.532 632.752 260.443C639.054 262.18 644.59 265.046 649.359 269.041C654.299 272.863 658.643 277.64 662.39 283.372C666.137 289.104 669.459 295.965 672.354 303.956L685.896 342.779H644.249L635.307 311.512C632.922 303.001 629.771 296.226 625.853 291.189C621.936 285.977 616.911 282.243 610.779 279.985C604.647 277.553 596.641 276.337 586.762 276.337H571.943V342.779H535.151Z" fill="#121317"/>
<path d="M787.101 346.427C774.837 346.427 763.851 344.516 754.142 340.695C744.433 336.699 736.087 330.967 729.103 323.498C722.29 315.855 717.009 306.561 713.262 295.618C709.685 284.501 707.897 271.82 707.897 257.577C707.897 237.253 711.388 220.491 718.372 207.289C725.356 193.914 734.894 183.926 746.988 177.325C759.252 170.55 773.049 167.163 788.379 167.163C800.302 167.163 811.118 169.161 820.827 173.156C830.536 176.977 838.797 182.71 845.61 190.353C852.594 197.822 857.96 207.202 861.707 218.493C865.454 229.61 867.328 242.377 867.328 256.795C867.328 271.56 865.454 284.501 861.707 295.618C857.96 306.735 852.509 316.115 845.355 323.758C838.371 331.228 829.94 336.873 820.061 340.695C810.181 344.516 799.195 346.427 787.101 346.427ZM788.123 316.463C797.151 316.463 804.731 314.205 810.863 309.688C816.995 305.172 821.679 298.658 824.915 290.146C828.151 281.635 829.77 271.212 829.77 258.879C829.77 246.025 828.066 235.082 824.66 226.049C821.423 217.016 816.654 210.155 810.352 205.465C804.049 200.601 796.384 198.169 787.357 198.169C778.499 198.169 770.92 200.514 764.617 205.205C758.485 209.721 753.716 216.322 750.309 225.007C747.073 233.692 745.455 244.462 745.455 257.316C745.455 266.696 746.392 275.121 748.265 282.59C750.309 289.886 753.12 296.052 756.697 301.09C760.274 306.127 764.702 309.949 769.983 312.554C775.263 315.16 781.31 316.463 788.123 316.463Z" fill="#121317"/>
<path d="M905.571 342.779V170.811H953.605L1030 292.491H1032.81L1030.51 170.811H1066.28V342.779H1022.84L942.107 215.366H939.297L941.596 342.779H905.571Z" fill="#121317"/>
<path d="M1115.95 342.779V170.811H1153.5V342.779H1115.95Z" fill="#121317"/>
</svg>
