<svg width="480" height="480" viewBox="0 0 480 480" fill="none" xmlns="http://www.w3.org/2000/svg">
<g clip-path="url(#clip0_34_912)">
<rect width="480" height="480" rx="80" fill="white"/>
<path d="M350 60C377.614 60 400 82.3858 400 110V150H420V130H440V110H460V170H450V190H440V200H400V420H380V440H360V400H320V420H300V440H260V400H220V420H200V440H160V400H120V420H100V440H80V200H40V190H30V170H20V110H40V130H60V150H80V110C80 82.3858 102.386 60 130 60H350Z" fill="black"/>
<path d="M220 270C225.35 270 229.719 274.202 229.987 279.485L230.013 280.515C230.281 285.798 234.65 290 240 290H260C265.523 290 270 294.477 270 300C270 305.523 265.523 310 260 310H240C223.431 310 210 296.569 210 280C210 274.477 214.477 270 220 270ZM180 150C202.091 150 220 167.909 220 190V210C220 232.091 202.091 250 180 250C157.909 250 140 232.091 140 210V190C140 167.909 157.909 150 180 150ZM310 170C326.569 170 340 183.431 340 200V220C340 236.569 326.569 250 310 250C293.431 250 280 236.569 280 220V200C280 183.431 293.431 170 310 170Z" fill="white"/>
</g>
<defs>
<clipPath id="clip0_34_912">
<rect width="480" height="480" fill="white"/>
</clipPath>
</defs>
</svg>
