<svg width="451" height="555" viewBox="0 0 451 555" fill="none" xmlns="http://www.w3.org/2000/svg">
<path fill-rule="evenodd" clip-rule="evenodd" d="M246.701 103.739C248.577 104.232 249.885 105.928 249.885 107.868V129.081L226.551 139.289C222.666 140.988 220.157 144.825 220.157 149.065L220.157 234.303C220.157 238.543 222.666 242.38 226.551 244.079L249.885 254.287V263.593C249.885 265.4 248.748 267.011 247.046 267.615L137.917 306.388C135.139 307.375 132.22 305.314 132.22 302.366L132.22 79.2099C132.22 76.4123 134.867 74.3711 137.573 75.0817L246.701 103.739ZM260.555 258.955V266.607C260.555 271.122 257.713 275.149 253.457 276.661L135.793 318.466C128.846 320.934 121.55 315.783 121.55 308.412V73.6761C121.55 66.6821 128.166 61.5792 134.93 63.3556L252.595 94.255C257.286 95.4867 260.555 99.7262 260.555 104.576V124.413L249.885 129.081L249.885 254.287L260.555 258.955ZM260.555 258.955L314.677 282.631C321.726 285.715 329.624 280.55 329.624 272.855L329.624 110.513C329.624 102.818 321.726 97.6528 314.677 100.737L260.555 124.413V258.955Z" fill="#121317"/>
<path d="M87.4043 444.502V367.668H103.848V402.011C107.73 400.381 111.347 398.324 114.696 395.841C118.122 393.279 121.167 390.447 123.832 387.342C126.496 384.238 128.78 381.017 130.683 377.68C132.586 374.342 133.957 371.005 134.794 367.668H153.636C152.57 371.471 150.933 375.274 148.725 379.077C146.594 382.802 144.043 386.333 141.074 389.671C138.106 393.008 134.946 395.996 131.597 398.635C128.323 401.196 125.012 403.214 121.662 404.688V406.434C125.164 406.434 128.285 406.861 131.026 407.715C133.842 408.491 136.317 409.772 138.448 411.557C140.656 413.264 142.597 415.398 144.272 417.96C145.947 420.521 147.431 423.586 148.725 427.156L154.778 444.502H136.164L132.168 430.532C131.102 426.73 129.693 423.703 127.942 421.452C126.191 419.124 123.946 417.455 121.205 416.446C118.464 415.36 114.886 414.816 110.471 414.816H103.848V444.502H87.4043Z" fill="#121317"/>
<path d="M200.01 446.132C194.529 446.132 189.619 445.278 185.279 443.571C180.94 441.786 177.21 439.225 174.088 435.888C171.043 432.473 168.683 428.321 167.009 423.431C165.41 418.464 164.611 412.798 164.611 406.434C164.611 397.354 166.171 389.865 169.292 383.966C172.414 377.99 176.677 373.528 182.082 370.578C187.563 367.551 193.729 366.038 200.581 366.038C205.91 366.038 210.744 366.931 215.083 368.716C219.423 370.423 223.115 372.984 226.16 376.399C229.281 379.736 231.679 383.927 233.354 388.972C235.029 393.939 235.866 399.643 235.866 406.085C235.866 412.682 235.029 418.464 233.354 423.431C231.679 428.398 229.243 432.589 226.046 436.004C222.925 439.341 219.156 441.864 214.741 443.571C210.325 445.278 205.415 446.132 200.01 446.132ZM200.467 432.744C204.502 432.744 207.889 431.735 210.63 429.718C213.37 427.7 215.464 424.789 216.91 420.986C218.357 417.183 219.08 412.527 219.08 407.016C219.08 401.273 218.319 396.384 216.796 392.348C215.35 388.312 213.218 385.247 210.401 383.151C207.585 380.978 204.159 379.892 200.124 379.892C196.166 379.892 192.778 380.939 189.961 383.035C187.221 385.053 185.089 388.002 183.566 391.882C182.12 395.763 181.397 400.575 181.397 406.318C181.397 410.509 181.815 414.273 182.653 417.61C183.566 420.87 184.822 423.625 186.421 425.876C188.02 428.127 189.999 429.834 192.359 430.998C194.719 432.162 197.422 432.744 200.467 432.744Z" fill="#121317"/>
<path d="M252.958 444.502V367.668H274.427L308.57 422.034H309.826L308.798 367.668H324.785V444.502H305.373L269.288 387.575H268.032L269.06 444.502H252.958Z" fill="#121317"/>
<path d="M346.983 444.502V367.668H363.769V444.502H346.983Z" fill="#121317"/>
<path d="M98.3293 491.95C96.5481 491.95 94.9828 491.761 93.6334 491.383C92.311 491.005 91.191 490.452 90.2734 489.724C89.3829 488.968 88.7217 488.051 88.2899 486.972C87.8581 485.893 87.6691 484.638 87.7231 483.208L91.0831 482.48C90.9751 483.883 91.2045 485.056 91.7713 486.001C92.338 486.945 93.2016 487.66 94.3621 488.145C95.5225 488.604 96.8854 488.833 98.4507 488.833C99.962 488.833 101.244 488.645 102.296 488.267C103.349 487.889 104.132 487.363 104.644 486.689C105.184 486.014 105.454 485.245 105.454 484.382C105.454 483.411 105.144 482.642 104.523 482.075C103.902 481.509 103.066 481.077 102.013 480.78C100.988 480.456 99.8406 480.16 98.5722 479.89C97.3307 479.62 96.0893 479.31 94.8479 478.959C93.6064 478.608 92.4864 478.163 91.4879 477.624C90.5163 477.057 89.7202 476.329 89.0995 475.438C88.5058 474.521 88.2089 473.361 88.2089 471.958C88.2089 470.366 88.6002 468.99 89.3829 467.83C90.1925 466.67 91.326 465.78 92.7833 465.159C94.2406 464.512 95.9544 464.188 97.9244 464.188C99.8676 464.188 101.595 464.498 103.106 465.119C104.644 465.739 105.859 466.657 106.749 467.871C107.64 469.058 108.112 470.528 108.166 472.282L104.685 473.132C104.685 472.16 104.509 471.311 104.159 470.582C103.835 469.827 103.376 469.22 102.782 468.761C102.188 468.275 101.473 467.911 100.637 467.668C99.8001 467.399 98.8825 467.264 97.884 467.264C96.6695 467.264 95.6035 467.453 94.6859 467.83C93.7684 468.208 93.0532 468.721 92.5404 469.368C92.0276 470.016 91.7713 470.784 91.7713 471.675C91.7713 472.727 92.1356 473.563 92.8643 474.184C93.6199 474.777 94.5915 475.249 95.7789 475.6C96.9664 475.951 98.2348 476.275 99.5842 476.571C100.745 476.814 101.878 477.111 102.985 477.462C104.118 477.786 105.144 478.231 106.061 478.797C106.979 479.337 107.707 480.052 108.247 480.942C108.787 481.832 109.057 482.966 109.057 484.341C109.057 485.879 108.652 487.215 107.842 488.348C107.06 489.481 105.872 490.371 104.28 491.019C102.688 491.639 100.704 491.95 98.3293 491.95Z" fill="#121317"/>
<path d="M158.69 491.423V464.714H162.414V491.423H158.69ZM150.553 467.952V464.714H170.551V467.952H150.553Z" fill="#121317"/>
<path d="M208.91 491.423L218.302 464.714H223.726L233.118 491.423H229.11L221.257 467.83H220.771L212.917 491.423H208.91ZM213.363 485.434V482.601H229.11V485.434H213.363Z" fill="#121317"/>
<path d="M286.911 491.95C284.995 491.95 283.268 491.653 281.729 491.059C280.218 490.466 278.936 489.589 277.884 488.429C276.831 487.269 276.021 485.852 275.455 484.18C274.915 482.48 274.645 480.551 274.645 478.393C274.645 476.207 274.928 474.251 275.495 472.525C276.062 470.771 276.872 469.274 277.924 468.033C278.977 466.792 280.245 465.847 281.729 465.2C283.214 464.525 284.873 464.188 286.709 464.188C288.112 464.188 289.407 464.39 290.595 464.795C291.782 465.173 292.808 465.739 293.671 466.495C294.562 467.223 295.25 468.114 295.736 469.166C296.222 470.218 296.478 471.391 296.505 472.686L292.983 473.577C293.01 472.201 292.727 471.068 292.133 470.177C291.539 469.26 290.757 468.572 289.785 468.114C288.814 467.655 287.761 467.426 286.628 467.426C285.575 467.426 284.55 467.641 283.551 468.073C282.579 468.478 281.716 469.125 280.96 470.016C280.205 470.879 279.597 471.999 279.139 473.374C278.707 474.723 278.491 476.356 278.491 478.271C278.491 480.726 278.842 482.709 279.543 484.22C280.272 485.731 281.284 486.85 282.579 487.579C283.875 488.28 285.373 488.631 287.073 488.631C288.719 488.631 290.042 488.334 291.04 487.741C292.039 487.12 292.781 486.27 293.267 485.191C293.752 484.085 294.036 482.817 294.117 481.387L297.436 481.994C297.409 483.343 297.193 484.625 296.788 485.839C296.384 487.053 295.763 488.118 294.926 489.036C294.09 489.953 293.01 490.668 291.688 491.181C290.365 491.693 288.773 491.95 286.911 491.95Z" fill="#121317"/>
<path d="M341.44 491.423V464.714H345.164V477.462C346.649 476.949 348.093 476.261 349.496 475.398C350.926 474.508 352.235 473.509 353.423 472.403C354.61 471.27 355.649 470.056 356.54 468.761C357.43 467.439 358.105 466.09 358.564 464.714H362.693C362.153 466.279 361.438 467.749 360.547 469.125C359.684 470.501 358.685 471.756 357.552 472.889C356.445 474.022 355.285 475.007 354.07 475.843C352.883 476.679 351.695 477.354 350.508 477.866V478.393C351.83 478.393 353.018 478.568 354.07 478.919C355.15 479.269 356.121 479.782 356.985 480.456C357.876 481.131 358.658 481.994 359.333 483.046C360.035 484.099 360.669 485.34 361.236 486.77L362.936 491.423H358.766L357.673 487.862C357.053 486.163 356.324 484.773 355.487 483.694C354.678 482.588 353.639 481.765 352.37 481.225C351.129 480.659 349.523 480.376 347.553 480.376H345.164V491.423H341.44Z" fill="#121317"/>
</svg>
