<svg width="450" height="555" viewBox="0 0 450 555" fill="none" xmlns="http://www.w3.org/2000/svg">
<path fill-rule="evenodd" clip-rule="evenodd" d="M246.022 103.739C247.898 104.232 249.206 105.928 249.206 107.868V129.081L225.872 139.289C221.988 140.988 219.478 144.825 219.478 149.065L219.478 234.303C219.478 238.543 221.988 242.38 225.872 244.079L249.206 254.287V263.593C249.206 265.4 248.069 267.011 246.367 267.615L137.239 306.388C134.46 307.375 131.542 305.314 131.542 302.366L131.542 79.2099C131.542 76.4123 134.188 74.3711 136.894 75.0817L246.022 103.739ZM259.877 258.955V266.607C259.877 271.122 257.034 275.149 252.779 276.661L135.114 318.466C128.168 320.934 120.871 315.783 120.871 308.412V73.6761C120.871 66.6821 127.487 61.5792 134.252 63.3556L251.917 94.255C256.607 95.4867 259.877 99.7262 259.877 104.576V124.413L249.206 129.081L249.206 254.287L259.877 258.955ZM259.877 258.955L313.998 282.631C321.048 285.715 328.945 280.55 328.945 272.855L328.945 110.513C328.945 102.818 321.048 97.6528 313.998 100.737L259.877 124.413V258.955Z" fill="#FFF643"/>
<path d="M86.7256 444.502V367.668H103.169V402.011C107.052 400.381 110.668 398.324 114.017 395.841C117.443 393.279 120.488 390.447 123.153 387.342C125.817 384.238 128.101 381.017 130.004 377.68C131.908 374.342 133.278 371.005 134.115 367.668H152.957C151.891 371.471 150.254 375.274 148.047 379.077C145.915 382.802 143.365 386.333 140.396 389.671C137.427 393.008 134.267 395.996 130.918 398.635C127.644 401.196 124.333 403.214 120.983 404.688V406.434C124.485 406.434 127.606 406.861 130.347 407.715C133.164 408.491 135.638 409.772 137.769 411.557C139.977 413.264 141.918 415.398 143.593 417.96C145.268 420.521 146.752 423.586 148.047 427.156L154.099 444.502H135.486L131.489 430.532C130.423 426.73 129.015 423.703 127.264 421.452C125.513 419.124 123.267 417.455 120.526 416.446C117.786 415.36 114.208 414.816 109.792 414.816H103.169V444.502H86.7256Z" fill="white"/>
<path d="M199.331 446.132C193.85 446.132 188.94 445.278 184.601 443.571C180.261 441.786 176.531 439.225 173.41 435.888C170.365 432.473 168.005 428.321 166.33 423.431C164.731 418.464 163.932 412.798 163.932 406.434C163.932 397.354 165.492 389.865 168.614 383.966C171.735 377.99 175.998 373.528 181.403 370.578C186.884 367.551 193.051 366.038 199.902 366.038C205.231 366.038 210.065 366.931 214.405 368.716C218.744 370.423 222.436 372.984 225.481 376.399C228.602 379.736 231.001 383.927 232.675 388.972C234.35 393.939 235.188 399.643 235.188 406.085C235.188 412.682 234.35 418.464 232.675 423.431C231.001 428.398 228.564 432.589 225.367 436.004C222.246 439.341 218.477 441.864 214.062 443.571C209.647 445.278 204.736 446.132 199.331 446.132ZM199.788 432.744C203.823 432.744 207.211 431.735 209.951 429.718C212.692 427.7 214.785 424.789 216.232 420.986C217.678 417.183 218.401 412.527 218.401 407.016C218.401 401.273 217.64 396.384 216.118 392.348C214.671 388.312 212.539 385.247 209.723 383.151C206.906 380.978 203.48 379.892 199.445 379.892C195.487 379.892 192.099 380.939 189.282 383.035C186.542 385.053 184.41 388.002 182.888 391.882C181.441 395.763 180.718 400.575 180.718 406.318C180.718 410.509 181.137 414.273 181.974 417.61C182.888 420.87 184.144 423.625 185.742 425.876C187.341 428.127 189.32 429.834 191.68 430.998C194.04 432.162 196.743 432.744 199.788 432.744Z" fill="white"/>
<path d="M252.28 444.502V367.668H273.748L307.891 422.034H309.147L308.12 367.668H324.106V444.502H304.694L268.609 387.575H267.353L268.381 444.502H252.28Z" fill="white"/>
<path d="M346.304 444.502V367.668H363.091V444.502H346.304Z" fill="white"/>
<path d="M97.6506 491.95C95.8694 491.95 94.3041 491.761 92.9547 491.383C91.6323 491.005 90.5123 490.452 89.5947 489.724C88.7041 488.968 88.0429 488.051 87.6111 486.972C87.1793 485.893 86.9904 484.638 87.0444 483.208L90.4044 482.48C90.2964 483.883 90.5258 485.056 91.0926 486.001C91.6593 486.945 92.5229 487.66 93.6834 488.145C94.8438 488.604 96.2067 488.833 97.772 488.833C99.2833 488.833 100.565 488.645 101.618 488.267C102.67 487.889 103.453 487.363 103.966 486.689C104.505 486.014 104.775 485.245 104.775 484.382C104.775 483.411 104.465 482.642 103.844 482.075C103.224 481.509 102.387 481.077 101.334 480.78C100.309 480.456 99.1619 480.16 97.8934 479.89C96.652 479.62 95.4106 479.31 94.1691 478.959C92.9277 478.608 91.8077 478.163 90.8092 477.624C89.8376 477.057 89.0415 476.329 88.4208 475.438C87.827 474.521 87.5302 473.361 87.5302 471.958C87.5302 470.366 87.9215 468.99 88.7041 467.83C89.5138 466.67 90.6473 465.78 92.1046 465.159C93.5619 464.512 95.2756 464.188 97.2457 464.188C99.1888 464.188 100.916 464.498 102.427 465.119C103.966 465.739 105.18 466.657 106.071 467.871C106.961 469.058 107.434 470.528 107.488 472.282L104.006 473.132C104.006 472.16 103.831 471.311 103.48 470.582C103.156 469.827 102.697 469.22 102.104 468.761C101.51 468.275 100.795 467.911 99.958 467.668C99.1214 467.399 98.2038 467.264 97.2053 467.264C95.9908 467.264 94.9248 467.453 94.0072 467.83C93.0896 468.208 92.3745 468.721 91.8617 469.368C91.3489 470.016 91.0926 470.784 91.0926 471.675C91.0926 472.727 91.4569 473.563 92.1856 474.184C92.9412 474.777 93.9128 475.249 95.1002 475.6C96.2877 475.951 97.5561 476.275 98.9055 476.571C100.066 476.814 101.199 477.111 102.306 477.462C103.439 477.786 104.465 478.231 105.383 478.797C106.3 479.337 107.029 480.052 107.569 480.942C108.108 481.832 108.378 482.966 108.378 484.341C108.378 485.879 107.973 487.215 107.164 488.348C106.381 489.481 105.194 490.371 103.601 491.019C102.009 491.639 100.025 491.95 97.6506 491.95Z" fill="white"/>
<path d="M158.011 491.423V464.714H161.736V491.423H158.011ZM149.875 467.952V464.714H169.872V467.952H149.875Z" fill="white"/>
<path d="M208.231 491.423L217.623 464.714H223.047L232.439 491.423H228.431L220.578 467.83H220.092L212.239 491.423H208.231ZM212.684 485.434V482.601H228.431V485.434H212.684Z" fill="white"/>
<path d="M286.232 491.95C284.316 491.95 282.589 491.653 281.051 491.059C279.539 490.466 278.257 489.589 277.205 488.429C276.152 487.269 275.343 485.852 274.776 484.18C274.236 482.48 273.966 480.551 273.966 478.393C273.966 476.207 274.25 474.251 274.816 472.525C275.383 470.771 276.193 469.274 277.245 468.033C278.298 466.792 279.566 465.847 281.051 465.2C282.535 464.525 284.195 464.188 286.03 464.188C287.433 464.188 288.729 464.39 289.916 464.795C291.104 465.173 292.129 465.739 292.993 466.495C293.883 467.223 294.571 468.114 295.057 469.166C295.543 470.218 295.799 471.391 295.826 472.686L292.304 473.577C292.331 472.201 292.048 471.068 291.454 470.177C290.861 469.26 290.078 468.572 289.106 468.114C288.135 467.655 287.082 467.426 285.949 467.426C284.896 467.426 283.871 467.641 282.872 468.073C281.901 468.478 281.037 469.125 280.281 470.016C279.526 470.879 278.919 471.999 278.46 473.374C278.028 474.723 277.812 476.356 277.812 478.271C277.812 480.726 278.163 482.709 278.865 484.22C279.593 485.731 280.605 486.85 281.901 487.579C283.196 488.28 284.694 488.631 286.394 488.631C288.04 488.631 289.363 488.334 290.361 487.741C291.36 487.12 292.102 486.27 292.588 485.191C293.074 484.085 293.357 482.817 293.438 481.387L296.757 481.994C296.73 483.343 296.515 484.625 296.11 485.839C295.705 487.053 295.084 488.118 294.248 489.036C293.411 489.953 292.331 490.668 291.009 491.181C289.687 491.693 288.094 491.95 286.232 491.95Z" fill="white"/>
<path d="M340.761 491.423V464.714H344.486V477.462C345.97 476.949 347.414 476.261 348.817 475.398C350.248 474.508 351.557 473.509 352.744 472.403C353.931 471.27 354.97 470.056 355.861 468.761C356.752 467.439 357.426 466.09 357.885 464.714H362.014C361.474 466.279 360.759 467.749 359.869 469.125C359.005 470.501 358.007 471.756 356.873 472.889C355.767 474.022 354.606 475.007 353.392 475.843C352.204 476.679 351.017 477.354 349.829 477.866V478.393C351.152 478.393 352.339 478.568 353.392 478.919C354.471 479.269 355.443 479.782 356.306 480.456C357.197 481.131 357.98 481.994 358.654 483.046C359.356 484.099 359.99 485.34 360.557 486.77L362.257 491.423H358.088L356.995 487.862C356.374 486.163 355.645 484.773 354.809 483.694C353.999 482.588 352.96 481.765 351.691 481.225C350.45 480.659 348.844 480.376 346.874 480.376H344.486V491.423H340.761Z" fill="white"/>
</svg>
