<svg width="450" height="555" viewBox="0 0 450 555" fill="none" xmlns="http://www.w3.org/2000/svg">
<path fill-rule="evenodd" clip-rule="evenodd" d="M246.38 103.739C248.256 104.232 249.564 105.928 249.564 107.868V129.081L226.23 139.289C222.346 140.988 219.836 144.825 219.836 149.065L219.836 234.303C219.836 238.543 222.346 242.38 226.23 244.079L249.564 254.287V263.593C249.564 265.4 248.427 267.011 246.725 267.615L137.597 306.388C134.818 307.375 131.899 305.314 131.899 302.366L131.899 79.2099C131.899 76.4123 134.546 74.3711 137.252 75.0817L246.38 103.739ZM260.235 258.955V266.607C260.235 271.122 257.392 275.149 253.137 276.661L135.472 318.466C128.526 320.934 121.229 315.783 121.229 308.412V73.6761C121.229 66.6821 127.845 61.5792 134.61 63.3556L252.274 94.255C256.965 95.4867 260.235 99.7262 260.235 104.576V124.413L249.564 129.081L249.564 254.287L260.235 258.955ZM260.235 258.955L314.356 282.631C321.406 285.715 329.303 280.55 329.303 272.855L329.303 110.513C329.303 102.818 321.406 97.6528 314.356 100.737L260.235 124.413V258.955Z" fill="#1DE885"/>
<path d="M87.0835 444.502V367.668H103.527V402.011C107.41 400.381 111.026 398.324 114.375 395.841C117.801 393.279 120.846 390.447 123.511 387.342C126.175 384.238 128.459 381.017 130.362 377.68C132.265 374.342 133.636 371.005 134.473 367.668H153.315C152.249 371.471 150.612 375.274 148.405 379.077C146.273 382.802 143.723 386.333 140.754 389.671C137.785 393.008 134.625 395.996 131.276 398.635C128.002 401.196 124.691 403.214 121.341 404.688V406.434C124.843 406.434 127.964 406.861 130.705 407.715C133.522 408.491 135.996 409.772 138.127 411.557C140.335 413.264 142.276 415.398 143.951 417.96C145.626 420.521 147.11 423.586 148.405 427.156L154.457 444.502H135.843L131.847 430.532C130.781 426.73 129.373 423.703 127.622 421.452C125.871 419.124 123.625 417.455 120.884 416.446C118.144 415.36 114.566 414.816 110.15 414.816H103.527V444.502H87.0835Z" fill="#121317"/>
<path d="M199.689 446.132C194.208 446.132 189.298 445.278 184.958 443.571C180.619 441.786 176.889 439.225 173.768 435.888C170.723 432.473 168.363 428.321 166.688 423.431C165.089 418.464 164.29 412.798 164.29 406.434C164.29 397.354 165.85 389.865 168.972 383.966C172.093 377.99 176.356 373.528 181.761 370.578C187.242 367.551 193.409 366.038 200.26 366.038C205.589 366.038 210.423 366.931 214.763 368.716C219.102 370.423 222.794 372.984 225.839 376.399C228.96 379.736 231.358 383.927 233.033 388.972C234.708 393.939 235.545 399.643 235.545 406.085C235.545 412.682 234.708 418.464 233.033 423.431C231.358 428.398 228.922 432.589 225.725 436.004C222.604 439.341 218.835 441.864 214.42 443.571C210.005 445.278 205.094 446.132 199.689 446.132ZM200.146 432.744C204.181 432.744 207.568 431.735 210.309 429.718C213.05 427.7 215.143 424.789 216.59 420.986C218.036 417.183 218.759 412.527 218.759 407.016C218.759 401.273 217.998 396.384 216.475 392.348C215.029 388.312 212.897 385.247 210.081 383.151C207.264 380.978 203.838 379.892 199.803 379.892C195.845 379.892 192.457 380.939 189.64 383.035C186.9 385.053 184.768 388.002 183.246 391.882C181.799 395.763 181.076 400.575 181.076 406.318C181.076 410.509 181.495 414.273 182.332 417.61C183.246 420.87 184.502 423.625 186.1 425.876C187.699 428.127 189.678 429.834 192.038 430.998C194.398 432.162 197.101 432.744 200.146 432.744Z" fill="#121317"/>
<path d="M252.638 444.502V367.668H274.106L308.249 422.034H309.505L308.478 367.668H324.464V444.502H305.052L268.967 387.575H267.711L268.739 444.502H252.638Z" fill="#121317"/>
<path d="M346.662 444.502V367.668H363.448V444.502H346.662Z" fill="#121317"/>
<path d="M98.0085 491.95C96.2273 491.95 94.662 491.761 93.3126 491.383C91.9902 491.005 90.8702 490.452 89.9526 489.724C89.0621 488.968 88.4009 488.051 87.9691 486.972C87.5373 485.893 87.3483 484.638 87.4023 483.208L90.7623 482.48C90.6543 483.883 90.8837 485.056 91.4505 486.001C92.0172 486.945 92.8808 487.66 94.0413 488.145C95.2017 488.604 96.5646 488.833 98.1299 488.833C99.6412 488.833 100.923 488.645 101.976 488.267C103.028 487.889 103.811 487.363 104.324 486.689C104.863 486.014 105.133 485.245 105.133 484.382C105.133 483.411 104.823 482.642 104.202 482.075C103.581 481.509 102.745 481.077 101.692 480.78C100.667 480.456 99.5198 480.16 98.2514 479.89C97.0099 479.62 95.7685 479.31 94.5271 478.959C93.2856 478.608 92.1656 478.163 91.1671 477.624C90.1955 477.057 89.3994 476.329 88.7787 475.438C88.185 474.521 87.8881 473.361 87.8881 471.958C87.8881 470.366 88.2794 468.99 89.0621 467.83C89.8717 466.67 91.0052 465.78 92.4625 465.159C93.9198 464.512 95.6336 464.188 97.6036 464.188C99.5468 464.188 101.274 464.498 102.785 465.119C104.324 465.739 105.538 466.657 106.429 467.871C107.319 469.058 107.791 470.528 107.845 472.282L104.364 473.132C104.364 472.16 104.189 471.311 103.838 470.582C103.514 469.827 103.055 469.22 102.461 468.761C101.868 468.275 101.153 467.911 100.316 467.668C99.4793 467.399 98.5617 467.264 97.5632 467.264C96.3487 467.264 95.2827 467.453 94.3651 467.83C93.4476 468.208 92.7324 468.721 92.2196 469.368C91.7068 470.016 91.4505 470.784 91.4505 471.675C91.4505 472.727 91.8148 473.563 92.5435 474.184C93.2991 474.777 94.2707 475.249 95.4581 475.6C96.6456 475.951 97.914 476.275 99.2634 476.571C100.424 476.814 101.557 477.111 102.664 477.462C103.797 477.786 104.823 478.231 105.74 478.797C106.658 479.337 107.387 480.052 107.926 480.942C108.466 481.832 108.736 482.966 108.736 484.341C108.736 485.879 108.331 487.215 107.522 488.348C106.739 489.481 105.552 490.371 103.959 491.019C102.367 491.639 100.383 491.95 98.0085 491.95Z" fill="#121317"/>
<path d="M158.369 491.423V464.714H162.093V491.423H158.369ZM150.232 467.952V464.714H170.23V467.952H150.232Z" fill="#121317"/>
<path d="M208.589 491.423L217.981 464.714H223.405L232.797 491.423H228.789L220.936 467.83H220.45L212.597 491.423H208.589ZM213.042 485.434V482.601H228.789V485.434H213.042Z" fill="#121317"/>
<path d="M286.59 491.95C284.674 491.95 282.947 491.653 281.409 491.059C279.897 490.466 278.615 489.589 277.563 488.429C276.51 487.269 275.701 485.852 275.134 484.18C274.594 482.48 274.324 480.551 274.324 478.393C274.324 476.207 274.608 474.251 275.174 472.525C275.741 470.771 276.551 469.274 277.603 468.033C278.656 466.792 279.924 465.847 281.409 465.2C282.893 464.525 284.553 464.188 286.388 464.188C287.791 464.188 289.087 464.39 290.274 464.795C291.461 465.173 292.487 465.739 293.351 466.495C294.241 467.223 294.929 468.114 295.415 469.166C295.901 470.218 296.157 471.391 296.184 472.686L292.662 473.577C292.689 472.201 292.406 471.068 291.812 470.177C291.219 469.26 290.436 468.572 289.464 468.114C288.493 467.655 287.44 467.426 286.307 467.426C285.254 467.426 284.229 467.641 283.23 468.073C282.259 468.478 281.395 469.125 280.639 470.016C279.884 470.879 279.277 471.999 278.818 473.374C278.386 474.723 278.17 476.356 278.17 478.271C278.17 480.726 278.521 482.709 279.223 484.22C279.951 485.731 280.963 486.85 282.259 487.579C283.554 488.28 285.052 488.631 286.752 488.631C288.398 488.631 289.721 488.334 290.719 487.741C291.718 487.12 292.46 486.27 292.946 485.191C293.432 484.085 293.715 482.817 293.796 481.387L297.115 481.994C297.088 483.343 296.872 484.625 296.468 485.839C296.063 487.053 295.442 488.118 294.606 489.036C293.769 489.953 292.689 490.668 291.367 491.181C290.045 491.693 288.452 491.95 286.59 491.95Z" fill="#121317"/>
<path d="M341.119 491.423V464.714H344.844V477.462C346.328 476.949 347.772 476.261 349.175 475.398C350.606 474.508 351.914 473.509 353.102 472.403C354.289 471.27 355.328 470.056 356.219 468.761C357.11 467.439 357.784 466.09 358.243 464.714H362.372C361.832 466.279 361.117 467.749 360.227 469.125C359.363 470.501 358.364 471.756 357.231 472.889C356.124 474.022 354.964 475.007 353.75 475.843C352.562 476.679 351.375 477.354 350.187 477.866V478.393C351.51 478.393 352.697 478.568 353.75 478.919C354.829 479.269 355.801 479.782 356.664 480.456C357.555 481.131 358.337 481.994 359.012 483.046C359.714 484.099 360.348 485.34 360.915 486.77L362.615 491.423H358.445L357.352 487.862C356.732 486.163 356.003 484.773 355.166 483.694C354.357 482.588 353.318 481.765 352.049 481.225C350.808 480.659 349.202 480.376 347.232 480.376H344.844V491.423H341.119Z" fill="#121317"/>
</svg>
