<svg width="450" height="555" viewBox="0 0 450 555" fill="none" xmlns="http://www.w3.org/2000/svg">
<path fill-rule="evenodd" clip-rule="evenodd" d="M245.796 103.739C247.672 104.232 248.98 105.928 248.98 107.868V129.081L225.645 139.289C221.761 140.988 219.251 144.825 219.251 149.065L219.251 234.303C219.251 238.543 221.761 242.38 225.645 244.079L248.98 254.287V263.593C248.98 265.4 247.843 267.011 246.14 267.615L137.012 306.388C134.234 307.375 131.315 305.314 131.315 302.366L131.315 79.2099C131.315 76.4123 133.961 74.3711 136.667 75.0817L245.796 103.739ZM259.65 258.955V266.607C259.65 271.122 256.807 275.149 252.552 276.661L134.887 318.466C127.941 320.934 120.645 315.783 120.645 308.412V73.6761C120.645 66.6821 127.261 61.5792 134.025 63.3556L251.69 94.255C256.38 95.4867 259.65 99.7262 259.65 104.576V124.413L248.98 129.081L248.98 254.287L259.65 258.955ZM259.65 258.955L313.771 282.631C320.821 285.715 328.718 280.55 328.718 272.855L328.718 110.513C328.718 102.818 320.821 97.6528 313.771 100.737L259.65 124.413V258.955Z" fill="white"/>
<path d="M86.499 444.502V367.668H102.943V402.011C106.825 400.381 110.441 398.324 113.791 395.841C117.217 393.279 120.262 390.447 122.926 387.342C125.591 384.238 127.875 381.017 129.778 377.68C131.681 374.342 133.051 371.005 133.889 367.668H152.73C151.665 371.471 150.028 375.274 147.82 379.077C145.688 382.802 143.138 386.333 140.169 389.671C137.2 393.008 134.041 395.996 130.691 398.635C127.418 401.196 124.106 403.214 120.757 404.688V406.434C124.258 406.434 127.38 406.861 130.12 407.715C132.937 408.491 135.411 409.772 137.543 411.557C139.751 413.264 141.692 415.398 143.367 417.96C145.041 420.521 146.526 423.586 147.82 427.156L153.872 444.502H135.259L131.262 430.532C130.196 426.73 128.788 423.703 127.037 421.452C125.286 419.124 123.04 417.455 120.3 416.446C117.559 415.36 113.981 414.816 109.566 414.816H102.943V444.502H86.499Z" fill="white"/>
<path d="M199.105 446.132C193.624 446.132 188.713 445.278 184.374 443.571C180.035 441.786 176.304 439.225 173.183 435.888C170.138 432.473 167.778 428.321 166.103 423.431C164.505 418.464 163.705 412.798 163.705 406.434C163.705 397.354 165.266 389.865 168.387 383.966C171.508 377.99 175.772 373.528 181.177 370.578C186.658 367.551 192.824 366.038 199.676 366.038C205.005 366.038 209.839 366.931 214.178 368.716C218.517 370.423 222.21 372.984 225.255 376.399C228.376 379.736 230.774 383.927 232.449 388.972C234.124 393.939 234.961 399.643 234.961 406.085C234.961 412.682 234.124 418.464 232.449 423.431C230.774 428.398 228.338 432.589 225.14 436.004C222.019 439.341 218.251 441.864 213.835 443.571C209.42 445.278 204.51 446.132 199.105 446.132ZM199.562 432.744C203.596 432.744 206.984 431.735 209.725 429.718C212.465 427.7 214.559 424.789 216.005 420.986C217.452 417.183 218.175 412.527 218.175 407.016C218.175 401.273 217.414 396.384 215.891 392.348C214.445 388.312 212.313 385.247 209.496 383.151C206.679 380.978 203.254 379.892 199.219 379.892C195.26 379.892 191.873 380.939 189.056 383.035C186.315 385.053 184.184 388.002 182.661 391.882C181.215 395.763 180.491 400.575 180.491 406.318C180.491 410.509 180.91 414.273 181.748 417.61C182.661 420.87 183.917 423.625 185.516 425.876C187.115 428.127 189.094 429.834 191.454 430.998C193.814 432.162 196.516 432.744 199.562 432.744Z" fill="white"/>
<path d="M252.053 444.502V367.668H273.521L307.665 422.034H308.921L307.893 367.668H323.88V444.502H304.467L268.383 387.575H267.127L268.154 444.502H252.053Z" fill="white"/>
<path d="M346.078 444.502V367.668H362.864V444.502H346.078Z" fill="white"/>
<path d="M97.424 491.95C95.6428 491.95 94.0775 491.761 92.7281 491.383C91.4057 491.005 90.2858 490.452 89.3682 489.724C88.4776 488.968 87.8164 488.051 87.3846 486.972C86.9528 485.893 86.7639 484.638 86.8178 483.208L90.1778 482.48C90.0699 483.883 90.2993 485.056 90.866 486.001C91.4327 486.945 92.2963 487.66 93.4568 488.145C94.6173 488.604 95.9802 488.833 97.5454 488.833C99.0567 488.833 100.339 488.645 101.391 488.267C102.444 487.889 103.226 487.363 103.739 486.689C104.279 486.014 104.549 485.245 104.549 484.382C104.549 483.411 104.238 482.642 103.618 482.075C102.997 481.509 102.16 481.077 101.108 480.78C100.082 480.456 98.9353 480.16 97.6669 479.89C96.4254 479.62 95.184 479.31 93.9426 478.959C92.7012 478.608 91.5812 478.163 90.5826 477.624C89.6111 477.057 88.8149 476.329 88.1942 475.438C87.6005 474.521 87.3036 473.361 87.3036 471.958C87.3036 470.366 87.6949 468.99 88.4776 467.83C89.2872 466.67 90.4207 465.78 91.878 465.159C93.3354 464.512 95.0491 464.188 97.0192 464.188C98.9623 464.188 100.689 464.498 102.201 465.119C103.739 465.739 104.954 466.657 105.844 467.871C106.735 469.058 107.207 470.528 107.261 472.282L103.78 473.132C103.78 472.16 103.604 471.311 103.253 470.582C102.929 469.827 102.471 469.22 101.877 468.761C101.283 468.275 100.568 467.911 99.7314 467.668C98.8948 467.399 97.9772 467.264 96.9787 467.264C95.7642 467.264 94.6982 467.453 93.7807 467.83C92.8631 468.208 92.1479 468.721 91.6351 469.368C91.1224 470.016 90.866 470.784 90.866 471.675C90.866 472.727 91.2303 473.563 91.959 474.184C92.7146 474.777 93.6862 475.249 94.8737 475.6C96.0611 475.951 97.3295 476.275 98.6789 476.571C99.8394 476.814 100.973 477.111 102.079 477.462C103.213 477.786 104.238 478.231 105.156 478.797C106.074 479.337 106.802 480.052 107.342 480.942C107.882 481.832 108.152 482.966 108.152 484.341C108.152 485.879 107.747 487.215 106.937 488.348C106.154 489.481 104.967 490.371 103.375 491.019C101.782 491.639 99.7989 491.95 97.424 491.95Z" fill="white"/>
<path d="M157.785 491.423V464.714H161.509V491.423H157.785ZM149.648 467.952V464.714H169.646V467.952H149.648Z" fill="white"/>
<path d="M208.005 491.423L217.396 464.714H222.821L232.212 491.423H228.205L220.351 467.83H219.866L212.012 491.423H208.005ZM212.457 485.434V482.601H228.205V485.434H212.457Z" fill="white"/>
<path d="M286.006 491.95C284.09 491.95 282.362 491.653 280.824 491.059C279.313 490.466 278.031 489.589 276.978 488.429C275.926 487.269 275.116 485.852 274.549 484.18C274.01 482.48 273.74 480.551 273.74 478.393C273.74 476.207 274.023 474.251 274.59 472.525C275.157 470.771 275.966 469.274 277.019 468.033C278.071 466.792 279.34 465.847 280.824 465.2C282.308 464.525 283.968 464.188 285.803 464.188C287.207 464.188 288.502 464.39 289.69 464.795C290.877 465.173 291.903 465.739 292.766 466.495C293.657 467.223 294.345 468.114 294.831 469.166C295.316 470.218 295.573 471.391 295.6 472.686L292.078 473.577C292.105 472.201 291.822 471.068 291.228 470.177C290.634 469.26 289.851 468.572 288.88 468.114C287.908 467.655 286.856 467.426 285.722 467.426C284.67 467.426 283.644 467.641 282.646 468.073C281.674 468.478 280.811 469.125 280.055 470.016C279.299 470.879 278.692 471.999 278.233 473.374C277.801 474.723 277.586 476.356 277.586 478.271C277.586 480.726 277.936 482.709 278.638 484.22C279.367 485.731 280.379 486.85 281.674 487.579C282.97 488.28 284.467 488.631 286.168 488.631C287.814 488.631 289.136 488.334 290.135 487.741C291.133 487.12 291.876 486.27 292.361 485.191C292.847 484.085 293.13 482.817 293.211 481.387L296.531 481.994C296.504 483.343 296.288 484.625 295.883 485.839C295.478 487.053 294.858 488.118 294.021 489.036C293.184 489.953 292.105 490.668 290.783 491.181C289.46 491.693 287.868 491.95 286.006 491.95Z" fill="white"/>
<path d="M340.535 491.423V464.714H344.259V477.462C345.743 476.949 347.187 476.261 348.591 475.398C350.021 474.508 351.33 473.509 352.517 472.403C353.705 471.27 354.744 470.056 355.634 468.761C356.525 467.439 357.2 466.09 357.659 464.714H361.788C361.248 466.279 360.533 467.749 359.642 469.125C358.779 470.501 357.78 471.756 356.647 472.889C355.54 474.022 354.38 475.007 353.165 475.843C351.978 476.679 350.79 477.354 349.603 477.866V478.393C350.925 478.393 352.113 478.568 353.165 478.919C354.245 479.269 355.216 479.782 356.08 480.456C356.97 481.131 357.753 481.994 358.428 483.046C359.129 484.099 359.764 485.34 360.33 486.77L362.031 491.423H357.861L356.768 487.862C356.147 486.163 355.419 484.773 354.582 483.694C353.772 482.588 352.733 481.765 351.465 481.225C350.223 480.659 348.618 480.376 346.648 480.376H344.259V491.423H340.535Z" fill="white"/>
</svg>
