<svg width="450" height="555" viewBox="0 0 450 555" fill="none" xmlns="http://www.w3.org/2000/svg">
<path fill-rule="evenodd" clip-rule="evenodd" d="M246.475 103.739C248.351 104.232 249.659 105.928 249.659 107.868V129.081L226.324 139.289C222.44 140.988 219.931 144.825 219.931 149.065L219.931 234.303C219.931 238.543 222.44 242.38 226.324 244.079L249.659 254.287V263.593C249.659 265.4 248.522 267.011 246.82 267.615L137.691 306.388C134.913 307.375 131.994 305.314 131.994 302.366L131.994 79.2099C131.994 76.4123 134.641 74.3711 137.346 75.0817L246.475 103.739ZM260.329 258.955V266.607C260.329 271.122 257.487 275.149 253.231 276.661L135.567 318.466C128.62 320.934 121.324 315.783 121.324 308.412V73.6761C121.324 66.6821 127.94 61.5792 134.704 63.3556L252.369 94.255C257.059 95.4867 260.329 99.7262 260.329 104.576V124.413L249.659 129.081L249.659 254.287L260.329 258.955ZM260.329 258.955L314.451 282.631C321.5 285.715 329.398 280.55 329.398 272.855L329.398 110.513C329.398 102.818 321.5 97.6528 314.451 100.737L260.329 124.413V258.955Z" fill="#1DE885"/>
<path d="M87.1782 444.502V367.668H103.622V402.011C107.504 400.381 111.12 398.324 114.47 395.841C117.896 393.279 120.941 390.447 123.605 387.342C126.27 384.238 128.554 381.017 130.457 377.68C132.36 374.342 133.73 371.005 134.568 367.668H153.41C152.344 371.471 150.707 375.274 148.499 379.077C146.368 382.802 143.817 386.333 140.848 389.671C137.879 393.008 134.72 395.996 131.37 398.635C128.097 401.196 124.785 403.214 121.436 404.688V406.434C124.938 406.434 128.059 406.861 130.8 407.715C133.616 408.491 136.09 409.772 138.222 411.557C140.43 413.264 142.371 415.398 144.046 417.96C145.721 420.521 147.205 423.586 148.499 427.156L154.551 444.502H135.938L131.941 430.532C130.876 426.73 129.467 423.703 127.716 421.452C125.965 419.124 123.72 417.455 120.979 416.446C118.238 415.36 114.66 414.816 110.245 414.816H103.622V444.502H87.1782Z" fill="white"/>
<path d="M199.784 446.132C194.303 446.132 189.392 445.278 185.053 443.571C180.714 441.786 176.984 439.225 173.862 435.888C170.817 432.473 168.457 428.321 166.782 423.431C165.184 418.464 164.384 412.798 164.384 406.434C164.384 397.354 165.945 389.865 169.066 383.966C172.188 377.99 176.451 373.528 181.856 370.578C187.337 367.551 193.503 366.038 200.355 366.038C205.684 366.038 210.518 366.931 214.857 368.716C219.197 370.423 222.889 372.984 225.934 376.399C229.055 379.736 231.453 383.927 233.128 388.972C234.803 393.939 235.64 399.643 235.64 406.085C235.64 412.682 234.803 418.464 233.128 423.431C231.453 428.398 229.017 432.589 225.82 436.004C222.698 439.341 218.93 441.864 214.515 443.571C210.099 445.278 205.189 446.132 199.784 446.132ZM200.241 432.744C204.275 432.744 207.663 431.735 210.404 429.718C213.144 427.7 215.238 424.789 216.684 420.986C218.131 417.183 218.854 412.527 218.854 407.016C218.854 401.273 218.093 396.384 216.57 392.348C215.124 388.312 212.992 385.247 210.175 383.151C207.359 380.978 203.933 379.892 199.898 379.892C195.939 379.892 192.552 380.939 189.735 383.035C186.994 385.053 184.863 388.002 183.34 391.882C181.894 395.763 181.171 400.575 181.171 406.318C181.171 410.509 181.589 414.273 182.427 417.61C183.34 420.87 184.596 423.625 186.195 425.876C187.794 428.127 189.773 429.834 192.133 430.998C194.493 432.162 197.196 432.744 200.241 432.744Z" fill="white"/>
<path d="M252.732 444.502V367.668H274.2L308.344 422.034H309.6L308.572 367.668H324.559V444.502H305.146L269.062 387.575H267.806L268.833 444.502H252.732Z" fill="white"/>
<path d="M346.757 444.502V367.668H363.543V444.502H346.757Z" fill="white"/>
<path d="M98.1032 491.95C96.322 491.95 94.7567 491.761 93.4073 491.383C92.0849 491.005 90.965 490.452 90.0474 489.724C89.1568 488.968 88.4956 488.051 88.0638 486.972C87.632 485.893 87.4431 484.638 87.497 483.208L90.857 482.48C90.7491 483.883 90.9784 485.056 91.5452 486.001C92.1119 486.945 92.9755 487.66 94.136 488.145C95.2965 488.604 96.6594 488.833 98.2246 488.833C99.7359 488.833 101.018 488.645 102.07 488.267C103.123 487.889 103.906 487.363 104.418 486.689C104.958 486.014 105.228 485.245 105.228 484.382C105.228 483.411 104.918 482.642 104.297 482.075C103.676 481.509 102.84 481.077 101.787 480.78C100.761 480.456 99.6145 480.16 98.3461 479.89C97.1046 479.62 95.8632 479.31 94.6218 478.959C93.3804 478.608 92.2604 478.163 91.2618 477.624C90.2903 477.057 89.4941 476.329 88.8734 475.438C88.2797 474.521 87.9828 473.361 87.9828 471.958C87.9828 470.366 88.3741 468.99 89.1568 467.83C89.9664 466.67 91.0999 465.78 92.5572 465.159C94.0146 464.512 95.7283 464.188 97.6984 464.188C99.6415 464.188 101.369 464.498 102.88 465.119C104.418 465.739 105.633 466.657 106.523 467.871C107.414 469.058 107.886 470.528 107.94 472.282L104.459 473.132C104.459 472.16 104.283 471.311 103.933 470.582C103.609 469.827 103.15 469.22 102.556 468.761C101.962 468.275 101.247 467.911 100.411 467.668C99.574 467.399 98.6564 467.264 97.6579 467.264C96.4434 467.264 95.3774 467.453 94.4599 467.83C93.5423 468.208 92.8271 468.721 92.3143 469.368C91.8016 470.016 91.5452 470.784 91.5452 471.675C91.5452 472.727 91.9095 473.563 92.6382 474.184C93.3938 474.777 94.3654 475.249 95.5529 475.6C96.7403 475.951 98.0087 476.275 99.3581 476.571C100.519 476.814 101.652 477.111 102.759 477.462C103.892 477.786 104.918 478.231 105.835 478.797C106.753 479.337 107.481 480.052 108.021 480.942C108.561 481.832 108.831 482.966 108.831 484.341C108.831 485.879 108.426 487.215 107.616 488.348C106.834 489.481 105.646 490.371 104.054 491.019C102.462 491.639 100.478 491.95 98.1032 491.95Z" fill="white"/>
<path d="M158.464 491.423V464.714H162.188V491.423H158.464ZM150.327 467.952V464.714H170.325V467.952H150.327Z" fill="white"/>
<path d="M208.684 491.423L218.075 464.714H223.5L232.892 491.423H228.884L221.031 467.83H220.545L212.691 491.423H208.684ZM213.137 485.434V482.601H228.884V485.434H213.137Z" fill="white"/>
<path d="M286.685 491.95C284.769 491.95 283.042 491.653 281.503 491.059C279.992 490.466 278.71 489.589 277.658 488.429C276.605 487.269 275.795 485.852 275.229 484.18C274.689 482.48 274.419 480.551 274.419 478.393C274.419 476.207 274.702 474.251 275.269 472.525C275.836 470.771 276.645 469.274 277.698 468.033C278.751 466.792 280.019 465.847 281.503 465.2C282.988 464.525 284.647 464.188 286.482 464.188C287.886 464.188 289.181 464.39 290.369 464.795C291.556 465.173 292.582 465.739 293.445 466.495C294.336 467.223 295.024 468.114 295.51 469.166C295.996 470.218 296.252 471.391 296.279 472.686L292.757 473.577C292.784 472.201 292.501 471.068 291.907 470.177C291.313 469.26 290.531 468.572 289.559 468.114C288.588 467.655 287.535 467.426 286.402 467.426C285.349 467.426 284.323 467.641 283.325 468.073C282.353 468.478 281.49 469.125 280.734 470.016C279.978 470.879 279.371 471.999 278.912 473.374C278.481 474.723 278.265 476.356 278.265 478.271C278.265 480.726 278.616 482.709 279.317 484.22C280.046 485.731 281.058 486.85 282.353 487.579C283.649 488.28 285.147 488.631 286.847 488.631C288.493 488.631 289.815 488.334 290.814 487.741C291.813 487.12 292.555 486.27 293.04 485.191C293.526 484.085 293.81 482.817 293.891 481.387L297.21 481.994C297.183 483.343 296.967 484.625 296.562 485.839C296.158 487.053 295.537 488.118 294.7 489.036C293.864 489.953 292.784 490.668 291.462 491.181C290.139 491.693 288.547 491.95 286.685 491.95Z" fill="white"/>
<path d="M341.214 491.423V464.714H344.938V477.462C346.423 476.949 347.867 476.261 349.27 475.398C350.7 474.508 352.009 473.509 353.197 472.403C354.384 471.27 355.423 470.056 356.314 468.761C357.204 467.439 357.879 466.09 358.338 464.714H362.467C361.927 466.279 361.212 467.749 360.321 469.125C359.458 470.501 358.459 471.756 357.326 472.889C356.219 474.022 355.059 475.007 353.844 475.843C352.657 476.679 351.469 477.354 350.282 477.866V478.393C351.604 478.393 352.792 478.568 353.844 478.919C354.924 479.269 355.895 479.782 356.759 480.456C357.65 481.131 358.432 481.994 359.107 483.046C359.809 484.099 360.443 485.34 361.01 486.77L362.71 491.423H358.54L357.447 487.862C356.826 486.163 356.098 484.773 355.261 483.694C354.452 482.588 353.413 481.765 352.144 481.225C350.903 480.659 349.297 480.376 347.327 480.376H344.938V491.423H341.214Z" fill="white"/>
</svg>
