<svg width="450" height="513" viewBox="0 0 450 513" fill="none" xmlns="http://www.w3.org/2000/svg">
<path fill-rule="evenodd" clip-rule="evenodd" d="M259.415 100.926C259.415 97.0534 256.766 93.6651 252.96 92.6702L131.343 60.8801C125.83 59.4389 120.425 63.5261 120.425 69.136V308.318C120.425 314.234 126.391 318.359 132.051 316.357L253.668 273.346C257.116 272.127 259.415 268.911 259.415 265.308V256.546L316.717 281.41C322.459 283.902 328.91 279.767 328.91 273.595L328.91 104.9C328.91 98.7278 322.459 94.5926 316.717 97.0843L259.415 121.949V100.926ZM259.415 121.949L223.767 137.418C220.618 138.784 218.587 141.849 218.587 145.233L218.587 233.261C218.587 236.646 220.618 239.711 223.767 241.077L259.415 256.546V121.949Z" fill="white"/>
<path d="M90.499 442.858V367.073H106.623V400.947C110.431 399.339 113.976 397.311 117.261 394.861C120.62 392.335 123.606 389.541 126.219 386.479C128.832 383.417 131.071 380.24 132.938 376.948C134.804 373.656 136.148 370.365 136.969 367.073H155.445C154.4 370.824 152.795 374.575 150.63 378.326C148.539 382 146.039 385.484 143.127 388.775C140.216 392.067 137.118 395.014 133.833 397.617C130.623 400.143 127.376 402.133 124.092 403.588V405.31C127.525 405.31 130.586 405.731 133.274 406.573C136.036 407.339 138.462 408.602 140.552 410.362C142.717 412.046 144.62 414.152 146.263 416.678C147.905 419.204 149.361 422.228 150.63 425.749L156.564 442.858H138.312L134.393 429.079C133.348 425.328 131.967 422.343 130.25 420.123C128.533 417.826 126.331 416.18 123.644 415.185C120.956 414.113 117.448 413.577 113.118 413.577H106.623V442.858H90.499Z" fill="white"/>
<path d="M200.919 444.466C195.544 444.466 190.729 443.624 186.474 441.939C182.219 440.179 178.561 437.653 175.5 434.361C172.514 430.993 170.2 426.897 168.558 422.075C166.99 417.175 166.206 411.587 166.206 405.31C166.206 396.354 167.737 388.967 170.797 383.149C173.858 377.254 178.039 372.853 183.339 369.944C188.713 366.958 194.76 365.466 201.479 365.466C206.704 365.466 211.444 366.346 215.7 368.107C219.955 369.791 223.575 372.317 226.561 375.685C229.622 378.977 231.973 383.11 233.616 388.086C235.258 392.985 236.079 398.612 236.079 404.966C236.079 411.472 235.258 417.175 233.616 422.075C231.973 426.974 229.584 431.108 226.449 434.476C223.388 437.767 219.693 440.255 215.364 441.939C211.034 443.624 206.219 444.466 200.919 444.466ZM201.367 431.261C205.323 431.261 208.645 430.265 211.332 428.275C214.02 426.285 216.073 423.414 217.491 419.663C218.909 415.912 219.619 411.319 219.619 405.884C219.619 400.219 218.872 395.397 217.379 391.416C215.961 387.436 213.871 384.412 211.109 382.345C208.346 380.202 204.987 379.13 201.031 379.13C197.149 379.13 193.827 380.163 191.065 382.23C188.378 384.22 186.287 387.129 184.794 390.957C183.376 394.784 182.667 399.53 182.667 405.195C182.667 409.329 183.077 413.042 183.899 416.333C184.794 419.548 186.026 422.266 187.594 424.486C189.161 426.706 191.102 428.39 193.416 429.538C195.731 430.687 198.381 431.261 201.367 431.261Z" fill="white"/>
<path d="M252.839 442.858V367.073H273.891L307.371 420.697H308.603L307.595 367.073H323.272V442.858H304.236L268.852 386.708H267.62L268.628 442.858H252.839Z" fill="white"/>
<path d="M345.039 442.858V367.073H361.499V442.858H345.039Z" fill="white"/>
</svg>
