<svg width="450" height="513" viewBox="0 0 450 513" fill="none" xmlns="http://www.w3.org/2000/svg">
<path fill-rule="evenodd" clip-rule="evenodd" d="M260 100.926C260 97.0534 257.35 93.6651 253.544 92.6702L131.928 60.8801C126.415 59.4389 121.009 63.5261 121.009 69.136V308.318C121.009 314.234 126.975 318.359 132.636 316.357L254.252 273.346C257.7 272.127 260 268.911 260 265.308V256.546L317.301 281.41C323.043 283.902 329.495 279.767 329.495 273.595L329.495 104.9C329.495 98.7278 323.043 94.5926 317.301 97.0843L260 121.949V100.926ZM260 121.949L224.351 137.418C221.203 138.784 219.171 141.849 219.171 145.233L219.171 233.261C219.171 236.646 221.203 239.711 224.351 241.077L260 256.546V121.949Z" fill="#1DE885"/>
<path d="M91.0835 442.858V367.073H107.208V400.947C111.015 399.339 114.561 397.311 117.846 394.861C121.205 392.335 124.191 389.541 126.804 386.479C129.416 383.417 131.656 380.24 133.522 376.948C135.388 373.656 136.732 370.365 137.553 367.073H156.029C154.984 370.824 153.379 374.575 151.214 378.326C149.124 382 146.623 385.484 143.712 388.775C140.8 392.067 137.702 395.014 134.418 397.617C131.208 400.143 127.961 402.133 124.676 403.588V405.31C128.11 405.31 131.171 405.731 133.858 406.573C136.62 407.339 139.046 408.602 141.136 410.362C143.301 412.046 145.205 414.152 146.847 416.678C148.489 419.204 149.945 422.228 151.214 425.749L157.149 442.858H138.897L134.978 429.079C133.933 425.328 132.552 422.343 130.835 420.123C129.118 417.826 126.916 416.18 124.228 415.185C121.541 414.113 118.032 413.577 113.702 413.577H107.208V442.858H91.0835Z" fill="#151823"/>
<path d="M201.503 444.466C196.128 444.466 191.314 443.624 187.058 441.939C182.803 440.179 179.146 437.653 176.085 434.361C173.099 430.993 170.785 426.897 169.142 422.075C167.575 417.175 166.791 411.587 166.791 405.31C166.791 396.354 168.321 388.967 171.382 383.149C174.443 377.254 178.623 372.853 183.923 369.944C189.298 366.958 195.345 365.466 202.063 365.466C207.289 365.466 212.029 366.346 216.284 368.107C220.539 369.791 224.16 372.317 227.146 375.685C230.206 378.977 232.558 383.11 234.2 388.086C235.842 392.985 236.663 398.612 236.663 404.966C236.663 411.472 235.842 417.175 234.2 422.075C232.558 426.974 230.169 431.108 227.034 434.476C223.973 437.767 220.278 440.255 215.948 441.939C211.618 443.624 206.803 444.466 201.503 444.466ZM201.951 431.261C205.908 431.261 209.23 430.265 211.917 428.275C214.604 426.285 216.657 423.414 218.076 419.663C219.494 415.912 220.203 411.319 220.203 405.884C220.203 400.219 219.457 395.397 217.964 391.416C216.545 387.436 214.455 384.412 211.693 382.345C208.931 380.202 205.572 379.13 201.615 379.13C197.733 379.13 194.411 380.163 191.649 382.23C188.962 384.22 186.872 387.129 185.379 390.957C183.96 394.784 183.251 399.53 183.251 405.195C183.251 409.329 183.662 413.042 184.483 416.333C185.379 419.548 186.611 422.266 188.178 424.486C189.746 426.706 191.687 428.39 194.001 429.538C196.315 430.687 198.965 431.261 201.951 431.261Z" fill="#151823"/>
<path d="M253.424 442.858V367.073H274.475L307.956 420.697H309.187L308.18 367.073H323.856V442.858H304.82L269.436 386.708H268.205L269.212 442.858H253.424Z" fill="#151823"/>
<path d="M345.623 442.858V367.073H362.083V442.858H345.623Z" fill="#151823"/>
</svg>
