<svg width="451" height="513" viewBox="0 0 451 513" fill="none" xmlns="http://www.w3.org/2000/svg">
<path fill-rule="evenodd" clip-rule="evenodd" d="M260.321 100.926C260.321 97.0534 257.671 93.6651 253.865 92.6702L132.249 60.8801C126.736 59.4389 121.33 63.5261 121.33 69.136V308.318C121.33 314.234 127.297 318.359 132.957 316.357L254.574 273.346C258.022 272.127 260.321 268.911 260.321 265.308V256.546L317.622 281.41C323.364 283.902 329.816 279.767 329.816 273.595L329.816 104.9C329.816 98.7278 323.364 94.5926 317.622 97.0843L260.321 121.949V100.926ZM260.321 121.949L224.672 137.418C221.524 138.784 219.492 141.849 219.492 145.233L219.492 233.261C219.492 236.646 221.524 239.711 224.672 241.077L260.321 256.546V121.949Z" fill="#151823"/>
<path d="M91.4045 442.858V367.073H107.529V400.947C111.336 399.339 114.882 397.311 118.167 394.861C121.526 392.335 124.512 389.541 127.125 386.479C129.737 383.417 131.977 380.24 133.843 376.948C135.709 373.656 137.053 370.365 137.874 367.073H156.35C155.305 370.824 153.7 374.575 151.535 378.326C149.445 382 146.944 385.484 144.033 388.775C141.122 392.067 138.024 395.014 134.739 397.617C131.529 400.143 128.282 402.133 124.997 403.588V405.31C128.431 405.31 131.492 405.731 134.179 406.573C136.941 407.339 139.367 408.602 141.457 410.362C143.622 412.046 145.526 414.152 147.168 416.678C148.81 419.204 150.266 422.228 151.535 425.749L157.47 442.858H139.218L135.299 429.079C134.254 425.328 132.873 422.343 131.156 420.123C129.439 417.826 127.237 416.18 124.549 415.185C121.862 414.113 118.353 413.577 114.024 413.577H107.529V442.858H91.4045Z" fill="#151823"/>
<path d="M201.824 444.466C196.449 444.466 191.635 443.624 187.379 441.939C183.124 440.179 179.467 437.653 176.406 434.361C173.42 430.993 171.106 426.897 169.463 422.075C167.896 417.175 167.112 411.587 167.112 405.31C167.112 396.354 168.642 388.967 171.703 383.149C174.764 377.254 178.944 372.853 184.244 369.944C189.619 366.958 195.666 365.466 202.384 365.466C207.61 365.466 212.35 366.346 216.605 368.107C220.86 369.791 224.481 372.317 227.467 375.685C230.527 378.977 232.879 383.11 234.521 388.086C236.163 392.985 236.984 398.612 236.984 404.966C236.984 411.472 236.163 417.175 234.521 422.075C232.879 426.974 230.49 431.108 227.355 434.476C224.294 437.767 220.599 440.255 216.269 441.939C211.939 443.624 207.124 444.466 201.824 444.466ZM202.272 431.261C206.229 431.261 209.551 430.265 212.238 428.275C214.925 426.285 216.978 423.414 218.397 419.663C219.815 415.912 220.524 411.319 220.524 405.884C220.524 400.219 219.778 395.397 218.285 391.416C216.866 387.436 214.776 384.412 212.014 382.345C209.252 380.202 205.893 379.13 201.936 379.13C198.054 379.13 194.733 380.163 191.97 382.23C189.283 384.22 187.193 387.129 185.7 390.957C184.282 394.784 183.572 399.53 183.572 405.195C183.572 409.329 183.983 413.042 184.804 416.333C185.7 419.548 186.932 422.266 188.499 424.486C190.067 426.706 192.008 428.39 194.322 429.538C196.636 430.687 199.286 431.261 202.272 431.261Z" fill="#151823"/>
<path d="M253.745 442.858V367.073H274.796L308.277 420.697H309.509L308.501 367.073H324.177V442.858H305.141L269.757 386.708H268.526L269.533 442.858H253.745Z" fill="#151823"/>
<path d="M345.944 442.858V367.073H362.405V442.858H345.944Z" fill="#151823"/>
</svg>
