<svg width="1324" height="513" viewBox="0 0 1324 513" fill="none" xmlns="http://www.w3.org/2000/svg">
<path fill-rule="evenodd" clip-rule="evenodd" d="M356.229 138.744C356.229 133.584 352.703 129.069 347.639 127.744L185.803 85.3882C178.467 83.468 171.274 88.9136 171.274 96.388V415.063C171.274 422.945 179.213 428.441 186.746 425.774L348.581 368.469C353.169 366.844 356.229 362.559 356.229 357.758V346.084L432.48 379.213C440.121 382.532 448.706 377.023 448.706 368.799L448.706 144.038C448.706 135.815 440.121 130.305 432.48 133.625L356.229 166.753V138.744ZM356.229 166.753L308.791 187.363C304.602 189.184 301.898 193.267 301.898 197.776L301.898 315.061C301.898 319.57 304.602 323.654 308.791 325.474L356.229 346.084V166.753Z" fill="#6F60F1"/>
<path d="M534.603 342.779V170.811H571.395V247.675C580.082 244.028 588.173 239.424 595.668 233.866C603.333 228.134 610.146 221.793 616.108 214.845C622.069 207.897 627.179 200.688 631.437 193.219C635.696 185.75 638.762 178.28 640.635 170.811H682.793C680.408 179.322 676.746 187.834 671.806 196.346C667.037 204.683 661.331 212.587 654.688 220.056C648.045 227.526 640.976 234.213 633.481 240.119C626.157 245.852 618.748 250.368 611.253 253.668V257.577C619.088 257.577 626.072 258.532 632.204 260.443C638.506 262.18 644.042 265.046 648.811 269.041C653.751 272.863 658.095 277.64 661.842 283.372C665.589 289.104 668.911 295.965 671.806 303.956L685.348 342.779H643.701L634.759 311.512C632.374 303.001 629.223 296.226 625.306 291.189C621.388 285.977 616.363 282.243 610.231 279.985C604.099 277.553 596.093 276.337 586.214 276.337H571.395V342.779H534.603Z" fill="white"/>
<path d="M786.553 346.427C774.289 346.427 763.303 344.516 753.594 340.695C743.885 336.699 735.539 330.967 728.555 323.498C721.742 315.855 716.461 306.561 712.714 295.618C709.137 284.501 707.349 271.82 707.349 257.577C707.349 237.253 710.84 220.491 717.824 207.289C724.808 193.914 734.346 183.926 746.44 177.325C758.704 170.55 772.501 167.163 787.831 167.163C799.754 167.163 810.57 169.161 820.279 173.156C829.988 176.977 838.249 182.71 845.062 190.353C852.046 197.822 857.412 207.202 861.159 218.493C864.906 229.61 866.78 242.377 866.78 256.795C866.78 271.56 864.906 284.501 861.159 295.618C857.412 306.735 851.961 316.115 844.807 323.758C837.823 331.228 829.392 336.873 819.513 340.695C809.633 344.516 798.647 346.427 786.553 346.427ZM787.575 316.463C796.603 316.463 804.183 314.205 810.315 309.688C816.447 305.172 821.131 298.658 824.367 290.146C827.603 281.635 829.222 271.212 829.222 258.879C829.222 246.025 827.518 235.082 824.112 226.049C820.875 217.016 816.106 210.155 809.804 205.465C803.501 200.601 795.836 198.169 786.809 198.169C777.951 198.169 770.372 200.514 764.069 205.205C757.937 209.721 753.168 216.322 749.761 225.007C746.525 233.692 744.907 244.462 744.907 257.316C744.907 266.696 745.844 275.121 747.717 282.59C749.761 289.886 752.572 296.052 756.149 301.09C759.726 306.127 764.155 309.949 769.435 312.554C774.715 315.16 780.762 316.463 787.575 316.463Z" fill="white"/>
<path d="M905.023 342.779V170.811H953.057L1029.45 292.491H1032.26L1029.96 170.811H1065.73V342.779H1022.3L941.559 215.366H938.749L941.048 342.779H905.023Z" fill="white"/>
<path d="M1115.4 342.779V170.811H1152.96V342.779H1115.4Z" fill="white"/>
</svg>
