<svg width="1324" height="513" viewBox="0 0 1324 513" fill="none" xmlns="http://www.w3.org/2000/svg">
<path fill-rule="evenodd" clip-rule="evenodd" d="M356.366 138.744C356.366 133.584 352.84 129.069 347.776 127.744L185.94 85.3882C178.604 83.468 171.411 88.9136 171.411 96.388V415.063C171.411 422.945 179.35 428.441 186.883 425.774L348.718 368.469C353.306 366.844 356.366 362.559 356.366 357.758V346.084L432.617 379.213C440.258 382.532 448.843 377.023 448.843 368.799L448.843 144.038C448.843 135.815 440.258 130.305 432.617 133.625L356.366 166.753V138.744ZM356.366 166.753L308.928 187.363C304.739 189.184 302.035 193.267 302.035 197.776L302.035 315.061C302.035 319.57 304.739 323.654 308.928 325.474L356.366 346.084V166.753Z" fill="#1DE885"/>
<path d="M534.74 342.779V170.811H571.532V247.675C580.219 244.028 588.31 239.424 595.805 233.866C603.47 228.134 610.283 221.793 616.245 214.845C622.206 207.897 627.316 200.688 631.574 193.219C635.833 185.75 638.899 178.28 640.772 170.811H682.93C680.545 179.322 676.883 187.834 671.943 196.346C667.174 204.683 661.468 212.587 654.825 220.056C648.182 227.526 641.113 234.213 633.618 240.119C626.294 245.852 618.885 250.368 611.39 253.668V257.577C619.225 257.577 626.209 258.532 632.341 260.443C638.643 262.18 644.179 265.046 648.948 269.041C653.888 272.863 658.231 277.64 661.979 283.372C665.726 289.104 669.048 295.965 671.943 303.956L685.485 342.779H643.838L634.896 311.512C632.511 303.001 629.36 296.226 625.442 291.189C621.525 285.977 616.5 282.243 610.368 279.985C604.236 277.553 596.23 276.337 586.351 276.337H571.532V342.779H534.74Z" fill="white"/>
<path d="M786.69 346.427C774.426 346.427 763.44 344.516 753.731 340.695C744.022 336.699 735.676 330.967 728.692 323.498C721.879 315.855 716.598 306.561 712.851 295.618C709.274 284.501 707.486 271.82 707.486 257.577C707.486 237.253 710.977 220.491 717.961 207.289C724.945 193.914 734.483 183.926 746.577 177.325C758.841 170.55 772.638 167.163 787.968 167.163C799.891 167.163 810.707 169.161 820.416 173.156C830.125 176.977 838.386 182.71 845.199 190.353C852.183 197.822 857.549 207.202 861.296 218.493C865.043 229.61 866.917 242.377 866.917 256.795C866.917 271.56 865.043 284.501 861.296 295.618C857.549 306.735 852.098 316.115 844.944 323.758C837.96 331.228 829.529 336.873 819.65 340.695C809.77 344.516 798.784 346.427 786.69 346.427ZM787.712 316.463C796.74 316.463 804.32 314.205 810.452 309.688C816.584 305.172 821.268 298.658 824.504 290.146C827.74 281.635 829.359 271.212 829.359 258.879C829.359 246.025 827.655 235.082 824.249 226.049C821.012 217.016 816.243 210.155 809.941 205.465C803.638 200.601 795.973 198.169 786.946 198.169C778.088 198.169 770.509 200.514 764.206 205.205C758.074 209.721 753.305 216.322 749.898 225.007C746.662 233.692 745.044 244.462 745.044 257.316C745.044 266.696 745.981 275.121 747.854 282.59C749.898 289.886 752.709 296.052 756.286 301.09C759.863 306.127 764.291 309.949 769.572 312.554C774.852 315.16 780.899 316.463 787.712 316.463Z" fill="white"/>
<path d="M905.16 342.779V170.811H953.194L1029.59 292.491H1032.4L1030.1 170.811H1065.87V342.779H1022.43L941.696 215.366H938.886L941.185 342.779H905.16Z" fill="white"/>
<path d="M1115.54 342.779V170.811H1153.09V342.779H1115.54Z" fill="white"/>
</svg>
