<svg width="1324" height="513" viewBox="0 0 1324 513" fill="none" xmlns="http://www.w3.org/2000/svg">
<path fill-rule="evenodd" clip-rule="evenodd" d="M356.64 138.744C356.64 133.584 353.115 129.069 348.05 127.744L186.215 85.3882C178.878 83.468 171.686 88.9136 171.686 96.388V415.063C171.686 422.945 179.625 428.441 187.157 425.774L348.992 368.469C353.581 366.844 356.64 362.559 356.64 357.758V346.084L432.891 379.213C440.532 382.532 449.117 377.023 449.117 368.799L449.118 144.038C449.118 135.815 440.532 130.305 432.891 133.625L356.64 166.753V138.744ZM356.64 166.753L309.203 187.363C305.013 189.184 302.31 193.267 302.31 197.776L302.31 315.061C302.31 319.57 305.013 323.654 309.203 325.474L356.64 346.084V166.753Z" fill="#FFF643"/>
<path d="M535.015 342.779V170.811H571.806V247.675C580.493 244.028 588.584 239.424 596.079 233.866C603.744 228.134 610.557 221.793 616.519 214.845C622.48 207.897 627.59 200.688 631.849 193.219C636.107 185.75 639.173 178.28 641.047 170.811H683.204C680.819 179.322 677.157 187.834 672.218 196.346C667.448 204.683 661.742 212.587 655.099 220.056C648.456 227.526 641.387 234.213 633.893 240.119C626.568 245.852 619.159 250.368 611.664 253.668V257.577C619.5 257.577 626.483 258.532 632.615 260.443C638.918 262.18 644.453 265.046 649.223 269.041C654.162 272.863 658.506 277.64 662.253 283.372C666 289.104 669.322 295.965 672.218 303.956L685.759 342.779H644.113L635.17 311.512C632.786 303.001 629.634 296.226 625.717 291.189C621.799 285.977 616.774 282.243 610.642 279.985C604.51 277.553 596.505 276.337 586.625 276.337H571.806V342.779H535.015Z" fill="#121317"/>
<path d="M786.964 346.427C774.701 346.427 763.714 344.516 754.005 340.695C744.296 336.699 735.95 330.967 728.966 323.498C722.153 315.855 716.873 306.561 713.125 295.618C709.548 284.501 707.76 271.82 707.76 257.577C707.76 237.253 711.252 220.491 718.235 207.289C725.219 193.914 734.758 183.926 746.851 177.325C759.115 170.55 772.912 167.163 788.242 167.163C800.165 167.163 810.981 169.161 820.69 173.156C830.399 176.977 838.66 182.71 845.474 190.353C852.457 197.822 857.823 207.202 861.57 218.493C865.318 229.61 867.191 242.377 867.191 256.795C867.191 271.56 865.318 284.501 861.57 295.618C857.823 306.735 852.372 316.115 845.218 323.758C838.235 331.228 829.803 336.873 819.924 340.695C810.045 344.516 799.058 346.427 786.964 346.427ZM787.986 316.463C797.014 316.463 804.594 314.205 810.726 309.688C816.858 305.172 821.542 298.658 824.778 290.146C828.015 281.635 829.633 271.212 829.633 258.879C829.633 246.025 827.929 235.082 824.523 226.049C821.287 217.016 816.517 210.155 810.215 205.465C803.913 200.601 796.248 198.169 787.22 198.169C778.363 198.169 770.783 200.514 764.481 205.205C758.349 209.721 753.579 216.322 750.173 225.007C746.936 233.692 745.318 244.462 745.318 257.316C745.318 266.696 746.255 275.121 748.129 282.59C750.173 289.886 752.983 296.052 756.56 301.09C760.137 306.127 764.566 309.949 769.846 312.554C775.126 315.16 781.173 316.463 787.986 316.463Z" fill="#121317"/>
<path d="M905.434 342.779V170.811H953.468L1029.86 292.491H1032.67L1030.37 170.811H1066.14V342.779H1022.71L941.971 215.366H939.16L941.46 342.779H905.434Z" fill="#121317"/>
<path d="M1115.81 342.779V170.811H1153.37V342.779H1115.81Z" fill="#121317"/>
</svg>
