<svg width="1325" height="513" viewBox="0 0 1325 513" fill="none" xmlns="http://www.w3.org/2000/svg">
<path fill-rule="evenodd" clip-rule="evenodd" d="M356.914 138.744C356.914 133.584 353.388 129.069 348.324 127.744L186.488 85.3882C179.152 83.468 171.959 88.9136 171.959 96.388V415.063C171.959 422.945 179.898 428.441 187.431 425.774L349.266 368.469C353.854 366.844 356.914 362.559 356.914 357.758V346.084L433.165 379.213C440.806 382.532 449.391 377.023 449.391 368.799L449.391 144.038C449.391 135.815 440.806 130.305 433.165 133.625L356.914 166.753V138.744ZM356.914 166.753L309.476 187.363C305.287 189.184 302.583 193.267 302.583 197.776L302.583 315.061C302.583 319.57 305.287 323.654 309.476 325.474L356.914 346.084V166.753Z" fill="#1DE885"/>
<path d="M535.288 342.779V170.811H572.08V247.675C580.767 244.028 588.858 239.424 596.352 233.866C604.017 228.134 610.831 221.793 616.792 214.845C622.754 207.897 627.864 200.688 632.122 193.219C636.38 185.75 639.446 178.28 641.32 170.811H683.477C681.093 179.322 677.431 187.834 672.491 196.346C667.722 204.683 662.016 212.587 655.373 220.056C648.73 227.526 641.661 234.213 634.166 240.119C626.842 245.852 619.432 250.368 611.938 253.668V257.577C619.773 257.577 626.757 258.532 632.889 260.443C639.191 262.18 644.727 265.046 649.496 269.041C654.436 272.863 658.779 277.64 662.527 283.372C666.274 289.104 669.595 295.965 672.491 303.956L686.032 342.779H644.386L635.444 311.512C633.059 303.001 629.908 296.226 625.99 291.189C622.073 285.977 617.048 282.243 610.916 279.985C604.784 277.553 596.778 276.337 586.899 276.337H572.08V342.779H535.288Z" fill="#121317"/>
<path d="M787.238 346.427C774.974 346.427 763.988 344.516 754.279 340.695C744.57 336.699 736.223 330.967 729.24 323.498C722.426 315.855 717.146 306.561 713.399 295.618C709.822 284.501 708.033 271.82 708.033 257.577C708.033 237.253 711.525 220.491 718.509 207.289C725.492 193.914 735.031 183.926 747.125 177.325C759.389 170.55 773.185 167.163 788.515 167.163C800.439 167.163 811.255 169.161 820.964 173.156C830.673 176.977 838.934 182.71 845.747 190.353C852.731 197.822 858.096 207.202 861.844 218.493C865.591 229.61 867.465 242.377 867.465 256.795C867.465 271.56 865.591 284.501 861.844 295.618C858.096 306.735 852.646 316.115 845.492 323.758C838.508 331.228 830.077 336.873 820.197 340.695C810.318 344.516 799.332 346.427 787.238 346.427ZM788.26 316.463C797.288 316.463 804.867 314.205 810.999 309.688C817.131 305.172 821.815 298.658 825.052 290.146C828.288 281.635 829.906 271.212 829.906 258.879C829.906 246.025 828.203 235.082 824.796 226.049C821.56 217.016 816.791 210.155 810.488 205.465C804.186 200.601 796.521 198.169 787.493 198.169C778.636 198.169 771.056 200.514 764.754 205.205C758.622 209.721 753.853 216.322 750.446 225.007C747.21 233.692 745.592 244.462 745.592 257.316C745.592 266.696 746.528 275.121 748.402 282.59C750.446 289.886 753.257 296.052 756.834 301.09C760.411 306.127 764.839 309.949 770.12 312.554C775.4 315.16 781.447 316.463 788.26 316.463Z" fill="#121317"/>
<path d="M905.708 342.779V170.811H953.741L1030.14 292.491H1032.95L1030.65 170.811H1066.42V342.779H1022.98L942.244 215.366H939.433L941.733 342.779H905.708Z" fill="#121317"/>
<path d="M1116.08 342.779V170.811H1153.64V342.779H1116.08Z" fill="#121317"/>
</svg>
