<svg width="1324" height="513" viewBox="0 0 1324 513" fill="none" xmlns="http://www.w3.org/2000/svg">
<path fill-rule="evenodd" clip-rule="evenodd" d="M356.503 138.744C356.503 133.584 352.978 129.069 347.913 127.744L186.078 85.3882C178.741 83.468 171.548 88.9136 171.548 96.388V415.063C171.548 422.945 179.488 428.441 187.02 425.774L348.855 368.469C353.443 366.844 356.503 362.559 356.503 357.758V346.084L432.754 379.213C440.395 382.532 448.98 377.023 448.98 368.799L448.98 144.038C448.98 135.815 440.395 130.305 432.754 133.625L356.503 166.753V138.744ZM356.503 166.753L309.066 187.363C304.876 189.184 302.173 193.267 302.173 197.776L302.173 315.061C302.173 319.57 304.876 323.654 309.066 325.474L356.503 346.084V166.753Z" fill="#121317"/>
<path d="M534.877 342.779V170.811H571.669V247.675C580.356 244.028 588.447 239.424 595.942 233.866C603.607 228.134 610.42 221.793 616.382 214.845C622.343 207.897 627.453 200.688 631.712 193.219C635.97 185.75 639.036 178.28 640.909 170.811H683.067C680.682 179.322 677.02 187.834 672.08 196.346C667.311 204.683 661.605 212.587 654.962 220.056C648.319 227.526 641.25 234.213 633.756 240.119C626.431 245.852 619.022 250.368 611.527 253.668V257.577C619.362 257.577 626.346 258.532 632.478 260.443C638.78 262.18 644.316 265.046 649.085 269.041C654.025 272.863 658.369 277.64 662.116 283.372C665.863 289.104 669.185 295.965 672.08 303.956L685.622 342.779H643.975L635.033 311.512C632.648 303.001 629.497 296.226 625.58 291.189C621.662 285.977 616.637 282.243 610.505 279.985C604.373 277.553 596.368 276.337 586.488 276.337H571.669V342.779H534.877Z" fill="#121317"/>
<path d="M786.827 346.427C774.563 346.427 763.577 344.516 753.868 340.695C744.159 336.699 735.813 330.967 728.829 323.498C722.016 315.855 716.735 306.561 712.988 295.618C709.411 284.501 707.623 271.82 707.623 257.577C707.623 237.253 711.114 220.491 718.098 207.289C725.082 193.914 734.62 183.926 746.714 177.325C758.978 170.55 772.775 167.163 788.105 167.163C800.028 167.163 810.844 169.161 820.553 173.156C830.262 176.977 838.523 182.71 845.337 190.353C852.32 197.822 857.686 207.202 861.433 218.493C865.18 229.61 867.054 242.377 867.054 256.795C867.054 271.56 865.18 284.501 861.433 295.618C857.686 306.735 852.235 316.115 845.081 323.758C838.097 331.228 829.666 336.873 819.787 340.695C809.907 344.516 798.921 346.427 786.827 346.427ZM787.849 316.463C796.877 316.463 804.457 314.205 810.589 309.688C816.721 305.172 821.405 298.658 824.641 290.146C827.877 281.635 829.496 271.212 829.496 258.879C829.496 246.025 827.792 235.082 824.386 226.049C821.149 217.016 816.38 210.155 810.078 205.465C803.775 200.601 796.11 198.169 787.083 198.169C778.226 198.169 770.646 200.514 764.343 205.205C758.211 209.721 753.442 216.322 750.035 225.007C746.799 233.692 745.181 244.462 745.181 257.316C745.181 266.696 746.118 275.121 747.991 282.59C750.035 289.886 752.846 296.052 756.423 301.09C760 306.127 764.429 309.949 769.709 312.554C774.989 315.16 781.036 316.463 787.849 316.463Z" fill="#121317"/>
<path d="M905.297 342.779V170.811H953.331L1029.72 292.491H1032.54L1030.24 170.811H1066.01V342.779H1022.57L941.833 215.366H939.023L941.322 342.779H905.297Z" fill="#121317"/>
<path d="M1115.67 342.779V170.811H1153.23V342.779H1115.67Z" fill="#121317"/>
</svg>
