<svg width="1324" height="513" viewBox="0 0 1324 513" fill="none" xmlns="http://www.w3.org/2000/svg">
<path fill-rule="evenodd" clip-rule="evenodd" d="M355.955 138.744C355.955 133.584 352.429 129.069 347.365 127.744L185.529 85.3882C178.193 83.468 171 88.9136 171 96.388V415.063C171 422.945 178.939 428.441 186.472 425.774L348.307 368.469C352.895 366.844 355.955 362.559 355.955 357.758V346.084L432.206 379.213C439.847 382.532 448.432 377.023 448.432 368.799L448.432 144.038C448.432 135.815 439.847 130.305 432.206 133.625L355.955 166.753V138.744ZM355.955 166.753L308.517 187.363C304.328 189.184 301.624 193.267 301.624 197.776L301.624 315.061C301.624 319.57 304.328 323.654 308.517 325.474L355.955 346.084V166.753Z" fill="white"/>
<path d="M534.329 342.779V170.811H571.121V247.675C579.808 244.028 587.899 239.424 595.393 233.866C603.058 228.134 609.872 221.793 615.833 214.845C621.795 207.897 626.905 200.688 631.163 193.219C635.421 185.75 638.487 178.28 640.361 170.811H682.518C680.134 179.322 676.472 187.834 671.532 196.346C666.763 204.683 661.057 212.587 654.414 220.056C647.771 227.526 640.702 234.213 633.207 240.119C625.883 245.852 618.473 250.368 610.979 253.668V257.577C618.814 257.577 625.798 258.532 631.93 260.443C638.232 262.18 643.768 265.046 648.537 269.041C653.477 272.863 657.82 277.64 661.568 283.372C665.315 289.104 668.636 295.965 671.532 303.956L685.073 342.779H643.427L634.485 311.512C632.1 303.001 628.949 296.226 625.031 291.189C621.114 285.977 616.089 282.243 609.957 279.985C603.825 277.553 595.819 276.337 585.94 276.337H571.121V342.779H534.329Z" fill="white"/>
<path d="M786.279 346.427C774.015 346.427 763.029 344.516 753.32 340.695C743.611 336.699 735.264 330.967 728.281 323.498C721.467 315.855 716.187 306.561 712.44 295.618C708.863 284.501 707.074 271.82 707.074 257.577C707.074 237.253 710.566 220.491 717.55 207.289C724.533 193.914 734.072 183.926 746.166 177.325C758.43 170.55 772.227 167.163 787.556 167.163C799.48 167.163 810.296 169.161 820.005 173.156C829.714 176.977 837.975 182.71 844.788 190.353C851.772 197.822 857.137 207.202 860.885 218.493C864.632 229.61 866.506 242.377 866.506 256.795C866.506 271.56 864.632 284.501 860.885 295.618C857.137 306.735 851.687 316.115 844.533 323.758C837.549 331.228 829.118 336.873 819.238 340.695C809.359 344.516 798.373 346.427 786.279 346.427ZM787.301 316.463C796.329 316.463 803.908 314.205 810.04 309.688C816.172 305.172 820.856 298.658 824.093 290.146C827.329 281.635 828.947 271.212 828.947 258.879C828.947 246.025 827.244 235.082 823.837 226.049C820.601 217.016 815.832 210.155 809.529 205.465C803.227 200.601 795.562 198.169 786.534 198.169C777.677 198.169 770.097 200.514 763.795 205.205C757.663 209.721 752.894 216.322 749.487 225.007C746.251 233.692 744.633 244.462 744.633 257.316C744.633 266.696 745.569 275.121 747.443 282.59C749.487 289.886 752.298 296.052 755.875 301.09C759.452 306.127 763.88 309.949 769.161 312.554C774.441 315.16 780.488 316.463 787.301 316.463Z" fill="white"/>
<path d="M904.749 342.779V170.811H952.782L1029.18 292.491H1031.99L1029.69 170.811H1065.46V342.779H1022.02L941.285 215.366H938.474L940.774 342.779H904.749Z" fill="white"/>
<path d="M1115.12 342.779V170.811H1152.68V342.779H1115.12Z" fill="white"/>
</svg>
