<svg width="500" height="500" viewBox="0 0 500 500" fill="none" xmlns="http://www.w3.org/2000/svg">
<g clip-path="url(#clip0_4086_294)">
<path d="M500 250C500 111.929 388.071 0 250 0C111.929 0 0 111.929 0 250C0 388.071 111.929 500 250 500C388.071 500 500 388.071 500 250Z" fill="#11DE7A"/>
<mask id="mask0_4086_294" style="mask-type:alpha" maskUnits="userSpaceOnUse" x="18" y="11" width="474" height="474">
<path d="M491.315 247.771C491.315 117.231 385.492 11.4072 254.952 11.4072C124.412 11.4072 18.5882 117.231 18.5882 247.771C18.5882 378.311 124.412 484.134 254.952 484.134C385.492 484.134 491.315 378.311 491.315 247.771Z" fill="#6F60F1"/>
</mask>
<g mask="url(#mask0_4086_294)">
<mask id="path-3-outside-1_4086_294" maskUnits="userSpaceOnUse" x="-21.9125" y="54.7706" width="487.495" height="577.17" fill="black">
<rect fill="white" x="-21.9125" y="54.7706" width="487.495" height="577.17"/>
<path d="M247.657 91.1002C174.345 96.7517 116.073 161.286 116.171 238.431L116.232 287.096C116.279 323.879 111.162 360.605 101.042 396.108L59.7261 541.052L351.637 571.46C366.282 523.918 382.635 466.57 391.09 429.56C410.613 344.099 397.514 241.309 395.616 219.211C391.389 169.981 360.829 125.148 316.272 103.809C313.03 114.068 300.395 118.859 289.056 119.978L247.32 126.624C241.539 127.544 235.887 124.067 232.706 118.298C233.75 118.497 234.825 118.527 235.906 118.355L292.38 109.364C301.803 107.863 308.924 98.5804 310.573 87.5953C310.644 85.4761 310.516 83.319 310.17 81.1468L247.657 91.1002Z"/>
</mask>
<path d="M247.657 91.1002C174.345 96.7517 116.073 161.286 116.171 238.431L116.232 287.096C116.279 323.879 111.162 360.605 101.042 396.108L59.7261 541.052L351.637 571.46C366.282 523.918 382.635 466.57 391.09 429.56C410.613 344.099 397.514 241.309 395.616 219.211C391.389 169.981 360.829 125.148 316.272 103.809C313.03 114.068 300.395 118.859 289.056 119.978L247.32 126.624C241.539 127.544 235.887 124.067 232.706 118.298C233.75 118.497 234.825 118.527 235.906 118.355L292.38 109.364C301.803 107.863 308.924 98.5804 310.573 87.5953C310.644 85.4761 310.516 83.319 310.17 81.1468L247.657 91.1002Z" fill="white"/>
<path d="M247.657 91.1002L249.801 104.567C249.438 104.625 249.072 104.668 248.705 104.696L247.657 91.1002ZM116.171 238.431L129.807 238.414L129.807 238.414L116.171 238.431ZM116.232 287.096L102.596 287.114L102.596 287.113L116.232 287.096ZM101.042 396.108L87.9278 392.37L87.9278 392.37L101.042 396.108ZM59.7261 541.052L58.3132 554.615C54.3056 554.197 50.6878 552.029 48.4305 548.691C46.1732 545.353 45.5075 541.188 46.6121 537.313L59.7261 541.052ZM351.637 571.46L364.669 575.475C362.752 581.699 356.701 585.698 350.224 585.023L351.637 571.46ZM391.09 429.56L404.383 432.597L404.383 432.597L391.09 429.56ZM395.616 219.211L382.03 220.378L382.03 220.378L395.616 219.211ZM316.272 103.809L303.269 99.7012C304.459 95.9347 307.223 92.8692 310.847 91.298C314.472 89.7268 318.599 89.8043 322.161 91.5104L316.272 103.809ZM289.056 119.978L286.912 106.511C287.179 106.469 287.448 106.434 287.717 106.408L289.056 119.978ZM247.32 126.624L249.464 140.09L249.464 140.09L247.32 126.624ZM232.706 118.298L220.765 124.884C218.213 120.257 218.564 114.571 221.667 110.293C224.769 106.015 230.064 103.914 235.256 104.903L232.706 118.298ZM235.906 118.355L238.05 131.822L238.049 131.822L235.906 118.355ZM292.38 109.364L294.524 122.83L294.524 122.83L292.38 109.364ZM310.573 87.5953L324.202 88.0525C324.184 88.577 324.136 89.1002 324.058 89.6192L310.573 87.5953ZM310.17 81.1468L308.026 67.6801C311.598 67.1114 315.249 67.9848 318.177 70.1083C321.104 72.2317 323.068 75.4312 323.637 79.0029L310.17 81.1468ZM247.657 91.1002L248.705 104.696C182.893 109.77 129.718 168.003 129.807 238.414L116.171 238.431L102.535 238.449C102.428 154.569 165.798 83.7338 246.609 77.5042L247.657 91.1002ZM116.171 238.431L129.807 238.414L129.869 287.079L116.232 287.096L102.596 287.113L102.535 238.448L116.171 238.431ZM116.232 287.096L129.869 287.079C129.917 325.137 124.623 363.126 114.156 399.847L101.042 396.108L87.9278 392.37C97.7013 358.084 102.641 322.622 102.596 287.114L116.232 287.096ZM101.042 396.108L114.156 399.847L72.8401 544.79L59.7261 541.052L46.6121 537.313L87.9278 392.37L101.042 396.108ZM59.7261 541.052L61.1389 527.489L353.05 557.897L351.637 571.46L350.224 585.023L58.3132 554.615L59.7261 541.052ZM351.637 571.46L338.605 567.446C353.221 519.998 369.455 463.033 377.796 426.523L391.09 429.56L404.383 432.597C395.814 470.106 379.343 527.838 364.669 575.475L351.637 571.46ZM391.09 429.56L377.796 426.523C396.731 343.636 384.006 243.389 382.03 220.378L395.616 219.211L409.203 218.044C411.022 239.228 424.495 344.561 404.383 432.597L391.09 429.56ZM395.616 219.211L382.03 220.378C378.209 175.882 350.513 135.327 310.382 116.108L316.272 103.809L322.161 91.5104C371.145 114.968 404.568 164.08 409.203 218.044L395.616 219.211ZM316.272 103.809L329.274 107.917C326.22 117.587 319.001 123.733 312.048 127.39C305.103 131.043 297.291 132.868 290.396 133.548L289.056 119.978L287.717 106.408C292.161 105.969 296.336 104.839 299.353 103.252C302.362 101.669 303.082 100.291 303.269 99.7012L316.272 103.809ZM289.056 119.978L291.201 133.445L249.464 140.09L247.32 126.624L245.175 113.157L286.912 106.511L289.056 119.978ZM247.32 126.624L249.464 140.09C236.491 142.156 225.9 134.194 220.765 124.884L232.706 118.298L244.646 111.712C245.172 112.666 245.714 113.077 245.901 113.186C245.98 113.232 245.948 113.197 245.794 113.166C245.63 113.132 245.409 113.12 245.175 113.157L247.32 126.624ZM232.706 118.298L235.256 104.903C234.849 104.825 234.333 104.798 233.762 104.889L235.906 118.355L238.049 131.822C235.316 132.257 232.651 132.169 230.155 131.694L232.706 118.298ZM235.906 118.355L233.762 104.889L290.236 95.8968L292.38 109.364L294.524 122.83L238.05 131.822L235.906 118.355ZM292.38 109.364L290.236 95.8968C291.777 95.6514 295.976 92.9782 297.088 85.5714L310.573 87.5953L324.058 89.6192C321.873 104.183 311.829 120.075 294.524 122.83L292.38 109.364ZM310.573 87.5953L296.944 87.1382C296.987 85.8787 296.911 84.5928 296.704 83.2907L310.17 81.1468L323.637 79.0029C324.121 82.0452 324.302 85.0735 324.202 88.0525L310.573 87.5953ZM310.17 81.1468L312.314 94.6135L249.801 104.567L247.657 91.1002L245.513 77.6335L308.026 67.6801L310.17 81.1468Z" fill="#074225" mask="url(#path-3-outside-1_4086_294)"/>
<path d="M319.437 294.007C319.327 287.389 313.356 282.418 306.827 283.512L294.107 285.642C278.196 288.308 261.976 288.576 245.986 286.439L233.202 284.73C226.642 283.854 220.838 289.019 220.947 295.637C221.036 300.991 225.027 305.476 230.335 306.185L242.663 307.833C261.097 310.297 279.795 309.987 298.136 306.915L310.403 304.86C315.685 303.975 319.525 299.361 319.437 294.007Z" fill="#FFC123" stroke="#074225" stroke-width="6.81818"/>
<path d="M341.969 270.382C341.807 260.616 333.152 253.183 323.474 254.499L301.778 257.448C281.115 260.256 260.192 260.603 239.447 258.479L217.666 256.25C207.949 255.256 199.545 262.971 199.706 272.737C199.843 280.994 206.131 287.844 214.346 288.685L236.13 290.914C259.439 293.3 282.949 292.911 306.167 289.755L327.865 286.805C336.047 285.693 342.106 278.639 341.969 270.382Z" fill="#FFC123" stroke="#074225" stroke-width="6.81818"/>
<ellipse cx="15.0491" cy="17.6157" rx="15.0491" ry="17.6157" transform="matrix(-0.999863 0.0165516 0.0165516 0.999863 229.802 193.526)" fill="#074225"/>
<path fill-rule="evenodd" clip-rule="evenodd" d="M334.344 192.967C332.05 190.712 328.362 190.744 326.107 193.039C326.161 192.983 326.148 192.993 326.033 193.082C325.871 193.205 325.511 193.482 324.856 193.946C323.911 194.617 322.662 195.467 321.208 196.439C319.33 197.695 317.197 199.097 315.038 200.516C313.843 201.301 312.64 202.092 311.468 202.866C305.012 207.13 306.952 216.848 314.301 218.561L332.657 222.84C335.79 223.57 338.922 221.622 339.652 218.489C340.383 215.356 338.435 212.224 335.302 211.494L323.67 208.783C325.075 207.857 326.442 206.954 327.684 206.123C329.164 205.133 330.52 204.212 331.598 203.447C332.496 202.81 333.679 201.954 334.416 201.204C336.671 198.91 336.639 195.222 334.344 192.967Z" fill="#074225"/>
<circle cx="216.229" cy="215.739" r="40.9091" transform="rotate(-1.95751 216.229 215.739)" fill="#074225"/>
<circle cx="327.528" cy="211.935" r="40.9091" transform="rotate(-1.95751 327.528 211.935)" fill="#074225"/>
<rect x="249.009" y="210.071" width="45.4545" height="9.09091" rx="4.54545" transform="rotate(-1.95751 249.009 210.071)" fill="#074225"/>
<rect x="207.55" y="227.925" width="37.9331" height="6.81818" rx="3.40909" transform="rotate(-46.9575 207.55 227.925)" fill="white"/>
<rect x="319.985" y="224.083" width="40.9091" height="6.81818" rx="3.40909" transform="rotate(-46.9575 319.985 224.083)" fill="white"/>
<rect x="199.117" y="214.015" width="27.2727" height="7.59587" rx="3.79794" transform="rotate(-46.9575 199.117 214.015)" fill="white"/>
<rect x="311.549" y="210.171" width="27.2727" height="7.59587" rx="3.79794" transform="rotate(-46.9575 311.549 210.171)" fill="white"/>
</g>
<path d="M224.581 10.4365C356.888 -3.60143 475.525 92.2753 489.563 224.583C503.601 356.891 407.724 475.527 275.417 489.565C143.109 503.603 24.4721 407.727 10.4341 275.419C-3.60385 143.111 92.2728 24.4745 224.581 10.4365Z" stroke="#074225" stroke-width="18.1818"/>
</g>
<defs>
<clipPath id="clip0_4086_294">
<rect width="500" height="500" fill="white" transform="matrix(-1 0 0 1 500 0)"/>
</clipPath>
</defs>
</svg>
