<svg width="1324" height="555" viewBox="0 0 1324 555" fill="none" xmlns="http://www.w3.org/2000/svg">
<path d="M555.057 320.926V148.958H591.849V225.823C600.536 222.175 608.627 217.572 616.121 212.013C623.786 206.281 630.6 199.941 636.561 192.993C642.523 186.044 647.633 178.836 651.891 171.366C656.15 163.897 659.216 156.428 661.089 148.958H703.246C700.862 157.47 697.2 165.981 692.26 174.493C687.491 182.831 681.785 190.734 675.142 198.204C668.499 205.673 661.43 212.361 653.935 218.267C646.611 223.999 639.201 228.515 631.707 231.816V235.724C639.542 235.724 646.526 236.679 652.658 238.59C658.96 240.327 664.496 243.193 669.265 247.189C674.205 251.01 678.548 255.787 682.296 261.519C686.043 267.252 689.364 274.113 692.26 282.103L705.801 320.926H664.155L655.213 289.66C652.828 281.148 649.677 274.373 645.759 269.336C641.842 264.125 636.817 260.39 630.685 258.132C624.553 255.7 616.547 254.484 606.668 254.484H591.849V320.926H555.057Z" fill="#121317"/>
<path d="M807.007 324.574C794.743 324.574 783.757 322.664 774.048 318.842C764.339 314.847 755.992 309.115 749.009 301.645C742.195 294.002 736.915 284.709 733.168 273.766C729.591 262.648 727.802 249.968 727.802 235.724C727.802 215.401 731.294 198.638 738.278 185.436C745.261 172.061 754.8 162.073 766.894 155.472C779.158 148.698 792.955 145.311 808.284 145.311C820.208 145.311 831.024 147.308 840.733 151.303C850.442 155.125 858.703 160.857 865.516 168.5C872.5 175.97 877.865 185.35 881.613 196.64C885.36 207.758 887.234 220.525 887.234 234.942C887.234 249.707 885.36 262.648 881.613 273.766C877.865 284.883 872.415 294.263 865.261 301.906C858.277 309.375 849.846 315.021 839.966 318.842C830.087 322.664 819.101 324.574 807.007 324.574ZM808.029 294.61C817.057 294.61 824.636 292.352 830.768 287.836C836.9 283.319 841.585 276.805 844.821 268.294C848.057 259.782 849.675 249.36 849.675 237.027C849.675 224.173 847.972 213.229 844.565 204.197C841.329 195.164 836.56 188.303 830.257 183.613C823.955 178.749 816.29 176.317 807.262 176.317C798.405 176.317 790.825 178.662 784.523 183.352C778.391 187.868 773.622 194.469 770.215 203.154C766.979 211.84 765.361 222.609 765.361 235.464C765.361 244.844 766.298 253.268 768.171 260.738C770.215 268.033 773.026 274.2 776.603 279.237C780.18 284.275 784.608 288.096 789.889 290.702C795.169 293.307 801.216 294.61 808.029 294.61Z" fill="#121317"/>
<path d="M925.477 320.926V148.958H973.51L1049.9 270.639H1052.72L1050.42 148.958H1086.19V320.926H1042.75L962.013 193.514H959.202L961.502 320.926H925.477Z" fill="#121317"/>
<path d="M1135.85 320.926V148.958H1173.41V320.926H1135.85Z" fill="#121317"/>
<path d="M579.748 426.787C575.691 426.787 572.126 426.357 569.053 425.496C566.042 424.636 563.491 423.376 561.401 421.716C559.373 419.996 557.867 417.906 556.884 415.447C555.9 412.989 555.47 410.131 555.593 406.873L563.245 405.214C562.999 408.41 563.522 411.084 564.812 413.235C566.103 415.386 568.07 417.015 570.713 418.121C573.356 419.166 576.459 419.688 580.024 419.688C583.466 419.688 586.385 419.258 588.782 418.397C591.179 417.537 592.962 416.339 594.13 414.802C595.359 413.265 595.974 411.514 595.974 409.547C595.974 407.334 595.267 405.583 593.853 404.292C592.439 403.001 590.534 402.018 588.137 401.342C585.802 400.604 583.189 399.928 580.301 399.314C577.473 398.699 574.646 397.992 571.819 397.193C568.992 396.394 566.441 395.38 564.167 394.151C561.954 392.86 560.141 391.201 558.728 389.172C557.375 387.083 556.699 384.44 556.699 381.244C556.699 377.618 557.591 374.483 559.373 371.84C561.217 369.197 563.798 367.169 567.117 365.755C570.436 364.28 574.339 363.543 578.826 363.543C583.251 363.543 587.184 364.25 590.626 365.663C594.13 367.077 596.895 369.167 598.924 371.932C600.952 374.637 602.028 377.986 602.15 381.981L594.222 383.917C594.222 381.705 593.822 379.769 593.023 378.109C592.286 376.388 591.241 375.005 589.889 373.961C588.537 372.854 586.908 372.025 585.003 371.471C583.097 370.857 581.008 370.549 578.733 370.549C575.968 370.549 573.54 370.98 571.45 371.84C569.361 372.701 567.732 373.868 566.564 375.343C565.396 376.819 564.812 378.57 564.812 380.598C564.812 382.995 565.642 384.901 567.302 386.314C569.022 387.667 571.235 388.742 573.939 389.541C576.644 390.34 579.532 391.078 582.606 391.754C585.248 392.307 587.83 392.983 590.35 393.782C592.931 394.52 595.267 395.534 597.356 396.824C599.446 398.054 601.106 399.682 602.335 401.711C603.564 403.739 604.179 406.32 604.179 409.455C604.179 412.958 603.257 416 601.413 418.582C599.63 421.163 596.926 423.191 593.3 424.667C589.674 426.08 585.156 426.787 579.748 426.787Z" fill="#121317"/>
<path d="M713.526 425.589V364.741H722.008V425.589H713.526ZM694.995 372.117V364.741H740.538V372.117H694.995Z" fill="#121317"/>
<path d="M858.135 426.787C853.71 426.787 849.807 426.049 846.427 424.574C843.108 423.099 840.281 420.979 837.945 418.213C835.671 415.447 833.95 412.159 832.782 408.348C831.614 404.476 831.031 400.143 831.031 395.349C831.031 388.343 832.198 382.504 834.534 377.833C836.869 373.1 840.096 369.535 844.214 367.138C848.332 364.741 853.003 363.543 858.227 363.543C862.345 363.543 866.064 364.25 869.383 365.663C872.702 367.077 875.529 369.167 877.864 371.932C880.261 374.698 882.105 378.079 883.396 382.074C884.687 386.007 885.332 390.494 885.332 395.534C885.332 400.266 884.717 404.569 883.488 408.441C882.32 412.251 880.569 415.54 878.233 418.305C875.959 421.01 873.132 423.099 869.751 424.574C866.433 426.049 862.56 426.787 858.135 426.787ZM858.227 419.504C862.161 419.504 865.48 418.582 868.184 416.738C870.95 414.833 873.04 412.128 874.453 408.625C875.928 405.06 876.666 400.758 876.666 395.718C876.666 390.494 875.928 386.069 874.453 382.442C872.978 378.755 870.858 375.927 868.092 373.961C865.326 371.994 861.977 371.01 858.043 371.01C854.294 371.01 851.036 371.963 848.271 373.868C845.505 375.774 843.384 378.539 841.909 382.166C840.434 385.792 839.697 390.248 839.697 395.534C839.697 399.344 840.096 402.755 840.895 405.767C841.756 408.717 842.954 411.237 844.491 413.327C846.089 415.355 848.025 416.892 850.299 417.937C852.634 418.981 855.277 419.504 858.227 419.504Z" fill="#121317"/>
<path d="M983.784 425.589V364.741H1004.99C1008.06 364.741 1010.86 364.987 1013.38 365.479C1015.96 365.971 1018.23 366.708 1020.2 367.691C1022.23 368.675 1023.92 369.873 1025.27 371.287C1026.68 372.701 1027.73 374.36 1028.41 376.265C1029.14 378.109 1029.51 380.168 1029.51 382.442C1029.51 384.593 1029.17 386.56 1028.5 388.343C1027.88 390.125 1026.93 391.692 1025.64 393.044C1024.35 394.397 1022.75 395.503 1020.85 396.363C1018.94 397.162 1016.73 397.716 1014.21 398.023V399.221C1016.42 399.467 1018.36 400.051 1020.02 400.973C1021.68 401.895 1023.09 403.247 1024.26 405.03C1025.42 406.75 1026.44 409.055 1027.3 411.944L1031.17 425.589H1022.04L1018.91 413.143C1018.36 410.623 1017.4 408.594 1016.05 407.058C1014.76 405.521 1013.13 404.384 1011.17 403.647C1009.2 402.909 1006.89 402.54 1004.25 402.54H992.266V425.589H983.784ZM992.266 395.626H1004.25C1009.72 395.626 1013.84 394.642 1016.6 392.676C1019.43 390.709 1020.85 387.697 1020.85 383.641C1020.85 379.584 1019.49 376.603 1016.79 374.698C1014.15 372.731 1010.03 371.748 1004.44 371.748H992.266V395.626Z" fill="#121317"/>
<path d="M1141.87 425.589V405.951L1120.57 364.741H1130.44L1145.93 397.654H1146.39L1161.78 364.741H1171.65L1150.35 405.859V425.589H1141.87Z" fill="#121317"/>
<g clip-path="url(#clip0_4086_402)">
<path d="M491 277C491 182.559 414.441 106 320 106C225.559 106 149 182.559 149 277C149 371.441 225.559 448 320 448C414.441 448 491 371.441 491 277Z" fill="#11DE7A"/>
<mask id="mask0_4086_402" style="mask-type:alpha" maskUnits="userSpaceOnUse" x="159" y="113" width="324" height="325">
<path d="M482.388 275.474C482.388 186.185 410.005 113.802 320.716 113.802C231.426 113.802 159.043 186.185 159.043 275.474C159.043 364.764 231.426 437.147 320.716 437.147C410.005 437.147 482.388 364.764 482.388 275.474Z" fill="#6F60F1"/>
</mask>
<g mask="url(#mask0_4086_402)">
<path d="M357.75 156.899C358.972 156.705 360.221 157.003 361.222 157.729C362.223 158.456 362.895 159.55 363.089 160.771C363.373 162.553 363.478 164.323 363.42 166.062C363.414 166.241 363.398 166.42 363.372 166.598C363.076 168.573 362.544 170.542 361.797 172.424C362.763 172.243 363.77 172.369 364.672 172.801C396.663 188.121 418.546 220.25 421.577 255.542C422.848 270.344 431.935 341.522 418.38 400.857C412.558 426.343 401.333 465.702 391.305 498.253C390.649 500.381 388.58 501.748 386.365 501.518L186.698 480.718C185.327 480.575 184.09 479.834 183.318 478.692C182.546 477.551 182.318 476.126 182.696 474.801L210.956 375.66C217.759 351.792 221.199 327.104 221.167 302.38L221.125 269.094C221.056 214.094 262.551 167.846 315.165 163.68L357.75 156.899Z" fill="white" stroke="#074225" stroke-width="9.32727" stroke-linejoin="round"/>
<path d="M364.824 307.101C364.749 302.575 360.664 299.175 356.199 299.923L347.498 301.38C336.615 303.203 325.521 303.387 314.583 301.925L305.839 300.756C301.352 300.157 297.382 303.69 297.457 308.217C297.517 311.879 300.247 314.946 303.878 315.432L312.311 316.559C324.919 318.244 337.708 318.032 350.254 315.931L358.645 314.525C362.257 313.92 364.884 310.764 364.824 307.101Z" fill="#FFC123"/>
<path d="M306.148 298.445C300.247 297.656 295.027 302.302 295.126 308.255C295.205 313.071 298.795 317.105 303.569 317.743L312.001 318.87C324.84 320.586 337.864 320.37 350.639 318.23L359.029 316.824C363.78 316.029 367.235 311.878 367.155 307.062C367.056 301.109 361.685 296.639 355.813 297.623L347.113 299.08C336.46 300.865 325.599 301.044 314.892 299.613L306.148 298.445ZM299.788 308.178C299.737 305.077 302.456 302.657 305.53 303.068L314.274 304.236C325.442 305.729 336.771 305.541 347.883 303.68L356.584 302.222C359.643 301.71 362.441 304.039 362.492 307.14C362.533 309.648 360.734 311.811 358.26 312.225L349.868 313.63C337.553 315.693 324.997 315.901 312.62 314.247L304.186 313.12C301.7 312.787 299.83 310.686 299.788 308.178Z" fill="#074225"/>
<path d="M380.236 290.942C380.125 284.262 374.205 279.178 367.585 280.078L352.745 282.095C338.612 284.016 324.3 284.253 310.111 282.801L295.212 281.276C288.566 280.596 282.817 285.873 282.928 292.553C283.021 298.201 287.323 302.886 292.942 303.461L307.842 304.986C323.785 306.618 339.866 306.352 355.747 304.193L370.589 302.176C376.185 301.415 380.329 296.59 380.236 290.942Z" fill="#FFC123"/>
<path d="M295.45 278.957C287.414 278.134 280.463 284.515 280.596 292.592C280.709 299.42 285.91 305.086 292.704 305.782L307.605 307.307C323.732 308.957 339.997 308.688 356.061 306.504L370.903 304.487C377.67 303.568 382.68 297.732 382.567 290.904C382.433 282.827 375.275 276.679 367.271 277.767L352.432 279.785C338.481 281.681 324.353 281.915 310.347 280.482L295.45 278.957ZM285.259 292.515C285.172 287.232 289.718 283.058 294.974 283.596L309.873 285.121C324.246 286.592 338.743 286.352 353.06 284.406L367.899 282.389C373.135 281.678 377.817 285.698 377.904 290.981C377.978 295.447 374.701 299.264 370.274 299.866L355.433 301.884C339.735 304.017 323.839 304.28 308.079 302.667L293.18 301.142C288.736 300.687 285.333 296.981 285.259 292.515Z" fill="#074225"/>
<ellipse cx="10.2936" cy="12.0491" rx="10.2936" ry="12.0491" transform="matrix(-0.999863 0.0165516 0.0165516 0.999863 303.513 238.372)" fill="#074225"/>
<path fill-rule="evenodd" clip-rule="evenodd" d="M375.02 237.989C373.451 236.447 370.928 236.469 369.386 238.038C369.423 238 369.414 238.007 369.335 238.068C369.225 238.152 368.978 238.342 368.53 238.659C367.884 239.118 367.03 239.699 366.035 240.364C364.75 241.224 363.291 242.183 361.815 243.153C360.997 243.69 360.174 244.231 359.373 244.761C354.957 247.677 356.284 254.324 361.311 255.496L373.866 258.422C376.009 258.922 378.151 257.59 378.651 255.447C379.15 253.304 377.818 251.162 375.675 250.662L367.719 248.807C368.68 248.175 369.615 247.557 370.465 246.988C371.477 246.311 372.404 245.681 373.141 245.158C373.756 244.722 374.565 244.137 375.069 243.624C376.612 242.054 376.59 239.532 375.02 237.989Z" fill="#074225"/>
<circle cx="294.229" cy="253.565" r="27.9818" transform="rotate(-1.95751 294.229 253.565)" fill="#074225"/>
<circle cx="370.358" cy="250.965" r="27.9818" transform="rotate(-1.95751 370.358 250.965)" fill="#074225"/>
<rect x="316.651" y="249.69" width="31.0909" height="6.21818" rx="3.10909" transform="rotate(-1.95751 316.651 249.69)" fill="#074225"/>
<rect x="288.292" y="261.9" width="25.9462" height="4.66364" rx="2.33182" transform="rotate(-46.9575 288.292 261.9)" fill="white"/>
<rect x="365.198" y="259.273" width="27.9818" height="4.66364" rx="2.33182" transform="rotate(-46.9575 365.198 259.273)" fill="white"/>
<rect x="282.524" y="252.387" width="18.6545" height="5.19558" rx="2.59779" transform="rotate(-46.9575 282.524 252.387)" fill="white"/>
<rect x="359.428" y="249.759" width="18.6545" height="5.19558" rx="2.59779" transform="rotate(-46.9575 359.428 249.759)" fill="white"/>
</g>
<path d="M302.613 113.138C393.111 103.536 474.259 169.115 483.861 259.613C493.463 350.112 427.884 431.259 337.385 440.861C246.887 450.463 165.739 384.884 156.137 294.386C146.535 203.887 212.114 122.74 302.613 113.138Z" stroke="#074225" stroke-width="12.4364"/>
</g>
<defs>
<clipPath id="clip0_4086_402">
<rect width="342" height="342" fill="white" transform="matrix(-1 0 0 1 491 106)"/>
</clipPath>
</defs>
</svg>
