<svg width="1000" height="1000" viewBox="0 0 1000 1000" fill="none" xmlns="http://www.w3.org/2000/svg">
<g clip-path="url(#clip0_34_139)">
<rect x="260" y="125" width="480" height="480" rx="80" fill="white"/>
<path d="M610 185C637.614 185 660 207.386 660 235V275H680V255H700V235H720V295H710V315H700V325H660V545H640V565H620V525H580V545H560V565H520V525H480V545H460V565H420V525H380V545H360V565H340V325H300V315H290V295H280V235H300V255H320V275H340V235C340 207.386 362.386 185 390 185H610Z" fill="black"/>
<path d="M480 395C485.35 395 489.719 399.202 489.987 404.485L490.013 405.515C490.281 410.798 494.65 415 500 415H520C525.523 415 530 419.477 530 425C530 430.523 525.523 435 520 435H500C483.431 435 470 421.569 470 405C470 399.477 474.477 395 480 395ZM440 275C462.091 275 480 292.909 480 315V335C480 357.091 462.091 375 440 375C417.909 375 400 357.091 400 335V315C400 292.909 417.909 275 440 275ZM570 295C586.569 295 600 308.431 600 325V345C600 361.569 586.569 375 570 375C553.431 375 540 361.569 540 345V325C540 308.431 553.431 295 570 295Z" fill="white"/>
</g>
<path d="M246.828 835H168.391V722.969H190.812V812.578H246.828V835ZM324.484 790.234V767.812C324.484 764.74 323.885 761.849 322.688 759.141C321.542 756.38 319.953 753.984 317.922 751.953C315.891 749.922 313.495 748.333 310.734 747.188C308.026 745.99 305.135 745.391 302.062 745.391C298.99 745.391 296.073 745.99 293.312 747.188C290.604 748.333 288.234 749.922 286.203 751.953C284.172 753.984 282.557 756.38 281.359 759.141C280.214 761.849 279.641 764.74 279.641 767.812V790.234H324.484ZM346.906 835H324.484V812.578H279.641V835H257.297V767.812C257.297 761.615 258.469 755.807 260.812 750.391C263.156 744.922 266.333 740.156 270.344 736.094C274.406 732.031 279.146 728.828 284.562 726.484C290.031 724.141 295.865 722.969 302.062 722.969C308.26 722.969 314.068 724.141 319.484 726.484C324.953 728.828 329.719 732.031 333.781 736.094C337.844 740.156 341.047 744.922 343.391 750.391C345.734 755.807 346.906 761.615 346.906 767.812V835ZM477.531 835H455.188V755C455.188 753.438 454.875 751.979 454.25 750.625C453.677 749.271 452.87 748.099 451.828 747.109C450.839 746.068 449.667 745.26 448.312 744.688C446.958 744.115 445.5 743.828 443.938 743.828C442.375 743.828 440.917 744.115 439.562 744.688C438.208 745.26 437.01 746.068 435.969 747.109C434.979 748.099 434.198 749.271 433.625 750.625C433.052 751.979 432.766 753.438 432.766 755V835H410.344V755C410.344 753.438 410.057 751.979 409.484 750.625C408.911 749.271 408.104 748.099 407.062 747.109C406.073 746.068 404.901 745.26 403.547 744.688C402.193 744.115 400.734 743.828 399.172 743.828C397.609 743.828 396.151 744.115 394.797 744.688C393.443 745.26 392.245 746.068 391.203 747.109C390.214 748.099 389.432 749.271 388.859 750.625C388.286 751.979 388 753.438 388 755V835H365.578V755C365.578 750.365 366.438 746.016 368.156 741.953C369.927 737.839 372.323 734.271 375.344 731.25C378.417 728.177 381.984 725.781 386.047 724.062C390.161 722.292 394.536 721.406 399.172 721.406C403.339 721.406 407.349 722.161 411.203 723.672C415.057 725.13 418.521 727.266 421.594 730.078C424.667 727.266 428.104 725.13 431.906 723.672C435.76 722.161 439.771 721.406 443.938 721.406C448.573 721.406 452.922 722.292 456.984 724.062C461.099 725.781 464.667 728.177 467.688 731.25C470.76 734.271 473.156 737.839 474.875 741.953C476.646 746.016 477.531 750.365 477.531 755V835ZM587.219 801.406C587.219 806.042 586.333 810.391 584.562 814.453C582.792 818.516 580.37 822.083 577.297 825.156C574.276 828.177 570.734 830.573 566.672 832.344C562.609 834.115 558.26 835 553.625 835H497.609V722.969H553.625C558.26 722.969 562.609 723.854 566.672 725.625C570.734 727.396 574.276 729.818 577.297 732.891C580.37 735.911 582.792 739.453 584.562 743.516C586.333 747.578 587.219 751.927 587.219 756.562C587.219 758.646 586.932 760.781 586.359 762.969C585.786 765.156 584.979 767.266 583.938 769.297C582.896 771.328 581.646 773.177 580.188 774.844C578.729 776.51 577.115 777.891 575.344 778.984C577.167 779.974 578.807 781.328 580.266 783.047C581.724 784.714 582.974 786.562 584.016 788.594C585.057 790.625 585.839 792.76 586.359 795C586.932 797.188 587.219 799.323 587.219 801.406ZM520.031 812.578H553.625C555.188 812.578 556.646 812.292 558 811.719C559.354 811.146 560.526 810.365 561.516 809.375C562.557 808.333 563.365 807.135 563.938 805.781C564.51 804.427 564.797 802.969 564.797 801.406C564.797 799.844 564.51 798.385 563.938 797.031C563.365 795.677 562.557 794.505 561.516 793.516C560.526 792.474 559.354 791.667 558 791.094C556.646 790.521 555.188 790.234 553.625 790.234H520.031V812.578ZM520.031 767.812H553.625C555.188 767.812 556.646 767.526 558 766.953C559.354 766.38 560.526 765.599 561.516 764.609C562.557 763.568 563.365 762.37 563.938 761.016C564.51 759.609 564.797 758.125 564.797 756.562C564.797 755 564.51 753.542 563.938 752.188C563.365 750.833 562.557 749.661 561.516 748.672C560.526 747.63 559.354 746.823 558 746.25C556.646 745.677 555.188 745.391 553.625 745.391H520.031V767.812ZM713.938 779.453C713.938 784.766 713.234 789.896 711.828 794.844C710.474 799.74 708.547 804.349 706.047 808.672C703.547 812.943 700.526 816.849 696.984 820.391C693.443 823.932 689.536 826.979 685.266 829.531C680.995 832.031 676.385 833.958 671.438 835.312C666.49 836.719 661.359 837.422 656.047 837.422C650.734 837.422 645.604 836.719 640.656 835.312C635.76 833.958 631.151 832.031 626.828 829.531C622.557 826.979 618.651 823.932 615.109 820.391C611.568 816.849 608.521 812.943 605.969 808.672C603.469 804.349 601.516 799.74 600.109 794.844C598.755 789.896 598.078 784.766 598.078 779.453C598.078 774.141 598.755 769.01 600.109 764.062C601.516 759.115 603.469 754.505 605.969 750.234C608.521 745.964 611.568 742.057 615.109 738.516C618.651 734.974 622.557 731.953 626.828 729.453C631.151 726.953 635.76 725.026 640.656 723.672C645.604 722.266 650.734 721.562 656.047 721.562C661.359 721.562 666.49 722.266 671.438 723.672C676.385 725.026 680.995 726.953 685.266 729.453C689.536 731.953 693.443 734.974 696.984 738.516C700.526 742.057 703.547 745.964 706.047 750.234C708.547 754.505 710.474 759.115 711.828 764.062C713.234 769.01 713.938 774.141 713.938 779.453ZM691.672 779.453C691.672 774.557 690.734 769.948 688.859 765.625C686.984 761.25 684.432 757.474 681.203 754.297C678.026 751.068 674.25 748.516 669.875 746.641C665.552 744.766 660.943 743.828 656.047 743.828C651.099 743.828 646.464 744.766 642.141 746.641C637.818 748.516 634.042 751.068 630.812 754.297C627.583 757.474 625.031 761.25 623.156 765.625C621.281 769.948 620.344 774.557 620.344 779.453C620.344 784.349 621.281 788.958 623.156 793.281C625.031 797.552 627.583 801.302 630.812 804.531C634.042 807.76 637.818 810.312 642.141 812.188C646.464 814.062 651.099 815 656.047 815C660.943 815 665.552 814.062 669.875 812.188C674.25 810.312 678.026 807.76 681.203 804.531C684.432 801.302 686.984 797.552 688.859 793.281C690.734 788.958 691.672 784.349 691.672 779.453ZM838.469 779.453C838.469 784.766 837.766 789.896 836.359 794.844C835.005 799.74 833.078 804.349 830.578 808.672C828.078 812.943 825.057 816.849 821.516 820.391C817.974 823.932 814.068 826.979 809.797 829.531C805.526 832.031 800.917 833.958 795.969 835.312C791.021 836.719 785.891 837.422 780.578 837.422C775.266 837.422 770.135 836.719 765.188 835.312C760.292 833.958 755.682 832.031 751.359 829.531C747.089 826.979 743.182 823.932 739.641 820.391C736.099 816.849 733.052 812.943 730.5 808.672C728 804.349 726.047 799.74 724.641 794.844C723.286 789.896 722.609 784.766 722.609 779.453C722.609 774.141 723.286 769.01 724.641 764.062C726.047 759.115 728 754.505 730.5 750.234C733.052 745.964 736.099 742.057 739.641 738.516C743.182 734.974 747.089 731.953 751.359 729.453C755.682 726.953 760.292 725.026 765.188 723.672C770.135 722.266 775.266 721.562 780.578 721.562C785.891 721.562 791.021 722.266 795.969 723.672C800.917 725.026 805.526 726.953 809.797 729.453C814.068 731.953 817.974 734.974 821.516 738.516C825.057 742.057 828.078 745.964 830.578 750.234C833.078 754.505 835.005 759.115 836.359 764.062C837.766 769.01 838.469 774.141 838.469 779.453ZM816.203 779.453C816.203 774.557 815.266 769.948 813.391 765.625C811.516 761.25 808.964 757.474 805.734 754.297C802.557 751.068 798.781 748.516 794.406 746.641C790.083 744.766 785.474 743.828 780.578 743.828C775.63 743.828 770.995 744.766 766.672 746.641C762.349 748.516 758.573 751.068 755.344 754.297C752.115 757.474 749.562 761.25 747.688 765.625C745.812 769.948 744.875 774.557 744.875 779.453C744.875 784.349 745.812 788.958 747.688 793.281C749.562 797.552 752.115 801.302 755.344 804.531C758.573 807.76 762.349 810.312 766.672 812.188C770.995 814.062 775.63 815 780.578 815C785.474 815 790.083 814.062 794.406 812.188C798.781 810.312 802.557 807.76 805.734 804.531C808.964 801.302 811.516 797.552 813.391 793.281C815.266 788.958 816.203 784.349 816.203 779.453Z" fill="black"/>
<defs>
<clipPath id="clip0_34_139">
<rect width="480" height="480" fill="white" transform="translate(260 125)"/>
</clipPath>
</defs>
</svg>
