<svg width="685" height="751" viewBox="0 0 685 751" fill="none" xmlns="http://www.w3.org/2000/svg">
<g clip-path="url(#clip0_34_276)">
<rect x="102" width="480" height="480" rx="80" fill="black"/>
<path d="M452 60C479.614 60 502 82.3858 502 110V150H522V130H542V110H562V170H552V190H542V200H502V420H482V440H462V400H422V420H402V440H362V400H322V420H302V440H262V400H222V420H202V440H182V200H142V190H132V170H122V110H142V130H162V150H182V110C182 82.3858 204.386 60 232 60H452Z" fill="white"/>
<path d="M322 270C327.35 270 331.719 274.202 331.987 279.485L332.013 280.515C332.281 285.798 336.65 290 342 290H362C367.523 290 372 294.477 372 300C372 305.523 367.523 310 362 310H342C325.431 310 312 296.569 312 280C312 274.477 316.477 270 322 270ZM282 150C304.091 150 322 167.909 322 190V210C322 232.091 304.091 250 282 250C259.909 250 242 232.091 242 210V190C242 167.909 259.909 150 282 150ZM412 170C428.569 170 442 183.431 442 200V220C442 236.569 428.569 250 412 250C395.431 250 382 236.569 382 220V200C382 183.431 395.431 170 412 170Z" fill="black"/>
</g>
<path d="M88.8281 710H10.3906V597.969H32.8125V687.578H88.8281V710ZM166.484 665.234V642.812C166.484 639.74 165.885 636.849 164.688 634.141C163.542 631.38 161.953 628.984 159.922 626.953C157.891 624.922 155.495 623.333 152.734 622.188C150.026 620.99 147.135 620.391 144.062 620.391C140.99 620.391 138.073 620.99 135.312 622.188C132.604 623.333 130.234 624.922 128.203 626.953C126.172 628.984 124.557 631.38 123.359 634.141C122.214 636.849 121.641 639.74 121.641 642.812V665.234H166.484ZM188.906 710H166.484V687.578H121.641V710H99.2969V642.812C99.2969 636.615 100.469 630.807 102.812 625.391C105.156 619.922 108.333 615.156 112.344 611.094C116.406 607.031 121.146 603.828 126.562 601.484C132.031 599.141 137.865 597.969 144.062 597.969C150.26 597.969 156.068 599.141 161.484 601.484C166.953 603.828 171.719 607.031 175.781 611.094C179.844 615.156 183.047 619.922 185.391 625.391C187.734 630.807 188.906 636.615 188.906 642.812V710ZM319.531 710H297.188V630C297.188 628.438 296.875 626.979 296.25 625.625C295.677 624.271 294.87 623.099 293.828 622.109C292.839 621.068 291.667 620.26 290.312 619.688C288.958 619.115 287.5 618.828 285.938 618.828C284.375 618.828 282.917 619.115 281.562 619.688C280.208 620.26 279.01 621.068 277.969 622.109C276.979 623.099 276.198 624.271 275.625 625.625C275.052 626.979 274.766 628.438 274.766 630V710H252.344V630C252.344 628.438 252.057 626.979 251.484 625.625C250.911 624.271 250.104 623.099 249.062 622.109C248.073 621.068 246.901 620.26 245.547 619.688C244.193 619.115 242.734 618.828 241.172 618.828C239.609 618.828 238.151 619.115 236.797 619.688C235.443 620.26 234.245 621.068 233.203 622.109C232.214 623.099 231.432 624.271 230.859 625.625C230.286 626.979 230 628.438 230 630V710H207.578V630C207.578 625.365 208.438 621.016 210.156 616.953C211.927 612.839 214.323 609.271 217.344 606.25C220.417 603.177 223.984 600.781 228.047 599.062C232.161 597.292 236.536 596.406 241.172 596.406C245.339 596.406 249.349 597.161 253.203 598.672C257.057 600.13 260.521 602.266 263.594 605.078C266.667 602.266 270.104 600.13 273.906 598.672C277.76 597.161 281.771 596.406 285.938 596.406C290.573 596.406 294.922 597.292 298.984 599.062C303.099 600.781 306.667 603.177 309.688 606.25C312.76 609.271 315.156 612.839 316.875 616.953C318.646 621.016 319.531 625.365 319.531 630V710ZM429.219 676.406C429.219 681.042 428.333 685.391 426.562 689.453C424.792 693.516 422.37 697.083 419.297 700.156C416.276 703.177 412.734 705.573 408.672 707.344C404.609 709.115 400.26 710 395.625 710H339.609V597.969H395.625C400.26 597.969 404.609 598.854 408.672 600.625C412.734 602.396 416.276 604.818 419.297 607.891C422.37 610.911 424.792 614.453 426.562 618.516C428.333 622.578 429.219 626.927 429.219 631.562C429.219 633.646 428.932 635.781 428.359 637.969C427.786 640.156 426.979 642.266 425.938 644.297C424.896 646.328 423.646 648.177 422.188 649.844C420.729 651.51 419.115 652.891 417.344 653.984C419.167 654.974 420.807 656.328 422.266 658.047C423.724 659.714 424.974 661.562 426.016 663.594C427.057 665.625 427.839 667.76 428.359 670C428.932 672.188 429.219 674.323 429.219 676.406ZM362.031 687.578H395.625C397.188 687.578 398.646 687.292 400 686.719C401.354 686.146 402.526 685.365 403.516 684.375C404.557 683.333 405.365 682.135 405.938 680.781C406.51 679.427 406.797 677.969 406.797 676.406C406.797 674.844 406.51 673.385 405.938 672.031C405.365 670.677 404.557 669.505 403.516 668.516C402.526 667.474 401.354 666.667 400 666.094C398.646 665.521 397.188 665.234 395.625 665.234H362.031V687.578ZM362.031 642.812H395.625C397.188 642.812 398.646 642.526 400 641.953C401.354 641.38 402.526 640.599 403.516 639.609C404.557 638.568 405.365 637.37 405.938 636.016C406.51 634.609 406.797 633.125 406.797 631.562C406.797 630 406.51 628.542 405.938 627.188C405.365 625.833 404.557 624.661 403.516 623.672C402.526 622.63 401.354 621.823 400 621.25C398.646 620.677 397.188 620.391 395.625 620.391H362.031V642.812ZM555.938 654.453C555.938 659.766 555.234 664.896 553.828 669.844C552.474 674.74 550.547 679.349 548.047 683.672C545.547 687.943 542.526 691.849 538.984 695.391C535.443 698.932 531.536 701.979 527.266 704.531C522.995 707.031 518.385 708.958 513.438 710.312C508.49 711.719 503.359 712.422 498.047 712.422C492.734 712.422 487.604 711.719 482.656 710.312C477.76 708.958 473.151 707.031 468.828 704.531C464.557 701.979 460.651 698.932 457.109 695.391C453.568 691.849 450.521 687.943 447.969 683.672C445.469 679.349 443.516 674.74 442.109 669.844C440.755 664.896 440.078 659.766 440.078 654.453C440.078 649.141 440.755 644.01 442.109 639.062C443.516 634.115 445.469 629.505 447.969 625.234C450.521 620.964 453.568 617.057 457.109 613.516C460.651 609.974 464.557 606.953 468.828 604.453C473.151 601.953 477.76 600.026 482.656 598.672C487.604 597.266 492.734 596.562 498.047 596.562C503.359 596.562 508.49 597.266 513.438 598.672C518.385 600.026 522.995 601.953 527.266 604.453C531.536 606.953 535.443 609.974 538.984 613.516C542.526 617.057 545.547 620.964 548.047 625.234C550.547 629.505 552.474 634.115 553.828 639.062C555.234 644.01 555.938 649.141 555.938 654.453ZM533.672 654.453C533.672 649.557 532.734 644.948 530.859 640.625C528.984 636.25 526.432 632.474 523.203 629.297C520.026 626.068 516.25 623.516 511.875 621.641C507.552 619.766 502.943 618.828 498.047 618.828C493.099 618.828 488.464 619.766 484.141 621.641C479.818 623.516 476.042 626.068 472.812 629.297C469.583 632.474 467.031 636.25 465.156 640.625C463.281 644.948 462.344 649.557 462.344 654.453C462.344 659.349 463.281 663.958 465.156 668.281C467.031 672.552 469.583 676.302 472.812 679.531C476.042 682.76 479.818 685.312 484.141 687.188C488.464 689.062 493.099 690 498.047 690C502.943 690 507.552 689.062 511.875 687.188C516.25 685.312 520.026 682.76 523.203 679.531C526.432 676.302 528.984 672.552 530.859 668.281C532.734 663.958 533.672 659.349 533.672 654.453ZM680.469 654.453C680.469 659.766 679.766 664.896 678.359 669.844C677.005 674.74 675.078 679.349 672.578 683.672C670.078 687.943 667.057 691.849 663.516 695.391C659.974 698.932 656.068 701.979 651.797 704.531C647.526 707.031 642.917 708.958 637.969 710.312C633.021 711.719 627.891 712.422 622.578 712.422C617.266 712.422 612.135 711.719 607.188 710.312C602.292 708.958 597.682 707.031 593.359 704.531C589.089 701.979 585.182 698.932 581.641 695.391C578.099 691.849 575.052 687.943 572.5 683.672C570 679.349 568.047 674.74 566.641 669.844C565.286 664.896 564.609 659.766 564.609 654.453C564.609 649.141 565.286 644.01 566.641 639.062C568.047 634.115 570 629.505 572.5 625.234C575.052 620.964 578.099 617.057 581.641 613.516C585.182 609.974 589.089 606.953 593.359 604.453C597.682 601.953 602.292 600.026 607.188 598.672C612.135 597.266 617.266 596.562 622.578 596.562C627.891 596.562 633.021 597.266 637.969 598.672C642.917 600.026 647.526 601.953 651.797 604.453C656.068 606.953 659.974 609.974 663.516 613.516C667.057 617.057 670.078 620.964 672.578 625.234C675.078 629.505 677.005 634.115 678.359 639.062C679.766 644.01 680.469 649.141 680.469 654.453ZM658.203 654.453C658.203 649.557 657.266 644.948 655.391 640.625C653.516 636.25 650.964 632.474 647.734 629.297C644.557 626.068 640.781 623.516 636.406 621.641C632.083 619.766 627.474 618.828 622.578 618.828C617.63 618.828 612.995 619.766 608.672 621.641C604.349 623.516 600.573 626.068 597.344 629.297C594.115 632.474 591.562 636.25 589.688 640.625C587.812 644.948 586.875 649.557 586.875 654.453C586.875 659.349 587.812 663.958 589.688 668.281C591.562 672.552 594.115 676.302 597.344 679.531C600.573 682.76 604.349 685.312 608.672 687.188C612.995 689.062 617.63 690 622.578 690C627.474 690 632.083 689.062 636.406 687.188C640.781 685.312 644.557 682.76 647.734 679.531C650.964 676.302 653.516 672.552 655.391 668.281C657.266 663.958 658.203 659.349 658.203 654.453Z" fill="black"/>
<defs>
<clipPath id="clip0_34_276">
<rect width="480" height="480" fill="white" transform="translate(102)"/>
</clipPath>
</defs>
</svg>
