<svg width="2519" height="1000" viewBox="0 0 2519 1000" fill="none" xmlns="http://www.w3.org/2000/svg">
<g clip-path="url(#clip0_34_207)">
<rect x="332" y="260" width="480" height="480" rx="80" fill="white"/>
<path d="M682 320C709.614 320 732 342.386 732 370V410H752V390H772V370H792V430H782V450H772V460H732V680H712V700H692V660H652V680H632V700H592V660H552V680H532V700H492V660H452V680H432V700H412V460H372V450H362V430H352V370H372V390H392V410H412V370C412 342.386 434.386 320 462 320H682Z" fill="black"/>
<path d="M552 530C557.35 530 561.719 534.202 561.987 539.485L562.013 540.515C562.281 545.798 566.65 550 572 550H592C597.523 550 602 554.477 602 560C602 565.523 597.523 570 592 570H572C555.431 570 542 556.569 542 540C542 534.477 546.477 530 552 530ZM512 410C534.091 410 552 427.909 552 450V470C552 492.091 534.091 510 512 510C489.909 510 472 492.091 472 470V450C472 427.909 489.909 410 512 410ZM642 430C658.569 430 672 443.431 672 460V480C672 496.569 658.569 510 642 510C625.431 510 612 496.569 612 480V460C612 443.431 625.431 430 642 430Z" fill="white"/>
</g>
<path d="M1068.55 619H921.482V408.941H963.523V576.959H1068.55V619ZM1214.16 535.064V493.023C1214.16 487.262 1213.04 481.842 1210.79 476.764C1208.64 471.588 1205.66 467.096 1201.85 463.287C1198.04 459.479 1193.55 456.5 1188.38 454.352C1183.3 452.105 1177.88 450.982 1172.12 450.982C1166.36 450.982 1160.89 452.105 1155.71 454.352C1150.63 456.5 1146.19 459.479 1142.38 463.287C1138.57 467.096 1135.54 471.588 1133.3 476.764C1131.15 481.842 1130.08 487.262 1130.08 493.023V535.064H1214.16ZM1256.2 619H1214.16V576.959H1130.08V619H1088.18V493.023C1088.18 481.402 1090.38 470.514 1094.77 460.357C1099.17 450.104 1105.12 441.168 1112.64 433.551C1120.26 425.934 1129.15 419.928 1139.3 415.533C1149.56 411.139 1160.5 408.941 1172.12 408.941C1183.74 408.941 1194.63 411.139 1204.78 415.533C1215.04 419.928 1223.97 425.934 1231.59 433.551C1239.21 441.168 1245.21 450.104 1249.61 460.357C1254 470.514 1256.2 481.402 1256.2 493.023V619ZM1501.12 619H1459.23V469C1459.23 466.07 1458.64 463.336 1457.47 460.797C1456.39 458.258 1454.88 456.061 1452.93 454.205C1451.07 452.252 1448.88 450.738 1446.34 449.664C1443.8 448.59 1441.06 448.053 1438.13 448.053C1435.2 448.053 1432.47 448.59 1429.93 449.664C1427.39 450.738 1425.14 452.252 1423.19 454.205C1421.34 456.061 1419.87 458.258 1418.8 460.797C1417.72 463.336 1417.19 466.07 1417.19 469V619H1375.14V469C1375.14 466.07 1374.61 463.336 1373.53 460.797C1372.46 458.258 1370.95 456.061 1368.99 454.205C1367.14 452.252 1364.94 450.738 1362.4 449.664C1359.86 448.59 1357.13 448.053 1354.2 448.053C1351.27 448.053 1348.53 448.59 1345.99 449.664C1343.46 450.738 1341.21 452.252 1339.26 454.205C1337.4 456.061 1335.94 458.258 1334.86 460.797C1333.79 463.336 1333.25 466.07 1333.25 469V619H1291.21V469C1291.21 460.309 1292.82 452.154 1296.04 444.537C1299.36 436.822 1303.86 430.133 1309.52 424.469C1315.28 418.707 1321.97 414.215 1329.59 410.992C1337.3 407.672 1345.51 406.012 1354.2 406.012C1362.01 406.012 1369.53 407.428 1376.76 410.26C1383.98 412.994 1390.48 416.998 1396.24 422.271C1402 416.998 1408.45 412.994 1415.57 410.26C1422.8 407.428 1430.32 406.012 1438.13 406.012C1446.82 406.012 1454.98 407.672 1462.6 410.992C1470.31 414.215 1477 418.707 1482.66 424.469C1488.43 430.133 1492.92 436.822 1496.14 444.537C1499.46 452.154 1501.12 460.309 1501.12 469V619ZM1706.79 556.012C1706.79 564.703 1705.12 572.857 1701.8 580.475C1698.48 588.092 1693.94 594.781 1688.18 600.543C1682.52 606.207 1675.88 610.699 1668.26 614.02C1660.64 617.34 1652.49 619 1643.8 619H1538.77V408.941H1643.8C1652.49 408.941 1660.64 410.602 1668.26 413.922C1675.88 417.242 1682.52 421.783 1688.18 427.545C1693.94 433.209 1698.48 439.85 1701.8 447.467C1705.12 455.084 1706.79 463.238 1706.79 471.93C1706.79 475.836 1706.25 479.84 1705.17 483.941C1704.1 488.043 1702.59 491.998 1700.63 495.807C1698.68 499.615 1696.34 503.082 1693.6 506.207C1690.87 509.332 1687.84 511.92 1684.52 513.971C1687.94 515.826 1691.01 518.365 1693.75 521.588C1696.48 524.713 1698.83 528.18 1700.78 531.988C1702.73 535.797 1704.2 539.801 1705.17 544C1706.25 548.102 1706.79 552.105 1706.79 556.012ZM1580.81 576.959H1643.8C1646.73 576.959 1649.46 576.422 1652 575.348C1654.54 574.273 1656.74 572.809 1658.59 570.953C1660.54 569 1662.06 566.754 1663.13 564.215C1664.21 561.676 1664.74 558.941 1664.74 556.012C1664.74 553.082 1664.21 550.348 1663.13 547.809C1662.06 545.27 1660.54 543.072 1658.59 541.217C1656.74 539.264 1654.54 537.75 1652 536.676C1649.46 535.602 1646.73 535.064 1643.8 535.064H1580.81V576.959ZM1580.81 493.023H1643.8C1646.73 493.023 1649.46 492.486 1652 491.412C1654.54 490.338 1656.74 488.873 1658.59 487.018C1660.54 485.064 1662.06 482.818 1663.13 480.279C1664.21 477.643 1664.74 474.859 1664.74 471.93C1664.74 469 1664.21 466.266 1663.13 463.727C1662.06 461.188 1660.54 458.99 1658.59 457.135C1656.74 455.182 1654.54 453.668 1652 452.594C1649.46 451.52 1646.73 450.982 1643.8 450.982H1580.81V493.023ZM1944.38 514.85C1944.38 524.811 1943.06 534.43 1940.43 543.707C1937.89 552.887 1934.28 561.529 1929.59 569.635C1924.9 577.643 1919.24 584.967 1912.6 591.607C1905.96 598.248 1898.63 603.961 1890.62 608.746C1882.62 613.434 1873.97 617.047 1864.7 619.586C1855.42 622.223 1845.8 623.541 1835.84 623.541C1825.88 623.541 1816.26 622.223 1806.98 619.586C1797.8 617.047 1789.16 613.434 1781.05 608.746C1773.04 603.961 1765.72 598.248 1759.08 591.607C1752.44 584.967 1746.73 577.643 1741.94 569.635C1737.25 561.529 1733.59 552.887 1730.96 543.707C1728.42 534.43 1727.15 524.811 1727.15 514.85C1727.15 504.889 1728.42 495.27 1730.96 485.992C1733.59 476.715 1737.25 468.072 1741.94 460.064C1746.73 452.057 1752.44 444.732 1759.08 438.092C1765.72 431.451 1773.04 425.787 1781.05 421.1C1789.16 416.412 1797.8 412.799 1806.98 410.26C1816.26 407.623 1825.88 406.305 1835.84 406.305C1845.8 406.305 1855.42 407.623 1864.7 410.26C1873.97 412.799 1882.62 416.412 1890.62 421.1C1898.63 425.787 1905.96 431.451 1912.6 438.092C1919.24 444.732 1924.9 452.057 1929.59 460.064C1934.28 468.072 1937.89 476.715 1940.43 485.992C1943.06 495.27 1944.38 504.889 1944.38 514.85ZM1902.63 514.85C1902.63 505.67 1900.88 497.027 1897.36 488.922C1893.85 480.719 1889.06 473.639 1883.01 467.682C1877.05 461.627 1869.97 456.842 1861.77 453.326C1853.66 449.811 1845.02 448.053 1835.84 448.053C1826.56 448.053 1817.87 449.811 1809.76 453.326C1801.66 456.842 1794.58 461.627 1788.52 467.682C1782.47 473.639 1777.68 480.719 1774.17 488.922C1770.65 497.027 1768.89 505.67 1768.89 514.85C1768.89 524.029 1770.65 532.672 1774.17 540.777C1777.68 548.785 1782.47 555.816 1788.52 561.871C1794.58 567.926 1801.66 572.711 1809.76 576.227C1817.87 579.742 1826.56 581.5 1835.84 581.5C1845.02 581.5 1853.66 579.742 1861.77 576.227C1869.97 572.711 1877.05 567.926 1883.01 561.871C1889.06 555.816 1893.85 548.785 1897.36 540.777C1900.88 532.672 1902.63 524.029 1902.63 514.85ZM2177.88 514.85C2177.88 524.811 2176.56 534.43 2173.92 543.707C2171.38 552.887 2167.77 561.529 2163.08 569.635C2158.4 577.643 2152.73 584.967 2146.09 591.607C2139.45 598.248 2132.13 603.961 2124.12 608.746C2116.11 613.434 2107.47 617.047 2098.19 619.586C2088.91 622.223 2079.29 623.541 2069.33 623.541C2059.37 623.541 2049.75 622.223 2040.48 619.586C2031.3 617.047 2022.65 613.434 2014.55 608.746C2006.54 603.961 1999.22 598.248 1992.58 591.607C1985.94 584.967 1980.22 577.643 1975.44 569.635C1970.75 561.529 1967.09 552.887 1964.45 543.707C1961.91 534.43 1960.64 524.811 1960.64 514.85C1960.64 504.889 1961.91 495.27 1964.45 485.992C1967.09 476.715 1970.75 468.072 1975.44 460.064C1980.22 452.057 1985.94 444.732 1992.58 438.092C1999.22 431.451 2006.54 425.787 2014.55 421.1C2022.65 416.412 2031.3 412.799 2040.48 410.26C2049.75 407.623 2059.37 406.305 2069.33 406.305C2079.29 406.305 2088.91 407.623 2098.19 410.26C2107.47 412.799 2116.11 416.412 2124.12 421.1C2132.13 425.787 2139.45 431.451 2146.09 438.092C2152.73 444.732 2158.4 452.057 2163.08 460.064C2167.77 468.072 2171.38 476.715 2173.92 485.992C2176.56 495.27 2177.88 504.889 2177.88 514.85ZM2136.13 514.85C2136.13 505.67 2134.37 497.027 2130.86 488.922C2127.34 480.719 2122.56 473.639 2116.5 467.682C2110.54 461.627 2103.46 456.842 2095.26 453.326C2087.16 449.811 2078.51 448.053 2069.33 448.053C2060.06 448.053 2051.37 449.811 2043.26 453.326C2035.15 456.842 2028.07 461.627 2022.02 467.682C2015.96 473.639 2011.18 480.719 2007.66 488.922C2004.15 497.027 2002.39 505.67 2002.39 514.85C2002.39 524.029 2004.15 532.672 2007.66 540.777C2011.18 548.785 2015.96 555.816 2022.02 561.871C2028.07 567.926 2035.15 572.711 2043.26 576.227C2051.37 579.742 2060.06 581.5 2069.33 581.5C2078.51 581.5 2087.16 579.742 2095.26 576.227C2103.46 572.711 2110.54 567.926 2116.5 561.871C2122.56 555.816 2127.34 548.785 2130.86 540.777C2134.37 532.672 2136.13 524.029 2136.13 514.85Z" fill="black"/>
<defs>
<clipPath id="clip0_34_207">
<rect width="480" height="480" fill="white" transform="translate(332 260)"/>
</clipPath>
</defs>
</svg>
