<svg width="1855" height="480" viewBox="0 0 1855 480" fill="none" xmlns="http://www.w3.org/2000/svg">
<g clip-path="url(#clip0_34_446)">
<rect width="480" height="480" rx="80" fill="url(#paint0_linear_34_446)"/>
<path d="M350 60C377.614 60 400 82.3858 400 110V150H420V130H440V110H460V170H450V190H440V200H400V420H380V440H360V400H320V420H300V440H260V400H220V420H200V440H160V400H120V420H100V440H80V200H40V190H30V170H20V110H40V130H60V150H80V110C80 82.3858 102.386 60 130 60H350Z" fill="black"/>
<path d="M220 270C225.35 270 229.719 274.202 229.987 279.485L230.013 280.515C230.281 285.798 234.65 290 240 290H260C265.523 290 270 294.477 270 300C270 305.523 265.523 310 260 310H240C223.431 310 210 296.569 210 280C210 274.477 214.477 270 220 270ZM180 150C202.091 150 220 167.909 220 190V210C220 232.091 202.091 250 180 250C157.909 250 140 232.091 140 210V190C140 167.909 157.909 150 180 150ZM310 170C326.569 170 340 183.431 340 200V220C340 236.569 326.569 250 310 250C293.431 250 280 236.569 280 220V200C280 183.431 293.431 170 310 170Z" fill="white"/>
</g>
<path d="M736.553 359H589.482V148.941H631.523V316.959H736.553V359ZM882.158 275.064V233.023C882.158 227.262 881.035 221.842 878.789 216.764C876.641 211.588 873.662 207.096 869.854 203.287C866.045 199.479 861.553 196.5 856.377 194.352C851.299 192.105 845.879 190.982 840.117 190.982C834.355 190.982 828.887 192.105 823.711 194.352C818.633 196.5 814.189 199.479 810.381 203.287C806.572 207.096 803.545 211.588 801.299 216.764C799.15 221.842 798.076 227.262 798.076 233.023V275.064H882.158ZM924.199 359H882.158V316.959H798.076V359H756.182V233.023C756.182 221.402 758.379 210.514 762.773 200.357C767.168 190.104 773.125 181.168 780.645 173.551C788.262 165.934 797.148 159.928 807.305 155.533C817.559 151.139 828.496 148.941 840.117 148.941C851.738 148.941 862.627 151.139 872.783 155.533C883.037 159.928 891.973 165.934 899.59 173.551C907.207 181.168 913.213 190.104 917.607 200.357C922.002 210.514 924.199 221.402 924.199 233.023V359ZM1169.12 359H1127.23V209C1127.23 206.07 1126.64 203.336 1125.47 200.797C1124.39 198.258 1122.88 196.061 1120.93 194.205C1119.07 192.252 1116.88 190.738 1114.34 189.664C1111.8 188.59 1109.06 188.053 1106.13 188.053C1103.2 188.053 1100.47 188.59 1097.93 189.664C1095.39 190.738 1093.14 192.252 1091.19 194.205C1089.34 196.061 1087.87 198.258 1086.8 200.797C1085.72 203.336 1085.19 206.07 1085.19 209V359H1043.14V209C1043.14 206.07 1042.61 203.336 1041.53 200.797C1040.46 198.258 1038.95 196.061 1036.99 194.205C1035.14 192.252 1032.94 190.738 1030.4 189.664C1027.86 188.59 1025.13 188.053 1022.2 188.053C1019.27 188.053 1016.53 188.59 1013.99 189.664C1011.46 190.738 1009.21 192.252 1007.26 194.205C1005.4 196.061 1003.94 198.258 1002.86 200.797C1001.79 203.336 1001.25 206.07 1001.25 209V359H959.209V209C959.209 200.309 960.82 192.154 964.043 184.537C967.363 176.822 971.855 170.133 977.52 164.469C983.281 158.707 989.971 154.215 997.588 150.992C1005.3 147.672 1013.51 146.012 1022.2 146.012C1030.01 146.012 1037.53 147.428 1044.76 150.26C1051.98 152.994 1058.48 156.998 1064.24 162.271C1070 156.998 1076.45 152.994 1083.57 150.26C1090.8 147.428 1098.32 146.012 1106.13 146.012C1114.82 146.012 1122.98 147.672 1130.6 150.992C1138.31 154.215 1145 158.707 1150.66 164.469C1156.43 170.133 1160.92 176.822 1164.14 184.537C1167.46 192.154 1169.12 200.309 1169.12 209V359ZM1374.79 296.012C1374.79 304.703 1373.12 312.857 1369.8 320.475C1366.48 328.092 1361.94 334.781 1356.18 340.543C1350.52 346.207 1343.88 350.699 1336.26 354.02C1328.64 357.34 1320.49 359 1311.8 359H1206.77V148.941H1311.8C1320.49 148.941 1328.64 150.602 1336.26 153.922C1343.88 157.242 1350.52 161.783 1356.18 167.545C1361.94 173.209 1366.48 179.85 1369.8 187.467C1373.12 195.084 1374.79 203.238 1374.79 211.93C1374.79 215.836 1374.25 219.84 1373.17 223.941C1372.1 228.043 1370.59 231.998 1368.63 235.807C1366.68 239.615 1364.34 243.082 1361.6 246.207C1358.87 249.332 1355.84 251.92 1352.52 253.971C1355.94 255.826 1359.01 258.365 1361.75 261.588C1364.48 264.713 1366.83 268.18 1368.78 271.988C1370.73 275.797 1372.2 279.801 1373.17 284C1374.25 288.102 1374.79 292.105 1374.79 296.012ZM1248.81 316.959H1311.8C1314.73 316.959 1317.46 316.422 1320 315.348C1322.54 314.273 1324.74 312.809 1326.59 310.953C1328.54 309 1330.06 306.754 1331.13 304.215C1332.21 301.676 1332.74 298.941 1332.74 296.012C1332.74 293.082 1332.21 290.348 1331.13 287.809C1330.06 285.27 1328.54 283.072 1326.59 281.217C1324.74 279.264 1322.54 277.75 1320 276.676C1317.46 275.602 1314.73 275.064 1311.8 275.064H1248.81V316.959ZM1248.81 233.023H1311.8C1314.73 233.023 1317.46 232.486 1320 231.412C1322.54 230.338 1324.74 228.873 1326.59 227.018C1328.54 225.064 1330.06 222.818 1331.13 220.279C1332.21 217.643 1332.74 214.859 1332.74 211.93C1332.74 209 1332.21 206.266 1331.13 203.727C1330.06 201.188 1328.54 198.99 1326.59 197.135C1324.74 195.182 1322.54 193.668 1320 192.594C1317.46 191.52 1314.73 190.982 1311.8 190.982H1248.81V233.023ZM1612.38 254.85C1612.38 264.811 1611.06 274.43 1608.43 283.707C1605.89 292.887 1602.28 301.529 1597.59 309.635C1592.9 317.643 1587.24 324.967 1580.6 331.607C1573.96 338.248 1566.63 343.961 1558.62 348.746C1550.62 353.434 1541.97 357.047 1532.7 359.586C1523.42 362.223 1513.8 363.541 1503.84 363.541C1493.88 363.541 1484.26 362.223 1474.98 359.586C1465.8 357.047 1457.16 353.434 1449.05 348.746C1441.04 343.961 1433.72 338.248 1427.08 331.607C1420.44 324.967 1414.73 317.643 1409.94 309.635C1405.25 301.529 1401.59 292.887 1398.96 283.707C1396.42 274.43 1395.15 264.811 1395.15 254.85C1395.15 244.889 1396.42 235.27 1398.96 225.992C1401.59 216.715 1405.25 208.072 1409.94 200.064C1414.73 192.057 1420.44 184.732 1427.08 178.092C1433.72 171.451 1441.04 165.787 1449.05 161.1C1457.16 156.412 1465.8 152.799 1474.98 150.26C1484.26 147.623 1493.88 146.305 1503.84 146.305C1513.8 146.305 1523.42 147.623 1532.7 150.26C1541.97 152.799 1550.62 156.412 1558.62 161.1C1566.63 165.787 1573.96 171.451 1580.6 178.092C1587.24 184.732 1592.9 192.057 1597.59 200.064C1602.28 208.072 1605.89 216.715 1608.43 225.992C1611.06 235.27 1612.38 244.889 1612.38 254.85ZM1570.63 254.85C1570.63 245.67 1568.88 237.027 1565.36 228.922C1561.85 220.719 1557.06 213.639 1551.01 207.682C1545.05 201.627 1537.97 196.842 1529.77 193.326C1521.66 189.811 1513.02 188.053 1503.84 188.053C1494.56 188.053 1485.87 189.811 1477.76 193.326C1469.66 196.842 1462.58 201.627 1456.52 207.682C1450.47 213.639 1445.68 220.719 1442.17 228.922C1438.65 237.027 1436.89 245.67 1436.89 254.85C1436.89 264.029 1438.65 272.672 1442.17 280.777C1445.68 288.785 1450.47 295.816 1456.52 301.871C1462.58 307.926 1469.66 312.711 1477.76 316.227C1485.87 319.742 1494.56 321.5 1503.84 321.5C1513.02 321.5 1521.66 319.742 1529.77 316.227C1537.97 312.711 1545.05 307.926 1551.01 301.871C1557.06 295.816 1561.85 288.785 1565.36 280.777C1568.88 272.672 1570.63 264.029 1570.63 254.85ZM1845.88 254.85C1845.88 264.811 1844.56 274.43 1841.92 283.707C1839.38 292.887 1835.77 301.529 1831.08 309.635C1826.4 317.643 1820.73 324.967 1814.09 331.607C1807.45 338.248 1800.13 343.961 1792.12 348.746C1784.11 353.434 1775.47 357.047 1766.19 359.586C1756.91 362.223 1747.29 363.541 1737.33 363.541C1727.37 363.541 1717.75 362.223 1708.48 359.586C1699.3 357.047 1690.65 353.434 1682.55 348.746C1674.54 343.961 1667.22 338.248 1660.58 331.607C1653.94 324.967 1648.22 317.643 1643.44 309.635C1638.75 301.529 1635.09 292.887 1632.45 283.707C1629.91 274.43 1628.64 264.811 1628.64 254.85C1628.64 244.889 1629.91 235.27 1632.45 225.992C1635.09 216.715 1638.75 208.072 1643.44 200.064C1648.22 192.057 1653.94 184.732 1660.58 178.092C1667.22 171.451 1674.54 165.787 1682.55 161.1C1690.65 156.412 1699.3 152.799 1708.48 150.26C1717.75 147.623 1727.37 146.305 1737.33 146.305C1747.29 146.305 1756.91 147.623 1766.19 150.26C1775.47 152.799 1784.11 156.412 1792.12 161.1C1800.13 165.787 1807.45 171.451 1814.09 178.092C1820.73 184.732 1826.4 192.057 1831.08 200.064C1835.77 208.072 1839.38 216.715 1841.92 225.992C1844.56 235.27 1845.88 244.889 1845.88 254.85ZM1804.13 254.85C1804.13 245.67 1802.37 237.027 1798.86 228.922C1795.34 220.719 1790.56 213.639 1784.5 207.682C1778.54 201.627 1771.46 196.842 1763.26 193.326C1755.16 189.811 1746.51 188.053 1737.33 188.053C1728.06 188.053 1719.37 189.811 1711.26 193.326C1703.15 196.842 1696.07 201.627 1690.02 207.682C1683.96 213.639 1679.18 220.719 1675.66 228.922C1672.15 237.027 1670.39 245.67 1670.39 254.85C1670.39 264.029 1672.15 272.672 1675.66 280.777C1679.18 288.785 1683.96 295.816 1690.02 301.871C1696.07 307.926 1703.15 312.711 1711.26 316.227C1719.37 319.742 1728.06 321.5 1737.33 321.5C1746.51 321.5 1755.16 319.742 1763.26 316.227C1771.46 312.711 1778.54 307.926 1784.5 301.871C1790.56 295.816 1795.34 288.785 1798.86 280.777C1802.37 272.672 1804.13 264.029 1804.13 254.85Z" fill="black"/>
<defs>
<linearGradient id="paint0_linear_34_446" x1="65.1516" y1="-7.95621e-07" x2="516.432" y2="348.432" gradientUnits="userSpaceOnUse">
<stop stop-color="#29E7E2"/>
<stop offset="1" stop-color="#CDFA49"/>
</linearGradient>
<clipPath id="clip0_34_446">
<rect width="480" height="480" fill="white"/>
</clipPath>
</defs>
</svg>
