<svg width="1325" height="555" viewBox="0 0 1325 555" fill="none" xmlns="http://www.w3.org/2000/svg">
<path d="M535.289 322.241V150.273H572.081V227.138C580.768 223.49 588.859 218.887 596.353 213.328C604.018 207.596 610.832 201.256 616.793 194.308C622.755 187.359 627.865 180.151 632.123 172.681C636.381 165.212 639.447 157.743 641.321 150.273H683.478C681.094 158.785 677.432 167.296 672.492 175.808C667.723 184.146 662.017 192.049 655.374 199.519C648.731 206.988 641.662 213.676 634.167 219.582C626.843 225.314 619.433 229.83 611.939 233.131V237.039C619.774 237.039 626.758 237.994 632.89 239.905C639.192 241.642 644.728 244.508 649.497 248.504C654.437 252.325 658.78 257.102 662.528 262.834C666.275 268.567 669.596 275.428 672.492 283.418L686.033 322.241H644.387L635.445 290.974C633.06 282.463 629.909 275.688 625.991 270.651C622.074 265.44 617.049 261.705 610.917 259.447C604.785 257.015 596.779 255.799 586.9 255.799H572.081V322.241H535.289Z" fill="#151823"/>
<path d="M787.239 325.889C774.975 325.889 763.989 323.978 754.28 320.157C744.571 316.162 736.224 310.429 729.241 302.96C722.427 295.317 717.147 286.024 713.4 275.08C709.823 263.963 708.034 251.283 708.034 237.039C708.034 216.716 711.526 199.953 718.51 186.751C725.493 173.376 735.032 163.388 747.126 156.787C759.39 150.013 773.186 146.625 788.516 146.625C800.44 146.625 811.256 148.623 820.965 152.618C830.674 156.44 838.935 162.172 845.748 169.815C852.732 177.284 858.097 186.665 861.845 197.955C865.592 209.072 867.466 221.84 867.466 236.257C867.466 251.022 865.592 263.963 861.845 275.08C858.097 286.198 852.647 295.578 845.493 303.221C838.509 310.69 830.078 316.335 820.198 320.157C810.319 323.978 799.333 325.889 787.239 325.889ZM788.261 295.925C797.289 295.925 804.868 293.667 811 289.151C817.132 284.634 821.816 278.12 825.053 269.609C828.289 261.097 829.907 250.675 829.907 238.342C829.907 225.488 828.204 214.544 824.797 205.512C821.561 196.479 816.792 189.618 810.489 184.927C804.187 180.064 796.522 177.632 787.494 177.632C778.637 177.632 771.057 179.977 764.755 184.667C758.623 189.183 753.854 195.784 750.447 204.469C747.211 213.155 745.593 223.924 745.593 236.778C745.593 246.159 746.529 254.583 748.403 262.053C750.447 269.348 753.258 275.515 756.835 280.552C760.412 285.59 764.84 289.411 770.12 292.017C775.401 294.622 781.448 295.925 788.261 295.925Z" fill="#151823"/>
<path d="M905.709 322.241V150.273H953.742L1030.14 271.954H1032.95L1030.65 150.273H1066.42V322.241H1022.98L942.245 194.829H939.434L941.734 322.241H905.709Z" fill="#151823"/>
<path d="M1116.08 322.241V150.273H1153.64V322.241H1116.08Z" fill="#151823"/>
<path d="M559.979 428.102C555.923 428.102 552.358 427.672 549.285 426.811C546.273 425.951 543.722 424.691 541.633 423.031C539.604 421.31 538.099 419.221 537.115 416.762C536.132 414.304 535.702 411.446 535.825 408.188L543.477 406.529C543.231 409.725 543.753 412.398 545.044 414.549C546.334 416.701 548.301 418.329 550.944 419.436C553.587 420.481 556.691 421.003 560.256 421.003C563.697 421.003 566.617 420.573 569.014 419.712C571.411 418.852 573.193 417.653 574.361 416.117C575.59 414.58 576.205 412.829 576.205 410.862C576.205 408.649 575.498 406.897 574.085 405.607C572.671 404.316 570.766 403.333 568.369 402.657C566.033 401.919 563.421 401.243 560.532 400.628C557.705 400.014 554.878 399.307 552.05 398.508C549.223 397.709 546.673 396.695 544.398 395.466C542.186 394.175 540.373 392.515 538.959 390.487C537.607 388.397 536.931 385.755 536.931 382.559C536.931 378.932 537.822 375.798 539.604 373.155C541.448 370.512 544.03 368.484 547.349 367.07C550.668 365.595 554.57 364.858 559.057 364.858C563.482 364.858 567.416 365.564 570.858 366.978C574.361 368.392 577.127 370.481 579.155 373.247C581.183 375.951 582.259 379.301 582.382 383.296L574.453 385.232C574.453 383.02 574.054 381.084 573.255 379.424C572.517 377.703 571.472 376.32 570.12 375.275C568.768 374.169 567.139 373.339 565.234 372.786C563.329 372.172 561.239 371.864 558.965 371.864C556.199 371.864 553.771 372.294 551.682 373.155C549.592 374.015 547.963 375.183 546.795 376.658C545.628 378.133 545.044 379.885 545.044 381.913C545.044 384.31 545.874 386.216 547.533 387.629C549.254 388.981 551.467 390.057 554.171 390.856C556.875 391.655 559.764 392.392 562.837 393.069C565.48 393.622 568.061 394.298 570.581 395.097C573.163 395.834 575.498 396.848 577.588 398.139C579.678 399.368 581.337 400.997 582.566 403.025C583.795 405.054 584.41 407.635 584.41 410.77C584.41 414.273 583.488 417.315 581.644 419.897C579.862 422.478 577.158 424.506 573.531 425.981C569.905 427.395 565.388 428.102 559.979 428.102ZM693.757 426.903V366.056H702.239V426.903H693.757ZM675.226 373.432V366.056H720.77V373.432H675.226ZM838.367 428.102C833.941 428.102 830.039 427.364 826.658 425.889C823.339 424.414 820.512 422.294 818.176 419.528C815.902 416.762 814.181 413.474 813.014 409.663C811.846 405.791 811.262 401.458 811.262 396.664C811.262 389.657 812.43 383.819 814.765 379.147C817.101 374.415 820.328 370.85 824.446 368.453C828.563 366.056 833.235 364.858 838.459 364.858C842.577 364.858 846.295 365.564 849.614 366.978C852.933 368.392 855.76 370.481 858.096 373.247C860.493 376.013 862.337 379.393 863.627 383.388C864.918 387.322 865.564 391.809 865.564 396.848C865.564 401.581 864.949 405.883 863.72 409.755C862.552 413.566 860.8 416.854 858.465 419.62C856.191 422.324 853.363 424.414 849.983 425.889C846.664 427.364 842.792 428.102 838.367 428.102ZM838.459 420.819C842.392 420.819 845.711 419.897 848.416 418.053C851.181 416.147 853.271 413.443 854.685 409.94C856.16 406.375 856.897 402.073 856.897 397.033C856.897 391.809 856.16 387.383 854.685 383.757C853.21 380.069 851.089 377.242 848.323 375.275C845.558 373.309 842.208 372.325 838.274 372.325C834.525 372.325 831.268 373.278 828.502 375.183C825.736 377.088 823.616 379.854 822.141 383.481C820.666 387.107 819.928 391.563 819.928 396.848C819.928 400.659 820.328 404.07 821.127 407.082C821.987 410.032 823.186 412.552 824.722 414.642C826.32 416.67 828.256 418.206 830.53 419.251C832.866 420.296 835.509 420.819 838.459 420.819ZM964.015 426.903V366.056H985.22C988.293 366.056 991.089 366.302 993.609 366.794C996.191 367.285 998.465 368.023 1000.43 369.006C1002.46 369.99 1004.15 371.188 1005.5 372.602C1006.92 374.015 1007.96 375.675 1008.64 377.58C1009.37 379.424 1009.74 381.483 1009.74 383.757C1009.74 385.908 1009.4 387.875 1008.73 389.657C1008.11 391.44 1007.16 393.007 1005.87 394.359C1004.58 395.711 1002.98 396.818 1001.08 397.678C999.171 398.477 996.959 399.03 994.439 399.338V400.536C996.652 400.782 998.588 401.366 1000.25 402.288C1001.91 403.21 1003.32 404.562 1004.49 406.344C1005.66 408.065 1006.67 410.37 1007.53 413.259L1011.4 426.903H1002.28L999.141 414.457C998.588 411.937 997.635 409.909 996.283 408.373C994.992 406.836 993.363 405.699 991.397 404.961C989.43 404.224 987.125 403.855 984.482 403.855H972.497V426.903H964.015ZM972.497 396.941H984.482C989.952 396.941 994.07 395.957 996.836 393.99C999.663 392.024 1001.08 389.012 1001.08 384.956C1001.08 380.899 999.725 377.918 997.02 376.013C994.377 374.046 990.26 373.063 984.666 373.063H972.497V396.941ZM1122.1 426.903V407.266L1100.8 366.056H1110.67L1126.16 398.969H1126.62L1142.01 366.056H1151.88L1130.58 407.174V426.903H1122.1Z" fill="#151823"/>
<path fill-rule="evenodd" clip-rule="evenodd" d="M187.045 107.209C179.188 105.786 171.959 111.823 171.959 119.808V353.318C171.959 361.623 179.743 367.731 187.81 365.755L295.412 339.397V392.471C295.412 400.358 300.508 407.341 308.019 409.747L425.381 447.331C437.087 451.08 449.053 442.347 449.053 430.056L449.053 232.536C449.053 220.244 437.087 211.511 425.381 215.26L374.698 231.491V151.879C374.698 145.688 370.267 140.383 364.174 139.28L187.045 107.209ZM374.698 242.695V231.491L308.019 252.845C300.508 255.25 295.412 262.233 295.412 270.12L295.412 339.397L306.082 336.783V392.471C306.082 395.719 308.18 398.594 311.273 399.585L428.635 437.169C433.455 438.713 438.383 435.117 438.383 430.056L438.383 232.536C438.383 227.474 433.455 223.878 428.635 225.422L374.698 242.695ZM374.698 242.695V309.928C374.698 315.826 370.669 320.961 364.94 322.365L306.082 336.783L306.082 270.12C306.082 266.873 308.18 263.997 311.273 263.007L374.698 242.695Z" fill="#1DE885"/>
</svg>
