<svg width="1324" height="555" viewBox="0 0 1324 555" fill="none" xmlns="http://www.w3.org/2000/svg">
<path d="M534.604 322.241V150.273H571.396V227.138C580.083 223.49 588.174 218.887 595.668 213.328C603.333 207.596 610.147 201.256 616.108 194.308C622.07 187.359 627.18 180.151 631.438 172.681C635.696 165.212 638.762 157.743 640.636 150.273H682.793C680.409 158.785 676.747 167.296 671.807 175.808C667.038 184.146 661.331 192.049 654.688 199.519C648.046 206.988 640.977 213.676 633.482 219.582C626.158 225.314 618.748 229.83 611.254 233.131V237.039C619.089 237.039 626.073 237.994 632.205 239.905C638.507 241.642 644.043 244.508 648.812 248.504C653.752 252.325 658.095 257.102 661.842 262.834C665.59 268.567 668.911 275.428 671.807 283.418L685.348 322.241H643.702L634.76 290.974C632.375 282.463 629.224 275.688 625.306 270.651C621.388 265.44 616.364 261.705 610.232 259.447C604.1 257.015 596.094 255.799 586.215 255.799H571.396V322.241H534.604Z" fill="white"/>
<path d="M786.554 325.889C774.29 325.889 763.303 323.978 753.594 320.157C743.886 316.162 735.539 310.429 728.556 302.96C721.742 295.317 716.462 286.024 712.715 275.08C709.138 263.963 707.349 251.283 707.349 237.039C707.349 216.716 710.841 199.953 717.825 186.751C724.808 173.376 734.347 163.388 746.441 156.787C758.704 150.013 772.501 146.625 787.831 146.625C799.755 146.625 810.571 148.623 820.28 152.618C829.989 156.44 838.25 162.172 845.063 169.815C852.047 177.284 857.412 186.665 861.16 197.955C864.907 209.072 866.781 221.84 866.781 236.257C866.781 251.022 864.907 263.963 861.16 275.08C857.412 286.198 851.962 295.578 844.808 303.221C837.824 310.69 829.393 316.335 819.513 320.157C809.634 323.978 798.647 325.889 786.554 325.889ZM787.576 295.925C796.603 295.925 804.183 293.667 810.315 289.151C816.447 284.634 821.131 278.12 824.368 269.609C827.604 261.097 829.222 250.675 829.222 238.342C829.222 225.488 827.519 214.544 824.112 205.512C820.876 196.479 816.107 189.618 809.804 184.927C803.502 180.064 795.837 177.632 786.809 177.632C777.952 177.632 770.372 179.977 764.07 184.667C757.938 189.183 753.169 195.784 749.762 204.469C746.526 213.155 744.908 223.924 744.908 236.778C744.908 246.159 745.844 254.583 747.718 262.053C749.762 269.348 752.572 275.515 756.149 280.552C759.726 285.59 764.155 289.411 769.435 292.017C774.716 294.622 780.763 295.925 787.576 295.925Z" fill="white"/>
<path d="M905.024 322.241V150.273H953.057L1029.45 271.954H1032.26L1029.96 150.273H1065.73V322.241H1022.3L941.56 194.829H938.749L941.049 322.241H905.024Z" fill="white"/>
<path d="M1115.4 322.241V150.273H1152.96V322.241H1115.4Z" fill="white"/>
<path d="M559.294 428.102C555.237 428.102 551.673 427.672 548.6 426.811C545.588 425.951 543.037 424.691 540.948 423.031C538.919 421.31 537.414 419.221 536.43 416.762C535.447 414.304 535.017 411.446 535.139 408.188L542.791 406.529C542.546 409.725 543.068 412.398 544.359 414.549C545.649 416.701 547.616 418.329 550.259 419.436C552.902 420.481 556.006 421.003 559.571 421.003C563.012 421.003 565.932 420.573 568.329 419.712C570.726 418.852 572.508 417.653 573.676 416.117C574.905 414.58 575.52 412.829 575.52 410.862C575.52 408.649 574.813 406.897 573.399 405.607C571.986 404.316 570.081 403.333 567.684 402.657C565.348 401.919 562.736 401.243 559.847 400.628C557.02 400.014 554.193 399.307 551.365 398.508C548.538 397.709 545.987 396.695 543.713 395.466C541.501 394.175 539.688 392.515 538.274 390.487C536.922 388.397 536.246 385.755 536.246 382.559C536.246 378.932 537.137 375.798 538.919 373.155C540.763 370.512 543.345 368.484 546.664 367.07C549.982 365.595 553.885 364.858 558.372 364.858C562.797 364.858 566.731 365.564 570.173 366.978C573.676 368.392 576.442 370.481 578.47 373.247C580.498 375.951 581.574 379.301 581.697 383.296L573.768 385.232C573.768 383.02 573.369 381.084 572.57 379.424C571.832 377.703 570.787 376.32 569.435 375.275C568.083 374.169 566.454 373.339 564.549 372.786C562.644 372.172 560.554 371.864 558.28 371.864C555.514 371.864 553.086 372.294 550.997 373.155C548.907 374.015 547.278 375.183 546.11 376.658C544.943 378.133 544.359 379.885 544.359 381.913C544.359 384.31 545.188 386.216 546.848 387.629C548.569 388.981 550.781 390.057 553.486 390.856C556.19 391.655 559.079 392.392 562.152 393.069C564.795 393.622 567.376 394.298 569.896 395.097C572.478 395.834 574.813 396.848 576.903 398.139C578.992 399.368 580.652 400.997 581.881 403.025C583.11 405.054 583.725 407.635 583.725 410.77C583.725 414.273 582.803 417.315 580.959 419.897C579.177 422.478 576.473 424.506 572.846 425.981C569.22 427.395 564.703 428.102 559.294 428.102ZM693.072 426.903V366.056H701.554V426.903H693.072ZM674.541 373.432V366.056H720.085V373.432H674.541ZM837.682 428.102C833.256 428.102 829.354 427.364 825.973 425.889C822.654 424.414 819.827 422.294 817.491 419.528C815.217 416.762 813.496 413.474 812.329 409.663C811.161 405.791 810.577 401.458 810.577 396.664C810.577 389.657 811.745 383.819 814.08 379.147C816.416 374.415 819.643 370.85 823.76 368.453C827.878 366.056 832.55 364.858 837.774 364.858C841.892 364.858 845.61 365.564 848.929 366.978C852.248 368.392 855.075 370.481 857.411 373.247C859.808 376.013 861.652 379.393 862.942 383.388C864.233 387.322 864.878 391.809 864.878 396.848C864.878 401.581 864.264 405.883 863.035 409.755C861.867 413.566 860.115 416.854 857.78 419.62C855.506 422.324 852.678 424.414 849.298 425.889C845.979 427.364 842.107 428.102 837.682 428.102ZM837.774 420.819C841.707 420.819 845.026 419.897 847.731 418.053C850.496 416.147 852.586 413.443 854 409.94C855.475 406.375 856.212 402.073 856.212 397.033C856.212 391.809 855.475 387.383 854 383.757C852.525 380.069 850.404 377.242 847.638 375.275C844.873 373.309 841.523 372.325 837.589 372.325C833.84 372.325 830.583 373.278 827.817 375.183C825.051 377.088 822.931 379.854 821.456 383.481C819.981 387.107 819.243 391.563 819.243 396.848C819.243 400.659 819.643 404.07 820.442 407.082C821.302 410.032 822.501 412.552 824.037 414.642C825.635 416.67 827.571 418.206 829.845 419.251C832.181 420.296 834.824 420.819 837.774 420.819ZM963.33 426.903V366.056H984.535C987.608 366.056 990.404 366.302 992.924 366.794C995.506 367.285 997.78 368.023 999.746 369.006C1001.77 369.99 1003.46 371.188 1004.82 372.602C1006.23 374.015 1007.28 375.675 1007.95 377.58C1008.69 379.424 1009.06 381.483 1009.06 383.757C1009.06 385.908 1008.72 387.875 1008.04 389.657C1007.43 391.44 1006.48 393.007 1005.19 394.359C1003.9 395.711 1002.3 396.818 1000.39 397.678C998.486 398.477 996.274 399.03 993.754 399.338V400.536C995.966 400.782 997.903 401.366 999.562 402.288C1001.22 403.21 1002.64 404.562 1003.8 406.344C1004.97 408.065 1005.98 410.37 1006.85 413.259L1010.72 426.903H1001.59L998.456 414.457C997.903 411.937 996.95 409.909 995.598 408.373C994.307 406.836 992.678 405.699 990.712 404.961C988.745 404.224 986.44 403.855 983.797 403.855H971.812V426.903H963.33ZM971.812 396.941H983.797C989.267 396.941 993.385 395.957 996.151 393.99C998.978 392.024 1000.39 389.012 1000.39 384.956C1000.39 380.899 999.04 377.918 996.335 376.013C993.692 374.046 989.574 373.063 983.981 373.063H971.812V396.941ZM1121.41 426.903V407.266L1100.12 366.056H1109.98L1125.47 398.969H1125.93L1141.33 366.056H1151.19L1129.9 407.174V426.903H1121.41Z" fill="white"/>
<path fill-rule="evenodd" clip-rule="evenodd" d="M186.36 107.209C178.503 105.786 171.274 111.823 171.274 119.808V353.318C171.274 361.623 179.059 367.731 187.126 365.755L294.727 339.397V392.471C294.727 400.358 299.823 407.341 307.334 409.747L424.696 447.331C436.402 451.08 448.368 442.347 448.368 430.056L448.369 232.536C448.369 220.244 436.402 211.511 424.696 215.26L374.013 231.491V151.879C374.013 145.688 369.583 140.383 363.49 139.28L186.36 107.209ZM374.013 242.695V231.491L307.334 252.845C299.823 255.25 294.727 262.233 294.727 270.12L294.727 339.397L305.397 336.783V392.471C305.397 395.719 307.496 398.594 310.589 399.585L427.951 437.169C432.771 438.713 437.698 435.117 437.698 430.056L437.698 232.536C437.698 227.474 432.771 223.878 427.951 225.422L374.013 242.695ZM374.013 242.695V309.928C374.013 315.826 369.984 320.961 364.255 322.365L305.397 336.783L305.397 270.12C305.397 266.873 307.496 263.997 310.589 263.007L374.013 242.695Z" fill="#6F60F1"/>
</svg>
