<svg width="1324" height="555" viewBox="0 0 1324 555" fill="none" xmlns="http://www.w3.org/2000/svg">
<path d="M534.878 322.241V150.273H571.67V227.138C580.357 223.49 588.448 218.887 595.942 213.328C603.607 207.596 610.42 201.256 616.382 194.308C622.344 187.359 627.454 180.151 631.712 172.681C635.97 165.212 639.036 157.743 640.91 150.273H683.067C680.683 158.785 677.02 167.296 672.081 175.808C667.312 184.146 661.605 192.049 654.962 199.519C648.319 206.988 641.251 213.676 633.756 219.582C626.432 225.314 619.022 229.83 611.528 233.131V237.039C619.363 237.039 626.347 237.994 632.479 239.905C638.781 241.642 644.317 244.508 649.086 248.504C654.026 252.325 658.369 257.102 662.116 262.834C665.864 268.567 669.185 275.428 672.081 283.418L685.622 322.241H643.976L635.034 290.974C632.649 282.463 629.498 275.688 625.58 270.651C621.662 265.44 616.638 261.705 610.506 259.447C604.374 257.015 596.368 255.799 586.489 255.799H571.67V322.241H534.878Z" fill="#151823"/>
<path d="M786.828 325.889C774.564 325.889 763.577 323.978 753.868 320.157C744.159 316.162 735.813 310.429 728.83 302.96C722.016 295.317 716.736 286.024 712.989 275.08C709.412 263.963 707.623 251.283 707.623 237.039C707.623 216.716 711.115 199.953 718.099 186.751C725.082 173.376 734.621 163.388 746.714 156.787C758.978 150.013 772.775 146.625 788.105 146.625C800.029 146.625 810.845 148.623 820.554 152.618C830.263 156.44 838.524 162.172 845.337 169.815C852.321 177.284 857.686 186.665 861.433 197.955C865.181 209.072 867.054 221.84 867.054 236.257C867.054 251.022 865.181 263.963 861.433 275.08C857.686 286.198 852.236 295.578 845.082 303.221C838.098 310.69 829.666 316.335 819.787 320.157C809.908 323.978 798.921 325.889 786.828 325.889ZM787.85 295.925C796.877 295.925 804.457 293.667 810.589 289.151C816.721 284.634 821.405 278.12 824.642 269.609C827.878 261.097 829.496 250.675 829.496 238.342C829.496 225.488 827.793 214.544 824.386 205.512C821.15 196.479 816.381 189.618 810.078 184.927C803.776 180.064 796.111 177.632 787.083 177.632C778.226 177.632 770.646 179.977 764.344 184.667C758.212 189.183 753.443 195.784 750.036 204.469C746.8 213.155 745.181 223.924 745.181 236.778C745.181 246.159 746.118 254.583 747.992 262.053C750.036 269.348 752.846 275.515 756.423 280.552C760 285.59 764.429 289.411 769.709 292.017C774.99 294.622 781.036 295.925 787.85 295.925Z" fill="#151823"/>
<path d="M905.297 322.241V150.273H953.331L1029.73 271.954H1032.54L1030.24 150.273H1066.01V322.241H1022.57L941.834 194.829H939.023L941.323 322.241H905.297Z" fill="#151823"/>
<path d="M1115.67 322.241V150.273H1153.23V322.241H1115.67Z" fill="#151823"/>
<path d="M559.568 428.102C555.511 428.102 551.947 427.672 548.874 426.811C545.862 425.951 543.311 424.691 541.222 423.031C539.193 421.31 537.687 419.221 536.704 416.762C535.721 414.304 535.29 411.446 535.413 408.188L543.065 406.529C542.82 409.725 543.342 412.398 544.633 414.549C545.923 416.701 547.89 418.329 550.533 419.436C553.176 420.481 556.28 421.003 559.844 421.003C563.286 421.003 566.206 420.573 568.603 419.712C571 418.852 572.782 417.653 573.95 416.117C575.179 414.58 575.794 412.829 575.794 410.862C575.794 408.649 575.087 406.897 573.673 405.607C572.26 404.316 570.354 403.333 567.957 402.657C565.622 401.919 563.01 401.243 560.121 400.628C557.294 400.014 554.467 399.307 551.639 398.508C548.812 397.709 546.261 396.695 543.987 395.466C541.775 394.175 539.962 392.515 538.548 390.487C537.196 388.397 536.52 385.755 536.52 382.559C536.52 378.932 537.411 375.798 539.193 373.155C541.037 370.512 543.619 368.484 546.937 367.07C550.256 365.595 554.159 364.858 558.646 364.858C563.071 364.858 567.005 365.564 570.447 366.978C573.95 368.392 576.716 370.481 578.744 373.247C580.772 375.951 581.848 379.301 581.971 383.296L574.042 385.232C574.042 383.02 573.643 381.084 572.844 379.424C572.106 377.703 571.061 376.32 569.709 375.275C568.357 374.169 566.728 373.339 564.823 372.786C562.918 372.172 560.828 371.864 558.554 371.864C555.788 371.864 553.36 372.294 551.271 373.155C549.181 374.015 547.552 375.183 546.384 376.658C545.217 378.133 544.633 379.885 544.633 381.913C544.633 384.31 545.462 386.216 547.122 387.629C548.843 388.981 551.055 390.057 553.76 390.856C556.464 391.655 559.353 392.392 562.426 393.069C565.069 393.622 567.65 394.298 570.17 395.097C572.751 395.834 575.087 396.848 577.177 398.139C579.266 399.368 580.926 400.997 582.155 403.025C583.384 405.054 583.999 407.635 583.999 410.77C583.999 414.273 583.077 417.315 581.233 419.897C579.451 422.478 576.746 424.506 573.12 425.981C569.494 427.395 564.977 428.102 559.568 428.102ZM693.346 426.903V366.056H701.828V426.903H693.346ZM674.815 373.432V366.056H720.359V373.432H674.815ZM837.956 428.102C833.53 428.102 829.627 427.364 826.247 425.889C822.928 424.414 820.101 422.294 817.765 419.528C815.491 416.762 813.77 413.474 812.603 409.663C811.435 405.791 810.851 401.458 810.851 396.664C810.851 389.657 812.019 383.819 814.354 379.147C816.69 374.415 819.916 370.85 824.034 368.453C828.152 366.056 832.823 364.858 838.048 364.858C842.166 364.858 845.884 365.564 849.203 366.978C852.522 368.392 855.349 370.481 857.685 373.247C860.082 376.013 861.926 379.393 863.216 383.388C864.507 387.322 865.152 391.809 865.152 396.848C865.152 401.581 864.538 405.883 863.309 409.755C862.141 413.566 860.389 416.854 858.054 419.62C855.779 422.324 852.952 424.414 849.572 425.889C846.253 427.364 842.381 428.102 837.956 428.102ZM838.048 420.819C841.981 420.819 845.3 419.897 848.005 418.053C850.77 416.147 852.86 413.443 854.274 409.94C855.749 406.375 856.486 402.073 856.486 397.033C856.486 391.809 855.749 387.383 854.274 383.757C852.799 380.069 850.678 377.242 847.912 375.275C845.147 373.309 841.797 372.325 837.863 372.325C834.114 372.325 830.857 373.278 828.091 375.183C825.325 377.088 823.205 379.854 821.73 383.481C820.255 387.107 819.517 391.563 819.517 396.848C819.517 400.659 819.916 404.07 820.715 407.082C821.576 410.032 822.774 412.552 824.311 414.642C825.909 416.67 827.845 418.206 830.119 419.251C832.455 420.296 835.098 420.819 838.048 420.819ZM963.604 426.903V366.056H984.809C987.882 366.056 990.678 366.302 993.198 366.794C995.779 367.285 998.054 368.023 1000.02 369.006C1002.05 369.99 1003.74 371.188 1005.09 372.602C1006.5 374.015 1007.55 375.675 1008.23 377.58C1008.96 379.424 1009.33 381.483 1009.33 383.757C1009.33 385.908 1008.99 387.875 1008.32 389.657C1007.7 391.44 1006.75 393.007 1005.46 394.359C1004.17 395.711 1002.57 396.818 1000.67 397.678C998.76 398.477 996.548 399.03 994.028 399.338V400.536C996.24 400.782 998.176 401.366 999.836 402.288C1001.5 403.21 1002.91 404.562 1004.08 406.344C1005.24 408.065 1006.26 410.37 1007.12 413.259L1010.99 426.903H1001.86L998.73 414.457C998.176 411.937 997.224 409.909 995.872 408.373C994.581 406.836 992.952 405.699 990.985 404.961C989.019 404.224 986.714 403.855 984.071 403.855H972.086V426.903H963.604ZM972.086 396.941H984.071C989.541 396.941 993.659 395.957 996.425 393.99C999.252 392.024 1000.67 389.012 1000.67 384.956C1000.67 380.899 999.314 377.918 996.609 376.013C993.966 374.046 989.848 373.063 984.255 373.063H972.086V396.941ZM1121.69 426.903V407.266L1100.39 366.056H1110.26L1125.75 398.969H1126.21L1141.6 366.056H1151.47L1130.17 407.174V426.903H1121.69Z" fill="#151823"/>
<path fill-rule="evenodd" clip-rule="evenodd" d="M186.634 107.209C178.777 105.786 171.548 111.823 171.548 119.808V353.318C171.548 361.623 179.333 367.731 187.399 365.755L295.001 339.397V392.471C295.001 400.358 300.097 407.341 307.608 409.747L424.97 447.331C436.676 451.08 448.642 442.347 448.642 430.056L448.642 232.536C448.642 220.244 436.676 211.511 424.97 215.26L374.287 231.491V151.879C374.287 145.688 369.857 140.383 363.764 139.28L186.634 107.209ZM374.287 242.695V231.491L307.608 252.845C300.097 255.25 295.001 262.233 295.001 270.12L295.001 339.397L305.671 336.783V392.471C305.671 395.719 307.77 398.594 310.863 399.585L428.225 437.169C433.045 438.713 437.972 435.117 437.972 430.056L437.972 232.536C437.972 227.474 433.045 223.878 428.225 225.422L374.287 242.695ZM374.287 242.695V309.928C374.287 315.826 370.258 320.961 364.529 322.365L305.671 336.783L305.671 270.12C305.671 266.873 307.77 263.997 310.863 263.007L374.287 242.695Z" fill="#151823"/>
</svg>
