<svg width="1324" height="555" viewBox="0 0 1324 555" fill="none" xmlns="http://www.w3.org/2000/svg">
<path d="M535.016 322.241V150.273H571.807V227.138C580.494 223.49 588.585 218.887 596.08 213.328C603.745 207.596 610.558 201.256 616.52 194.308C622.481 187.359 627.591 180.151 631.85 172.681C636.108 165.212 639.174 157.743 641.048 150.273H683.205C680.82 158.785 677.158 167.296 672.219 175.808C667.449 184.146 661.743 192.049 655.1 199.519C648.457 206.988 641.388 213.676 633.894 219.582C626.569 225.314 619.16 229.83 611.665 233.131V237.039C619.501 237.039 626.484 237.994 632.616 239.905C638.919 241.642 644.454 244.508 649.224 248.504C654.163 252.325 658.507 257.102 662.254 262.834C666.001 268.567 669.323 275.428 672.219 283.418L685.76 322.241H644.114L635.171 290.974C632.787 282.463 629.635 275.688 625.718 270.651C621.8 265.44 616.775 261.705 610.643 259.447C604.511 257.015 596.506 255.799 586.626 255.799H571.807V322.241H535.016Z" fill="#151823"/>
<path d="M786.965 325.889C774.702 325.889 763.715 323.978 754.006 320.157C744.297 316.162 735.951 310.429 728.967 302.96C722.154 295.317 716.874 286.024 713.126 275.08C709.549 263.963 707.761 251.283 707.761 237.039C707.761 216.716 711.253 199.953 718.236 186.751C725.22 173.376 734.759 163.388 746.852 156.787C759.116 150.013 772.913 146.625 788.243 146.625C800.166 146.625 810.982 148.623 820.691 152.618C830.4 156.44 838.661 162.172 845.475 169.815C852.458 177.284 857.824 186.665 861.571 197.955C865.318 209.072 867.192 221.84 867.192 236.257C867.192 251.022 865.318 263.963 861.571 275.08C857.824 286.198 852.373 295.578 845.219 303.221C838.236 310.69 829.804 316.335 819.925 320.157C810.046 323.978 799.059 325.889 786.965 325.889ZM787.987 295.925C797.015 295.925 804.595 293.667 810.727 289.151C816.859 284.634 821.543 278.12 824.779 269.609C828.016 261.097 829.634 250.675 829.634 238.342C829.634 225.488 827.93 214.544 824.524 205.512C821.288 196.479 816.518 189.618 810.216 184.927C803.914 180.064 796.249 177.632 787.221 177.632C778.364 177.632 770.784 179.977 764.482 184.667C758.35 189.183 753.58 195.784 750.174 204.469C746.937 213.155 745.319 223.924 745.319 236.778C745.319 246.159 746.256 254.583 748.13 262.053C750.174 269.348 752.984 275.515 756.561 280.552C760.138 285.59 764.567 289.411 769.847 292.017C775.127 294.622 781.174 295.925 787.987 295.925Z" fill="#151823"/>
<path d="M905.435 322.241V150.273H953.469L1029.86 271.954H1032.67L1030.37 150.273H1066.14V322.241H1022.71L941.971 194.829H939.161L941.46 322.241H905.435Z" fill="#151823"/>
<path d="M1115.81 322.241V150.273H1153.37V322.241H1115.81Z" fill="#151823"/>
<path d="M559.706 428.102C555.649 428.102 552.084 427.672 549.011 426.811C546 425.951 543.449 424.691 541.359 423.031C539.331 421.31 537.825 419.221 536.842 416.762C535.858 414.304 535.428 411.446 535.551 408.188L543.203 406.529C542.957 409.725 543.48 412.398 544.77 414.549C546.061 416.701 548.028 418.329 550.671 419.436C553.314 420.481 556.417 421.003 559.982 421.003C563.424 421.003 566.343 420.573 568.74 419.712C571.137 418.852 572.92 417.653 574.088 416.117C575.317 414.58 575.932 412.829 575.932 410.862C575.932 408.649 575.225 406.897 573.811 405.607C572.397 404.316 570.492 403.333 568.095 402.657C565.76 401.919 563.147 401.243 560.259 400.628C557.431 400.014 554.604 399.307 551.777 398.508C548.95 397.709 546.399 396.695 544.125 395.466C541.912 394.175 540.099 392.515 538.686 390.487C537.333 388.397 536.657 385.755 536.657 382.559C536.657 378.932 537.549 375.798 539.331 373.155C541.175 370.512 543.756 368.484 547.075 367.07C550.394 365.595 554.297 364.858 558.784 364.858C563.209 364.858 567.142 365.564 570.584 366.978C574.088 368.392 576.853 370.481 578.882 373.247C580.91 375.951 581.986 379.301 582.108 383.296L574.18 385.232C574.18 383.02 573.78 381.084 572.981 379.424C572.244 377.703 571.199 376.32 569.847 375.275C568.495 374.169 566.866 373.339 564.961 372.786C563.055 372.172 560.966 371.864 558.691 371.864C555.926 371.864 553.498 372.294 551.408 373.155C549.319 374.015 547.69 375.183 546.522 376.658C545.354 378.133 544.77 379.885 544.77 381.913C544.77 384.31 545.6 386.216 547.26 387.629C548.98 388.981 551.193 390.057 553.897 390.856C556.602 391.655 559.49 392.392 562.564 393.069C565.206 393.622 567.788 394.298 570.308 395.097C572.889 395.834 575.225 396.848 577.314 398.139C579.404 399.368 581.064 400.997 582.293 403.025C583.522 405.054 584.137 407.635 584.137 410.77C584.137 414.273 583.215 417.315 581.371 419.897C579.588 422.478 576.884 424.506 573.258 425.981C569.632 427.395 565.114 428.102 559.706 428.102ZM693.484 426.903V366.056H701.966V426.903H693.484ZM674.953 373.432V366.056H720.496V373.432H674.953ZM838.093 428.102C833.668 428.102 829.765 427.364 826.385 425.889C823.066 424.414 820.239 422.294 817.903 419.528C815.629 416.762 813.908 413.474 812.74 409.663C811.572 405.791 810.989 401.458 810.989 396.664C810.989 389.657 812.156 383.819 814.492 379.147C816.827 374.415 820.054 370.85 824.172 368.453C828.29 366.056 832.961 364.858 838.185 364.858C842.303 364.858 846.022 365.564 849.341 366.978C852.66 368.392 855.487 370.481 857.822 373.247C860.219 376.013 862.063 379.393 863.354 383.388C864.645 387.322 865.29 391.809 865.29 396.848C865.29 401.581 864.675 405.883 863.446 409.755C862.278 413.566 860.527 416.854 858.191 419.62C855.917 422.324 853.09 424.414 849.71 425.889C846.391 427.364 842.518 428.102 838.093 428.102ZM838.185 420.819C842.119 420.819 845.438 419.897 848.142 418.053C850.908 416.147 852.998 413.443 854.411 409.94C855.886 406.375 856.624 402.073 856.624 397.033C856.624 391.809 855.886 387.383 854.411 383.757C852.936 380.069 850.816 377.242 848.05 375.275C845.284 373.309 841.935 372.325 838.001 372.325C834.252 372.325 830.994 373.278 828.229 375.183C825.463 377.088 823.342 379.854 821.867 383.481C820.392 387.107 819.655 391.563 819.655 396.848C819.655 400.659 820.054 404.07 820.853 407.082C821.714 410.032 822.912 412.552 824.449 414.642C826.047 416.67 827.983 418.206 830.257 419.251C832.592 420.296 835.235 420.819 838.185 420.819ZM963.742 426.903V366.056H984.946C988.019 366.056 990.816 366.302 993.336 366.794C995.917 367.285 998.191 368.023 1000.16 369.006C1002.19 369.99 1003.88 371.188 1005.23 372.602C1006.64 374.015 1007.69 375.675 1008.36 377.58C1009.1 379.424 1009.47 381.483 1009.47 383.757C1009.47 385.908 1009.13 387.875 1008.46 389.657C1007.84 391.44 1006.89 393.007 1005.6 394.359C1004.31 395.711 1002.71 396.818 1000.8 397.678C998.898 398.477 996.685 399.03 994.165 399.338V400.536C996.378 400.782 998.314 401.366 999.974 402.288C1001.63 403.21 1003.05 404.562 1004.21 406.344C1005.38 408.065 1006.4 410.37 1007.26 413.259L1011.13 426.903H1002L998.867 414.457C998.314 411.937 997.362 409.909 996.009 408.373C994.719 406.836 993.09 405.699 991.123 404.961C989.156 404.224 986.852 403.855 984.209 403.855H972.224V426.903H963.742ZM972.224 396.941H984.209C989.679 396.941 993.797 395.957 996.563 393.99C999.39 392.024 1000.8 389.012 1000.8 384.956C1000.8 380.899 999.451 377.918 996.747 376.013C994.104 374.046 989.986 373.063 984.393 373.063H972.224V396.941ZM1121.83 426.903V407.266L1100.53 366.056H1110.39L1125.88 398.969H1126.34L1141.74 366.056H1151.6L1130.31 407.174V426.903H1121.83Z" fill="#151823"/>
<path fill-rule="evenodd" clip-rule="evenodd" d="M186.771 107.209C178.914 105.786 171.686 111.823 171.686 119.808V353.318C171.686 361.623 179.47 367.731 187.537 365.755L295.138 339.397V392.471C295.138 400.358 300.234 407.341 307.745 409.747L425.107 447.331C436.813 451.08 448.78 442.347 448.78 430.056L448.78 232.536C448.78 220.244 436.813 211.511 425.107 215.26L374.424 231.491V151.879C374.424 145.688 369.994 140.383 363.901 139.28L186.771 107.209ZM374.424 242.695V231.491L307.746 252.845C300.234 255.25 295.138 262.233 295.138 270.12L295.138 339.397L305.809 336.783V392.471C305.809 395.719 307.907 398.594 311 399.585L428.362 437.169C433.182 438.713 438.109 435.117 438.109 430.056L438.109 232.536C438.109 227.474 433.182 223.878 428.362 225.422L374.424 242.695ZM374.424 242.695V309.928C374.424 315.826 370.395 320.961 364.666 322.365L305.809 336.783L305.809 270.12C305.809 266.873 307.907 263.997 311 263.007L374.424 242.695Z" fill="#FFF643"/>
</svg>
