<svg width="1324" height="555" viewBox="0 0 1324 555" fill="none" xmlns="http://www.w3.org/2000/svg">
<path d="M534.741 322.241V150.273H571.533V227.138C580.22 223.49 588.31 218.887 595.805 213.328C603.47 207.596 610.283 201.256 616.245 194.308C622.207 187.359 627.316 180.151 631.575 172.681C635.833 165.212 638.899 157.743 640.773 150.273H682.93C680.545 158.785 676.883 167.296 671.944 175.808C667.174 184.146 661.468 192.049 654.825 199.519C648.182 206.988 641.113 213.676 633.619 219.582C626.294 225.314 618.885 229.83 611.39 233.131V237.039C619.226 237.039 626.209 237.994 632.341 239.905C638.644 241.642 644.179 244.508 648.949 248.504C653.888 252.325 658.232 257.102 661.979 262.834C665.726 268.567 669.048 275.428 671.944 283.418L685.485 322.241H643.839L634.896 290.974C632.512 282.463 629.36 275.688 625.443 270.651C621.525 265.44 616.5 261.705 610.368 259.447C604.236 257.015 596.231 255.799 586.351 255.799H571.533V322.241H534.741Z" fill="white"/>
<path d="M786.691 325.889C774.427 325.889 763.44 323.978 753.731 320.157C744.022 316.162 735.676 310.429 728.692 302.96C721.879 295.317 716.599 286.024 712.851 275.08C709.274 263.963 707.486 251.283 707.486 237.039C707.486 216.716 710.978 199.953 717.961 186.751C724.945 173.376 734.484 163.388 746.577 156.787C758.841 150.013 772.638 146.625 787.968 146.625C799.891 146.625 810.707 148.623 820.416 152.618C830.125 156.44 838.387 162.172 845.2 169.815C852.183 177.284 857.549 186.665 861.296 197.955C865.044 209.072 866.917 221.84 866.917 236.257C866.917 251.022 865.044 263.963 861.296 275.08C857.549 286.198 852.098 295.578 844.944 303.221C837.961 310.69 829.529 316.335 819.65 320.157C809.771 323.978 798.784 325.889 786.691 325.889ZM787.713 295.925C796.74 295.925 804.32 293.667 810.452 289.151C816.584 284.634 821.268 278.12 824.504 269.609C827.741 261.097 829.359 250.675 829.359 238.342C829.359 225.488 827.656 214.544 824.249 205.512C821.013 196.479 816.243 189.618 809.941 184.927C803.639 180.064 795.974 177.632 786.946 177.632C778.089 177.632 770.509 179.977 764.207 184.667C758.075 189.183 753.305 195.784 749.899 204.469C746.662 213.155 745.044 223.924 745.044 236.778C745.044 246.159 745.981 254.583 747.855 262.053C749.899 269.348 752.709 275.515 756.286 280.552C759.863 285.59 764.292 289.411 769.572 292.017C774.852 294.622 780.899 295.925 787.713 295.925Z" fill="white"/>
<path d="M905.16 322.241V150.273H953.194L1029.59 271.954H1032.4L1030.1 150.273H1065.87V322.241H1022.43L941.697 194.829H938.886L941.186 322.241H905.16Z" fill="white"/>
<path d="M1115.54 322.241V150.273H1153.09V322.241H1115.54Z" fill="white"/>
<path d="M559.431 428.102C555.374 428.102 551.809 427.672 548.736 426.811C545.725 425.951 543.174 424.691 541.084 423.031C539.056 421.31 537.55 419.221 536.567 416.762C535.583 414.304 535.153 411.446 535.276 408.188L542.928 406.529C542.682 409.725 543.205 412.398 544.495 414.549C545.786 416.701 547.753 418.329 550.396 419.436C553.039 420.481 556.142 421.003 559.707 421.003C563.149 421.003 566.069 420.573 568.466 419.712C570.863 418.852 572.645 417.653 573.813 416.117C575.042 414.58 575.657 412.829 575.657 410.862C575.657 408.649 574.95 406.897 573.536 405.607C572.123 404.316 570.217 403.333 567.82 402.657C565.485 401.919 562.873 401.243 559.984 400.628C557.157 400.014 554.329 399.307 551.502 398.508C548.675 397.709 546.124 396.695 543.85 395.466C541.637 394.175 539.824 392.515 538.411 390.487C537.059 388.397 536.382 385.755 536.382 382.559C536.382 378.932 537.274 375.798 539.056 373.155C540.9 370.512 543.481 368.484 546.8 367.07C550.119 365.595 554.022 364.858 558.509 364.858C562.934 364.858 566.868 365.564 570.309 366.978C573.813 368.392 576.579 370.481 578.607 373.247C580.635 375.951 581.711 379.301 581.834 383.296L573.905 385.232C573.905 383.02 573.505 381.084 572.706 379.424C571.969 377.703 570.924 376.32 569.572 375.275C568.22 374.169 566.591 373.339 564.686 372.786C562.78 372.172 560.691 371.864 558.417 371.864C555.651 371.864 553.223 372.294 551.133 373.155C549.044 374.015 547.415 375.183 546.247 376.658C545.079 378.133 544.495 379.885 544.495 381.913C544.495 384.31 545.325 386.216 546.985 387.629C548.706 388.981 550.918 390.057 553.623 390.856C556.327 391.655 559.216 392.392 562.289 393.069C564.932 393.622 567.513 394.298 570.033 395.097C572.614 395.834 574.95 396.848 577.039 398.139C579.129 399.368 580.789 400.997 582.018 403.025C583.247 405.054 583.862 407.635 583.862 410.77C583.862 414.273 582.94 417.315 581.096 419.897C579.314 422.478 576.609 424.506 572.983 425.981C569.357 427.395 564.839 428.102 559.431 428.102ZM693.209 426.903V366.056H701.691V426.903H693.209ZM674.678 373.432V366.056H720.221V373.432H674.678ZM837.818 428.102C833.393 428.102 829.49 427.364 826.11 425.889C822.791 424.414 819.964 422.294 817.628 419.528C815.354 416.762 813.633 413.474 812.465 409.663C811.298 405.791 810.714 401.458 810.714 396.664C810.714 389.657 811.881 383.819 814.217 379.147C816.553 374.415 819.779 370.85 823.897 368.453C828.015 366.056 832.686 364.858 837.911 364.858C842.028 364.858 845.747 365.564 849.066 366.978C852.385 368.392 855.212 370.481 857.548 373.247C859.945 376.013 861.788 379.393 863.079 383.388C864.37 387.322 865.015 391.809 865.015 396.848C865.015 401.581 864.401 405.883 863.171 409.755C862.004 413.566 860.252 416.854 857.916 419.62C855.642 422.324 852.815 424.414 849.435 425.889C846.116 427.364 842.244 428.102 837.818 428.102ZM837.911 420.819C841.844 420.819 845.163 419.897 847.867 418.053C850.633 416.147 852.723 413.443 854.136 409.94C855.612 406.375 856.349 402.073 856.349 397.033C856.349 391.809 855.612 387.383 854.136 383.757C852.661 380.069 850.541 377.242 847.775 375.275C845.009 373.309 841.66 372.325 837.726 372.325C833.977 372.325 830.719 373.278 827.954 375.183C825.188 377.088 823.067 379.854 821.592 383.481C820.117 387.107 819.38 391.563 819.38 396.848C819.38 400.659 819.779 404.07 820.578 407.082C821.439 410.032 822.637 412.552 824.174 414.642C825.772 416.67 827.708 418.206 829.982 419.251C832.317 420.296 834.96 420.819 837.911 420.819ZM963.467 426.903V366.056H984.671C987.744 366.056 990.541 366.302 993.061 366.794C995.642 367.285 997.916 368.023 999.883 369.006C1001.91 369.99 1003.6 371.188 1004.95 372.602C1006.37 374.015 1007.41 375.675 1008.09 377.58C1008.83 379.424 1009.19 381.483 1009.19 383.757C1009.19 385.908 1008.86 387.875 1008.18 389.657C1007.57 391.44 1006.61 393.007 1005.32 394.359C1004.03 395.711 1002.43 396.818 1000.53 397.678C998.623 398.477 996.411 399.03 993.891 399.338V400.536C996.103 400.782 998.039 401.366 999.699 402.288C1001.36 403.21 1002.77 404.562 1003.94 406.344C1005.11 408.065 1006.12 410.37 1006.98 413.259L1010.85 426.903H1001.73L998.592 414.457C998.039 411.937 997.087 409.909 995.734 408.373C994.444 406.836 992.815 405.699 990.848 404.961C988.881 404.224 986.577 403.855 983.934 403.855H971.949V426.903H963.467ZM971.949 396.941H983.934C989.404 396.941 993.522 395.957 996.288 393.99C999.115 392.024 1000.53 389.012 1000.53 384.956C1000.53 380.899 999.176 377.918 996.472 376.013C993.829 374.046 989.711 373.063 984.118 373.063H971.949V396.941ZM1121.55 426.903V407.266L1100.26 366.056H1110.12L1125.61 398.969H1126.07L1141.47 366.056H1151.33L1130.03 407.174V426.903H1121.55Z" fill="white"/>
<path fill-rule="evenodd" clip-rule="evenodd" d="M186.497 107.209C178.64 105.786 171.411 111.823 171.411 119.808V353.318C171.411 361.623 179.196 367.731 187.262 365.755L294.864 339.397V392.471C294.864 400.358 299.96 407.341 307.471 409.747L424.833 447.331C436.539 451.08 448.505 442.347 448.505 430.056L448.505 232.536C448.505 220.244 436.539 211.511 424.833 215.26L374.15 231.491V151.879C374.15 145.688 369.719 140.383 363.627 139.28L186.497 107.209ZM374.15 242.695V231.491L307.471 252.845C299.96 255.25 294.864 262.233 294.864 270.12L294.864 339.397L305.534 336.783V392.471C305.534 395.719 307.633 398.594 310.725 399.585L428.087 437.169C432.907 438.713 437.835 435.117 437.835 430.056L437.835 232.536C437.835 227.474 432.907 223.878 428.087 225.422L374.15 242.695ZM374.15 242.695V309.928C374.15 315.826 370.121 320.961 364.392 322.365L305.534 336.783L305.534 270.12C305.534 266.873 307.633 263.997 310.725 263.007L374.15 242.695Z" fill="#1DE885"/>
</svg>
