<svg width="1324" height="555" viewBox="0 0 1324 555" fill="none" xmlns="http://www.w3.org/2000/svg">
<path d="M535.152 322.241V150.273H571.944V227.138C580.631 223.49 588.722 218.887 596.217 213.328C603.882 207.596 610.695 201.256 616.656 194.308C622.618 187.359 627.728 180.151 631.986 172.681C636.245 165.212 639.311 157.743 641.184 150.273H683.342C680.957 158.785 677.295 167.296 672.355 175.808C667.586 184.146 661.88 192.049 655.237 199.519C648.594 206.988 641.525 213.676 634.03 219.582C626.706 225.314 619.297 229.83 611.802 233.131V237.039C619.637 237.039 626.621 237.994 632.753 239.905C639.055 241.642 644.591 244.508 649.36 248.504C654.3 252.325 658.643 257.102 662.391 262.834C666.138 268.567 669.46 275.428 672.355 283.418L685.897 322.241H644.25L635.308 290.974C632.923 282.463 629.772 275.688 625.854 270.651C621.937 265.44 616.912 261.705 610.78 259.447C604.648 257.015 596.642 255.799 586.763 255.799H571.944V322.241H535.152Z" fill="#151823"/>
<path d="M787.102 325.889C774.838 325.889 763.852 323.978 754.143 320.157C744.434 316.162 736.088 310.429 729.104 302.96C722.291 295.317 717.01 286.024 713.263 275.08C709.686 263.963 707.898 251.283 707.898 237.039C707.898 216.716 711.389 199.953 718.373 186.751C725.357 173.376 734.895 163.388 746.989 156.787C759.253 150.013 773.05 146.625 788.38 146.625C800.303 146.625 811.119 148.623 820.828 152.618C830.537 156.44 838.798 162.172 845.611 169.815C852.595 177.284 857.961 186.665 861.708 197.955C865.455 209.072 867.329 221.84 867.329 236.257C867.329 251.022 865.455 263.963 861.708 275.08C857.961 286.198 852.51 295.578 845.356 303.221C838.372 310.69 829.941 316.335 820.062 320.157C810.182 323.978 799.196 325.889 787.102 325.889ZM788.124 295.925C797.152 295.925 804.732 293.667 810.864 289.151C816.996 284.634 821.68 278.12 824.916 269.609C828.152 261.097 829.771 250.675 829.771 238.342C829.771 225.488 828.067 214.544 824.661 205.512C821.424 196.479 816.655 189.618 810.353 184.927C804.05 180.064 796.385 177.632 787.358 177.632C778.5 177.632 770.921 179.977 764.618 184.667C758.486 189.183 753.717 195.784 750.31 204.469C747.074 213.155 745.456 223.924 745.456 236.778C745.456 246.159 746.393 254.583 748.266 262.053C750.31 269.348 753.121 275.515 756.698 280.552C760.275 285.59 764.703 289.411 769.984 292.017C775.264 294.622 781.311 295.925 788.124 295.925Z" fill="#151823"/>
<path d="M905.572 322.241V150.273H953.606L1030 271.954H1032.81L1030.51 150.273H1066.28V322.241H1022.85L942.108 194.829H939.298L941.597 322.241H905.572Z" fill="#151823"/>
<path d="M1115.95 322.241V150.273H1153.51V322.241H1115.95Z" fill="#151823"/>
<path d="M559.842 428.102C555.786 428.102 552.221 427.672 549.148 426.811C546.136 425.951 543.586 424.691 541.496 423.031C539.468 421.31 537.962 419.221 536.978 416.762C535.995 414.304 535.565 411.446 535.688 408.188L543.34 406.529C543.094 409.725 543.616 412.398 544.907 414.549C546.198 416.701 548.165 418.329 550.807 419.436C553.45 420.481 556.554 421.003 560.119 421.003C563.561 421.003 566.48 420.573 568.877 419.712C571.274 418.852 573.057 417.653 574.224 416.117C575.454 414.58 576.068 412.829 576.068 410.862C576.068 408.649 575.361 406.897 573.948 405.607C572.534 404.316 570.629 403.333 568.232 402.657C565.896 401.919 563.284 401.243 560.395 400.628C557.568 400.014 554.741 399.307 551.914 398.508C549.086 397.709 546.536 396.695 544.262 395.466C542.049 394.175 540.236 392.515 538.822 390.487C537.47 388.397 536.794 385.755 536.794 382.559C536.794 378.932 537.685 375.798 539.468 373.155C541.312 370.512 543.893 368.484 547.212 367.07C550.531 365.595 554.434 364.858 558.92 364.858C563.346 364.858 567.279 365.564 570.721 366.978C574.224 368.392 576.99 370.481 579.018 373.247C581.047 375.951 582.122 379.301 582.245 383.296L574.317 385.232C574.317 383.02 573.917 381.084 573.118 379.424C572.381 377.703 571.336 376.32 569.984 375.275C568.631 374.169 567.003 373.339 565.097 372.786C563.192 372.172 561.102 371.864 558.828 371.864C556.062 371.864 553.635 372.294 551.545 373.155C549.455 374.015 547.827 375.183 546.659 376.658C545.491 378.133 544.907 379.885 544.907 381.913C544.907 384.31 545.737 386.216 547.396 387.629C549.117 388.981 551.33 390.057 554.034 390.856C556.738 391.655 559.627 392.392 562.7 393.069C565.343 393.622 567.925 394.298 570.444 395.097C573.026 395.834 575.361 396.848 577.451 398.139C579.541 399.368 581.2 400.997 582.43 403.025C583.659 405.054 584.273 407.635 584.273 410.77C584.273 414.273 583.351 417.315 581.508 419.897C579.725 422.478 577.021 424.506 573.395 425.981C569.768 427.395 565.251 428.102 559.842 428.102ZM693.621 426.903V366.056H702.102V426.903H693.621ZM675.09 373.432V366.056H720.633V373.432H675.09ZM838.23 428.102C833.805 428.102 829.902 427.364 826.521 425.889C823.203 424.414 820.375 422.294 818.04 419.528C815.766 416.762 814.045 413.474 812.877 409.663C811.709 405.791 811.125 401.458 811.125 396.664C811.125 389.657 812.293 383.819 814.629 379.147C816.964 374.415 820.191 370.85 824.309 368.453C828.427 366.056 833.098 364.858 838.322 364.858C842.44 364.858 846.159 365.564 849.477 366.978C852.796 368.392 855.624 370.481 857.959 373.247C860.356 376.013 862.2 379.393 863.491 383.388C864.781 387.322 865.427 391.809 865.427 396.848C865.427 401.581 864.812 405.883 863.583 409.755C862.415 413.566 860.664 416.854 858.328 419.62C856.054 422.324 853.227 424.414 849.846 425.889C846.527 427.364 842.655 428.102 838.23 428.102ZM838.322 420.819C842.256 420.819 845.575 419.897 848.279 418.053C851.045 416.147 853.134 413.443 854.548 409.94C856.023 406.375 856.761 402.073 856.761 397.033C856.761 391.809 856.023 387.383 854.548 383.757C853.073 380.069 850.953 377.242 848.187 375.275C845.421 373.309 842.071 372.325 838.138 372.325C834.389 372.325 831.131 373.278 828.365 375.183C825.6 377.088 823.479 379.854 822.004 383.481C820.529 387.107 819.791 391.563 819.791 396.848C819.791 400.659 820.191 404.07 820.99 407.082C821.85 410.032 823.049 412.552 824.585 414.642C826.183 416.67 828.119 418.206 830.394 419.251C832.729 420.296 835.372 420.819 838.322 420.819ZM963.879 426.903V366.056H985.083C988.156 366.056 990.953 366.302 993.472 366.794C996.054 367.285 998.328 368.023 1000.29 369.006C1002.32 369.99 1004.01 371.188 1005.37 372.602C1006.78 374.015 1007.82 375.675 1008.5 377.58C1009.24 379.424 1009.61 381.483 1009.61 383.757C1009.61 385.908 1009.27 387.875 1008.59 389.657C1007.98 391.44 1007.02 393.007 1005.73 394.359C1004.44 395.711 1002.85 396.818 1000.94 397.678C999.035 398.477 996.822 399.03 994.302 399.338V400.536C996.515 400.782 998.451 401.366 1000.11 402.288C1001.77 403.21 1003.18 404.562 1004.35 406.344C1005.52 408.065 1006.53 410.37 1007.39 413.259L1011.27 426.903H1002.14L999.004 414.457C998.451 411.937 997.498 409.909 996.146 408.373C994.855 406.836 993.227 405.699 991.26 404.961C989.293 404.224 986.988 403.855 984.345 403.855H972.36V426.903H963.879ZM972.36 396.941H984.345C989.815 396.941 993.933 395.957 996.699 393.99C999.526 392.024 1000.94 389.012 1000.94 384.956C1000.94 380.899 999.588 377.918 996.884 376.013C994.241 374.046 990.123 373.063 984.53 373.063H972.36V396.941ZM1121.96 426.903V407.266L1100.67 366.056H1110.53L1126.02 398.969H1126.48L1141.88 366.056H1151.74L1130.45 407.174V426.903H1121.96Z" fill="#151823"/>
<path fill-rule="evenodd" clip-rule="evenodd" d="M186.908 107.209C179.051 105.786 171.822 111.823 171.822 119.808V353.318C171.822 361.623 179.607 367.731 187.673 365.755L295.275 339.397V392.471C295.275 400.358 300.371 407.341 307.882 409.747L425.244 447.331C436.95 451.08 448.916 442.347 448.916 430.056L448.916 232.536C448.916 220.244 436.95 211.511 425.244 215.26L374.561 231.491V151.879C374.561 145.688 370.131 140.383 364.038 139.28L186.908 107.209ZM374.561 242.695V231.491L307.882 252.845C300.371 255.25 295.275 262.233 295.275 270.12L295.275 339.397L305.945 336.783V392.471C305.945 395.719 308.044 398.594 311.137 399.585L428.499 437.169C433.319 438.713 438.246 435.117 438.246 430.056L438.246 232.536C438.246 227.474 433.319 223.878 428.499 225.422L374.561 242.695ZM374.561 242.695V309.928C374.561 315.826 370.532 320.961 364.803 322.365L305.945 336.783L305.945 270.12C305.945 266.873 308.044 263.997 311.137 263.007L374.561 242.695Z" fill="#6F60F1"/>
</svg>
