<svg width="1324" height="555" viewBox="0 0 1324 555" fill="none" xmlns="http://www.w3.org/2000/svg">
<path d="M534.33 322.241V150.273H571.121V227.138C579.808 223.49 587.899 218.887 595.394 213.328C603.059 207.596 609.872 201.256 615.834 194.308C621.795 187.359 626.905 180.151 631.164 172.681C635.422 165.212 638.488 157.743 640.362 150.273H682.519C680.134 158.785 676.472 167.296 671.532 175.808C666.763 184.146 661.057 192.049 654.414 199.519C647.771 206.988 640.702 213.676 633.208 219.582C625.883 225.314 618.474 229.83 610.979 233.131V237.039C618.815 237.039 625.798 237.994 631.93 239.905C638.232 241.642 643.768 244.508 648.538 248.504C653.477 252.325 657.821 257.102 661.568 262.834C665.315 268.567 668.637 275.428 671.532 283.418L685.074 322.241H643.428L634.485 290.974C632.101 282.463 628.949 275.688 625.032 270.651C621.114 265.44 616.089 261.705 609.957 259.447C603.825 257.015 595.82 255.799 585.94 255.799H571.121V322.241H534.33Z" fill="white"/>
<path d="M786.279 325.889C774.015 325.889 763.029 323.978 753.32 320.157C743.611 316.162 735.265 310.429 728.281 302.96C721.468 295.317 716.188 286.024 712.44 275.08C708.863 263.963 707.075 251.283 707.075 237.039C707.075 216.716 710.567 199.953 717.55 186.751C724.534 173.376 734.073 163.388 746.166 156.787C758.43 150.013 772.227 146.625 787.557 146.625C799.48 146.625 810.296 148.623 820.005 152.618C829.714 156.44 837.975 162.172 844.789 169.815C851.772 177.284 857.138 186.665 860.885 197.955C864.632 209.072 866.506 221.84 866.506 236.257C866.506 251.022 864.632 263.963 860.885 275.08C857.138 286.198 851.687 295.578 844.533 303.221C837.55 310.69 829.118 316.335 819.239 320.157C809.36 323.978 798.373 325.889 786.279 325.889ZM787.301 295.925C796.329 295.925 803.909 293.667 810.041 289.151C816.173 284.634 820.857 278.12 824.093 269.609C827.33 261.097 828.948 250.675 828.948 238.342C828.948 225.488 827.244 214.544 823.838 205.512C820.601 196.479 815.832 189.618 809.53 184.927C803.228 180.064 795.563 177.632 786.535 177.632C777.678 177.632 770.098 179.977 763.796 184.667C757.664 189.183 752.894 195.784 749.488 204.469C746.251 213.155 744.633 223.924 744.633 236.778C744.633 246.159 745.57 254.583 747.444 262.053C749.488 269.348 752.298 275.515 755.875 280.552C759.452 285.59 763.881 289.411 769.161 292.017C774.441 294.622 780.488 295.925 787.301 295.925Z" fill="white"/>
<path d="M904.749 322.241V150.273H952.783L1029.18 271.954H1031.99L1029.69 150.273H1065.46V322.241H1022.02L941.285 194.829H938.475L940.774 322.241H904.749Z" fill="white"/>
<path d="M1115.12 322.241V150.273H1152.68V322.241H1115.12Z" fill="white"/>
<path d="M559.02 428.102C554.963 428.102 551.398 427.672 548.325 426.811C545.314 425.951 542.763 424.691 540.673 423.031C538.645 421.31 537.139 419.221 536.156 416.762C535.172 414.304 534.742 411.446 534.865 408.188L542.517 406.529C542.271 409.725 542.794 412.398 544.084 414.549C545.375 416.701 547.342 418.329 549.985 419.436C552.628 420.481 555.731 421.003 559.296 421.003C562.738 421.003 565.657 420.573 568.054 419.712C570.451 418.852 572.234 417.653 573.402 416.117C574.631 414.58 575.245 412.829 575.245 410.862C575.245 408.649 574.539 406.897 573.125 405.607C571.711 404.316 569.806 403.333 567.409 402.657C565.074 401.919 562.461 401.243 559.573 400.628C556.745 400.014 553.918 399.307 551.091 398.508C548.264 397.709 545.713 396.695 543.439 395.466C541.226 394.175 539.413 392.515 538 390.487C536.647 388.397 535.971 385.755 535.971 382.559C535.971 378.932 536.863 375.798 538.645 373.155C540.489 370.512 543.07 368.484 546.389 367.07C549.708 365.595 553.611 364.858 558.098 364.858C562.523 364.858 566.456 365.564 569.898 366.978C573.402 368.392 576.167 370.481 578.196 373.247C580.224 375.951 581.299 379.301 581.422 383.296L573.494 385.232C573.494 383.02 573.094 381.084 572.295 379.424C571.558 377.703 570.513 376.32 569.161 375.275C567.809 374.169 566.18 373.339 564.275 372.786C562.369 372.172 560.28 371.864 558.005 371.864C555.24 371.864 552.812 372.294 550.722 373.155C548.632 374.015 547.004 375.183 545.836 376.658C544.668 378.133 544.084 379.885 544.084 381.913C544.084 384.31 544.914 386.216 546.574 387.629C548.294 388.981 550.507 390.057 553.211 390.856C555.916 391.655 558.804 392.392 561.878 393.069C564.52 393.622 567.102 394.298 569.622 395.097C572.203 395.834 574.539 396.848 576.628 398.139C578.718 399.368 580.378 400.997 581.607 403.025C582.836 405.054 583.451 407.635 583.451 410.77C583.451 414.273 582.529 417.315 580.685 419.897C578.902 422.478 576.198 424.506 572.572 425.981C568.946 427.395 564.428 428.102 559.02 428.102ZM692.798 426.903V366.056H701.279V426.903H692.798ZM674.267 373.432V366.056H719.81V373.432H674.267ZM837.407 428.102C832.982 428.102 829.079 427.364 825.699 425.889C822.38 424.414 819.553 422.294 817.217 419.528C814.943 416.762 813.222 413.474 812.054 409.663C810.886 405.791 810.303 401.458 810.303 396.664C810.303 389.657 811.47 383.819 813.806 379.147C816.141 374.415 819.368 370.85 823.486 368.453C827.604 366.056 832.275 364.858 837.499 364.858C841.617 364.858 845.336 365.564 848.655 366.978C851.974 368.392 854.801 370.481 857.136 373.247C859.533 376.013 861.377 379.393 862.668 383.388C863.959 387.322 864.604 391.809 864.604 396.848C864.604 401.581 863.989 405.883 862.76 409.755C861.592 413.566 859.841 416.854 857.505 419.62C855.231 422.324 852.404 424.414 849.023 425.889C845.705 427.364 841.832 428.102 837.407 428.102ZM837.499 420.819C841.433 420.819 844.752 419.897 847.456 418.053C850.222 416.147 852.312 413.443 853.725 409.94C855.2 406.375 855.938 402.073 855.938 397.033C855.938 391.809 855.2 387.383 853.725 383.757C852.25 380.069 850.13 377.242 847.364 375.275C844.598 373.309 841.249 372.325 837.315 372.325C833.566 372.325 830.308 373.278 827.543 375.183C824.777 377.088 822.656 379.854 821.181 383.481C819.706 387.107 818.969 391.563 818.969 396.848C818.969 400.659 819.368 404.07 820.167 407.082C821.028 410.032 822.226 412.552 823.763 414.642C825.361 416.67 827.297 418.206 829.571 419.251C831.906 420.296 834.549 420.819 837.499 420.819ZM963.056 426.903V366.056H984.26C987.333 366.056 990.13 366.302 992.65 366.794C995.231 367.285 997.505 368.023 999.472 369.006C1001.5 369.99 1003.19 371.188 1004.54 372.602C1005.96 374.015 1007 375.675 1007.68 377.58C1008.41 379.424 1008.78 381.483 1008.78 383.757C1008.78 385.908 1008.45 387.875 1007.77 389.657C1007.15 391.44 1006.2 393.007 1004.91 394.359C1003.62 395.711 1002.02 396.818 1000.12 397.678C998.212 398.477 995.999 399.03 993.479 399.338V400.536C995.692 400.782 997.628 401.366 999.288 402.288C1000.95 403.21 1002.36 404.562 1003.53 406.344C1004.7 408.065 1005.71 410.37 1006.57 413.259L1010.44 426.903H1001.32L998.181 414.457C997.628 411.937 996.675 409.909 995.323 408.373C994.033 406.836 992.404 405.699 990.437 404.961C988.47 404.224 986.165 403.855 983.523 403.855H971.538V426.903H963.056ZM971.538 396.941H983.523C988.993 396.941 993.111 395.957 995.876 393.99C998.704 392.024 1000.12 389.012 1000.12 384.956C1000.12 380.899 998.765 377.918 996.061 376.013C993.418 374.046 989.3 373.063 983.707 373.063H971.538V396.941ZM1121.14 426.903V407.266L1099.84 366.056H1109.71L1125.2 398.969H1125.66L1141.05 366.056H1150.92L1129.62 407.174V426.903H1121.14Z" fill="white"/>
<path fill-rule="evenodd" clip-rule="evenodd" d="M186.086 107.209C178.229 105.786 171 111.823 171 119.808V353.318C171 361.623 178.784 367.731 186.851 365.755L294.453 339.397V392.471C294.453 400.358 299.549 407.341 307.06 409.747L424.422 447.331C436.128 451.08 448.094 442.347 448.094 430.056L448.094 232.536C448.094 220.244 436.128 211.511 424.422 215.26L373.739 231.491V151.879C373.739 145.688 369.308 140.383 363.216 139.28L186.086 107.209ZM373.739 242.695V231.491L307.06 252.845C299.549 255.25 294.453 262.233 294.453 270.12L294.453 339.397L305.123 336.783V392.471C305.123 395.719 307.221 398.594 310.314 399.585L427.676 437.169C432.496 438.713 437.424 435.117 437.424 430.056L437.424 232.536C437.424 227.474 432.496 223.878 427.676 225.422L373.739 242.695ZM373.739 242.695V309.928C373.739 315.826 369.71 320.961 363.981 322.365L305.123 336.783L305.123 270.12C305.123 266.873 307.221 263.997 310.314 263.007L373.739 242.695Z" fill="white"/>
</svg>
