<svg width="1324" height="555" viewBox="0 0 1324 555" fill="none" xmlns="http://www.w3.org/2000/svg">
<path d="M534.467 322.241V150.273H571.259V227.138C579.946 223.49 588.036 218.887 595.531 213.328C603.196 207.596 610.009 201.256 615.971 194.308C621.933 187.359 627.043 180.151 631.301 172.681C635.559 165.212 638.625 157.743 640.499 150.273H682.656C680.272 158.785 676.609 167.296 671.67 175.808C666.9 184.146 661.194 192.049 654.551 199.519C647.908 206.988 640.84 213.676 633.345 219.582C626.021 225.314 618.611 229.83 611.116 233.131V237.039C618.952 237.039 625.935 237.994 632.067 239.905C638.37 241.642 643.905 244.508 648.675 248.504C653.614 252.325 657.958 257.102 661.705 262.834C665.453 268.567 668.774 275.428 671.67 283.418L685.211 322.241H643.565L634.622 290.974C632.238 282.463 629.087 275.688 625.169 270.651C621.251 265.44 616.226 261.705 610.094 259.447C603.962 257.015 595.957 255.799 586.078 255.799H571.259V322.241H534.467Z" fill="white"/>
<path d="M786.417 325.889C774.153 325.889 763.166 323.978 753.457 320.157C743.748 316.162 735.402 310.429 728.418 302.96C721.605 295.317 716.325 286.024 712.577 275.08C709 263.963 707.212 251.283 707.212 237.039C707.212 216.716 710.704 199.953 717.687 186.751C724.671 173.376 734.21 163.388 746.303 156.787C758.567 150.013 772.364 146.625 787.694 146.625C799.617 146.625 810.434 148.623 820.143 152.618C829.851 156.44 838.113 162.172 844.926 169.815C851.91 177.284 857.275 186.665 861.022 197.955C864.77 209.072 866.643 221.84 866.643 236.257C866.643 251.022 864.77 263.963 861.022 275.08C857.275 286.198 851.824 295.578 844.67 303.221C837.687 310.69 829.255 316.335 819.376 320.157C809.497 323.978 798.51 325.889 786.417 325.889ZM787.439 295.925C796.466 295.925 804.046 293.667 810.178 289.151C816.31 284.634 820.994 278.12 824.23 269.609C827.467 261.097 829.085 250.675 829.085 238.342C829.085 225.488 827.382 214.544 823.975 205.512C820.739 196.479 815.969 189.618 809.667 184.927C803.365 180.064 795.7 177.632 786.672 177.632C777.815 177.632 770.235 179.977 763.933 184.667C757.801 189.183 753.031 195.784 749.625 204.469C746.388 213.155 744.77 223.924 744.77 236.778C744.77 246.159 745.707 254.583 747.581 262.053C749.625 269.348 752.435 275.515 756.012 280.552C759.589 285.59 764.018 289.411 769.298 292.017C774.579 294.622 780.625 295.925 787.439 295.925Z" fill="white"/>
<path d="M904.886 322.241V150.273H952.92L1029.31 271.954H1032.12L1029.83 150.273H1065.6V322.241H1022.16L941.423 194.829H938.612L940.912 322.241H904.886Z" fill="white"/>
<path d="M1115.26 322.241V150.273H1152.82V322.241H1115.26Z" fill="white"/>
<path d="M559.157 428.102C555.1 428.102 551.535 427.672 548.462 426.811C545.451 425.951 542.9 424.691 540.81 423.031C538.782 421.31 537.276 419.221 536.293 416.762C535.31 414.304 534.879 411.446 535.002 408.188L542.654 406.529C542.408 409.725 542.931 412.398 544.222 414.549C545.512 416.701 547.479 418.329 550.122 419.436C552.765 420.481 555.869 421.003 559.433 421.003C562.875 421.003 565.795 420.573 568.192 419.712C570.589 418.852 572.371 417.653 573.539 416.117C574.768 414.58 575.383 412.829 575.383 410.862C575.383 408.649 574.676 406.897 573.262 405.607C571.849 404.316 569.943 403.333 567.546 402.657C565.211 401.919 562.599 401.243 559.71 400.628C556.883 400.014 554.055 399.307 551.228 398.508C548.401 397.709 545.85 396.695 543.576 395.466C541.364 394.175 539.55 392.515 538.137 390.487C536.785 388.397 536.109 385.755 536.109 382.559C536.109 378.932 537 375.798 538.782 373.155C540.626 370.512 543.207 368.484 546.526 367.07C549.845 365.595 553.748 364.858 558.235 364.858C562.66 364.858 566.594 365.564 570.036 366.978C573.539 368.392 576.305 370.481 578.333 373.247C580.361 375.951 581.437 379.301 581.56 383.296L573.631 385.232C573.631 383.02 573.232 381.084 572.433 379.424C571.695 377.703 570.65 376.32 569.298 375.275C567.946 374.169 566.317 373.339 564.412 372.786C562.506 372.172 560.417 371.864 558.143 371.864C555.377 371.864 552.949 372.294 550.859 373.155C548.77 374.015 547.141 375.183 545.973 376.658C544.805 378.133 544.222 379.885 544.222 381.913C544.222 384.31 545.051 386.216 546.711 387.629C548.432 388.981 550.644 390.057 553.349 390.856C556.053 391.655 558.942 392.392 562.015 393.069C564.658 393.622 567.239 394.298 569.759 395.097C572.34 395.834 574.676 396.848 576.766 398.139C578.855 399.368 580.515 400.997 581.744 403.025C582.973 405.054 583.588 407.635 583.588 410.77C583.588 414.273 582.666 417.315 580.822 419.897C579.04 422.478 576.335 424.506 572.709 425.981C569.083 427.395 564.565 428.102 559.157 428.102ZM692.935 426.903V366.056H701.417V426.903H692.935ZM674.404 373.432V366.056H719.947V373.432H674.404ZM837.544 428.102C833.119 428.102 829.216 427.364 825.836 425.889C822.517 424.414 819.69 422.294 817.354 419.528C815.08 416.762 813.359 413.474 812.191 409.663C811.024 405.791 810.44 401.458 810.44 396.664C810.44 389.657 811.607 383.819 813.943 379.147C816.279 374.415 819.505 370.85 823.623 368.453C827.741 366.056 832.412 364.858 837.637 364.858C841.755 364.858 845.473 365.564 848.792 366.978C852.111 368.392 854.938 370.481 857.274 373.247C859.671 376.013 861.515 379.393 862.805 383.388C864.096 387.322 864.741 391.809 864.741 396.848C864.741 401.581 864.127 405.883 862.897 409.755C861.73 413.566 859.978 416.854 857.642 419.62C855.368 422.324 852.541 424.414 849.161 425.889C845.842 427.364 841.97 428.102 837.544 428.102ZM837.637 420.819C841.57 420.819 844.889 419.897 847.593 418.053C850.359 416.147 852.449 413.443 853.863 409.94C855.338 406.375 856.075 402.073 856.075 397.033C856.075 391.809 855.338 387.383 853.863 383.757C852.387 380.069 850.267 377.242 847.501 375.275C844.735 373.309 841.386 372.325 837.452 372.325C833.703 372.325 830.446 373.278 827.68 375.183C824.914 377.088 822.794 379.854 821.318 383.481C819.843 387.107 819.106 391.563 819.106 396.848C819.106 400.659 819.505 404.07 820.304 407.082C821.165 410.032 822.363 412.552 823.9 414.642C825.498 416.67 827.434 418.206 829.708 419.251C832.044 420.296 834.686 420.819 837.637 420.819ZM963.193 426.903V366.056H984.397C987.47 366.056 990.267 366.302 992.787 366.794C995.368 367.285 997.642 368.023 999.609 369.006C1001.64 369.99 1003.33 371.188 1004.68 372.602C1006.09 374.015 1007.14 375.675 1007.81 377.58C1008.55 379.424 1008.92 381.483 1008.92 383.757C1008.92 385.908 1008.58 387.875 1007.91 389.657C1007.29 391.44 1006.34 393.007 1005.05 394.359C1003.76 395.711 1002.16 396.818 1000.25 397.678C998.349 398.477 996.137 399.03 993.617 399.338V400.536C995.829 400.782 997.765 401.366 999.425 402.288C1001.08 403.21 1002.5 404.562 1003.67 406.344C1004.83 408.065 1005.85 410.37 1006.71 413.259L1010.58 426.903H1001.45L998.318 414.457C997.765 411.937 996.813 409.909 995.461 408.373C994.17 406.836 992.541 405.699 990.574 404.961C988.608 404.224 986.303 403.855 983.66 403.855H971.675V426.903H963.193ZM971.675 396.941H983.66C989.13 396.941 993.248 395.957 996.014 393.99C998.841 392.024 1000.25 389.012 1000.25 384.956C1000.25 380.899 998.902 377.918 996.198 376.013C993.555 374.046 989.437 373.063 983.844 373.063H971.675V396.941ZM1121.28 426.903V407.266L1099.98 366.056H1109.85L1125.33 398.969H1125.8L1141.19 366.056H1151.06L1129.76 407.174V426.903H1121.28Z" fill="white"/>
<path fill-rule="evenodd" clip-rule="evenodd" d="M186.223 107.209C178.366 105.786 171.137 111.823 171.137 119.808V353.318C171.137 361.623 178.922 367.731 186.988 365.755L294.59 339.397V392.471C294.59 400.358 299.686 407.341 307.197 409.747L424.559 447.331C436.265 451.08 448.231 442.347 448.231 430.056L448.231 232.536C448.231 220.244 436.265 211.511 424.559 215.26L373.876 231.491V151.879C373.876 145.688 369.445 140.383 363.353 139.28L186.223 107.209ZM373.876 242.695V231.491L307.197 252.845C299.686 255.25 294.59 262.233 294.59 270.12L294.59 339.397L305.26 336.783V392.471C305.26 395.719 307.359 398.594 310.452 399.585L427.813 437.169C432.633 438.713 437.561 435.117 437.561 430.056L437.561 232.536C437.561 227.474 432.634 223.878 427.814 225.422L373.876 242.695ZM373.876 242.695V309.928C373.876 315.826 369.847 320.961 364.118 322.365L305.26 336.783L305.26 270.12C305.26 266.873 307.359 263.997 310.452 263.007L373.876 242.695Z" fill="#FFF643"/>
</svg>
