<svg width="1324" height="555" viewBox="0 0 1324 555" fill="none" xmlns="http://www.w3.org/2000/svg">
<path d="M555.057 320.926V148.958H591.848V225.823C600.535 222.175 608.626 217.572 616.121 212.013C623.786 206.281 630.599 199.941 636.561 192.993C642.522 186.044 647.632 178.836 651.891 171.366C656.149 163.897 659.215 156.428 661.089 148.958H703.246C700.861 157.47 697.199 165.981 692.26 174.493C687.49 182.831 681.784 190.734 675.141 198.204C668.498 205.673 661.429 212.361 653.935 218.267C646.61 223.999 639.201 228.515 631.706 231.816V235.724C639.542 235.724 646.525 236.679 652.657 238.59C658.96 240.327 664.495 243.193 669.265 247.189C674.204 251.01 678.548 255.787 682.295 261.519C686.042 267.252 689.364 274.113 692.26 282.103L705.801 320.926H664.155L655.212 289.66C652.828 281.148 649.676 274.373 645.759 269.336C641.841 264.125 636.816 260.39 630.684 258.132C624.552 255.7 616.547 254.484 606.667 254.484H591.848V320.926H555.057Z" fill="white"/>
<path d="M807.006 324.574C794.743 324.574 783.756 322.664 774.047 318.842C764.338 314.847 755.992 309.115 749.008 301.645C742.195 294.002 736.915 284.709 733.167 273.766C729.59 262.648 727.802 249.968 727.802 235.724C727.802 215.401 731.294 198.638 738.277 185.436C745.261 172.061 754.8 162.073 766.893 155.472C779.157 148.698 792.954 145.311 808.284 145.311C820.207 145.311 831.023 147.308 840.732 151.303C850.441 155.125 858.702 160.857 865.516 168.5C872.499 175.97 877.865 185.35 881.612 196.64C885.359 207.758 887.233 220.525 887.233 234.942C887.233 249.707 885.359 262.648 881.612 273.766C877.865 284.883 872.414 294.263 865.26 301.906C858.277 309.375 849.845 315.021 839.966 318.842C830.087 322.664 819.1 324.574 807.006 324.574ZM808.028 294.61C817.056 294.61 824.636 292.352 830.768 287.836C836.9 283.319 841.584 276.805 844.82 268.294C848.057 259.782 849.675 249.36 849.675 237.027C849.675 224.173 847.971 213.229 844.565 204.197C841.329 195.164 836.559 188.303 830.257 183.613C823.955 178.749 816.29 176.317 807.262 176.317C798.405 176.317 790.825 178.662 784.523 183.352C778.391 187.868 773.621 194.469 770.215 203.154C766.978 211.84 765.36 222.609 765.36 235.464C765.36 244.844 766.297 253.268 768.171 260.738C770.215 268.033 773.025 274.2 776.602 279.237C780.179 284.275 784.608 288.096 789.888 290.702C795.168 293.307 801.215 294.61 808.028 294.61Z" fill="white"/>
<path d="M925.476 320.926V148.958H973.51L1049.9 270.639H1052.71L1050.42 148.958H1086.18V320.926H1042.75L962.012 193.514H959.202L961.501 320.926H925.476Z" fill="white"/>
<path d="M1135.85 320.926V148.958H1173.41V320.926H1135.85Z" fill="white"/>
<path d="M579.747 426.787C575.69 426.787 572.125 426.357 569.052 425.496C566.041 424.636 563.49 423.376 561.4 421.716C559.372 419.996 557.866 417.906 556.883 415.447C555.899 412.989 555.469 410.131 555.592 406.873L563.244 405.214C562.998 408.41 563.521 411.084 564.811 413.235C566.102 415.386 568.069 417.015 570.712 418.121C573.355 419.166 576.458 419.688 580.023 419.688C583.465 419.688 586.384 419.258 588.781 418.397C591.179 417.537 592.961 416.339 594.129 414.802C595.358 413.265 595.973 411.514 595.973 409.547C595.973 407.334 595.266 405.583 593.852 404.292C592.438 403.001 590.533 402.018 588.136 401.342C585.801 400.604 583.188 399.928 580.3 399.314C577.473 398.699 574.645 397.992 571.818 397.193C568.991 396.394 566.44 395.38 564.166 394.151C561.953 392.86 560.14 391.201 558.727 389.172C557.374 387.083 556.698 384.44 556.698 381.244C556.698 377.618 557.59 374.483 559.372 371.84C561.216 369.197 563.797 367.169 567.116 365.755C570.435 364.28 574.338 363.543 578.825 363.543C583.25 363.543 587.183 364.25 590.625 365.663C594.129 367.077 596.894 369.167 598.923 371.932C600.951 374.637 602.027 377.986 602.149 381.981L594.221 383.917C594.221 381.705 593.821 379.769 593.022 378.109C592.285 376.388 591.24 375.005 589.888 373.961C588.536 372.854 586.907 372.025 585.002 371.471C583.096 370.857 581.007 370.549 578.732 370.549C575.967 370.549 573.539 370.98 571.449 371.84C569.36 372.701 567.731 373.868 566.563 375.343C565.395 376.819 564.811 378.57 564.811 380.598C564.811 382.995 565.641 384.901 567.301 386.314C569.022 387.667 571.234 388.742 573.938 389.541C576.643 390.34 579.531 391.078 582.605 391.754C585.247 392.307 587.829 392.983 590.349 393.782C592.93 394.52 595.266 395.534 597.355 396.824C599.445 398.054 601.105 399.682 602.334 401.711C603.563 403.739 604.178 406.32 604.178 409.455C604.178 412.958 603.256 416 601.412 418.582C599.63 421.163 596.925 423.191 593.299 424.667C589.673 426.08 585.155 426.787 579.747 426.787Z" fill="white"/>
<path d="M713.525 425.589V364.741H722.007V425.589H713.525ZM694.994 372.117V364.741H740.537V372.117H694.994Z" fill="white"/>
<path d="M858.134 426.787C853.709 426.787 849.806 426.049 846.426 424.574C843.107 423.099 840.28 420.979 837.944 418.213C835.67 415.447 833.949 412.159 832.781 408.348C831.613 404.476 831.03 400.143 831.03 395.349C831.03 388.343 832.197 382.504 834.533 377.833C836.868 373.1 840.095 369.535 844.213 367.138C848.331 364.741 853.002 363.543 858.226 363.543C862.344 363.543 866.063 364.25 869.382 365.663C872.701 367.077 875.528 369.167 877.863 371.932C880.26 374.698 882.104 378.078 883.395 382.074C884.686 386.007 885.331 390.494 885.331 395.534C885.331 400.266 884.716 404.569 883.487 408.441C882.319 412.251 880.568 415.54 878.232 418.305C875.958 421.01 873.131 423.099 869.751 424.574C866.432 426.049 862.559 426.787 858.134 426.787ZM858.226 419.504C862.16 419.504 865.479 418.582 868.183 416.738C870.949 414.833 873.039 412.128 874.452 408.625C875.927 405.06 876.665 400.758 876.665 395.718C876.665 390.494 875.927 386.069 874.452 382.442C872.977 378.755 870.857 375.927 868.091 373.961C865.325 371.994 861.976 371.01 858.042 371.01C854.293 371.01 851.035 371.963 848.27 373.868C845.504 375.774 843.383 378.539 841.908 382.166C840.433 385.792 839.696 390.248 839.696 395.534C839.696 399.344 840.095 402.755 840.894 405.767C841.755 408.717 842.953 411.237 844.49 413.327C846.088 415.355 848.024 416.892 850.298 417.937C852.633 418.981 855.276 419.504 858.226 419.504Z" fill="white"/>
<path d="M983.783 425.589V364.741H1004.99C1008.06 364.741 1010.86 364.987 1013.38 365.479C1015.96 365.971 1018.23 366.708 1020.2 367.691C1022.23 368.675 1023.92 369.873 1025.27 371.287C1026.68 372.701 1027.73 374.36 1028.4 376.265C1029.14 378.109 1029.51 380.168 1029.51 382.442C1029.51 384.593 1029.17 386.56 1028.5 388.343C1027.88 390.125 1026.93 391.692 1025.64 393.044C1024.35 394.397 1022.75 395.503 1020.84 396.363C1018.94 397.162 1016.73 397.716 1014.21 398.023V399.221C1016.42 399.467 1018.36 400.051 1020.01 400.973C1021.67 401.895 1023.09 403.247 1024.26 405.03C1025.42 406.75 1026.44 409.055 1027.3 411.944L1031.17 425.589H1022.04L1018.91 413.142C1018.36 410.623 1017.4 408.594 1016.05 407.058C1014.76 405.521 1013.13 404.384 1011.16 403.647C1009.2 402.909 1006.89 402.54 1004.25 402.54H992.265V425.589H983.783ZM992.265 395.626H1004.25C1009.72 395.626 1013.84 394.642 1016.6 392.676C1019.43 390.709 1020.84 387.697 1020.84 383.641C1020.84 379.584 1019.49 376.603 1016.79 374.698C1014.15 372.731 1010.03 371.748 1004.43 371.748H992.265V395.626Z" fill="white"/>
<path d="M1141.87 425.589V405.951L1120.57 364.741H1130.44L1145.92 397.654H1146.39L1161.78 364.741H1171.65L1150.35 405.859V425.589H1141.87Z" fill="white"/>
<g clip-path="url(#clip0_4086_444)">
<path d="M491 277C491 182.559 414.441 106 320 106C225.559 106 149 182.559 149 277C149 371.441 225.559 448 320 448C414.441 448 491 371.441 491 277Z" fill="#11DE7A"/>
<mask id="mask0_4086_444" style="mask-type:alpha" maskUnits="userSpaceOnUse" x="159" y="113" width="324" height="325">
<path d="M482.388 275.474C482.388 186.185 410.005 113.802 320.716 113.802C231.426 113.802 159.043 186.185 159.043 275.474C159.043 364.764 231.426 437.147 320.716 437.147C410.005 437.147 482.388 364.764 482.388 275.474Z" fill="#6F60F1"/>
</mask>
<g mask="url(#mask0_4086_444)">
<path d="M357.75 156.899C358.972 156.705 360.221 157.003 361.222 157.729C362.223 158.456 362.895 159.55 363.089 160.771C363.373 162.553 363.478 164.323 363.42 166.062C363.414 166.241 363.398 166.42 363.372 166.598C363.076 168.573 362.544 170.542 361.797 172.424C362.763 172.243 363.77 172.369 364.672 172.801C396.663 188.121 418.546 220.25 421.577 255.542C422.848 270.344 431.935 341.522 418.38 400.857C412.558 426.343 401.333 465.702 391.305 498.253C390.649 500.381 388.58 501.748 386.365 501.518L186.698 480.718C185.327 480.575 184.09 479.834 183.318 478.692C182.546 477.551 182.318 476.126 182.696 474.801L210.956 375.66C217.759 351.792 221.199 327.104 221.167 302.38L221.125 269.094C221.056 214.094 262.551 167.846 315.165 163.68L357.75 156.899Z" fill="white" stroke="#074225" stroke-width="9.32727" stroke-linejoin="round"/>
<path d="M364.824 307.1C364.749 302.574 360.664 299.174 356.199 299.922L347.498 301.379C336.615 303.202 325.521 303.386 314.583 301.924L305.839 300.755C301.352 300.156 297.382 303.689 297.457 308.216C297.517 311.878 300.247 314.945 303.878 315.431L312.311 316.558C324.919 318.243 337.708 318.031 350.254 315.93L358.645 314.524C362.257 313.919 364.884 310.763 364.824 307.1Z" fill="#FFC123"/>
<path d="M306.149 298.444C300.248 297.655 295.027 302.301 295.126 308.254C295.206 313.07 298.795 317.104 303.569 317.742L312.001 318.869C324.84 320.585 337.864 320.369 350.639 318.229L359.03 316.823C363.78 316.028 367.235 311.877 367.155 307.061C367.056 301.108 361.685 296.638 355.813 297.622L347.113 299.079C336.46 300.864 325.599 301.043 314.893 299.612L306.149 298.444ZM299.789 308.177C299.737 305.076 302.456 302.656 305.53 303.067L314.274 304.235C325.442 305.728 336.771 305.54 347.883 303.679L356.584 302.221C359.643 301.709 362.441 304.038 362.492 307.139C362.534 309.648 360.734 311.81 358.26 312.224L349.869 313.629C337.553 315.692 324.998 315.9 312.62 314.246L304.187 313.119C301.7 312.786 299.83 310.685 299.789 308.177Z" fill="#074225"/>
<path d="M380.236 290.941C380.125 284.261 374.205 279.177 367.585 280.077L352.745 282.094C338.612 284.015 324.3 284.252 310.111 282.8L295.212 281.275C288.566 280.595 282.817 285.872 282.928 292.552C283.022 298.2 287.323 302.885 292.942 303.46L307.842 304.985C323.786 306.617 339.866 306.351 355.747 304.192L370.589 302.175C376.185 301.414 380.329 296.589 380.236 290.941Z" fill="#FFC123"/>
<path d="M295.45 278.956C287.414 278.133 280.463 284.514 280.596 292.591C280.71 299.419 285.91 305.085 292.704 305.781L307.605 307.306C323.732 308.956 339.998 308.687 356.061 306.503L370.903 304.487C377.67 303.567 382.68 297.731 382.567 290.903C382.433 282.826 375.275 276.679 367.271 277.766L352.432 279.784C338.481 281.68 324.354 281.914 310.348 280.481L295.45 278.956ZM285.259 292.514C285.172 287.231 289.718 283.057 294.975 283.595L309.873 285.12C324.246 286.592 338.744 286.351 353.06 284.405L367.899 282.388C373.135 281.677 377.817 285.697 377.904 290.98C377.978 295.446 374.701 299.263 370.275 299.865L355.433 301.883C339.735 304.016 323.839 304.279 308.08 302.666L293.18 301.141C288.736 300.686 285.333 296.98 285.259 292.514Z" fill="#074225"/>
<ellipse cx="10.2936" cy="12.0491" rx="10.2936" ry="12.0491" transform="matrix(-0.999863 0.0165516 0.0165516 0.999863 303.513 238.372)" fill="#074225"/>
<path fill-rule="evenodd" clip-rule="evenodd" d="M375.02 237.989C373.451 236.447 370.928 236.469 369.386 238.038C369.423 238 369.414 238.007 369.335 238.068C369.225 238.152 368.978 238.342 368.53 238.659C367.884 239.118 367.03 239.699 366.035 240.364C364.75 241.224 363.291 242.183 361.815 243.153C360.997 243.69 360.174 244.231 359.373 244.761C354.957 247.677 356.284 254.324 361.311 255.496L373.866 258.422C376.009 258.922 378.151 257.59 378.651 255.447C379.15 253.304 377.818 251.162 375.675 250.662L367.719 248.807C368.68 248.175 369.615 247.557 370.465 246.988C371.477 246.311 372.404 245.681 373.142 245.158C373.756 244.722 374.565 244.137 375.069 243.624C376.612 242.054 376.59 239.532 375.02 237.989Z" fill="#074225"/>
<circle cx="294.23" cy="253.564" r="27.9818" transform="rotate(-1.95751 294.23 253.564)" fill="#074225"/>
<circle cx="370.358" cy="250.964" r="27.9818" transform="rotate(-1.95751 370.358 250.964)" fill="#074225"/>
<rect x="316.651" y="249.689" width="31.0909" height="6.21818" rx="3.10909" transform="rotate(-1.95751 316.651 249.689)" fill="#074225"/>
<rect x="288.292" y="261.899" width="25.9462" height="4.66364" rx="2.33182" transform="rotate(-46.9575 288.292 261.899)" fill="white"/>
<rect x="365.198" y="259.272" width="27.9818" height="4.66364" rx="2.33182" transform="rotate(-46.9575 365.198 259.272)" fill="white"/>
<rect x="282.525" y="252.386" width="18.6545" height="5.19558" rx="2.59779" transform="rotate(-46.9575 282.525 252.386)" fill="white"/>
<rect x="359.428" y="249.758" width="18.6545" height="5.19558" rx="2.59779" transform="rotate(-46.9575 359.428 249.758)" fill="white"/>
</g>
<path d="M302.613 113.138C393.111 103.536 474.259 169.115 483.861 259.613C493.463 350.112 427.884 431.259 337.385 440.861C246.887 450.463 165.74 384.884 156.137 294.386C146.535 203.887 212.115 122.74 302.613 113.138Z" stroke="#074225" stroke-width="12.4364"/>
</g>
<defs>
<clipPath id="clip0_4086_444">
<rect width="342" height="342" fill="white" transform="matrix(-1 0 0 1 491 106)"/>
</clipPath>
</defs>
</svg>
