<svg width="1000" height="1000" viewBox="0 0 1000 1000" fill="none" xmlns="http://www.w3.org/2000/svg">
<g clip-path="url(#clip0_651_403)">
<rect width="1000" height="1000" rx="128" fill="#1DE885"/>
<path fill-rule="evenodd" clip-rule="evenodd" d="M549.013 295.382C553.406 296.536 556.468 300.506 556.468 305.047V354.714L495.391 381.433C490.212 383.698 486.866 388.815 486.866 394.467L486.866 608.103C486.866 613.756 490.212 618.872 495.391 621.138L556.468 647.857V669.645C556.468 673.874 553.806 677.645 549.821 679.061L294.321 769.838C287.816 772.149 280.982 767.325 280.982 760.421L280.983 237.952C280.983 231.402 287.178 226.623 293.514 228.287L549.013 295.382ZM581.451 658.786V676.699C581.451 687.272 574.795 696.701 564.832 700.24L289.346 798.117C273.083 803.895 256 791.835 256 774.577V224.996C256 208.621 271.49 196.673 287.328 200.833L562.814 273.177C573.795 276.06 581.451 285.986 581.451 297.34V343.785L556.468 354.714L556.468 647.857L581.451 658.786ZM581.451 658.786L723.229 720.809C732.629 724.921 743.158 718.034 743.158 707.774L743.158 294.796C743.158 284.536 732.629 277.65 723.229 281.762L581.451 343.785V658.786Z" fill="#151823"/>
</g>
<defs>
<clipPath id="clip0_651_403">
<rect width="1000" height="1000" fill="white"/>
</clipPath>
</defs>
</svg>
